{
  "title" : "",
  "description" : "",
  "author" : "",
  "targetLoudness" : -18.0,
  "shouldApplyLoudnessNormalization" : true,
  "videoFormatFrameRate" : 30,
  "audioFormatSampleRate" : 44100,
  "width" : 1280.0,
  "height" : 720.0,
  "version" : "5.0",
  "editRate" : 30,
  "authoringClientName" :  {
    "name" : "Camtasia",
    "platform" : "Mac",
    "version" : "2021.0.8"
  },
  "sourceBin" : [
    {
      "id" : 1,
      "src" : "./media/1645721304.697153/Intro.mp4",
      "rect" : [0, 0, 1152, 720],
      "lastMod" : "20210817T161737",
      "loudnessNormalization" : true,
      "sourceTracks" : [
        {
          "range" : [0, 270000],
          "type" : 0,
          "editRate" : 90000,
          "trackRect" : [0, 0, 1152, 720],
          "sampleRate" : 30,
          "bitDepth" : 0,
          "numChannels" : 0,
          "integratedLUFS" : 100.0,
          "peakLevel" : -1.0,
          "metaData" : ""
        },
        {
          "range" : [0, 270000],
          "type" : 2,
          "editRate" : 90000,
          "trackRect" : [0, 0, 0, 0],
          "sampleRate" : 44100,
          "bitDepth" : 0,
          "numChannels" : 2,
          "integratedLUFS" : -22.9559616230136,
          "peakLevel" : 1.02874565124512,
          "metaData" : ""
        }
      ],
      "metadata" : {
        "timeAdded" : "20220224T164348.042977"
      }
    },
    {
      "id" : 2,
      "src" : "./media/1645721304.698424/16 - talkingHead.mp4",
      "rect" : [0, 0, 474, 400],
      "lastMod" : "20220224T001629",
      "loudnessNormalization" : true,
      "sourceTracks" : [
        {
          "range" : [0, 16468410],
          "type" : 0,
          "editRate" : 44100,
          "trackRect" : [0, 0, 474, 400],
          "sampleRate" : 30,
          "bitDepth" : 0,
          "numChannels" : 0,
          "integratedLUFS" : 100.0,
          "peakLevel" : -1.0,
          "metaData" : ""
        },
        {
          "range" : [0, 16468410],
          "type" : 2,
          "editRate" : 44100,
          "trackRect" : [0, 0, 0, 0],
          "sampleRate" : 44100,
          "bitDepth" : 0,
          "numChannels" : 2,
          "integratedLUFS" : -18.0030048074794,
          "peakLevel" : 0.820530951023102,
          "metaData" : ""
        }
      ],
      "metadata" : {
        "timeAdded" : "20220224T164435.743646"
      }
    },
    {
      "id" : 3,
      "src" : "./media/SzzlWP1z/Pasted Image.pdf",
      "rect" : [0, 0, 960, 540],
      "lastMod" : "20220224T164550",
      "loudnessNormalization" : true,
      "sourceTracks" : [
        {
          "range" : [0, 1],
          "type" : 1,
          "editRate" : 600,
          "trackRect" : [0, 0, 960, 540],
          "sampleRate" : 0,
          "bitDepth" : 0,
          "numChannels" : 0,
          "integratedLUFS" : 100.0,
          "peakLevel" : -1.0,
          "metaData" : ""
        }
      ],
      "metadata" : {
        "timeAdded" : "20220224T164550.712479"
      }
    },
    {
      "id" : 4,
      "src" : "./media/ByGzB9pS/Pasted Image.tiff",
      "rect" : [0, 0, 1280, 720],
      "lastMod" : "20220224T165559",
      "loudnessNormalization" : true,
      "sourceTracks" : [
        {
          "range" : [0, 1],
          "type" : 1,
          "editRate" : 600,
          "trackRect" : [0, 0, 1280, 720],
          "sampleRate" : 0,
          "bitDepth" : 0,
          "numChannels" : 0,
          "integratedLUFS" : 100.0,
          "peakLevel" : -1.0,
          "metaData" : ""
        }
      ],
      "metadata" : {
        "timeAdded" : "20220224T165559.819928"
      }
    },
    {
      "id" : 5,
      "src" : "./media/Lf6koda1/Pasted Image.pdf",
      "rect" : [0, 0, 810, 540],
      "lastMod" : "20220224T165644",
      "loudnessNormalization" : true,
      "sourceTracks" : [
        {
          "range" : [0, 1],
          "type" : 1,
          "editRate" : 600,
          "trackRect" : [0, 0, 810, 540],
          "sampleRate" : 0,
          "bitDepth" : 0,
          "numChannels" : 0,
          "integratedLUFS" : 100.0,
          "peakLevel" : -1.0,
          "metaData" : ""
        }
      ],
      "metadata" : {
        "timeAdded" : "20220224T165644.103938"
      }
    },
    {
      "id" : 6,
      "src" : "./media/99ce9Y4c/Pasted Image.pdf",
      "rect" : [0, 0, 252, 22],
      "lastMod" : "20220224T205133",
      "loudnessNormalization" : true,
      "sourceTracks" : [
        {
          "range" : [0, 1],
          "type" : 1,
          "editRate" : 600,
          "trackRect" : [0, 0, 252, 22],
          "sampleRate" : 0,
          "bitDepth" : 0,
          "numChannels" : 0,
          "integratedLUFS" : 100.0,
          "peakLevel" : -1.0,
          "metaData" : ""
        }
      ],
      "metadata" : {
        "timeAdded" : "20220224T205133.809820"
      }
    },
    {
      "id" : 7,
      "src" : "./media/yLN2Nh5Z/Pasted Image.pdf",
      "rect" : [0, 0, 252, 24],
      "lastMod" : "20220224T205140",
      "loudnessNormalization" : true,
      "sourceTracks" : [
        {
          "range" : [0, 1],
          "type" : 1,
          "editRate" : 600,
          "trackRect" : [0, 0, 252, 24],
          "sampleRate" : 0,
          "bitDepth" : 0,
          "numChannels" : 0,
          "integratedLUFS" : 100.0,
          "peakLevel" : -1.0,
          "metaData" : ""
        }
      ],
      "metadata" : {
        "timeAdded" : "20220224T205140.371437"
      }
    },
    {
      "id" : 8,
      "src" : "./media/3k3koV5E/Pasted Image.pdf",
      "rect" : [0, 0, 252, 24],
      "lastMod" : "20220224T205212",
      "loudnessNormalization" : true,
      "sourceTracks" : [
        {
          "range" : [0, 1],
          "type" : 1,
          "editRate" : 600,
          "trackRect" : [0, 0, 252, 24],
          "sampleRate" : 0,
          "bitDepth" : 0,
          "numChannels" : 0,
          "integratedLUFS" : 100.0,
          "peakLevel" : -1.0,
          "metaData" : ""
        }
      ],
      "metadata" : {
        "timeAdded" : "20220224T205212.696659"
      }
    },
    {
      "id" : 9,
      "src" : "./media/hDyec86d/Pasted Image.pdf",
      "rect" : [0, 0, 252, 23],
      "lastMod" : "20220224T205233",
      "loudnessNormalization" : true,
      "sourceTracks" : [
        {
          "range" : [0, 1],
          "type" : 1,
          "editRate" : 600,
          "trackRect" : [0, 0, 252, 23],
          "sampleRate" : 0,
          "bitDepth" : 0,
          "numChannels" : 0,
          "integratedLUFS" : 100.0,
          "peakLevel" : -1.0,
          "metaData" : ""
        }
      ],
      "metadata" : {
        "timeAdded" : "20220224T205233.052613"
      }
    },
    {
      "id" : 10,
      "src" : "./media/DEnR6yAs/Pasted Image.pdf",
      "rect" : [0, 0, 252, 25],
      "lastMod" : "20220224T205254",
      "loudnessNormalization" : true,
      "sourceTracks" : [
        {
          "range" : [0, 1],
          "type" : 1,
          "editRate" : 600,
          "trackRect" : [0, 0, 252, 25],
          "sampleRate" : 0,
          "bitDepth" : 0,
          "numChannels" : 0,
          "integratedLUFS" : 100.0,
          "peakLevel" : -1.0,
          "metaData" : ""
        }
      ],
      "metadata" : {
        "timeAdded" : "20220224T205254.235122"
      }
    },
    {
      "id" : 11,
      "src" : "./media/WlSd96Jh/Pasted Image.pdf",
      "rect" : [0, 0, 253, 23],
      "lastMod" : "20220224T205440",
      "loudnessNormalization" : true,
      "sourceTracks" : [
        {
          "range" : [0, 1],
          "type" : 1,
          "editRate" : 600,
          "trackRect" : [0, 0, 253, 23],
          "sampleRate" : 0,
          "bitDepth" : 0,
          "numChannels" : 0,
          "integratedLUFS" : 100.0,
          "peakLevel" : -1.0,
          "metaData" : ""
        }
      ],
      "metadata" : {
        "timeAdded" : "20220224T205440.163628"
      }
    },
    {
      "id" : 12,
      "src" : "./media/gjFxkJWT/Pasted Image.pdf",
      "rect" : [0, 0, 253, 24],
      "lastMod" : "20220224T205456",
      "loudnessNormalization" : true,
      "sourceTracks" : [
        {
          "range" : [0, 1],
          "type" : 1,
          "editRate" : 600,
          "trackRect" : [0, 0, 253, 24],
          "sampleRate" : 0,
          "bitDepth" : 0,
          "numChannels" : 0,
          "integratedLUFS" : 100.0,
          "peakLevel" : -1.0,
          "metaData" : ""
        }
      ],
      "metadata" : {
        "timeAdded" : "20220224T205456.325620"
      }
    },
    {
      "id" : 13,
      "src" : "./media/WZRkFpT5/Pasted Image.pdf",
      "rect" : [0, 0, 252, 22],
      "lastMod" : "20220224T205514",
      "loudnessNormalization" : true,
      "sourceTracks" : [
        {
          "range" : [0, 1],
          "type" : 1,
          "editRate" : 600,
          "trackRect" : [0, 0, 252, 22],
          "sampleRate" : 0,
          "bitDepth" : 0,
          "numChannels" : 0,
          "integratedLUFS" : 100.0,
          "peakLevel" : -1.0,
          "metaData" : ""
        }
      ],
      "metadata" : {
        "timeAdded" : "20220224T205514.490396"
      }
    },
    {
      "id" : 14,
      "src" : "./media/Y67T6pTy/Pasted Image.pdf",
      "rect" : [0, 0, 252, 23],
      "lastMod" : "20220224T205527",
      "loudnessNormalization" : true,
      "sourceTracks" : [
        {
          "range" : [0, 1],
          "type" : 1,
          "editRate" : 600,
          "trackRect" : [0, 0, 252, 23],
          "sampleRate" : 0,
          "bitDepth" : 0,
          "numChannels" : 0,
          "integratedLUFS" : 100.0,
          "peakLevel" : -1.0,
          "metaData" : ""
        }
      ],
      "metadata" : {
        "timeAdded" : "20220224T205527.186878"
      }
    },
    {
      "id" : 15,
      "src" : "./media/lLcZ3irL/Pasted Image.pdf",
      "rect" : [0, 0, 253, 23],
      "lastMod" : "20220224T205541",
      "loudnessNormalization" : true,
      "sourceTracks" : [
        {
          "range" : [0, 1],
          "type" : 1,
          "editRate" : 600,
          "trackRect" : [0, 0, 253, 23],
          "sampleRate" : 0,
          "bitDepth" : 0,
          "numChannels" : 0,
          "integratedLUFS" : 100.0,
          "peakLevel" : -1.0,
          "metaData" : ""
        }
      ],
      "metadata" : {
        "timeAdded" : "20220224T205541.704510"
      }
    },
    {
      "id" : 16,
      "src" : "./media/ws5JXjaq/Pasted Image.pdf",
      "rect" : [0, 0, 648, 31],
      "lastMod" : "20220224T205819",
      "loudnessNormalization" : true,
      "sourceTracks" : [
        {
          "range" : [0, 1],
          "type" : 1,
          "editRate" : 600,
          "trackRect" : [0, 0, 648, 31],
          "sampleRate" : 0,
          "bitDepth" : 0,
          "numChannels" : 0,
          "integratedLUFS" : 100.0,
          "peakLevel" : -1.0,
          "metaData" : ""
        }
      ],
      "metadata" : {
        "timeAdded" : "20220224T205819.085247"
      }
    },
    {
      "id" : 17,
      "src" : "./media/H7HFxWUT/Pasted Image.pdf",
      "rect" : [0, 0, 103, 67],
      "lastMod" : "20220224T205923",
      "loudnessNormalization" : true,
      "sourceTracks" : [
        {
          "range" : [0, 1],
          "type" : 1,
          "editRate" : 600,
          "trackRect" : [0, 0, 103, 67],
          "sampleRate" : 0,
          "bitDepth" : 0,
          "numChannels" : 0,
          "integratedLUFS" : 100.0,
          "peakLevel" : -1.0,
          "metaData" : ""
        }
      ],
      "metadata" : {
        "timeAdded" : "20220224T205923.831744"
      }
    },
    {
      "id" : 18,
      "src" : "./media/COWT3QXn/Pasted Image.pdf",
      "rect" : [0, 0, 591, 59],
      "lastMod" : "20220224T210923",
      "loudnessNormalization" : true,
      "sourceTracks" : [
        {
          "range" : [0, 1],
          "type" : 1,
          "editRate" : 600,
          "trackRect" : [0, 0, 591, 59],
          "sampleRate" : 0,
          "bitDepth" : 0,
          "numChannels" : 0,
          "integratedLUFS" : 100.0,
          "peakLevel" : -1.0,
          "metaData" : ""
        }
      ],
      "metadata" : {
        "timeAdded" : "20220224T210923.758435"
      }
    },
    {
      "id" : 19,
      "src" : "./media/YEG1WeBR/Pasted Image.pdf",
      "rect" : [0, 0, 300, 59],
      "lastMod" : "20220224T210955",
      "loudnessNormalization" : true,
      "sourceTracks" : [
        {
          "range" : [0, 1],
          "type" : 1,
          "editRate" : 600,
          "trackRect" : [0, 0, 300, 59],
          "sampleRate" : 0,
          "bitDepth" : 0,
          "numChannels" : 0,
          "integratedLUFS" : 100.0,
          "peakLevel" : -1.0,
          "metaData" : ""
        }
      ],
      "metadata" : {
        "timeAdded" : "20220224T210955.400836"
      }
    },
    {
      "id" : 20,
      "src" : "./media/vspc6tCl/Pasted Image.pdf",
      "rect" : [0, 0, 299, 93],
      "lastMod" : "20220224T211158",
      "loudnessNormalization" : true,
      "sourceTracks" : [
        {
          "range" : [0, 1],
          "type" : 1,
          "editRate" : 600,
          "trackRect" : [0, 0, 299, 93],
          "sampleRate" : 0,
          "bitDepth" : 0,
          "numChannels" : 0,
          "integratedLUFS" : 100.0,
          "peakLevel" : -1.0,
          "metaData" : ""
        }
      ],
      "metadata" : {
        "timeAdded" : "20220224T211158.050501"
      }
    },
    {
      "id" : 21,
      "src" : "./media/oMzPiLND/Pasted Image.pdf",
      "rect" : [0, 0, 591, 93],
      "lastMod" : "20220224T211222",
      "loudnessNormalization" : true,
      "sourceTracks" : [
        {
          "range" : [0, 1],
          "type" : 1,
          "editRate" : 600,
          "trackRect" : [0, 0, 591, 93],
          "sampleRate" : 0,
          "bitDepth" : 0,
          "numChannels" : 0,
          "integratedLUFS" : 100.0,
          "peakLevel" : -1.0,
          "metaData" : ""
        }
      ],
      "metadata" : {
        "timeAdded" : "20220224T211222.802842"
      }
    },
    {
      "id" : 22,
      "src" : "./media/25qKoHTa/Pasted Image.pdf",
      "rect" : [0, 0, 281, 104],
      "lastMod" : "20220224T211459",
      "loudnessNormalization" : true,
      "sourceTracks" : [
        {
          "range" : [0, 1],
          "type" : 1,
          "editRate" : 600,
          "trackRect" : [0, 0, 281, 104],
          "sampleRate" : 0,
          "bitDepth" : 0,
          "numChannels" : 0,
          "integratedLUFS" : 100.0,
          "peakLevel" : -1.0,
          "metaData" : ""
        }
      ],
      "metadata" : {
        "timeAdded" : "20220224T211459.217692"
      }
    },
    {
      "id" : 23,
      "src" : "./media/57zKezJk/Pasted Image.tiff",
      "rect" : [0, 0, 1570, 90],
      "lastMod" : "20220224T212449",
      "loudnessNormalization" : true,
      "sourceTracks" : [
        {
          "range" : [0, 1],
          "type" : 1,
          "editRate" : 600,
          "trackRect" : [0, 0, 1570, 90],
          "sampleRate" : 0,
          "bitDepth" : 0,
          "numChannels" : 0,
          "integratedLUFS" : 100.0,
          "peakLevel" : -1.0,
          "metaData" : ""
        }
      ],
      "metadata" : {
        "timeAdded" : "20220224T212449.178858"
      }
    },
    {
      "id" : 24,
      "src" : "./media/1645739012.268025/14 - Rollup Exercise Script 2.mp4",
      "rect" : [0, 0, 1280, 720],
      "lastMod" : "20220215T180304",
      "loudnessNormalization" : true,
      "sourceTracks" : [
        {
          "range" : [0, 9513840],
          "type" : 0,
          "editRate" : 44100,
          "trackRect" : [0, 0, 1280, 720],
          "sampleRate" : 30,
          "bitDepth" : 0,
          "numChannels" : 0,
          "integratedLUFS" : 100.0,
          "peakLevel" : -1.0,
          "metaData" : ""
        },
        {
          "range" : [0, 9513840],
          "type" : 2,
          "editRate" : 44100,
          "trackRect" : [0, 0, 0, 0],
          "sampleRate" : 44100,
          "bitDepth" : 0,
          "numChannels" : 2,
          "integratedLUFS" : -18.0717261762475,
          "peakLevel" : 0.836761116981506,
          "metaData" : ""
        }
      ],
      "metadata" : {
        "timeAdded" : "20220224T214304.386795"
      }
    },
    {
      "id" : 25,
      "src" : "./media/z5yJunnK/Pasted Image.pdf",
      "rect" : [0, 0, 152, 81],
      "lastMod" : "20220224T231759",
      "loudnessNormalization" : true,
      "sourceTracks" : [
        {
          "range" : [0, 1],
          "type" : 1,
          "editRate" : 600,
          "trackRect" : [0, 0, 152, 81],
          "sampleRate" : 0,
          "bitDepth" : 0,
          "numChannels" : 0,
          "integratedLUFS" : 100.0,
          "peakLevel" : -1.0,
          "metaData" : ""
        }
      ],
      "metadata" : {
        "timeAdded" : "20220224T231759.815627"
      }
    },
    {
      "id" : 26,
      "src" : "./media/JgflDzdH/Pasted Image.pdf",
      "rect" : [0, 0, 902, 51],
      "lastMod" : "20220224T232230",
      "loudnessNormalization" : true,
      "sourceTracks" : [
        {
          "range" : [0, 1],
          "type" : 1,
          "editRate" : 600,
          "trackRect" : [0, 0, 902, 51],
          "sampleRate" : 0,
          "bitDepth" : 0,
          "numChannels" : 0,
          "integratedLUFS" : 100.0,
          "peakLevel" : -1.0,
          "metaData" : ""
        }
      ],
      "metadata" : {
        "timeAdded" : "20220224T232230.311094"
      }
    },
    {
      "id" : 27,
      "src" : "./media/9KjAVdJ0/Pasted Image.pdf",
      "rect" : [0, 0, 177, 50],
      "lastMod" : "20220224T232349",
      "loudnessNormalization" : true,
      "sourceTracks" : [
        {
          "range" : [0, 1],
          "type" : 1,
          "editRate" : 600,
          "trackRect" : [0, 0, 177, 50],
          "sampleRate" : 0,
          "bitDepth" : 0,
          "numChannels" : 0,
          "integratedLUFS" : 100.0,
          "peakLevel" : -1.0,
          "metaData" : ""
        }
      ],
      "metadata" : {
        "timeAdded" : "20220224T232349.358237"
      }
    },
    {
      "id" : 28,
      "src" : "./media/LZlG0jkM/Pasted Image.pdf",
      "rect" : [0, 0, 404, 201],
      "lastMod" : "20220225T002733",
      "loudnessNormalization" : true,
      "sourceTracks" : [
        {
          "range" : [0, 1],
          "type" : 1,
          "editRate" : 600,
          "trackRect" : [0, 0, 404, 201],
          "sampleRate" : 0,
          "bitDepth" : 0,
          "numChannels" : 0,
          "integratedLUFS" : 100.0,
          "peakLevel" : -1.0,
          "metaData" : ""
        }
      ],
      "metadata" : {
        "timeAdded" : "20220225T002733.736109"
      }
    },
    {
      "id" : 29,
      "src" : "./media/Kze9kX4s/Pasted Image.pdf",
      "rect" : [0, 0, 148, 201],
      "lastMod" : "20220225T002833",
      "loudnessNormalization" : true,
      "sourceTracks" : [
        {
          "range" : [0, 1],
          "type" : 1,
          "editRate" : 600,
          "trackRect" : [0, 0, 148, 201],
          "sampleRate" : 0,
          "bitDepth" : 0,
          "numChannels" : 0,
          "integratedLUFS" : 100.0,
          "peakLevel" : -1.0,
          "metaData" : ""
        }
      ],
      "metadata" : {
        "timeAdded" : "20220225T002833.979210"
      }
    },
    {
      "id" : 30,
      "src" : "./media/hCXHV7pG/Pasted Image.pdf",
      "rect" : [0, 0, 640, 201],
      "lastMod" : "20220225T002943",
      "loudnessNormalization" : true,
      "sourceTracks" : [
        {
          "range" : [0, 1],
          "type" : 1,
          "editRate" : 600,
          "trackRect" : [0, 0, 640, 201],
          "sampleRate" : 0,
          "bitDepth" : 0,
          "numChannels" : 0,
          "integratedLUFS" : 100.0,
          "peakLevel" : -1.0,
          "metaData" : ""
        }
      ],
      "metadata" : {
        "timeAdded" : "20220225T002943.327123"
      }
    },
    {
      "id" : 31,
      "src" : "./media/njutzrDx/Pasted Image.pdf",
      "rect" : [0, 0, 365, 352],
      "lastMod" : "20220225T004204",
      "loudnessNormalization" : true,
      "sourceTracks" : [
        {
          "range" : [0, 1],
          "type" : 1,
          "editRate" : 600,
          "trackRect" : [0, 0, 365, 352],
          "sampleRate" : 0,
          "bitDepth" : 0,
          "numChannels" : 0,
          "integratedLUFS" : 100.0,
          "peakLevel" : -1.0,
          "metaData" : ""
        }
      ],
      "metadata" : {
        "timeAdded" : "20220225T004204.309117"
      }
    },
    {
      "id" : 32,
      "src" : "./media/C6xZsRAp/Pasted Image.pdf",
      "rect" : [0, 0, 116, 160],
      "lastMod" : "20220225T004217",
      "loudnessNormalization" : true,
      "sourceTracks" : [
        {
          "range" : [0, 1],
          "type" : 1,
          "editRate" : 600,
          "trackRect" : [0, 0, 116, 160],
          "sampleRate" : 0,
          "bitDepth" : 0,
          "numChannels" : 0,
          "integratedLUFS" : 100.0,
          "peakLevel" : -1.0,
          "metaData" : ""
        }
      ],
      "metadata" : {
        "timeAdded" : "20220225T004217.809723"
      }
    },
    {
      "id" : 33,
      "src" : "./media/pDgcf9WP/Pasted Image.pdf",
      "rect" : [0, 0, 335, 540],
      "lastMod" : "20220225T005516",
      "loudnessNormalization" : true,
      "sourceTracks" : [
        {
          "range" : [0, 1],
          "type" : 1,
          "editRate" : 600,
          "trackRect" : [0, 0, 335, 540],
          "sampleRate" : 0,
          "bitDepth" : 0,
          "numChannels" : 0,
          "integratedLUFS" : 100.0,
          "peakLevel" : -1.0,
          "metaData" : ""
        }
      ],
      "metadata" : {
        "timeAdded" : "20220225T005516.088890"
      }
    },
    {
      "id" : 34,
      "src" : "./media/ZLXLIIoR/Pasted Image.pdf",
      "rect" : [0, 0, 358, 169],
      "lastMod" : "20220225T005632",
      "loudnessNormalization" : true,
      "sourceTracks" : [
        {
          "range" : [0, 1],
          "type" : 1,
          "editRate" : 600,
          "trackRect" : [0, 0, 358, 169],
          "sampleRate" : 0,
          "bitDepth" : 0,
          "numChannels" : 0,
          "integratedLUFS" : 100.0,
          "peakLevel" : -1.0,
          "metaData" : ""
        }
      ],
      "metadata" : {
        "timeAdded" : "20220225T005632.433899"
      }
    },
    {
      "id" : 35,
      "src" : "./media/DxCeQvVK/Pasted Image.pdf",
      "rect" : [0, 0, 576, 181],
      "lastMod" : "20220225T005956",
      "loudnessNormalization" : true,
      "sourceTracks" : [
        {
          "range" : [0, 1],
          "type" : 1,
          "editRate" : 600,
          "trackRect" : [0, 0, 576, 181],
          "sampleRate" : 0,
          "bitDepth" : 0,
          "numChannels" : 0,
          "integratedLUFS" : 100.0,
          "peakLevel" : -1.0,
          "metaData" : ""
        }
      ],
      "metadata" : {
        "timeAdded" : "20220225T005956.452372"
      }
    },
    {
      "id" : 36,
      "src" : "./media/LTCe2ZMh/Pasted Image.tiff",
      "rect" : [0, 0, 1010, 314],
      "lastMod" : "20220225T010102",
      "loudnessNormalization" : true,
      "sourceTracks" : [
        {
          "range" : [0, 1],
          "type" : 1,
          "editRate" : 600,
          "trackRect" : [0, 0, 1010, 314],
          "sampleRate" : 0,
          "bitDepth" : 0,
          "numChannels" : 0,
          "integratedLUFS" : 100.0,
          "peakLevel" : -1.0,
          "metaData" : ""
        }
      ],
      "metadata" : {
        "timeAdded" : "20220225T010102.238406"
      }
    },
    {
      "id" : 37,
      "src" : "./media/XmxXE1bi/Pasted Image.pdf",
      "rect" : [0, 0, 386, 547],
      "lastMod" : "20220225T025018",
      "loudnessNormalization" : true,
      "sourceTracks" : [
        {
          "range" : [0, 1],
          "type" : 1,
          "editRate" : 600,
          "trackRect" : [0, 0, 386, 547],
          "sampleRate" : 0,
          "bitDepth" : 0,
          "numChannels" : 0,
          "integratedLUFS" : 100.0,
          "peakLevel" : -1.0,
          "metaData" : ""
        }
      ],
      "metadata" : {
        "timeAdded" : "20220225T025018.522011"
      }
    },
    {
      "id" : 38,
      "src" : "./media/Q89cuGpR/Pasted Image.pdf",
      "rect" : [0, 0, 320, 113],
      "lastMod" : "20220225T025224",
      "loudnessNormalization" : true,
      "sourceTracks" : [
        {
          "range" : [0, 1],
          "type" : 1,
          "editRate" : 600,
          "trackRect" : [0, 0, 320, 113],
          "sampleRate" : 0,
          "bitDepth" : 0,
          "numChannels" : 0,
          "integratedLUFS" : 100.0,
          "peakLevel" : -1.0,
          "metaData" : ""
        }
      ],
      "metadata" : {
        "timeAdded" : "20220225T025224.130305"
      }
    },
    {
      "id" : 39,
      "src" : "./media/iJdck7Fa/Pasted Image.pdf",
      "rect" : [0, 0, 517, 329],
      "lastMod" : "20220225T030112",
      "loudnessNormalization" : true,
      "sourceTracks" : [
        {
          "range" : [0, 1],
          "type" : 1,
          "editRate" : 600,
          "trackRect" : [0, 0, 517, 329],
          "sampleRate" : 0,
          "bitDepth" : 0,
          "numChannels" : 0,
          "integratedLUFS" : 100.0,
          "peakLevel" : -1.0,
          "metaData" : ""
        }
      ],
      "metadata" : {
        "timeAdded" : "20220225T030112.477529"
      }
    },
    {
      "id" : 40,
      "src" : "./media/uX6zirKK/Pasted Image.pdf",
      "rect" : [0, 0, 519, 329],
      "lastMod" : "20220225T030332",
      "loudnessNormalization" : true,
      "sourceTracks" : [
        {
          "range" : [0, 1],
          "type" : 1,
          "editRate" : 600,
          "trackRect" : [0, 0, 519, 329],
          "sampleRate" : 0,
          "bitDepth" : 0,
          "numChannels" : 0,
          "integratedLUFS" : 100.0,
          "peakLevel" : -1.0,
          "metaData" : ""
        }
      ],
      "metadata" : {
        "timeAdded" : "20220225T030332.301878"
      }
    },
    {
      "id" : 41,
      "src" : "./media/m8UbC8P4/Pasted Image.pdf",
      "rect" : [0, 0, 260, 200],
      "lastMod" : "20220225T030909",
      "loudnessNormalization" : true,
      "sourceTracks" : [
        {
          "range" : [0, 1],
          "type" : 1,
          "editRate" : 600,
          "trackRect" : [0, 0, 260, 200],
          "sampleRate" : 0,
          "bitDepth" : 0,
          "numChannels" : 0,
          "integratedLUFS" : 100.0,
          "peakLevel" : -1.0,
          "metaData" : ""
        }
      ],
      "metadata" : {
        "timeAdded" : "20220225T030909.251273"
      }
    },
    {
      "id" : 42,
      "src" : "./media/U55JtyTP/Pasted Image.pdf",
      "rect" : [0, 0, 252, 24],
      "lastMod" : "20220225T030930",
      "loudnessNormalization" : true,
      "sourceTracks" : [
        {
          "range" : [0, 1],
          "type" : 1,
          "editRate" : 600,
          "trackRect" : [0, 0, 252, 24],
          "sampleRate" : 0,
          "bitDepth" : 0,
          "numChannels" : 0,
          "integratedLUFS" : 100.0,
          "peakLevel" : -1.0,
          "metaData" : ""
        }
      ],
      "metadata" : {
        "timeAdded" : "20220225T030930.403775"
      }
    },
    {
      "id" : 43,
      "src" : "./media/oXQ9PuOn/Pasted Image.pdf",
      "rect" : [0, 0, 252, 24],
      "lastMod" : "20220225T030951",
      "loudnessNormalization" : true,
      "sourceTracks" : [
        {
          "range" : [0, 1],
          "type" : 1,
          "editRate" : 600,
          "trackRect" : [0, 0, 252, 24],
          "sampleRate" : 0,
          "bitDepth" : 0,
          "numChannels" : 0,
          "integratedLUFS" : 100.0,
          "peakLevel" : -1.0,
          "metaData" : ""
        }
      ],
      "metadata" : {
        "timeAdded" : "20220225T030951.362335"
      }
    },
    {
      "id" : 44,
      "src" : "./media/4k9lKSW3/Pasted Image.pdf",
      "rect" : [0, 0, 252, 23],
      "lastMod" : "20220225T031007",
      "loudnessNormalization" : true,
      "sourceTracks" : [
        {
          "range" : [0, 1],
          "type" : 1,
          "editRate" : 600,
          "trackRect" : [0, 0, 252, 23],
          "sampleRate" : 0,
          "bitDepth" : 0,
          "numChannels" : 0,
          "integratedLUFS" : 100.0,
          "peakLevel" : -1.0,
          "metaData" : ""
        }
      ],
      "metadata" : {
        "timeAdded" : "20220225T031007.292306"
      }
    },
    {
      "id" : 45,
      "src" : "./media/wZ6eKPdh/Pasted Image.pdf",
      "rect" : [0, 0, 252, 25],
      "lastMod" : "20220225T031016",
      "loudnessNormalization" : true,
      "sourceTracks" : [
        {
          "range" : [0, 1],
          "type" : 1,
          "editRate" : 600,
          "trackRect" : [0, 0, 252, 25],
          "sampleRate" : 0,
          "bitDepth" : 0,
          "numChannels" : 0,
          "integratedLUFS" : 100.0,
          "peakLevel" : -1.0,
          "metaData" : ""
        }
      ],
      "metadata" : {
        "timeAdded" : "20220225T031016.269300"
      }
    },
    {
      "id" : 46,
      "src" : "./media/iAIyvkyr/Pasted Image.pdf",
      "rect" : [0, 0, 253, 23],
      "lastMod" : "20220225T031025",
      "loudnessNormalization" : true,
      "sourceTracks" : [
        {
          "range" : [0, 1],
          "type" : 1,
          "editRate" : 600,
          "trackRect" : [0, 0, 253, 23],
          "sampleRate" : 0,
          "bitDepth" : 0,
          "numChannels" : 0,
          "integratedLUFS" : 100.0,
          "peakLevel" : -1.0,
          "metaData" : ""
        }
      ],
      "metadata" : {
        "timeAdded" : "20220225T031025.332212"
      }
    },
    {
      "id" : 47,
      "src" : "./media/na3dyFBq/Pasted Image.pdf",
      "rect" : [0, 0, 253, 24],
      "lastMod" : "20220225T031033",
      "loudnessNormalization" : true,
      "sourceTracks" : [
        {
          "range" : [0, 1],
          "type" : 1,
          "editRate" : 600,
          "trackRect" : [0, 0, 253, 24],
          "sampleRate" : 0,
          "bitDepth" : 0,
          "numChannels" : 0,
          "integratedLUFS" : 100.0,
          "peakLevel" : -1.0,
          "metaData" : ""
        }
      ],
      "metadata" : {
        "timeAdded" : "20220225T031033.133125"
      }
    },
    {
      "id" : 48,
      "src" : "./media/8AkVrNTI/Pasted Image.pdf",
      "rect" : [0, 0, 252, 22],
      "lastMod" : "20220225T031042",
      "loudnessNormalization" : true,
      "sourceTracks" : [
        {
          "range" : [0, 1],
          "type" : 1,
          "editRate" : 600,
          "trackRect" : [0, 0, 252, 22],
          "sampleRate" : 0,
          "bitDepth" : 0,
          "numChannels" : 0,
          "integratedLUFS" : 100.0,
          "peakLevel" : -1.0,
          "metaData" : ""
        }
      ],
      "metadata" : {
        "timeAdded" : "20220225T031042.687758"
      }
    },
    {
      "id" : 49,
      "src" : "./media/x7vUtXCp/Pasted Image.pdf",
      "rect" : [0, 0, 252, 23],
      "lastMod" : "20220225T031051",
      "loudnessNormalization" : true,
      "sourceTracks" : [
        {
          "range" : [0, 1],
          "type" : 1,
          "editRate" : 600,
          "trackRect" : [0, 0, 252, 23],
          "sampleRate" : 0,
          "bitDepth" : 0,
          "numChannels" : 0,
          "integratedLUFS" : 100.0,
          "peakLevel" : -1.0,
          "metaData" : ""
        }
      ],
      "metadata" : {
        "timeAdded" : "20220225T031051.405423"
      }
    },
    {
      "id" : 50,
      "src" : "./media/ehCLKnMk/Pasted Image.pdf",
      "rect" : [0, 0, 253, 23],
      "lastMod" : "20220225T031059",
      "loudnessNormalization" : true,
      "sourceTracks" : [
        {
          "range" : [0, 1],
          "type" : 1,
          "editRate" : 600,
          "trackRect" : [0, 0, 253, 23],
          "sampleRate" : 0,
          "bitDepth" : 0,
          "numChannels" : 0,
          "integratedLUFS" : 100.0,
          "peakLevel" : -1.0,
          "metaData" : ""
        }
      ],
      "metadata" : {
        "timeAdded" : "20220225T031059.408225"
      }
    },
    {
      "id" : 51,
      "src" : "./media/xdUrfLW2/Pasted Image.pdf",
      "rect" : [0, 0, 192, 208],
      "lastMod" : "20220225T032401",
      "loudnessNormalization" : true,
      "sourceTracks" : [
        {
          "range" : [0, 1],
          "type" : 1,
          "editRate" : 600,
          "trackRect" : [0, 0, 192, 208],
          "sampleRate" : 0,
          "bitDepth" : 0,
          "numChannels" : 0,
          "integratedLUFS" : 100.0,
          "peakLevel" : -1.0,
          "metaData" : ""
        }
      ],
      "metadata" : {
        "timeAdded" : "20220225T032401.157579"
      }
    },
    {
      "id" : 52,
      "src" : "./media/iqlQkNxH/Pasted Image.pdf",
      "rect" : [0, 0, 267, 51],
      "lastMod" : "20220225T033813",
      "loudnessNormalization" : true,
      "sourceTracks" : [
        {
          "range" : [0, 1],
          "type" : 1,
          "editRate" : 600,
          "trackRect" : [0, 0, 267, 51],
          "sampleRate" : 0,
          "bitDepth" : 0,
          "numChannels" : 0,
          "integratedLUFS" : 100.0,
          "peakLevel" : -1.0,
          "metaData" : ""
        }
      ],
      "metadata" : {
        "timeAdded" : "20220225T033813.329420"
      }
    },
    {
      "id" : 53,
      "src" : "./media/2qOaZTng/Pasted Image.pdf",
      "rect" : [0, 0, 320, 113],
      "lastMod" : "20220225T034430",
      "loudnessNormalization" : true,
      "sourceTracks" : [
        {
          "range" : [0, 1],
          "type" : 1,
          "editRate" : 600,
          "trackRect" : [0, 0, 320, 113],
          "sampleRate" : 0,
          "bitDepth" : 0,
          "numChannels" : 0,
          "integratedLUFS" : 100.0,
          "peakLevel" : -1.0,
          "metaData" : ""
        }
      ],
      "metadata" : {
        "timeAdded" : "20220225T034430.469618"
      }
    },
    {
      "id" : 54,
      "src" : "./media/xc2Kz32I/Pasted Image.pdf",
      "rect" : [0, 0, 558, 167],
      "lastMod" : "20220225T034711",
      "loudnessNormalization" : true,
      "sourceTracks" : [
        {
          "range" : [0, 1],
          "type" : 1,
          "editRate" : 600,
          "trackRect" : [0, 0, 558, 167],
          "sampleRate" : 0,
          "bitDepth" : 0,
          "numChannels" : 0,
          "integratedLUFS" : 100.0,
          "peakLevel" : -1.0,
          "metaData" : ""
        }
      ],
      "metadata" : {
        "timeAdded" : "20220225T034711.322336"
      }
    },
    {
      "id" : 55,
      "src" : "./media/J0MPGvJw/Pasted Image.tiff",
      "rect" : [0, 0, 853, 1280],
      "lastMod" : "20220225T231143",
      "loudnessNormalization" : true,
      "sourceTracks" : [
        {
          "range" : [0, 1],
          "type" : 1,
          "editRate" : 600,
          "trackRect" : [0, 0, 853, 1280],
          "sampleRate" : 0,
          "bitDepth" : 0,
          "numChannels" : 0,
          "integratedLUFS" : 100.0,
          "peakLevel" : -1.0,
          "metaData" : ""
        }
      ],
      "metadata" : {
        "timeAdded" : "20220225T231143.180178"
      }
    },
    {
      "id" : 56,
      "src" : "./media/vfLcYqq1/Pasted Image.pdf",
      "rect" : [0, 0, 963, 141],
      "lastMod" : "20220225T232346",
      "loudnessNormalization" : true,
      "sourceTracks" : [
        {
          "range" : [0, 1],
          "type" : 1,
          "editRate" : 600,
          "trackRect" : [0, 0, 963, 141],
          "sampleRate" : 0,
          "bitDepth" : 0,
          "numChannels" : 0,
          "integratedLUFS" : 100.0,
          "peakLevel" : -1.0,
          "metaData" : ""
        }
      ],
      "metadata" : {
        "timeAdded" : "20220225T232346.925830"
      }
    },
    {
      "id" : 57,
      "src" : "./media/ADgIvVS1/Pasted Image.pdf",
      "rect" : [0, 0, 625, 170],
      "lastMod" : "20220225T232429",
      "loudnessNormalization" : true,
      "sourceTracks" : [
        {
          "range" : [0, 1],
          "type" : 1,
          "editRate" : 600,
          "trackRect" : [0, 0, 625, 170],
          "sampleRate" : 0,
          "bitDepth" : 0,
          "numChannels" : 0,
          "integratedLUFS" : 100.0,
          "peakLevel" : -1.0,
          "metaData" : ""
        }
      ],
      "metadata" : {
        "timeAdded" : "20220225T232429.762389"
      }
    },
    {
      "id" : 58,
      "src" : "./media/8NH4mGRL/Pasted Image.pdf",
      "rect" : [0, 0, 199, 183],
      "lastMod" : "20220225T232540",
      "loudnessNormalization" : true,
      "sourceTracks" : [
        {
          "range" : [0, 1],
          "type" : 1,
          "editRate" : 600,
          "trackRect" : [0, 0, 199, 183],
          "sampleRate" : 0,
          "bitDepth" : 0,
          "numChannels" : 0,
          "integratedLUFS" : 100.0,
          "peakLevel" : -1.0,
          "metaData" : ""
        }
      ],
      "metadata" : {
        "timeAdded" : "20220225T232540.498138"
      }
    },
    {
      "id" : 59,
      "src" : "./media/PrfPE2Ru/Pasted Image.pdf",
      "rect" : [0, 0, 249, 51],
      "lastMod" : "20220225T232808",
      "loudnessNormalization" : true,
      "sourceTracks" : [
        {
          "range" : [0, 1],
          "type" : 1,
          "editRate" : 600,
          "trackRect" : [0, 0, 249, 51],
          "sampleRate" : 0,
          "bitDepth" : 0,
          "numChannels" : 0,
          "integratedLUFS" : 100.0,
          "peakLevel" : -1.0,
          "metaData" : ""
        }
      ],
      "metadata" : {
        "timeAdded" : "20220225T232808.568996"
      }
    },
    {
      "id" : 60,
      "src" : "./media/gxkLG78J/Pasted Image.pdf",
      "rect" : [0, 0, 205, 157],
      "lastMod" : "20220225T234828",
      "loudnessNormalization" : true,
      "sourceTracks" : [
        {
          "range" : [0, 1],
          "type" : 1,
          "editRate" : 600,
          "trackRect" : [0, 0, 205, 157],
          "sampleRate" : 0,
          "bitDepth" : 0,
          "numChannels" : 0,
          "integratedLUFS" : 100.0,
          "peakLevel" : -1.0,
          "metaData" : ""
        }
      ],
      "metadata" : {
        "timeAdded" : "20220225T234828.362302"
      }
    },
    {
      "id" : 61,
      "src" : "./media/UUHfxv3t/Pasted Image.pdf",
      "rect" : [0, 0, 192, 208],
      "lastMod" : "20220225T235207",
      "loudnessNormalization" : true,
      "sourceTracks" : [
        {
          "range" : [0, 1],
          "type" : 1,
          "editRate" : 600,
          "trackRect" : [0, 0, 192, 208],
          "sampleRate" : 0,
          "bitDepth" : 0,
          "numChannels" : 0,
          "integratedLUFS" : 100.0,
          "peakLevel" : -1.0,
          "metaData" : ""
        }
      ],
      "metadata" : {
        "timeAdded" : "20220225T235207.962104"
      }
    },
    {
      "id" : 62,
      "src" : "./media/57s4cZcU/Pasted Image.pdf",
      "rect" : [0, 0, 175, 120],
      "lastMod" : "20220225T235428",
      "loudnessNormalization" : true,
      "sourceTracks" : [
        {
          "range" : [0, 1],
          "type" : 1,
          "editRate" : 600,
          "trackRect" : [0, 0, 175, 120],
          "sampleRate" : 0,
          "bitDepth" : 0,
          "numChannels" : 0,
          "integratedLUFS" : 100.0,
          "peakLevel" : -1.0,
          "metaData" : ""
        }
      ],
      "metadata" : {
        "timeAdded" : "20220225T235428.980259"
      }
    },
    {
      "id" : 63,
      "src" : "./media/ktckintD/Pasted Image.pdf",
      "rect" : [0, 0, 170, 170],
      "lastMod" : "20220225T235732",
      "loudnessNormalization" : true,
      "sourceTracks" : [
        {
          "range" : [0, 1],
          "type" : 1,
          "editRate" : 600,
          "trackRect" : [0, 0, 170, 170],
          "sampleRate" : 0,
          "bitDepth" : 0,
          "numChannels" : 0,
          "integratedLUFS" : 100.0,
          "peakLevel" : -1.0,
          "metaData" : ""
        }
      ],
      "metadata" : {
        "timeAdded" : "20220225T235732.164190"
      }
    },
    {
      "id" : 64,
      "src" : "./media/8css8zvu/Pasted Image.tiff",
      "rect" : [0, 0, 870, 288],
      "lastMod" : "20220226T000736",
      "loudnessNormalization" : true,
      "sourceTracks" : [
        {
          "range" : [0, 1],
          "type" : 1,
          "editRate" : 600,
          "trackRect" : [0, 0, 870, 288],
          "sampleRate" : 0,
          "bitDepth" : 0,
          "numChannels" : 0,
          "integratedLUFS" : 100.0,
          "peakLevel" : -1.0,
          "metaData" : ""
        }
      ],
      "metadata" : {
        "timeAdded" : "20220226T000736.214414"
      }
    },
    {
      "id" : 65,
      "src" : "./media/en4QMGo5/Pasted Image.pdf",
      "rect" : [0, 0, 157, 43],
      "lastMod" : "20220226T001155",
      "loudnessNormalization" : true,
      "sourceTracks" : [
        {
          "range" : [0, 1],
          "type" : 1,
          "editRate" : 600,
          "trackRect" : [0, 0, 157, 43],
          "sampleRate" : 0,
          "bitDepth" : 0,
          "numChannels" : 0,
          "integratedLUFS" : 100.0,
          "peakLevel" : -1.0,
          "metaData" : ""
        }
      ],
      "metadata" : {
        "timeAdded" : "20220226T001155.486758"
      }
    },
    {
      "id" : 66,
      "src" : "./media/yr3HCQi2/Pasted Image.pdf",
      "rect" : [0, 0, 157, 43],
      "lastMod" : "20220226T001249",
      "loudnessNormalization" : true,
      "sourceTracks" : [
        {
          "range" : [0, 1],
          "type" : 1,
          "editRate" : 600,
          "trackRect" : [0, 0, 157, 43],
          "sampleRate" : 0,
          "bitDepth" : 0,
          "numChannels" : 0,
          "integratedLUFS" : 100.0,
          "peakLevel" : -1.0,
          "metaData" : ""
        }
      ],
      "metadata" : {
        "timeAdded" : "20220226T001249.954588"
      }
    },
    {
      "id" : 67,
      "src" : "./media/1XNcjdFI/Pasted Image.pdf",
      "rect" : [0, 0, 169, 43],
      "lastMod" : "20220226T001341",
      "loudnessNormalization" : true,
      "sourceTracks" : [
        {
          "range" : [0, 1],
          "type" : 1,
          "editRate" : 600,
          "trackRect" : [0, 0, 169, 43],
          "sampleRate" : 0,
          "bitDepth" : 0,
          "numChannels" : 0,
          "integratedLUFS" : 100.0,
          "peakLevel" : -1.0,
          "metaData" : ""
        }
      ],
      "metadata" : {
        "timeAdded" : "20220226T001341.042768"
      }
    },
    {
      "id" : 68,
      "src" : "./media/SKpndm8G/Pasted Image.pdf",
      "rect" : [0, 0, 169, 43],
      "lastMod" : "20220226T001422",
      "loudnessNormalization" : true,
      "sourceTracks" : [
        {
          "range" : [0, 1],
          "type" : 1,
          "editRate" : 600,
          "trackRect" : [0, 0, 169, 43],
          "sampleRate" : 0,
          "bitDepth" : 0,
          "numChannels" : 0,
          "integratedLUFS" : 100.0,
          "peakLevel" : -1.0,
          "metaData" : ""
        }
      ],
      "metadata" : {
        "timeAdded" : "20220226T001422.465458"
      }
    },
    {
      "id" : 69,
      "src" : "./media/8LibKsbS/Pasted Image.pdf",
      "rect" : [0, 0, 219, 47],
      "lastMod" : "20220226T002750",
      "loudnessNormalization" : true,
      "sourceTracks" : [
        {
          "range" : [0, 1],
          "type" : 1,
          "editRate" : 600,
          "trackRect" : [0, 0, 219, 47],
          "sampleRate" : 0,
          "bitDepth" : 0,
          "numChannels" : 0,
          "integratedLUFS" : 100.0,
          "peakLevel" : -1.0,
          "metaData" : ""
        }
      ],
      "metadata" : {
        "timeAdded" : "20220226T002750.888332"
      }
    },
    {
      "id" : 70,
      "src" : "./media/DiGMErFL/Pasted Image.pdf",
      "rect" : [0, 0, 360, 70],
      "lastMod" : "20220226T004057",
      "loudnessNormalization" : true,
      "sourceTracks" : [
        {
          "range" : [0, 1],
          "type" : 1,
          "editRate" : 600,
          "trackRect" : [0, 0, 360, 70],
          "sampleRate" : 0,
          "bitDepth" : 0,
          "numChannels" : 0,
          "integratedLUFS" : 100.0,
          "peakLevel" : -1.0,
          "metaData" : ""
        }
      ],
      "metadata" : {
        "timeAdded" : "20220226T004057.025801"
      }
    },
    {
      "id" : 71,
      "src" : "./media/dh5P5cwM/Pasted Image.pdf",
      "rect" : [0, 0, 582, 556],
      "lastMod" : "20220226T005207",
      "loudnessNormalization" : true,
      "sourceTracks" : [
        {
          "range" : [0, 1],
          "type" : 1,
          "editRate" : 600,
          "trackRect" : [0, 0, 582, 556],
          "sampleRate" : 0,
          "bitDepth" : 0,
          "numChannels" : 0,
          "integratedLUFS" : 100.0,
          "peakLevel" : -1.0,
          "metaData" : ""
        }
      ],
      "metadata" : {
        "timeAdded" : "20220226T005207.268329"
      }
    },
    {
      "id" : 72,
      "src" : "./media/bWaS9sAO/Pasted Image.pdf",
      "rect" : [0, 0, 428, 191],
      "lastMod" : "20220226T184538",
      "loudnessNormalization" : true,
      "sourceTracks" : [
        {
          "range" : [0, 1],
          "type" : 1,
          "editRate" : 600,
          "trackRect" : [0, 0, 428, 191],
          "sampleRate" : 0,
          "bitDepth" : 0,
          "numChannels" : 0,
          "integratedLUFS" : 100.0,
          "peakLevel" : -1.0,
          "metaData" : ""
        }
      ],
      "metadata" : {
        "timeAdded" : "20220226T184538.893438"
      }
    },
    {
      "id" : 73,
      "src" : "./media/A2z0o2Lp/Pasted Image.pdf",
      "rect" : [0, 0, 237, 511],
      "lastMod" : "20220226T185510",
      "loudnessNormalization" : true,
      "sourceTracks" : [
        {
          "range" : [0, 1],
          "type" : 1,
          "editRate" : 600,
          "trackRect" : [0, 0, 237, 511],
          "sampleRate" : 0,
          "bitDepth" : 0,
          "numChannels" : 0,
          "integratedLUFS" : 100.0,
          "peakLevel" : -1.0,
          "metaData" : ""
        }
      ],
      "metadata" : {
        "timeAdded" : "20220226T185510.425066"
      }
    },
    {
      "id" : 74,
      "src" : "./media/HvXWvmtw/Pasted Image.pdf",
      "rect" : [0, 0, 363, 180],
      "lastMod" : "20220226T190026",
      "loudnessNormalization" : true,
      "sourceTracks" : [
        {
          "range" : [0, 1],
          "type" : 1,
          "editRate" : 600,
          "trackRect" : [0, 0, 363, 180],
          "sampleRate" : 0,
          "bitDepth" : 0,
          "numChannels" : 0,
          "integratedLUFS" : 100.0,
          "peakLevel" : -1.0,
          "metaData" : ""
        }
      ],
      "metadata" : {
        "timeAdded" : "20220226T190026.174277"
      }
    },
    {
      "id" : 75,
      "src" : "./media/yNPTICWj/Pasted Image.pdf",
      "rect" : [0, 0, 355, 104],
      "lastMod" : "20220226T190149",
      "loudnessNormalization" : true,
      "sourceTracks" : [
        {
          "range" : [0, 1],
          "type" : 1,
          "editRate" : 600,
          "trackRect" : [0, 0, 355, 104],
          "sampleRate" : 0,
          "bitDepth" : 0,
          "numChannels" : 0,
          "integratedLUFS" : 100.0,
          "peakLevel" : -1.0,
          "metaData" : ""
        }
      ],
      "metadata" : {
        "timeAdded" : "20220226T190149.724588"
      }
    },
    {
      "id" : 76,
      "src" : "./media/FcFN97uT/Pasted Image.pdf",
      "rect" : [0, 0, 364, 237],
      "lastMod" : "20220226T190800",
      "loudnessNormalization" : true,
      "sourceTracks" : [
        {
          "range" : [0, 1],
          "type" : 1,
          "editRate" : 600,
          "trackRect" : [0, 0, 364, 237],
          "sampleRate" : 0,
          "bitDepth" : 0,
          "numChannels" : 0,
          "integratedLUFS" : 100.0,
          "peakLevel" : -1.0,
          "metaData" : ""
        }
      ],
      "metadata" : {
        "timeAdded" : "20220226T190800.537844"
      }
    },
    {
      "id" : 77,
      "src" : "./media/bHbbCMz3/__time\nColumn A\nColumn B\n2022-01-01T01:00\n-\n-\n2022-01-01T01:10\n-\n-\n2022-01-01T01:20\n-\n-\n2022-01-01T01:30\n-\n-\n2022-01-01T01:40\n-\n-\n2022-01-01T01:50\n-\n-\n2022-01-01T02:00\n-\n-\n2022-01-01T02:10\n-\n-\n2022-01-01T02:20\n-\n-\n.pdf",
      "rect" : [0, 0, 338, 302],
      "lastMod" : "20220226T192008",
      "loudnessNormalization" : true,
      "sourceTracks" : [
        {
          "range" : [0, 1],
          "type" : 1,
          "editRate" : 600,
          "trackRect" : [0, 0, 338, 302],
          "sampleRate" : 0,
          "bitDepth" : 0,
          "numChannels" : 0,
          "integratedLUFS" : 100.0,
          "peakLevel" : -1.0,
          "metaData" : ""
        }
      ],
      "metadata" : {
        "timeAdded" : "20220226T192008.818210"
      }
    },
    {
      "id" : 78,
      "src" : "./media/L4HV1QQf/Pasted Image.tiff",
      "rect" : [0, 0, 1280, 721],
      "lastMod" : "20220226T192836",
      "loudnessNormalization" : true,
      "sourceTracks" : [
        {
          "range" : [0, 1],
          "type" : 1,
          "editRate" : 600,
          "trackRect" : [0, 0, 1280, 721],
          "sampleRate" : 0,
          "bitDepth" : 0,
          "numChannels" : 0,
          "integratedLUFS" : 100.0,
          "peakLevel" : -1.0,
          "metaData" : ""
        }
      ],
      "metadata" : {
        "timeAdded" : "20220226T192836.516593"
      }
    },
    {
      "id" : 79,
      "src" : "./media/k0oOpork/__time\nColumn A\nColumn B\nColumn C\nColumn D\nColumn E\nâ€¦\nColumn Z\n2022-01-01T01:00\n-\n-\n-\n-\n-\n\n-\n2022-01-01T01:10\n-\n-\n-\n-\n-\n\n-\n2022-01-01T01:20\n-\n-\n-\n-\n-\n\n-\n.pdf",
      "rect" : [0, 0, 778, 127],
      "lastMod" : "20220226T193852",
      "loudnessNormalization" : true,
      "sourceTracks" : [
        {
          "range" : [0, 1],
          "type" : 1,
          "editRate" : 600,
          "trackRect" : [0, 0, 778, 127],
          "sampleRate" : 0,
          "bitDepth" : 0,
          "numChannels" : 0,
          "integratedLUFS" : 100.0,
          "peakLevel" : -1.0,
          "metaData" : ""
        }
      ],
      "metadata" : {
        "timeAdded" : "20220226T193852.748244"
      }
    },
    {
      "id" : 80,
      "src" : "./media/ApsxUwo0/Pasted Image.pdf",
      "rect" : [0, 0, 439, 303],
      "lastMod" : "20220226T193927",
      "loudnessNormalization" : true,
      "sourceTracks" : [
        {
          "range" : [0, 1],
          "type" : 1,
          "editRate" : 600,
          "trackRect" : [0, 0, 439, 303],
          "sampleRate" : 0,
          "bitDepth" : 0,
          "numChannels" : 0,
          "integratedLUFS" : 100.0,
          "peakLevel" : -1.0,
          "metaData" : ""
        }
      ],
      "metadata" : {
        "timeAdded" : "20220226T193927.912219"
      }
    },
    {
      "id" : 81,
      "src" : "./media/3PsJ87RK/Pasted Image.pdf",
      "rect" : [0, 0, 960, 540],
      "lastMod" : "20220226T194801",
      "loudnessNormalization" : true,
      "sourceTracks" : [
        {
          "range" : [0, 1],
          "type" : 1,
          "editRate" : 600,
          "trackRect" : [0, 0, 960, 540],
          "sampleRate" : 0,
          "bitDepth" : 0,
          "numChannels" : 0,
          "integratedLUFS" : 100.0,
          "peakLevel" : -1.0,
          "metaData" : ""
        }
      ],
      "metadata" : {
        "timeAdded" : "20220226T194801.847738"
      }
    },
    {
      "id" : 82,
      "src" : "./media/hdqsj21O/Pasted Image.tiff",
      "rect" : [0, 0, 1280, 853],
      "lastMod" : "20220226T195319",
      "loudnessNormalization" : true,
      "sourceTracks" : [
        {
          "range" : [0, 1],
          "type" : 1,
          "editRate" : 600,
          "trackRect" : [0, 0, 1280, 853],
          "sampleRate" : 0,
          "bitDepth" : 0,
          "numChannels" : 0,
          "integratedLUFS" : 100.0,
          "peakLevel" : -1.0,
          "metaData" : ""
        }
      ],
      "metadata" : {
        "timeAdded" : "20220226T195319.568380"
      }
    },
    {
      "id" : 83,
      "src" : "./media/L55JyutG/Pasted Image.pdf",
      "rect" : [0, 0, 650, 540],
      "lastMod" : "20220226T195433",
      "loudnessNormalization" : true,
      "sourceTracks" : [
        {
          "range" : [0, 1],
          "type" : 1,
          "editRate" : 600,
          "trackRect" : [0, 0, 650, 540],
          "sampleRate" : 0,
          "bitDepth" : 0,
          "numChannels" : 0,
          "integratedLUFS" : 100.0,
          "peakLevel" : -1.0,
          "metaData" : ""
        }
      ],
      "metadata" : {
        "timeAdded" : "20220226T195433.269325"
      }
    },
    {
      "id" : 84,
      "src" : "./media/tC5JZLEd/Pasted Image.tiff",
      "rect" : [0, 0, 558, 396],
      "lastMod" : "20220226T195919",
      "loudnessNormalization" : true,
      "sourceTracks" : [
        {
          "range" : [0, 1],
          "type" : 1,
          "editRate" : 600,
          "trackRect" : [0, 0, 558, 396],
          "sampleRate" : 0,
          "bitDepth" : 0,
          "numChannels" : 0,
          "integratedLUFS" : 100.0,
          "peakLevel" : -1.0,
          "metaData" : ""
        }
      ],
      "metadata" : {
        "timeAdded" : "20220226T195919.729037"
      }
    },
    {
      "id" : 85,
      "src" : "./media/t6ldqzkP/Pasted Image.pdf",
      "rect" : [0, 0, 960, 540],
      "lastMod" : "20220226T200135",
      "loudnessNormalization" : true,
      "sourceTracks" : [
        {
          "range" : [0, 1],
          "type" : 1,
          "editRate" : 600,
          "trackRect" : [0, 0, 960, 540],
          "sampleRate" : 0,
          "bitDepth" : 0,
          "numChannels" : 0,
          "integratedLUFS" : 100.0,
          "peakLevel" : -1.0,
          "metaData" : ""
        }
      ],
      "metadata" : {
        "timeAdded" : "20220226T200135.275205"
      }
    },
    {
      "id" : 86,
      "src" : "./media/BVt1nAhd/Pasted Image.pdf",
      "rect" : [0, 0, 576, 181],
      "lastMod" : "20220226T201403",
      "loudnessNormalization" : true,
      "sourceTracks" : [
        {
          "range" : [0, 1],
          "type" : 1,
          "editRate" : 600,
          "trackRect" : [0, 0, 576, 181],
          "sampleRate" : 0,
          "bitDepth" : 0,
          "numChannels" : 0,
          "integratedLUFS" : 100.0,
          "peakLevel" : -1.0,
          "metaData" : ""
        }
      ],
      "metadata" : {
        "timeAdded" : "20220226T201403.324467"
      }
    },
    {
      "id" : 87,
      "src" : "./media/TptjPU5Z/__time\n2022-01-01T01:00\n2022-01-01T01:10\n2022-01-01T01:20\n2022-01-01T01:30\n2022-01-01T01:40\n2022-01-01T01:50\n2022-01-01T02:00\n2022-01-01T02:10\n2022-01-01T02:20\n.pdf",
      "rect" : [0, 0, 156, 302],
      "lastMod" : "20220226T204810",
      "loudnessNormalization" : true,
      "sourceTracks" : [
        {
          "range" : [0, 1],
          "type" : 1,
          "editRate" : 600,
          "trackRect" : [0, 0, 156, 302],
          "sampleRate" : 0,
          "bitDepth" : 0,
          "numChannels" : 0,
          "integratedLUFS" : 100.0,
          "peakLevel" : -1.0,
          "metaData" : ""
        }
      ],
      "metadata" : {
        "timeAdded" : "20220226T204810.248844"
      }
    },
    {
      "id" : 88,
      "src" : "./media/rYyHGKXJ/Column A\n-\n-\n-\n-\n-\n-\n-\n-\n-\n.pdf",
      "rect" : [0, 0, 95, 302],
      "lastMod" : "20220226T204927",
      "loudnessNormalization" : true,
      "sourceTracks" : [
        {
          "range" : [0, 1],
          "type" : 1,
          "editRate" : 600,
          "trackRect" : [0, 0, 95, 302],
          "sampleRate" : 0,
          "bitDepth" : 0,
          "numChannels" : 0,
          "integratedLUFS" : 100.0,
          "peakLevel" : -1.0,
          "metaData" : ""
        }
      ],
      "metadata" : {
        "timeAdded" : "20220226T204927.867885"
      }
    },
    {
      "id" : 89,
      "src" : "./media/SeD0adqR/Column B\n-\n-\n-\n-\n-\n-\n-\n-\n-\n.pdf",
      "rect" : [0, 0, 94, 302],
      "lastMod" : "20220226T205040",
      "loudnessNormalization" : true,
      "sourceTracks" : [
        {
          "range" : [0, 1],
          "type" : 1,
          "editRate" : 600,
          "trackRect" : [0, 0, 94, 302],
          "sampleRate" : 0,
          "bitDepth" : 0,
          "numChannels" : 0,
          "integratedLUFS" : 100.0,
          "peakLevel" : -1.0,
          "metaData" : ""
        }
      ],
      "metadata" : {
        "timeAdded" : "20220226T205040.672691"
      }
    }
  ],
  "timeline" : {
    "id" : 90,
    "sceneTrack" : {
      "scenes" : [
        {
          "csml" : {
            "tracks" : [
              {
                "trackIndex" : 0,
                "medias" : [
                ]
              },
              {
                "trackIndex" : 1,
                "medias" : [
                  {
                    "id" : 91,
                    "_type" : "IMFile",
                    "src" : 85,
                    "trackNumber" : 0,
                    "trimStartSum" : 0,
                    "attributes" : {
                      "ident" : "Pasted Image"
                    },
                    "parameters" : {
                      "translation1" : {
                        "type" : "double",
                        "defaultValue" : -0.00259707893432903,
                        "interp" : "eioe"
                      },
                      "scale0" : {
                        "type" : "double",
                        "defaultValue" : 1.33323013681873,
                        "interp" : "eioe"
                      },
                      "scale1" : {
                        "type" : "double",
                        "defaultValue" : 1.33323013681873,
                        "interp" : "eioe"
                      },
                      "sourceCrop0" : {
                        "type" : "double",
                        "defaultValue" : 0.0,
                        "interp" : "eioe"
                      },
                      "sourceCrop1" : {
                        "type" : "double",
                        "defaultValue" : 0.0,
                        "interp" : "eioe"
                      },
                      "sourceCrop2" : {
                        "type" : "double",
                        "defaultValue" : 0.0,
                        "interp" : "eioe"
                      },
                      "sourceCrop3" : {
                        "type" : "double",
                        "defaultValue" : 0.0,
                        "interp" : "eioe"
                      },
                      "geometryCrop0" : {
                        "type" : "double",
                        "defaultValue" : 0.0,
                        "interp" : "eioe"
                      },
                      "geometryCrop1" : {
                        "type" : "double",
                        "defaultValue" : 0.0,
                        "interp" : "eioe"
                      },
                      "geometryCrop2" : {
                        "type" : "double",
                        "defaultValue" : 0.0,
                        "interp" : "eioe"
                      },
                      "geometryCrop3" : {
                        "type" : "double",
                        "defaultValue" : 0.0,
                        "interp" : "eioe"
                      }
                    },
                    "effects" : [

                    ],
                    "start" : 90,
                    "duration" : 150,
                    "mediaStart" : 0,
                    "mediaDuration" : 1,
                    "scalar" : 1,
                    "metadata" : {
                      "clipSpeedAttribute" : false,
                      "default-scale" : "1",
                      "effectApplied" : "none",
                      "lockAspectRatio" : true
                    },
                    "animationTracks" : {

                    }
                  },
                  {
                    "id" : 92,
                    "_type" : "IMFile",
                    "src" : 3,
                    "trackNumber" : 0,
                    "trimStartSum" : 147,
                    "attributes" : {
                      "ident" : "Pasted Image"
                    },
                    "parameters" : {
                      "translation1" : -0.0141002048709709,
                      "scale0" : 1.33331127950898,
                      "scale1" : 1.33331127950898,
                      "sourceCrop0" : 0.0,
                      "sourceCrop1" : 0.0,
                      "sourceCrop2" : 0.0,
                      "sourceCrop3" : 0.0,
                      "geometryCrop0" : 0.0,
                      "geometryCrop1" : 0.0,
                      "geometryCrop2" : 0.0,
                      "geometryCrop3" : 0.0
                    },
                    "effects" : [

                    ],
                    "start" : 240,
                    "duration" : 11098,
                    "mediaStart" : 0,
                    "mediaDuration" : 1,
                    "scalar" : 1,
                    "metadata" : {
                      "clipSpeedAttribute" : false,
                      "default-scale" : "1",
                      "effectApplied" : "none",
                      "lockAspectRatio" : true
                    },
                    "animationTracks" : {

                    }
                  }
                ],
                "transitions" : [
                  {
                    "name" : "Fade",
                    "duration" : 30,
                    "rightMedia" : 91,
                    "attributes" : {
                      "bypass" : false,
                      "reverse" : false,
                      "trivial" : false,
                      "useAudioPreRoll" : true,
                      "useVisualPreRoll" : true
                    }

                  },
                  {
                    "name" : "Fade",
                    "duration" : 30,
                    "leftMedia" : 92,
                    "attributes" : {
                      "bypass" : false,
                      "reverse" : false,
                      "trivial" : false,
                      "useAudioPreRoll" : true,
                      "useVisualPreRoll" : true
                    }

                  }
                ]
              },
              {
                "trackIndex" : 2,
                "medias" : [
                  {
                    "id" : 93,
                    "_type" : "IMFile",
                    "src" : 81,
                    "trackNumber" : 0,
                    "trimStartSum" : 0,
                    "attributes" : {
                      "ident" : "Pasted Image"
                    },
                    "parameters" : {
                      "translation0" : {
                        "type" : "double",
                        "defaultValue" : -0.00128291771375189,
                        "interp" : "eioe"
                      },
                      "translation1" : {
                        "type" : "double",
                        "defaultValue" : -122.236588762294,
                        "interp" : "eioe"
                      },
                      "scale0" : {
                        "type" : "double",
                        "defaultValue" : 1.40896553853,
                        "interp" : "eioe"
                      },
                      "scale1" : {
                        "type" : "double",
                        "defaultValue" : 0.88060522680632,
                        "interp" : "eioe"
                      },
                      "sourceCrop0" : {
                        "type" : "double",
                        "defaultValue" : 0.0,
                        "interp" : "eioe"
                      },
                      "sourceCrop1" : {
                        "type" : "double",
                        "defaultValue" : 0.0,
                        "interp" : "eioe"
                      },
                      "sourceCrop2" : {
                        "type" : "double",
                        "defaultValue" : 0.0,
                        "interp" : "eioe"
                      },
                      "sourceCrop3" : {
                        "type" : "double",
                        "defaultValue" : 0.0,
                        "interp" : "eioe"
                      },
                      "geometryCrop0" : {
                        "type" : "double",
                        "defaultValue" : 0.0,
                        "interp" : "eioe"
                      },
                      "geometryCrop1" : {
                        "type" : "double",
                        "defaultValue" : 0.0,
                        "interp" : "eioe"
                      },
                      "geometryCrop2" : {
                        "type" : "double",
                        "defaultValue" : 0.0,
                        "interp" : "eioe"
                      },
                      "geometryCrop3" : {
                        "type" : "double",
                        "defaultValue" : 0.0,
                        "interp" : "eioe"
                      }
                    },
                    "effects" : [

                    ],
                    "start" : 10655,
                    "duration" : 272,
                    "mediaStart" : 0,
                    "mediaDuration" : 1,
                    "scalar" : 1,
                    "metadata" : {
                      "clipSpeedAttribute" : false,
                      "default-scale" : "1",
                      "effectApplied" : "none",
                      "lockAspectRatio" : false
                    },
                    "animationTracks" : {

                    }
                  }
                ],
                "transitions" : [
                  {
                    "name" : "Fade",
                    "duration" : 30,
                    "rightMedia" : 93,
                    "attributes" : {
                      "bypass" : false,
                      "reverse" : false,
                      "trivial" : false,
                      "useAudioPreRoll" : true,
                      "useVisualPreRoll" : true
                    }

                  },
                  {
                    "name" : "Fade",
                    "duration" : 30,
                    "leftMedia" : 93,
                    "attributes" : {
                      "bypass" : false,
                      "reverse" : false,
                      "trivial" : false,
                      "useAudioPreRoll" : true,
                      "useVisualPreRoll" : true
                    }

                  }
                ]
              },
              {
                "trackIndex" : 3,
                "medias" : [
                  {
                    "id" : 94,
                    "_type" : "UnifiedMedia",
                    "video" : 
                        {
                          "id" : 95,
                          "_type" : "VMFile",
                          "src" : 1,
                          "trackNumber" : 0,
                          "attributes" : {
                            "ident" : "Intro"
                          },
                          "parameters" : {
                            "translation0" : 0.000142148789738172,
                            "scale0" : 1.11110830234389,
                            "scale1" : 1.11110830234389,
                            "sourceCrop0" : 0.0,
                            "sourceCrop1" : 0.0,
                            "sourceCrop2" : 0.0,
                            "sourceCrop3" : 0.0,
                            "geometryCrop0" : 0.0,
                            "geometryCrop1" : 0.0,
                            "geometryCrop2" : 0.0,
                            "geometryCrop3" : 0.0
                          },
                          "effects" : [

                          ],
                          "start" : 0,
                          "duration" : 90,
                          "mediaStart" : 0,
                          "mediaDuration" : 90,
                          "scalar" : 1,
                          "animationTracks" : {

                          }
                        },
                    "audio" : 
                        {
                          "id" : 96,
                          "_type" : "AMFile",
                          "src" : 1,
                          "trackNumber" : 1,
                          "attributes" : {
                            "ident" : "",
                            "gain" : 1.0,
                            "mixToMono" : false,
                            "loudnessNormalization" : true
                          },
                            "channelNumber" : "0,1",
                          "effects" : [

                          ],
                          "start" : 0,
                          "duration" : 90,
                          "mediaStart" : 0,
                          "mediaDuration" : 90,
                          "scalar" : 1,
                          "animationTracks" : {

                          }
                        }
,
                    "start" : 0,
                    "duration" : 90,
                    "mediaStart" : 0,
                    "mediaDuration" : 90,
                    "scalar" : 1,
                    "metadata" : {
                      "clipSpeedAttribute" : false,
                      "default-scale" : "1",
                      "effectApplied" : "none",
                      "lockAspectRatio" : true
                    }
                  },
                  {
                    "id" : 97,
                    "_type" : "VMFile",
                    "src" : 2,
                    "trackNumber" : 0,
                    "attributes" : {
                      "ident" : "16 - talkingHead"
                    },
                    "parameters" : {
                      "translation0" : 471.991114878787,
                      "translation1" : -218.503050530622,
                      "scale0" : 0.662484747346892,
                      "scale1" : 0.662484747346892,
                      "sourceCrop0" : 0.0,
                      "sourceCrop1" : 0.0,
                      "sourceCrop2" : 0.0,
                      "sourceCrop3" : 0.0,
                      "geometryCrop0" : 0.0,
                      "geometryCrop1" : 0.0,
                      "geometryCrop2" : 0.0,
                      "geometryCrop3" : 0.0
                    },
                    "effects" : [

                    ],
                    "start" : 93,
                    "duration" : 11203,
                    "mediaStart" : 0,
                    "mediaDuration" : 11203,
                    "scalar" : 1,
                    "metadata" : {
                      "clipSpeedAttribute" : false,
                      "effectApplied" : "none",
                      "lockAspectRatio" : true
                    },
                    "animationTracks" : {

                    }
                  },
                  {
                    "id" : 98,
                    "_type" : "UnifiedMedia",
                    "video" : 
                        {
                          "id" : 99,
                          "_type" : "VMFile",
                          "src" : 1,
                          "trackNumber" : 0,
                          "attributes" : {
                            "ident" : "Intro"
                          },
                          "parameters" : {
                            "translation0" : 0.000142148789738172,
                            "scale0" : 1.11110830234389,
                            "scale1" : 1.11110830234389,
                            "sourceCrop0" : 0.0,
                            "sourceCrop1" : 0.0,
                            "sourceCrop2" : 0.0,
                            "sourceCrop3" : 0.0,
                            "geometryCrop0" : 0.0,
                            "geometryCrop1" : 0.0,
                            "geometryCrop2" : 0.0,
                            "geometryCrop3" : 0.0
                          },
                          "effects" : [

                          ],
                          "start" : 11340,
                          "duration" : 90,
                          "mediaStart" : 0,
                          "mediaDuration" : 90,
                          "scalar" : 1,
                          "animationTracks" : {

                          }
                        },
                    "audio" : 
                        {
                          "id" : 100,
                          "_type" : "AMFile",
                          "src" : 1,
                          "trackNumber" : 1,
                          "attributes" : {
                            "ident" : "",
                            "gain" : 1.0,
                            "mixToMono" : false,
                            "loudnessNormalization" : true
                          },
                            "channelNumber" : "0,1",
                          "effects" : [

                          ],
                          "start" : 11340,
                          "duration" : 90,
                          "mediaStart" : 0,
                          "mediaDuration" : 90,
                          "scalar" : 1,
                          "animationTracks" : {

                          }
                        }
,
                    "start" : 11340,
                    "duration" : 90,
                    "mediaStart" : 0,
                    "mediaDuration" : 90,
                    "scalar" : 1,
                    "metadata" : {
                      "clipSpeedAttribute" : false,
                      "default-scale" : "1",
                      "effectApplied" : "none",
                      "lockAspectRatio" : true
                    }
                  }
                ],
                "transitions" : [
                  {
                    "name" : "Fade",
                    "duration" : 30,
                    "rightMedia" : 97,
                    "attributes" : {
                      "bypass" : false,
                      "reverse" : false,
                      "trivial" : false,
                      "useAudioPreRoll" : true,
                      "useVisualPreRoll" : true
                    }

                  },
                  {
                    "name" : "Fade",
                    "duration" : 30,
                    "leftMedia" : 97,
                    "attributes" : {
                      "bypass" : false,
                      "reverse" : false,
                      "trivial" : false,
                      "useAudioPreRoll" : true,
                      "useVisualPreRoll" : true
                    }

                  }
                ]
              },
              {
                "trackIndex" : 4,
                "medias" : [
                  {
                    "id" : 101,
                    "_type" : "AMFile",
                    "src" : 2,
                    "trackNumber" : 1,
                    "attributes" : {
                      "ident" : "16 - talkingHead",
                      "gain" : 1.0,
                      "mixToMono" : false,
                      "loudnessNormalization" : true
                    },
                      "channelNumber" : "0,1",
                    "effects" : [

                    ],
                    "start" : 2205,
                    "duration" : 9091,
                    "mediaStart" : 2112,
                    "mediaDuration" : 9091,
                    "scalar" : 1,
                    "metadata" : {
                      "clipSpeedAttribute" : false,
                      "effectApplied" : "none"
                    },
                    "animationTracks" : {

                    }
                  }
                ]
              },
              {
                "trackIndex" : 5,
                "medias" : [
                  {
                    "id" : 102,
                    "_type" : "IMFile",
                    "src" : 57,
                    "trackNumber" : 0,
                    "trimStartSum" : 0,
                    "attributes" : {
                      "ident" : "Pasted Image"
                    },
                    "parameters" : {
                      "translation0" : {
                        "type" : "double",
                        "defaultValue" : 206.645044926963,
                        "interp" : "eioe",
                        "keyframes" : [
                          {
                            "endTime" : 30,
                            "time" : 0,
                            "value" : -200.354955073037,
                            "duration" : 30
                          }
                        ]
                      },
                      "translation1" : {
                        "type" : "double",
                        "defaultValue" : -119.936547779866,
                        "interp" : "eioe",
                        "keyframes" : [
                          {
                            "endTime" : 30,
                            "time" : 0,
                            "value" : 19.0634522201341,
                            "duration" : 30
                          }
                        ]
                      },
                      "scale0" : {
                        "type" : "double",
                        "defaultValue" : 0.200000002980232,
                        "interp" : "eioe",
                        "keyframes" : [
                          {
                            "endTime" : 30,
                            "time" : 0,
                            "value" : 1.0,
                            "duration" : 30
                          }
                        ]
                      },
                      "scale1" : {
                        "type" : "double",
                        "defaultValue" : 0.200000002980232,
                        "interp" : "eioe",
                        "keyframes" : [
                          {
                            "endTime" : 30,
                            "time" : 0,
                            "value" : 1.0,
                            "duration" : 30
                          }
                        ]
                      },
                      "sourceCrop0" : {
                        "type" : "double",
                        "defaultValue" : 0.0,
                        "interp" : "eioe"
                      },
                      "sourceCrop1" : {
                        "type" : "double",
                        "defaultValue" : 0.0,
                        "interp" : "eioe"
                      },
                      "sourceCrop2" : {
                        "type" : "double",
                        "defaultValue" : 0.0,
                        "interp" : "eioe"
                      },
                      "sourceCrop3" : {
                        "type" : "double",
                        "defaultValue" : 0.0,
                        "interp" : "eioe"
                      },
                      "geometryCrop0" : {
                        "type" : "double",
                        "defaultValue" : 0.0,
                        "interp" : "eioe"
                      },
                      "geometryCrop1" : {
                        "type" : "double",
                        "defaultValue" : 0.0,
                        "interp" : "eioe"
                      },
                      "geometryCrop2" : {
                        "type" : "double",
                        "defaultValue" : 0.0,
                        "interp" : "eioe"
                      },
                      "geometryCrop3" : {
                        "type" : "double",
                        "defaultValue" : 0.0,
                        "interp" : "eioe"
                      }
                    },
                    "effects" : [

                    ],
                    "start" : 7504,
                    "duration" : 139,
                    "mediaStart" : 0,
                    "mediaDuration" : 1,
                    "scalar" : 1,
                    "metadata" : {
                      "clipSpeedAttribute" : false,
                      "default-scale" : "1",
                      "effectApplied" : "none",
                      "lockAspectRatio" : true
                    },
                    "animationTracks" : {
                      "visual" : [
                        {
                          "endTime" : 30,
                          "duration" : 30,
                          "range" : [ 0, 30]
                        }
                      ]
                    }
                  },
                  {
                    "id" : 103,
                    "_type" : "IMFile",
                    "src" : 79,
                    "trackNumber" : 0,
                    "trimStartSum" : 0,
                    "attributes" : {
                      "ident" : "__time\nColumn A\nColumn B\nColumn C\nColumn D\nColumn E\nâ€¦\nColumn Z\n2022-01-01T01:00\n-\n-\n-\n-\n-\n\n-\n2022-01-01T01:10\n-\n-\n-\n-\n-\n\n-\n2022-01-01T01:20\n-\n-\n-\n-\n-\n\n-\n"
                    },
                    "parameters" : {
                      "translation0" : {
                        "type" : "double",
                        "defaultValue" : -166.0,
                        "interp" : "eioe"
                      },
                      "translation1" : {
                        "type" : "double",
                        "defaultValue" : -33.0,
                        "interp" : "eioe"
                      },
                      "sourceCrop0" : {
                        "type" : "double",
                        "defaultValue" : 0.0,
                        "interp" : "eioe"
                      },
                      "sourceCrop1" : {
                        "type" : "double",
                        "defaultValue" : 0.0,
                        "interp" : "eioe"
                      },
                      "sourceCrop2" : {
                        "type" : "double",
                        "defaultValue" : 0.0,
                        "interp" : "eioe"
                      },
                      "sourceCrop3" : {
                        "type" : "double",
                        "defaultValue" : 0.0,
                        "interp" : "eioe"
                      },
                      "geometryCrop0" : {
                        "type" : "double",
                        "defaultValue" : 0.0,
                        "interp" : "eioe"
                      },
                      "geometryCrop1" : {
                        "type" : "double",
                        "defaultValue" : 0.0,
                        "interp" : "eioe"
                      },
                      "geometryCrop2" : {
                        "type" : "double",
                        "defaultValue" : 0.0,
                        "interp" : "eioe"
                      },
                      "geometryCrop3" : {
                        "type" : "double",
                        "defaultValue" : 0.0,
                        "interp" : "eioe"
                      }
                    },
                    "effects" : [

                    ],
                    "start" : 10372,
                    "duration" : 283,
                    "mediaStart" : 0,
                    "mediaDuration" : 1,
                    "scalar" : 1,
                    "metadata" : {
                      "clipSpeedAttribute" : false,
                      "default-scale" : "1",
                      "effectApplied" : "none",
                      "lockAspectRatio" : true
                    },
                    "animationTracks" : {

                    }
                  },
                  {
                    "id" : 104,
                    "_type" : "IMFile",
                    "src" : 82,
                    "trackNumber" : 0,
                    "trimStartSum" : 0,
                    "attributes" : {
                      "ident" : "Pasted Image"
                    },
                    "parameters" : {
                      "translation0" : {
                        "type" : "double",
                        "defaultValue" : -134.607528959735,
                        "interp" : "eioe"
                      },
                      "translation1" : {
                        "type" : "double",
                        "defaultValue" : -89.7032985958232,
                        "interp" : "eioe"
                      },
                      "scale0" : {
                        "type" : "double",
                        "defaultValue" : 0.633755454640508,
                        "interp" : "eioe"
                      },
                      "scale1" : {
                        "type" : "double",
                        "defaultValue" : 0.633755454640508,
                        "interp" : "eioe"
                      },
                      "sourceCrop0" : {
                        "type" : "double",
                        "defaultValue" : 0.0,
                        "interp" : "eioe"
                      },
                      "sourceCrop1" : {
                        "type" : "double",
                        "defaultValue" : 0.0,
                        "interp" : "eioe"
                      },
                      "sourceCrop2" : {
                        "type" : "double",
                        "defaultValue" : 0.0,
                        "interp" : "eioe"
                      },
                      "sourceCrop3" : {
                        "type" : "double",
                        "defaultValue" : 0.0,
                        "interp" : "eioe"
                      },
                      "geometryCrop0" : {
                        "type" : "double",
                        "defaultValue" : 0.0,
                        "interp" : "eioe"
                      },
                      "geometryCrop1" : {
                        "type" : "double",
                        "defaultValue" : 0.0,
                        "interp" : "eioe"
                      },
                      "geometryCrop2" : {
                        "type" : "double",
                        "defaultValue" : 0.0,
                        "interp" : "eioe"
                      },
                      "geometryCrop3" : {
                        "type" : "double",
                        "defaultValue" : 0.0,
                        "interp" : "eioe"
                      }
                    },
                    "effects" : [

                    ],
                    "start" : 10927,
                    "duration" : 150,
                    "mediaStart" : 0,
                    "mediaDuration" : 1,
                    "scalar" : 1,
                    "metadata" : {
                      "clipSpeedAttribute" : false,
                      "default-scale" : "0.84408",
                      "effectApplied" : "none",
                      "lockAspectRatio" : true
                    },
                    "animationTracks" : {

                    }
                  },
                  {
                    "id" : 105,
                    "_type" : "IMFile",
                    "src" : 83,
                    "trackNumber" : 0,
                    "trimStartSum" : 0,
                    "attributes" : {
                      "ident" : "Pasted Image"
                    },
                    "parameters" : {
                      "translation0" : {
                        "type" : "double",
                        "defaultValue" : -154.623961335906,
                        "interp" : "eioe"
                      },
                      "translation1" : {
                        "type" : "double",
                        "defaultValue" : -126.297016736324,
                        "interp" : "eioe"
                      },
                      "scale0" : {
                        "type" : "double",
                        "defaultValue" : 0.780381419495096,
                        "interp" : "eioe"
                      },
                      "scale1" : {
                        "type" : "double",
                        "defaultValue" : 0.780381419495096,
                        "interp" : "eioe"
                      },
                      "sourceCrop0" : {
                        "type" : "double",
                        "defaultValue" : 0.0,
                        "interp" : "eioe"
                      },
                      "sourceCrop1" : {
                        "type" : "double",
                        "defaultValue" : 0.0,
                        "interp" : "eioe"
                      },
                      "sourceCrop2" : {
                        "type" : "double",
                        "defaultValue" : 0.0,
                        "interp" : "eioe"
                      },
                      "sourceCrop3" : {
                        "type" : "double",
                        "defaultValue" : 0.0,
                        "interp" : "eioe"
                      },
                      "geometryCrop0" : {
                        "type" : "double",
                        "defaultValue" : 0.0,
                        "interp" : "eioe"
                      },
                      "geometryCrop1" : {
                        "type" : "double",
                        "defaultValue" : 0.0,
                        "interp" : "eioe"
                      },
                      "geometryCrop2" : {
                        "type" : "double",
                        "defaultValue" : 0.0,
                        "interp" : "eioe"
                      },
                      "geometryCrop3" : {
                        "type" : "double",
                        "defaultValue" : 0.0,
                        "interp" : "eioe"
                      }
                    },
                    "effects" : [

                    ],
                    "start" : 11077,
                    "duration" : 219,
                    "mediaStart" : 0,
                    "mediaDuration" : 1,
                    "scalar" : 1,
                    "metadata" : {
                      "clipSpeedAttribute" : false,
                      "default-scale" : "1",
                      "effectApplied" : "none",
                      "lockAspectRatio" : true
                    },
                    "animationTracks" : {

                    }
                  }
                ],
                "transitions" : [
                  {
                    "name" : "Fade",
                    "duration" : 30,
                    "rightMedia" : 103,
                    "attributes" : {
                      "bypass" : false,
                      "reverse" : false,
                      "trivial" : false,
                      "useAudioPreRoll" : true,
                      "useVisualPreRoll" : true
                    }

                  },
                  {
                    "name" : "Fade",
                    "duration" : 30,
                    "leftMedia" : 103,
                    "attributes" : {
                      "bypass" : false,
                      "reverse" : false,
                      "trivial" : false,
                      "useAudioPreRoll" : true,
                      "useVisualPreRoll" : true
                    }

                  },
                  {
                    "name" : "Fade",
                    "duration" : 30,
                    "rightMedia" : 104,
                    "attributes" : {
                      "bypass" : false,
                      "reverse" : false,
                      "trivial" : false,
                      "useAudioPreRoll" : true,
                      "useVisualPreRoll" : true
                    }

                  },
                  {
                    "name" : "Fade",
                    "duration" : 30,
                    "leftMedia" : 104,
                    "rightMedia" : 105,
                    "attributes" : {
                      "bypass" : false,
                      "reverse" : false,
                      "trivial" : false,
                      "useAudioPreRoll" : true,
                      "useVisualPreRoll" : true
                    }

                  },
                  {
                    "name" : "Fade",
                    "duration" : 30,
                    "leftMedia" : 105,
                    "attributes" : {
                      "bypass" : false,
                      "reverse" : false,
                      "trivial" : false,
                      "useAudioPreRoll" : true,
                      "useVisualPreRoll" : true
                    }

                  }
                ]
              },
              {
                "trackIndex" : 6,
                "medias" : [
                  {
                    "id" : 106,
                    "_type" : "AMFile",
                    "src" : 2,
                    "trackNumber" : 1,
                    "attributes" : {
                      "ident" : "16 - talkingHead",
                      "gain" : 1.0,
                      "mixToMono" : false,
                      "loudnessNormalization" : true
                    },
                      "channelNumber" : "0,1",
                    "effects" : [

                    ],
                    "start" : 93,
                    "duration" : 1973,
                    "mediaStart" : 0,
                    "mediaDuration" : 1973,
                    "scalar" : 1,
                    "metadata" : {
                      "clipSpeedAttribute" : false,
                      "effectApplied" : "none"
                    },
                    "animationTracks" : {

                    }
                  },
                  {
                    "id" : 107,
                    "_type" : "AMFile",
                    "src" : 2,
                    "trackNumber" : 1,
                    "attributes" : {
                      "ident" : "16 - talkingHead",
                      "gain" : 1.0,
                      "mixToMono" : false,
                      "loudnessNormalization" : true
                    },
                      "channelNumber" : "0,1",
                    "effects" : [

                    ],
                    "start" : 2088,
                    "duration" : 4,
                    "mediaStart" : 2001,
                    "mediaDuration" : 4,
                    "scalar" : 1,
                    "metadata" : {
                      "clipSpeedAttribute" : false,
                      "effectApplied" : "none"
                    },
                    "animationTracks" : {

                    }
                  },
                  {
                    "id" : 108,
                    "_type" : "AMFile",
                    "src" : 2,
                    "trackNumber" : 1,
                    "attributes" : {
                      "ident" : "16 - talkingHead",
                      "gain" : 1.0,
                      "mixToMono" : false,
                      "loudnessNormalization" : true
                    },
                      "channelNumber" : "0,1",
                    "effects" : [

                    ],
                    "start" : 2092,
                    "duration" : 6,
                    "mediaStart" : 9517,
                    "mediaDuration" : 6,
                    "scalar" : 1,
                    "metadata" : {
                      "clipSpeedAttribute" : false,
                      "effectApplied" : "none"
                    },
                    "animationTracks" : {

                    }
                  },
                  {
                    "id" : 109,
                    "_type" : "AMFile",
                    "src" : 2,
                    "trackNumber" : 1,
                    "attributes" : {
                      "ident" : "16 - talkingHead",
                      "gain" : 1.0,
                      "mixToMono" : false,
                      "loudnessNormalization" : true
                    },
                      "channelNumber" : "0,1",
                    "effects" : [

                    ],
                    "start" : 2098,
                    "duration" : 88,
                    "mediaStart" : 2005,
                    "mediaDuration" : 88,
                    "scalar" : 1,
                    "metadata" : {
                      "clipSpeedAttribute" : false,
                      "effectApplied" : "none"
                    },
                    "animationTracks" : {

                    }
                  },
                  {
                    "id" : 110,
                    "_type" : "AMFile",
                    "src" : 2,
                    "trackNumber" : 1,
                    "attributes" : {
                      "ident" : "16 - talkingHead",
                      "gain" : 1.0,
                      "mixToMono" : false,
                      "loudnessNormalization" : true
                    },
                      "channelNumber" : "0,1",
                    "effects" : [

                    ],
                    "start" : 2186,
                    "duration" : 16,
                    "mediaStart" : 2093,
                    "mediaDuration" : 16,
                    "scalar" : 1,
                    "metadata" : {
                      "clipSpeedAttribute" : false,
                      "effectApplied" : "none"
                    },
                    "animationTracks" : {

                    }
                  },
                  {
                    "id" : 111,
                    "_type" : "IMFile",
                    "src" : 56,
                    "trackNumber" : 0,
                    "trimStartSum" : 0,
                    "attributes" : {
                      "ident" : "Pasted Image"
                    },
                    "parameters" : {
                      "translation0" : {
                        "type" : "double",
                        "defaultValue" : -166.0,
                        "interp" : "eioe"
                      },
                      "translation1" : {
                        "type" : "double",
                        "defaultValue" : -289.0,
                        "interp" : "eioe"
                      },
                      "sourceCrop0" : {
                        "type" : "double",
                        "defaultValue" : 0.0,
                        "interp" : "eioe"
                      },
                      "sourceCrop1" : {
                        "type" : "double",
                        "defaultValue" : 0.0,
                        "interp" : "eioe"
                      },
                      "sourceCrop2" : {
                        "type" : "double",
                        "defaultValue" : 0.0,
                        "interp" : "eioe"
                      },
                      "sourceCrop3" : {
                        "type" : "double",
                        "defaultValue" : 0.0,
                        "interp" : "eioe"
                      },
                      "geometryCrop0" : {
                        "type" : "double",
                        "defaultValue" : 0.0,
                        "interp" : "eioe"
                      },
                      "geometryCrop1" : {
                        "type" : "double",
                        "defaultValue" : 0.0,
                        "interp" : "eioe"
                      },
                      "geometryCrop2" : {
                        "type" : "double",
                        "defaultValue" : 0.0,
                        "interp" : "eioe"
                      },
                      "geometryCrop3" : {
                        "type" : "double",
                        "defaultValue" : 0.0,
                        "interp" : "eioe"
                      }
                    },
                    "effects" : [

                    ],
                    "start" : 6969,
                    "duration" : 552,
                    "mediaStart" : 0,
                    "mediaDuration" : 1,
                    "scalar" : 1,
                    "metadata" : {
                      "clipSpeedAttribute" : false,
                      "default-scale" : "1",
                      "effectApplied" : "none",
                      "lockAspectRatio" : true
                    },
                    "animationTracks" : {

                    }
                  },
                  {
                    "id" : 112,
                    "_type" : "IMFile",
                    "src" : 63,
                    "trackNumber" : 0,
                    "trimStartSum" : 0,
                    "attributes" : {
                      "ident" : "Pasted Image"
                    },
                    "parameters" : {
                      "translation0" : {
                        "type" : "double",
                        "defaultValue" : -428.0,
                        "interp" : "eioe",
                        "keyframes" : [
                          {
                            "endTime" : 90,
                            "time" : 60,
                            "value" : -466.815934655927,
                            "duration" : 30
                          },
                          {
                            "endTime" : 293,
                            "time" : 263,
                            "value" : -428.0,
                            "duration" : 30
                          }
                        ]
                      },
                      "translation1" : {
                        "type" : "double",
                        "defaultValue" : 19.0,
                        "interp" : "eioe",
                        "keyframes" : [
                          {
                            "endTime" : 90,
                            "time" : 60,
                            "value" : -186.184065344073,
                            "duration" : 30
                          },
                          {
                            "endTime" : 293,
                            "time" : 263,
                            "value" : 19.0,
                            "duration" : 30
                          }
                        ]
                      },
                      "scale0" : {
                        "type" : "double",
                        "defaultValue" : 1.0,
                        "interp" : "eioe",
                        "keyframes" : [
                          {
                            "endTime" : 90,
                            "time" : 60,
                            "value" : 2.03745959228321,
                            "duration" : 30
                          },
                          {
                            "endTime" : 293,
                            "time" : 263,
                            "value" : 1.0,
                            "duration" : 30
                          }
                        ]
                      },
                      "scale1" : {
                        "type" : "double",
                        "defaultValue" : 1.0,
                        "interp" : "eioe",
                        "keyframes" : [
                          {
                            "endTime" : 90,
                            "time" : 60,
                            "value" : 2.03745959228321,
                            "duration" : 30
                          },
                          {
                            "endTime" : 293,
                            "time" : 263,
                            "value" : 1.0,
                            "duration" : 30
                          }
                        ]
                      },
                      "sourceCrop0" : {
                        "type" : "double",
                        "defaultValue" : 0.0,
                        "interp" : "eioe"
                      },
                      "sourceCrop1" : {
                        "type" : "double",
                        "defaultValue" : 0.0,
                        "interp" : "eioe"
                      },
                      "sourceCrop2" : {
                        "type" : "double",
                        "defaultValue" : 0.0,
                        "interp" : "eioe"
                      },
                      "sourceCrop3" : {
                        "type" : "double",
                        "defaultValue" : 0.0,
                        "interp" : "eioe"
                      },
                      "geometryCrop0" : {
                        "type" : "double",
                        "defaultValue" : 0.0,
                        "interp" : "eioe"
                      },
                      "geometryCrop1" : {
                        "type" : "double",
                        "defaultValue" : 0.0,
                        "interp" : "eioe"
                      },
                      "geometryCrop2" : {
                        "type" : "double",
                        "defaultValue" : 0.0,
                        "interp" : "eioe"
                      },
                      "geometryCrop3" : {
                        "type" : "double",
                        "defaultValue" : 0.0,
                        "interp" : "eioe"
                      }
                    },
                    "effects" : [

                    ],
                    "start" : 7643,
                    "duration" : 2466,
                    "mediaStart" : 0,
                    "mediaDuration" : 1,
                    "scalar" : 1,
                    "metadata" : {
                      "clipSpeedAttribute" : false,
                      "default-scale" : "1",
                      "effectApplied" : "none",
                      "lockAspectRatio" : true
                    },
                    "animationTracks" : {
                      "visual" : [
                        {
                          "endTime" : 90,
                          "duration" : 30,
                          "range" : [ 60, 30]
                        },
                        {
                          "endTime" : 293,
                          "duration" : 30,
                          "range" : [ 263, 30]
                        }
                      ]
                    }
                  },
                  {
                    "id" : 113,
                    "_type" : "IMFile",
                    "src" : 80,
                    "trackNumber" : 0,
                    "trimStartSum" : 0,
                    "attributes" : {
                      "ident" : "Pasted Image"
                    },
                    "parameters" : {
                      "translation0" : {
                        "type" : "double",
                        "defaultValue" : -166.0,
                        "interp" : "eioe"
                      },
                      "translation1" : {
                        "type" : "double",
                        "defaultValue" : -238.0,
                        "interp" : "eioe"
                      },
                      "sourceCrop0" : {
                        "type" : "double",
                        "defaultValue" : 0.0,
                        "interp" : "eioe"
                      },
                      "sourceCrop1" : {
                        "type" : "double",
                        "defaultValue" : 0.0,
                        "interp" : "eioe"
                      },
                      "sourceCrop2" : {
                        "type" : "double",
                        "defaultValue" : 0.0,
                        "interp" : "eioe"
                      },
                      "sourceCrop3" : {
                        "type" : "double",
                        "defaultValue" : 0.0,
                        "interp" : "eioe"
                      },
                      "geometryCrop0" : {
                        "type" : "double",
                        "defaultValue" : 0.0,
                        "interp" : "eioe"
                      },
                      "geometryCrop1" : {
                        "type" : "double",
                        "defaultValue" : 0.0,
                        "interp" : "eioe"
                      },
                      "geometryCrop2" : {
                        "type" : "double",
                        "defaultValue" : 0.0,
                        "interp" : "eioe"
                      },
                      "geometryCrop3" : {
                        "type" : "double",
                        "defaultValue" : 0.0,
                        "interp" : "eioe"
                      }
                    },
                    "effects" : [

                    ],
                    "start" : 10456,
                    "duration" : 199,
                    "mediaStart" : 0,
                    "mediaDuration" : 1,
                    "scalar" : 1,
                    "metadata" : {
                      "clipSpeedAttribute" : false,
                      "default-scale" : "1",
                      "effectApplied" : "none",
                      "lockAspectRatio" : true
                    },
                    "animationTracks" : {

                    }
                  }
                ],
                "transitions" : [
                  {
                    "name" : "Fade",
                    "duration" : 30,
                    "rightMedia" : 111,
                    "attributes" : {
                      "bypass" : false,
                      "reverse" : false,
                      "trivial" : false,
                      "useAudioPreRoll" : true,
                      "useVisualPreRoll" : true
                    }

                  },
                  {
                    "name" : "Fade",
                    "duration" : 30,
                    "leftMedia" : 111,
                    "attributes" : {
                      "bypass" : false,
                      "reverse" : false,
                      "trivial" : false,
                      "useAudioPreRoll" : true,
                      "useVisualPreRoll" : true
                    }

                  },
                  {
                    "name" : "Fade",
                    "duration" : 30,
                    "leftMedia" : 112,
                    "attributes" : {
                      "bypass" : false,
                      "reverse" : false,
                      "trivial" : false,
                      "useAudioPreRoll" : true,
                      "useVisualPreRoll" : true
                    }

                  },
                  {
                    "name" : "Fade",
                    "duration" : 30,
                    "rightMedia" : 113,
                    "attributes" : {
                      "bypass" : false,
                      "reverse" : false,
                      "trivial" : false,
                      "useAudioPreRoll" : true,
                      "useVisualPreRoll" : true
                    }

                  },
                  {
                    "name" : "Fade",
                    "duration" : 30,
                    "leftMedia" : 113,
                    "attributes" : {
                      "bypass" : false,
                      "reverse" : false,
                      "trivial" : false,
                      "useAudioPreRoll" : true,
                      "useVisualPreRoll" : true
                    }

                  }
                ]
              },
              {
                "trackIndex" : 7,
                "medias" : [
                  {
                    "id" : 114,
                    "_type" : "IMFile",
                    "src" : 65,
                    "trackNumber" : 0,
                    "trimStartSum" : 0,
                    "attributes" : {
                      "ident" : "Pasted Image"
                    },
                    "parameters" : {
                      "translation0" : {
                        "type" : "double",
                        "defaultValue" : -310.0,
                        "interp" : "eioe",
                        "keyframes" : [
                          {
                            "endTime" : 30,
                            "time" : 0,
                            "value" : -428.0,
                            "duration" : 30
                          },
                          {
                            "endTime" : 172,
                            "time" : 142,
                            "value" : -466.0,
                            "duration" : 30
                          },
                          {
                            "endTime" : 375,
                            "time" : 345,
                            "value" : -428.0,
                            "duration" : 30
                          }
                        ]
                      },
                      "translation1" : {
                        "type" : "double",
                        "defaultValue" : -305.0,
                        "interp" : "eioe",
                        "keyframes" : [
                          {
                            "endTime" : 30,
                            "time" : 0,
                            "value" : -41.0,
                            "duration" : 30
                          },
                          {
                            "endTime" : 172,
                            "time" : 142,
                            "value" : -309.0,
                            "duration" : 30
                          },
                          {
                            "endTime" : 375,
                            "time" : 345,
                            "value" : -41.0,
                            "duration" : 30
                          }
                        ]
                      },
                      "scale0" : {
                        "type" : "double",
                        "defaultValue" : 1.0,
                        "interp" : "eioe",
                        "keyframes" : [
                          {
                            "endTime" : 30,
                            "time" : 0,
                            "value" : 0.800000011920929,
                            "duration" : 30
                          },
                          {
                            "endTime" : 172,
                            "time" : 142,
                            "value" : 1.5,
                            "duration" : 30
                          },
                          {
                            "endTime" : 375,
                            "time" : 345,
                            "value" : 0.800000011920929,
                            "duration" : 30
                          }
                        ]
                      },
                      "scale1" : {
                        "type" : "double",
                        "defaultValue" : 1.0,
                        "interp" : "eioe",
                        "keyframes" : [
                          {
                            "endTime" : 30,
                            "time" : 0,
                            "value" : 0.800000011920929,
                            "duration" : 30
                          },
                          {
                            "endTime" : 172,
                            "time" : 142,
                            "value" : 1.5,
                            "duration" : 30
                          },
                          {
                            "endTime" : 375,
                            "time" : 345,
                            "value" : 0.800000011920929,
                            "duration" : 30
                          }
                        ]
                      },
                      "sourceCrop0" : {
                        "type" : "double",
                        "defaultValue" : 0.0,
                        "interp" : "eioe"
                      },
                      "sourceCrop1" : {
                        "type" : "double",
                        "defaultValue" : 0.0,
                        "interp" : "eioe"
                      },
                      "sourceCrop2" : {
                        "type" : "double",
                        "defaultValue" : 0.0,
                        "interp" : "eioe"
                      },
                      "sourceCrop3" : {
                        "type" : "double",
                        "defaultValue" : 0.0,
                        "interp" : "eioe"
                      },
                      "geometryCrop0" : {
                        "type" : "double",
                        "defaultValue" : 0.0,
                        "interp" : "eioe"
                      },
                      "geometryCrop1" : {
                        "type" : "double",
                        "defaultValue" : 0.0,
                        "interp" : "eioe"
                      },
                      "geometryCrop2" : {
                        "type" : "double",
                        "defaultValue" : 0.0,
                        "interp" : "eioe"
                      },
                      "geometryCrop3" : {
                        "type" : "double",
                        "defaultValue" : 0.0,
                        "interp" : "eioe"
                      }
                    },
                    "effects" : [

                    ],
                    "start" : 7561,
                    "duration" : 2548,
                    "mediaStart" : 0,
                    "mediaDuration" : 1,
                    "scalar" : 1,
                    "metadata" : {
                      "clipSpeedAttribute" : false,
                      "default-scale" : "1",
                      "effectApplied" : "none",
                      "lockAspectRatio" : true
                    },
                    "animationTracks" : {
                      "visual" : [
                        {
                          "endTime" : 30,
                          "duration" : 30,
                          "range" : [ 0, 30]
                        },
                        {
                          "endTime" : 172,
                          "duration" : 30,
                          "range" : [ 142, 30]
                        },
                        {
                          "endTime" : 375,
                          "duration" : 30,
                          "range" : [ 345, 30]
                        }
                      ]
                    }
                  }
                ],
                "transitions" : [
                  {
                    "name" : "Fade",
                    "duration" : 30,
                    "leftMedia" : 114,
                    "attributes" : {
                      "bypass" : false,
                      "reverse" : false,
                      "trivial" : false,
                      "useAudioPreRoll" : true,
                      "useVisualPreRoll" : true
                    }

                  }
                ]
              },
              {
                "trackIndex" : 8,
                "medias" : [
                  {
                    "id" : 115,
                    "_type" : "IMFile",
                    "src" : 4,
                    "trackNumber" : 0,
                    "trimStartSum" : -69,
                    "attributes" : {
                      "ident" : "Pasted Image"
                    },
                    "parameters" : {
                      "translation0" : -166.0,
                      "translation1" : -132.92124495034,
                      "scale0" : 0.63077431958239,
                      "scale1" : 0.63077431958239,
                      "sourceCrop0" : 0.0,
                      "sourceCrop1" : 0.0,
                      "sourceCrop2" : 0.0,
                      "sourceCrop3" : 0.0,
                      "geometryCrop0" : 0.0,
                      "geometryCrop1" : 0.0,
                      "geometryCrop2" : 0.0,
                      "geometryCrop3" : 0.0
                    },
                    "effects" : [

                    ],
                    "start" : 306,
                    "duration" : 366,
                    "mediaStart" : 0,
                    "mediaDuration" : 1,
                    "scalar" : 1,
                    "metadata" : {
                      "clipSpeedAttribute" : false,
                      "default-scale" : "1",
                      "effectApplied" : "none",
                      "lockAspectRatio" : true
                    },
                    "animationTracks" : {

                    }
                  },
                  {
                    "id" : 116,
                    "_type" : "IMFile",
                    "src" : 6,
                    "trackNumber" : 0,
                    "trimStartSum" : 0,
                    "attributes" : {
                      "ident" : "Pasted Image"
                    },
                    "parameters" : {
                      "translation0" : 112.0,
                      "translation1" : 19.0,
                      "sourceCrop0" : 0.0,
                      "sourceCrop1" : 0.0,
                      "sourceCrop2" : 0.0,
                      "sourceCrop3" : 0.0,
                      "geometryCrop0" : 0.0,
                      "geometryCrop1" : 0.0,
                      "geometryCrop2" : 0.0,
                      "geometryCrop3" : 0.0
                    },
                    "effects" : [

                    ],
                    "start" : 842,
                    "duration" : 209,
                    "mediaStart" : 0,
                    "mediaDuration" : 1,
                    "scalar" : 1,
                    "metadata" : {
                      "clipSpeedAttribute" : false,
                      "default-scale" : "1",
                      "effectApplied" : "none",
                      "lockAspectRatio" : true
                    },
                    "animationTracks" : {

                    }
                  },
                  {
                    "id" : 117,
                    "_type" : "IMFile",
                    "src" : 22,
                    "trackNumber" : 0,
                    "trimStartSum" : 0,
                    "attributes" : {
                      "ident" : "Pasted Image"
                    },
                    "parameters" : {
                      "translation0" : 472.0,
                      "translation1" : 60.0,
                      "sourceCrop0" : 0.0,
                      "sourceCrop1" : 0.0,
                      "sourceCrop2" : 0.0,
                      "sourceCrop3" : 0.0,
                      "geometryCrop0" : 0.0,
                      "geometryCrop1" : 0.0,
                      "geometryCrop2" : 0.0,
                      "geometryCrop3" : 0.0
                    },
                    "effects" : [

                    ],
                    "start" : 2122,
                    "duration" : 172,
                    "mediaStart" : 0,
                    "mediaDuration" : 1,
                    "scalar" : 1,
                    "metadata" : {
                      "clipSpeedAttribute" : false,
                      "default-scale" : "1",
                      "effectApplied" : "none",
                      "lockAspectRatio" : true
                    },
                    "animationTracks" : {

                    }
                  },
                  {
                    "id" : 118,
                    "_type" : "IMFile",
                    "src" : 27,
                    "trackNumber" : 0,
                    "trimStartSum" : 0,
                    "attributes" : {
                      "ident" : "Pasted Image"
                    },
                    "parameters" : {
                      "translation0" : {
                        "type" : "double",
                        "defaultValue" : -539.0,
                        "keyframes" : [
                          {
                            "endTime" : 65,
                            "time" : 51,
                            "value" : -166.0,
                            "duration" : 14
                          }
                        ]
                      },
                      "translation1" : {
                        "type" : "double",
                        "defaultValue" : -244.0,
                        "keyframes" : [
                          {
                            "endTime" : 65,
                            "time" : 51,
                            "value" : -74.0,
                            "duration" : 14
                          }
                        ]
                      },
                      "scale0" : {
                        "type" : "double",
                        "defaultValue" : 1.0,
                        "keyframes" : [
                          {
                            "endTime" : 65,
                            "time" : 51,
                            "value" : 0.899999976158142,
                            "duration" : 14
                          }
                        ]
                      },
                      "scale1" : {
                        "type" : "double",
                        "defaultValue" : 1.0,
                        "keyframes" : [
                          {
                            "endTime" : 65,
                            "time" : 51,
                            "value" : 0.899999976158142,
                            "duration" : 14
                          }
                        ]
                      },
                      "sourceCrop0" : 0.0,
                      "sourceCrop1" : 0.0,
                      "sourceCrop2" : 0.0,
                      "sourceCrop3" : 0.0,
                      "geometryCrop0" : 0.0,
                      "geometryCrop1" : 0.0,
                      "geometryCrop2" : 0.0,
                      "geometryCrop3" : 0.0
                    },
                    "effects" : [

                    ],
                    "start" : 2393,
                    "duration" : 65,
                    "mediaStart" : 0,
                    "mediaDuration" : 1,
                    "scalar" : 1,
                    "metadata" : {
                      "clipSpeedAttribute" : false,
                      "default-scale" : "1",
                      "effectApplied" : "none",
                      "lockAspectRatio" : true
                    },
                    "animationTracks" : {
                      "visual" : [
                        {
                          "endTime" : 65,
                          "duration" : 14,
                          "range" : [ 51, 14]
                        }
                      ]
                    }
                  },
                  {
                    "id" : 119,
                    "_type" : "IMFile",
                    "src" : 27,
                    "trackNumber" : 0,
                    "trimStartSum" : 262,
                    "attributes" : {
                      "ident" : "Pasted Image"
                    },
                    "parameters" : {
                      "translation0" : {
                        "type" : "double",
                        "defaultValue" : -165.0,
                        "keyframes" : [
                          {
                            "endTime" : 168,
                            "time" : 149,
                            "value" : -165.0,
                            "duration" : 19
                          },
                          {
                            "endTime" : 280,
                            "time" : 262,
                            "value" : -15.0,
                            "duration" : 18
                          },
                          {
                            "endTime" : 319,
                            "time" : 302,
                            "value" : -165.0,
                            "duration" : 17
                          }
                        ]
                      },
                      "translation1" : {
                        "type" : "double",
                        "defaultValue" : -243.0,
                        "keyframes" : [
                          {
                            "endTime" : 168,
                            "time" : 149,
                            "value" : -243.0,
                            "duration" : 19
                          },
                          {
                            "endTime" : 280,
                            "time" : 262,
                            "value" : -93.0,
                            "duration" : 18
                          },
                          {
                            "endTime" : 319,
                            "time" : 302,
                            "value" : -243.0,
                            "duration" : 17
                          }
                        ]
                      },
                      "scale0" : {
                        "type" : "double",
                        "defaultValue" : 1.5,
                        "keyframes" : [
                          {
                            "endTime" : 168,
                            "time" : 149,
                            "value" : 1.5,
                            "duration" : 19
                          }
                        ]
                      },
                      "scale1" : {
                        "type" : "double",
                        "defaultValue" : 1.5,
                        "keyframes" : [
                          {
                            "endTime" : 168,
                            "time" : 149,
                            "value" : 1.5,
                            "duration" : 19
                          }
                        ]
                      },
                      "sourceCrop0" : 0.0,
                      "sourceCrop1" : 0.0,
                      "sourceCrop2" : 0.0,
                      "sourceCrop3" : 0.0,
                      "geometryCrop0" : 0.0,
                      "geometryCrop1" : 0.0,
                      "geometryCrop2" : 0.0,
                      "geometryCrop3" : 0.0
                    },
                    "effects" : [

                    ],
                    "start" : 2636,
                    "duration" : 57,
                    "mediaStart" : 0,
                    "mediaDuration" : 1,
                    "scalar" : 1,
                    "metadata" : {
                      "clipSpeedAttribute" : false,
                      "default-scale" : "1",
                      "effectApplied" : "none",
                      "lockAspectRatio" : true
                    },
                    "animationTracks" : {
                      "visual" : [
                        {
                          "endTime" : 168,
                          "duration" : 19,
                          "range" : [ 149, 19]
                        },
                        {
                          "endTime" : 280,
                          "duration" : 18,
                          "range" : [ 262, 18]
                        },
                        {
                          "endTime" : 319,
                          "duration" : 17,
                          "range" : [ 302, 17]
                        }
                      ]
                    }
                  },
                  {
                    "id" : 120,
                    "_type" : "IMFile",
                    "src" : 28,
                    "trackNumber" : 0,
                    "trimStartSum" : 0,
                    "attributes" : {
                      "ident" : "Pasted Image"
                    },
                    "parameters" : {
                      "translation0" : 87.0,
                      "translation1" : {
                        "type" : "double",
                        "defaultValue" : -186.0,
                        "keyframes" : [
                          {
                            "endTime" : 505,
                            "time" : 489,
                            "value" : -208.0,
                            "duration" : 16
                          }
                        ]
                      },
                      "rotation2" : {
                        "type" : "double",
                        "defaultValue" : 0.0,
                        "keyframes" : [
                          {
                            "endTime" : 505,
                            "time" : 489,
                            "value" : 0.0890117918517108,
                            "duration" : 16
                          }
                        ]
                      },
                      "sourceCrop0" : 0.0,
                      "sourceCrop1" : 0.0,
                      "sourceCrop2" : 0.0,
                      "sourceCrop3" : 0.0,
                      "geometryCrop0" : 0.0,
                      "geometryCrop1" : 0.0,
                      "geometryCrop2" : 0.0,
                      "geometryCrop3" : 0.0
                    },
                    "effects" : [

                    ],
                    "start" : 2881,
                    "duration" : 647,
                    "mediaStart" : 0,
                    "mediaDuration" : 1,
                    "scalar" : 1,
                    "metadata" : {
                      "clipSpeedAttribute" : false,
                      "default-scale" : "1",
                      "effectApplied" : "none",
                      "lockAspectRatio" : true
                    },
                    "animationTracks" : {
                      "visual" : [
                        {
                          "endTime" : 505,
                          "duration" : 16,
                          "range" : [ 489, 16]
                        }
                      ]
                    }
                  },
                  {
                    "id" : 121,
                    "_type" : "IMFile",
                    "src" : 33,
                    "trackNumber" : 0,
                    "trimStartSum" : 0,
                    "attributes" : {
                      "ident" : "Pasted Image"
                    },
                    "parameters" : {
                      "translation0" : 228.0,
                      "translation1" : -126.0,
                      "sourceCrop0" : 0.0,
                      "sourceCrop1" : 0.0,
                      "sourceCrop2" : 0.0,
                      "sourceCrop3" : 0.0,
                      "geometryCrop0" : 0.0,
                      "geometryCrop1" : 0.0,
                      "geometryCrop2" : 0.0,
                      "geometryCrop3" : 0.0
                    },
                    "effects" : [

                    ],
                    "start" : 3532,
                    "duration" : 507,
                    "mediaStart" : 0,
                    "mediaDuration" : 1,
                    "scalar" : 1,
                    "metadata" : {
                      "clipSpeedAttribute" : false,
                      "default-scale" : "1",
                      "effectApplied" : "none",
                      "lockAspectRatio" : true
                    },
                    "animationTracks" : {

                    }
                  },
                  {
                    "id" : 122,
                    "_type" : "IMFile",
                    "src" : 37,
                    "trackNumber" : 0,
                    "trimStartSum" : 0,
                    "attributes" : {
                      "ident" : "Pasted Image"
                    },
                    "parameters" : {
                      "translation0" : -405.0,
                      "translation1" : -102.0,
                      "scale0" : 0.899999976158142,
                      "scale1" : 0.899999976158142,
                      "sourceCrop0" : 0.0,
                      "sourceCrop1" : 0.0,
                      "sourceCrop2" : 0.0,
                      "sourceCrop3" : 0.0,
                      "geometryCrop0" : 0.0,
                      "geometryCrop1" : 0.0,
                      "geometryCrop2" : 0.0,
                      "geometryCrop3" : 0.0
                    },
                    "effects" : [

                    ],
                    "start" : 4114,
                    "duration" : 558,
                    "mediaStart" : 0,
                    "mediaDuration" : 1,
                    "scalar" : 1,
                    "metadata" : {
                      "clipSpeedAttribute" : false,
                      "default-scale" : "1",
                      "effectApplied" : "none",
                      "lockAspectRatio" : true
                    },
                    "animationTracks" : {

                    }
                  },
                  {
                    "id" : 123,
                    "_type" : "IMFile",
                    "src" : 41,
                    "trackNumber" : 0,
                    "trimStartSum" : 0,
                    "attributes" : {
                      "ident" : "Pasted Image"
                    },
                    "parameters" : {
                      "translation0" : {
                        "type" : "double",
                        "defaultValue" : -76.0,
                        "interp" : "eioe"
                      },
                      "translation1" : {
                        "type" : "double",
                        "defaultValue" : -85.0,
                        "interp" : "eioe"
                      },
                      "scale0" : {
                        "type" : "double",
                        "defaultValue" : 1.5,
                        "interp" : "eioe"
                      },
                      "scale1" : {
                        "type" : "double",
                        "defaultValue" : 1.5,
                        "interp" : "eioe"
                      },
                      "sourceCrop0" : {
                        "type" : "double",
                        "defaultValue" : 0.0,
                        "interp" : "eioe"
                      },
                      "sourceCrop1" : {
                        "type" : "double",
                        "defaultValue" : 0.0,
                        "interp" : "eioe"
                      },
                      "sourceCrop2" : {
                        "type" : "double",
                        "defaultValue" : 0.0,
                        "interp" : "eioe"
                      },
                      "sourceCrop3" : {
                        "type" : "double",
                        "defaultValue" : 0.0,
                        "interp" : "eioe"
                      },
                      "geometryCrop0" : {
                        "type" : "double",
                        "defaultValue" : 0.0,
                        "interp" : "eioe"
                      },
                      "geometryCrop1" : {
                        "type" : "double",
                        "defaultValue" : 0.0,
                        "interp" : "eioe"
                      },
                      "geometryCrop2" : {
                        "type" : "double",
                        "defaultValue" : 0.0,
                        "interp" : "eioe"
                      },
                      "geometryCrop3" : {
                        "type" : "double",
                        "defaultValue" : 0.0,
                        "interp" : "eioe"
                      }
                    },
                    "effects" : [

                    ],
                    "start" : 4904,
                    "duration" : 465,
                    "mediaStart" : 0,
                    "mediaDuration" : 1,
                    "scalar" : 1,
                    "metadata" : {
                      "clipSpeedAttribute" : false,
                      "default-scale" : "1",
                      "effectApplied" : "none",
                      "lockAspectRatio" : true
                    },
                    "animationTracks" : {

                    }
                  },
                  {
                    "id" : 124,
                    "_type" : "IMFile",
                    "src" : 40,
                    "trackNumber" : 0,
                    "trimStartSum" : 0,
                    "attributes" : {
                      "ident" : "Pasted Image"
                    },
                    "parameters" : {
                      "translation0" : {
                        "type" : "double",
                        "defaultValue" : -266.144675785215,
                        "interp" : "eioe"
                      },
                      "translation1" : {
                        "type" : "double",
                        "defaultValue" : -111.271484818727,
                        "interp" : "eioe"
                      },
                      "scale0" : {
                        "type" : "double",
                        "defaultValue" : 1.17938305670566,
                        "interp" : "eioe"
                      },
                      "scale1" : {
                        "type" : "double",
                        "defaultValue" : 1.17938305670566,
                        "interp" : "eioe"
                      },
                      "sourceCrop0" : {
                        "type" : "double",
                        "defaultValue" : 0.0,
                        "interp" : "eioe"
                      },
                      "sourceCrop1" : {
                        "type" : "double",
                        "defaultValue" : 0.0,
                        "interp" : "eioe"
                      },
                      "sourceCrop2" : {
                        "type" : "double",
                        "defaultValue" : 0.0,
                        "interp" : "eioe"
                      },
                      "sourceCrop3" : {
                        "type" : "double",
                        "defaultValue" : 0.0,
                        "interp" : "eioe"
                      },
                      "geometryCrop0" : {
                        "type" : "double",
                        "defaultValue" : 0.0,
                        "interp" : "eioe"
                      },
                      "geometryCrop1" : {
                        "type" : "double",
                        "defaultValue" : 0.0,
                        "interp" : "eioe"
                      },
                      "geometryCrop2" : {
                        "type" : "double",
                        "defaultValue" : 0.0,
                        "interp" : "eioe"
                      },
                      "geometryCrop3" : {
                        "type" : "double",
                        "defaultValue" : 0.0,
                        "interp" : "eioe"
                      }
                    },
                    "effects" : [

                    ],
                    "start" : 5372,
                    "duration" : 442,
                    "mediaStart" : 0,
                    "mediaDuration" : 1,
                    "scalar" : 1,
                    "metadata" : {
                      "clipSpeedAttribute" : false,
                      "default-scale" : "1",
                      "effectApplied" : "none",
                      "lockAspectRatio" : true
                    },
                    "animationTracks" : {

                    }
                  },
                  {
                    "id" : 125,
                    "_type" : "IMFile",
                    "src" : 42,
                    "trackNumber" : 0,
                    "trimStartSum" : 0,
                    "attributes" : {
                      "ident" : "Pasted Image"
                    },
                    "parameters" : {
                      "translation0" : {
                        "type" : "double",
                        "defaultValue" : -481.0,
                        "interp" : "eioe",
                        "keyframes" : [
                          {
                            "endTime" : 16,
                            "time" : 0,
                            "value" : -77.0,
                            "duration" : 16
                          },
                          {
                            "endTime" : 175,
                            "time" : 151,
                            "value" : -77.0,
                            "duration" : 24
                          }
                        ]
                      },
                      "translation1" : {
                        "type" : "double",
                        "defaultValue" : -104.0,
                        "interp" : "eioe",
                        "keyframes" : [
                          {
                            "endTime" : 16,
                            "time" : 0,
                            "value" : -20.0,
                            "duration" : 16
                          },
                          {
                            "endTime" : 175,
                            "time" : 151,
                            "value" : -281.0,
                            "duration" : 24
                          }
                        ]
                      },
                      "scale0" : {
                        "type" : "double",
                        "defaultValue" : 0.5,
                        "interp" : "eioe",
                        "keyframes" : [
                          {
                            "endTime" : 16,
                            "time" : 0,
                            "value" : 1.5,
                            "duration" : 16
                          },
                          {
                            "endTime" : 175,
                            "time" : 151,
                            "value" : 0.5,
                            "duration" : 24
                          }
                        ]
                      },
                      "scale1" : {
                        "type" : "double",
                        "defaultValue" : 0.5,
                        "interp" : "eioe",
                        "keyframes" : [
                          {
                            "endTime" : 16,
                            "time" : 0,
                            "value" : 1.5,
                            "duration" : 16
                          },
                          {
                            "endTime" : 175,
                            "time" : 151,
                            "value" : 0.5,
                            "duration" : 24
                          }
                        ]
                      },
                      "sourceCrop0" : {
                        "type" : "double",
                        "defaultValue" : 0.0,
                        "interp" : "eioe"
                      },
                      "sourceCrop1" : {
                        "type" : "double",
                        "defaultValue" : 0.0,
                        "interp" : "eioe"
                      },
                      "sourceCrop2" : {
                        "type" : "double",
                        "defaultValue" : 0.0,
                        "interp" : "eioe"
                      },
                      "sourceCrop3" : {
                        "type" : "double",
                        "defaultValue" : 0.0,
                        "interp" : "eioe"
                      },
                      "geometryCrop0" : {
                        "type" : "double",
                        "defaultValue" : 0.0,
                        "interp" : "eioe"
                      },
                      "geometryCrop1" : {
                        "type" : "double",
                        "defaultValue" : 0.0,
                        "interp" : "eioe"
                      },
                      "geometryCrop2" : {
                        "type" : "double",
                        "defaultValue" : 0.0,
                        "interp" : "eioe"
                      },
                      "geometryCrop3" : {
                        "type" : "double",
                        "defaultValue" : 0.0,
                        "interp" : "eioe"
                      }
                    },
                    "effects" : [

                    ],
                    "start" : 5853,
                    "duration" : 177,
                    "mediaStart" : 0,
                    "mediaDuration" : 1,
                    "scalar" : 1,
                    "metadata" : {
                      "clipSpeedAttribute" : false,
                      "default-scale" : "1",
                      "effectApplied" : "none",
                      "lockAspectRatio" : true
                    },
                    "animationTracks" : {
                      "visual" : [
                        {
                          "endTime" : 16,
                          "duration" : 16,
                          "range" : [ 0, 16]
                        },
                        {
                          "endTime" : 175,
                          "duration" : 24,
                          "range" : [ 151, 24]
                        }
                      ]
                    }
                  },
                  {
                    "id" : 126,
                    "_type" : "IMFile",
                    "src" : 40,
                    "trackNumber" : 0,
                    "trimStartSum" : 0,
                    "attributes" : {
                      "ident" : "Pasted Image"
                    },
                    "parameters" : {
                      "translation0" : {
                        "type" : "double",
                        "defaultValue" : -266.144675785215,
                        "interp" : "eioe"
                      },
                      "translation1" : {
                        "type" : "double",
                        "defaultValue" : -111.271484818727,
                        "interp" : "eioe"
                      },
                      "scale0" : {
                        "type" : "double",
                        "defaultValue" : 1.17938305670566,
                        "interp" : "eioe"
                      },
                      "scale1" : {
                        "type" : "double",
                        "defaultValue" : 1.17938305670566,
                        "interp" : "eioe"
                      },
                      "sourceCrop0" : {
                        "type" : "double",
                        "defaultValue" : 0.0,
                        "interp" : "eioe"
                      },
                      "sourceCrop1" : {
                        "type" : "double",
                        "defaultValue" : 0.0,
                        "interp" : "eioe"
                      },
                      "sourceCrop2" : {
                        "type" : "double",
                        "defaultValue" : 0.0,
                        "interp" : "eioe"
                      },
                      "sourceCrop3" : {
                        "type" : "double",
                        "defaultValue" : 0.0,
                        "interp" : "eioe"
                      },
                      "geometryCrop0" : {
                        "type" : "double",
                        "defaultValue" : 0.0,
                        "interp" : "eioe"
                      },
                      "geometryCrop1" : {
                        "type" : "double",
                        "defaultValue" : 0.0,
                        "interp" : "eioe"
                      },
                      "geometryCrop2" : {
                        "type" : "double",
                        "defaultValue" : 0.0,
                        "interp" : "eioe"
                      },
                      "geometryCrop3" : {
                        "type" : "double",
                        "defaultValue" : 0.0,
                        "interp" : "eioe"
                      }
                    },
                    "effects" : [

                    ],
                    "start" : 6110,
                    "duration" : 620,
                    "mediaStart" : 0,
                    "mediaDuration" : 1,
                    "scalar" : 1,
                    "metadata" : {
                      "clipSpeedAttribute" : false,
                      "default-scale" : "1",
                      "effectApplied" : "none",
                      "lockAspectRatio" : true
                    },
                    "animationTracks" : {

                    }
                  },
                  {
                    "id" : 127,
                    "_type" : "IMFile",
                    "src" : 55,
                    "trackNumber" : 0,
                    "trimStartSum" : 0,
                    "attributes" : {
                      "ident" : "Pasted Image"
                    },
                    "parameters" : {
                      "translation0" : {
                        "type" : "double",
                        "defaultValue" : -166.0,
                        "interp" : "eioe"
                      },
                      "translation1" : {
                        "type" : "double",
                        "defaultValue" : -139.759679631412,
                        "interp" : "eioe"
                      },
                      "scale0" : {
                        "type" : "double",
                        "defaultValue" : 0.344125500575919,
                        "interp" : "eioe"
                      },
                      "scale1" : {
                        "type" : "double",
                        "defaultValue" : 0.344125500575919,
                        "interp" : "eioe"
                      },
                      "sourceCrop0" : {
                        "type" : "double",
                        "defaultValue" : 0.0,
                        "interp" : "eioe"
                      },
                      "sourceCrop1" : {
                        "type" : "double",
                        "defaultValue" : 0.0,
                        "interp" : "eioe"
                      },
                      "sourceCrop2" : {
                        "type" : "double",
                        "defaultValue" : 0.0,
                        "interp" : "eioe"
                      },
                      "sourceCrop3" : {
                        "type" : "double",
                        "defaultValue" : 0.0,
                        "interp" : "eioe"
                      },
                      "geometryCrop0" : {
                        "type" : "double",
                        "defaultValue" : 0.0,
                        "interp" : "eioe"
                      },
                      "geometryCrop1" : {
                        "type" : "double",
                        "defaultValue" : 0.0,
                        "interp" : "eioe"
                      },
                      "geometryCrop2" : {
                        "type" : "double",
                        "defaultValue" : 0.0,
                        "interp" : "eioe"
                      },
                      "geometryCrop3" : {
                        "type" : "double",
                        "defaultValue" : 0.0,
                        "interp" : "eioe"
                      }
                    },
                    "effects" : [

                    ],
                    "start" : 6822,
                    "duration" : 111,
                    "mediaStart" : 0,
                    "mediaDuration" : 1,
                    "scalar" : 1,
                    "metadata" : {
                      "clipSpeedAttribute" : false,
                      "default-scale" : "0.5625",
                      "effectApplied" : "none",
                      "lockAspectRatio" : true
                    },
                    "animationTracks" : {

                    }
                  },
                  {
                    "id" : 128,
                    "_type" : "IMFile",
                    "src" : 57,
                    "trackNumber" : 0,
                    "trimStartSum" : 0,
                    "attributes" : {
                      "ident" : "Pasted Image"
                    },
                    "parameters" : {
                      "translation0" : {
                        "type" : "double",
                        "defaultValue" : -198.354955073037,
                        "interp" : "eioe",
                        "keyframes" : [
                          {
                            "endTime" : 77,
                            "time" : 47,
                            "value" : -185.354955073037,
                            "duration" : 30
                          }
                        ]
                      },
                      "translation1" : {
                        "type" : "double",
                        "defaultValue" : 59.0634522201341,
                        "interp" : "eioe",
                        "keyframes" : [
                          {
                            "endTime" : 77,
                            "time" : 47,
                            "value" : -82.9365477798659,
                            "duration" : 30
                          }
                        ]
                      },
                      "scale0" : {
                        "type" : "double",
                        "defaultValue" : 0.694864143766283,
                        "interp" : "eioe",
                        "keyframes" : [
                          {
                            "endTime" : 77,
                            "time" : 47,
                            "value" : 0.100000001490116,
                            "duration" : 30
                          }
                        ]
                      },
                      "scale1" : {
                        "type" : "double",
                        "defaultValue" : 0.694864143766283,
                        "interp" : "eioe",
                        "keyframes" : [
                          {
                            "endTime" : 77,
                            "time" : 47,
                            "value" : 0.100000001490116,
                            "duration" : 30
                          }
                        ]
                      },
                      "sourceCrop0" : {
                        "type" : "double",
                        "defaultValue" : 0.0,
                        "interp" : "eioe"
                      },
                      "sourceCrop1" : {
                        "type" : "double",
                        "defaultValue" : 0.0,
                        "interp" : "eioe"
                      },
                      "sourceCrop2" : {
                        "type" : "double",
                        "defaultValue" : 0.0,
                        "interp" : "eioe"
                      },
                      "sourceCrop3" : {
                        "type" : "double",
                        "defaultValue" : 0.0,
                        "interp" : "eioe"
                      },
                      "geometryCrop0" : {
                        "type" : "double",
                        "defaultValue" : 0.0,
                        "interp" : "eioe"
                      },
                      "geometryCrop1" : {
                        "type" : "double",
                        "defaultValue" : 0.0,
                        "interp" : "eioe"
                      },
                      "geometryCrop2" : {
                        "type" : "double",
                        "defaultValue" : 0.0,
                        "interp" : "eioe"
                      },
                      "geometryCrop3" : {
                        "type" : "double",
                        "defaultValue" : 0.0,
                        "interp" : "eioe"
                      }
                    },
                    "effects" : [

                    ],
                    "start" : 6969,
                    "duration" : 77,
                    "mediaStart" : 0,
                    "mediaDuration" : 1,
                    "scalar" : 1,
                    "metadata" : {
                      "clipSpeedAttribute" : false,
                      "default-scale" : "1",
                      "effectApplied" : "none",
                      "lockAspectRatio" : true
                    },
                    "animationTracks" : {
                      "visual" : [
                        {
                          "endTime" : 77,
                          "duration" : 30,
                          "range" : [ 47, 30]
                        }
                      ]
                    }
                  },
                  {
                    "id" : 129,
                    "_type" : "IMFile",
                    "src" : 59,
                    "trackNumber" : 0,
                    "trimStartSum" : 0,
                    "attributes" : {
                      "ident" : "Pasted Image"
                    },
                    "parameters" : {
                      "translation0" : {
                        "type" : "double",
                        "defaultValue" : -184.0,
                        "interp" : "eioe",
                        "keyframes" : [
                          {
                            "endTime" : 30,
                            "time" : 0,
                            "value" : -178.0,
                            "duration" : 30
                          },
                          {
                            "endTime" : 103,
                            "time" : 73,
                            "value" : -170.0,
                            "duration" : 30
                          },
                          {
                            "endTime" : 210,
                            "time" : 180,
                            "value" : -166.0,
                            "duration" : 30
                          }
                        ]
                      },
                      "translation1" : {
                        "type" : "double",
                        "defaultValue" : -86.0,
                        "interp" : "eioe",
                        "keyframes" : [
                          {
                            "endTime" : 30,
                            "time" : 0,
                            "value" : -178.0,
                            "duration" : 30
                          },
                          {
                            "endTime" : 103,
                            "time" : 73,
                            "value" : -262.0,
                            "duration" : 30
                          },
                          {
                            "endTime" : 210,
                            "time" : 180,
                            "value" : -152.0,
                            "duration" : 30
                          }
                        ]
                      },
                      "scale0" : {
                        "type" : "double",
                        "defaultValue" : 0.5,
                        "interp" : "eioe",
                        "keyframes" : [
                          {
                            "endTime" : 30,
                            "time" : 0,
                            "value" : 1.0,
                            "duration" : 30
                          },
                          {
                            "endTime" : 210,
                            "time" : 180,
                            "value" : 0.5,
                            "duration" : 30
                          }
                        ]
                      },
                      "scale1" : {
                        "type" : "double",
                        "defaultValue" : 0.5,
                        "interp" : "eioe",
                        "keyframes" : [
                          {
                            "endTime" : 30,
                            "time" : 0,
                            "value" : 1.0,
                            "duration" : 30
                          },
                          {
                            "endTime" : 210,
                            "time" : 180,
                            "value" : 0.5,
                            "duration" : 30
                          }
                        ]
                      },
                      "sourceCrop0" : {
                        "type" : "double",
                        "defaultValue" : 0.0,
                        "interp" : "eioe"
                      },
                      "sourceCrop1" : {
                        "type" : "double",
                        "defaultValue" : 0.0,
                        "interp" : "eioe"
                      },
                      "sourceCrop2" : {
                        "type" : "double",
                        "defaultValue" : 0.0,
                        "interp" : "eioe"
                      },
                      "sourceCrop3" : {
                        "type" : "double",
                        "defaultValue" : 0.0,
                        "interp" : "eioe"
                      },
                      "geometryCrop0" : {
                        "type" : "double",
                        "defaultValue" : 0.0,
                        "interp" : "eioe"
                      },
                      "geometryCrop1" : {
                        "type" : "double",
                        "defaultValue" : 0.0,
                        "interp" : "eioe"
                      },
                      "geometryCrop2" : {
                        "type" : "double",
                        "defaultValue" : 0.0,
                        "interp" : "eioe"
                      },
                      "geometryCrop3" : {
                        "type" : "double",
                        "defaultValue" : 0.0,
                        "interp" : "eioe"
                      }
                    },
                    "effects" : [

                    ],
                    "start" : 7046,
                    "duration" : 213,
                    "mediaStart" : 0,
                    "mediaDuration" : 1,
                    "scalar" : 1,
                    "metadata" : {
                      "clipSpeedAttribute" : false,
                      "default-scale" : "1",
                      "effectApplied" : "none",
                      "lockAspectRatio" : true
                    },
                    "animationTracks" : {
                      "visual" : [
                        {
                          "endTime" : 30,
                          "duration" : 30,
                          "range" : [ 0, 30]
                        },
                        {
                          "endTime" : 103,
                          "duration" : 30,
                          "range" : [ 73, 30]
                        },
                        {
                          "endTime" : 210,
                          "duration" : 30,
                          "range" : [ 180, 30]
                        }
                      ]
                    }
                  },
                  {
                    "id" : 130,
                    "_type" : "IMFile",
                    "src" : 57,
                    "trackNumber" : 0,
                    "trimStartSum" : 0,
                    "attributes" : {
                      "ident" : "Pasted Image"
                    },
                    "parameters" : {
                      "translation0" : {
                        "type" : "double",
                        "defaultValue" : -165.354955073037,
                        "interp" : "eioe",
                        "keyframes" : [
                          {
                            "endTime" : 55,
                            "time" : 25,
                            "value" : -162.354955073037,
                            "duration" : 30
                          },
                          {
                            "endTime" : 152,
                            "time" : 122,
                            "value" : 208.645044926963,
                            "duration" : 30
                          }
                        ]
                      },
                      "translation1" : {
                        "type" : "double",
                        "defaultValue" : -109.936547779866,
                        "interp" : "eioe",
                        "keyframes" : [
                          {
                            "endTime" : 55,
                            "time" : 25,
                            "value" : 59.0634522201341,
                            "duration" : 30
                          },
                          {
                            "endTime" : 152,
                            "time" : 122,
                            "value" : -132.936547779866,
                            "duration" : 30
                          }
                        ]
                      },
                      "scale0" : {
                        "type" : "double",
                        "defaultValue" : 0.200000002980232,
                        "interp" : "eioe",
                        "keyframes" : [
                          {
                            "endTime" : 55,
                            "time" : 25,
                            "value" : 0.694864143766283,
                            "duration" : 30
                          },
                          {
                            "endTime" : 152,
                            "time" : 122,
                            "value" : 0.200000002980232,
                            "duration" : 30
                          }
                        ]
                      },
                      "scale1" : {
                        "type" : "double",
                        "defaultValue" : 0.200000002980232,
                        "interp" : "eioe",
                        "keyframes" : [
                          {
                            "endTime" : 55,
                            "time" : 25,
                            "value" : 0.694864143766283,
                            "duration" : 30
                          },
                          {
                            "endTime" : 152,
                            "time" : 122,
                            "value" : 0.200000002980232,
                            "duration" : 30
                          }
                        ]
                      },
                      "sourceCrop0" : {
                        "type" : "double",
                        "defaultValue" : 0.0,
                        "interp" : "eioe"
                      },
                      "sourceCrop1" : {
                        "type" : "double",
                        "defaultValue" : 0.0,
                        "interp" : "eioe"
                      },
                      "sourceCrop2" : {
                        "type" : "double",
                        "defaultValue" : 0.0,
                        "interp" : "eioe"
                      },
                      "sourceCrop3" : {
                        "type" : "double",
                        "defaultValue" : 0.0,
                        "interp" : "eioe"
                      },
                      "geometryCrop0" : {
                        "type" : "double",
                        "defaultValue" : 0.0,
                        "interp" : "eioe"
                      },
                      "geometryCrop1" : {
                        "type" : "double",
                        "defaultValue" : 0.0,
                        "interp" : "eioe"
                      },
                      "geometryCrop2" : {
                        "type" : "double",
                        "defaultValue" : 0.0,
                        "interp" : "eioe"
                      },
                      "geometryCrop3" : {
                        "type" : "double",
                        "defaultValue" : 0.0,
                        "interp" : "eioe"
                      }
                    },
                    "effects" : [

                    ],
                    "start" : 7274,
                    "duration" : 154,
                    "mediaStart" : 0,
                    "mediaDuration" : 1,
                    "scalar" : 1,
                    "metadata" : {
                      "clipSpeedAttribute" : false,
                      "default-scale" : "1",
                      "effectApplied" : "none",
                      "lockAspectRatio" : true
                    },
                    "animationTracks" : {
                      "visual" : [
                        {
                          "endTime" : 55,
                          "duration" : 30,
                          "range" : [ 25, 30]
                        },
                        {
                          "endTime" : 152,
                          "duration" : 30,
                          "range" : [ 122, 30]
                        }
                      ]
                    }
                  },
                  {
                    "id" : 131,
                    "_type" : "IMFile",
                    "src" : 63,
                    "trackNumber" : 0,
                    "trimStartSum" : 0,
                    "attributes" : {
                      "ident" : "Pasted Image"
                    },
                    "parameters" : {
                      "translation0" : {
                        "type" : "double",
                        "defaultValue" : -276.0,
                        "interp" : "eioe",
                        "keyframes" : [
                          {
                            "endTime" : 339,
                            "time" : 309,
                            "value" : -466.815934655927,
                            "duration" : 30
                          },
                          {
                            "endTime" : 620,
                            "time" : 590,
                            "value" : -276.0,
                            "duration" : 30
                          }
                        ]
                      },
                      "translation1" : {
                        "type" : "double",
                        "defaultValue" : 19.0,
                        "interp" : "eioe",
                        "keyframes" : [
                          {
                            "endTime" : 339,
                            "time" : 309,
                            "value" : -206.184065344073,
                            "duration" : 30
                          },
                          {
                            "endTime" : 620,
                            "time" : 590,
                            "value" : 19.0,
                            "duration" : 30
                          }
                        ]
                      },
                      "scale0" : {
                        "type" : "double",
                        "defaultValue" : 1.0,
                        "interp" : "eioe",
                        "keyframes" : [
                          {
                            "endTime" : 339,
                            "time" : 309,
                            "value" : 2.03745959228321,
                            "duration" : 30
                          },
                          {
                            "endTime" : 620,
                            "time" : 590,
                            "value" : 1.0,
                            "duration" : 30
                          }
                        ]
                      },
                      "scale1" : {
                        "type" : "double",
                        "defaultValue" : 1.0,
                        "interp" : "eioe",
                        "keyframes" : [
                          {
                            "endTime" : 339,
                            "time" : 309,
                            "value" : 2.03745959228321,
                            "duration" : 30
                          },
                          {
                            "endTime" : 620,
                            "time" : 590,
                            "value" : 1.0,
                            "duration" : 30
                          }
                        ]
                      },
                      "sourceCrop0" : {
                        "type" : "double",
                        "defaultValue" : 0.0,
                        "interp" : "eioe"
                      },
                      "sourceCrop1" : {
                        "type" : "double",
                        "defaultValue" : 0.0,
                        "interp" : "eioe"
                      },
                      "sourceCrop2" : {
                        "type" : "double",
                        "defaultValue" : 0.0,
                        "interp" : "eioe"
                      },
                      "sourceCrop3" : {
                        "type" : "double",
                        "defaultValue" : 0.0,
                        "interp" : "eioe"
                      },
                      "geometryCrop0" : {
                        "type" : "double",
                        "defaultValue" : 0.0,
                        "interp" : "eioe"
                      },
                      "geometryCrop1" : {
                        "type" : "double",
                        "defaultValue" : 0.0,
                        "interp" : "eioe"
                      },
                      "geometryCrop2" : {
                        "type" : "double",
                        "defaultValue" : 0.0,
                        "interp" : "eioe"
                      },
                      "geometryCrop3" : {
                        "type" : "double",
                        "defaultValue" : 0.0,
                        "interp" : "eioe"
                      }
                    },
                    "effects" : [

                    ],
                    "start" : 7643,
                    "duration" : 2466,
                    "mediaStart" : 0,
                    "mediaDuration" : 1,
                    "scalar" : 1,
                    "metadata" : {
                      "clipSpeedAttribute" : false,
                      "default-scale" : "1",
                      "effectApplied" : "none",
                      "lockAspectRatio" : true
                    },
                    "animationTracks" : {
                      "visual" : [
                        {
                          "endTime" : 339,
                          "duration" : 30,
                          "range" : [ 309, 30]
                        },
                        {
                          "endTime" : 620,
                          "duration" : 30,
                          "range" : [ 590, 30]
                        }
                      ]
                    }
                  }
                ],
                "transitions" : [
                  {
                    "name" : "Fade",
                    "duration" : 30,
                    "rightMedia" : 115,
                    "attributes" : {
                      "bypass" : false,
                      "reverse" : false,
                      "trivial" : false,
                      "useAudioPreRoll" : true,
                      "useVisualPreRoll" : true
                    }

                  },
                  {
                    "name" : "Fade",
                    "duration" : 30,
                    "leftMedia" : 115,
                    "attributes" : {
                      "bypass" : false,
                      "reverse" : false,
                      "trivial" : false,
                      "useAudioPreRoll" : true,
                      "useVisualPreRoll" : true
                    }

                  },
                  {
                    "name" : "Fade",
                    "duration" : 30,
                    "rightMedia" : 116,
                    "attributes" : {
                      "bypass" : false,
                      "reverse" : false,
                      "trivial" : false,
                      "useAudioPreRoll" : true,
                      "useVisualPreRoll" : true
                    }

                  },
                  {
                    "name" : "Fade",
                    "duration" : 30,
                    "leftMedia" : 116,
                    "attributes" : {
                      "bypass" : false,
                      "reverse" : false,
                      "trivial" : false,
                      "useAudioPreRoll" : true,
                      "useVisualPreRoll" : true
                    }

                  },
                  {
                    "name" : "Fade",
                    "duration" : 30,
                    "rightMedia" : 117,
                    "attributes" : {
                      "bypass" : false,
                      "reverse" : false,
                      "trivial" : false,
                      "useAudioPreRoll" : true,
                      "useVisualPreRoll" : true
                    }

                  },
                  {
                    "name" : "Fade",
                    "duration" : 30,
                    "leftMedia" : 117,
                    "attributes" : {
                      "bypass" : false,
                      "reverse" : false,
                      "trivial" : false,
                      "useAudioPreRoll" : true,
                      "useVisualPreRoll" : true
                    }

                  },
                  {
                    "name" : "Fade",
                    "duration" : 30,
                    "rightMedia" : 120,
                    "attributes" : {
                      "bypass" : false,
                      "reverse" : false,
                      "trivial" : false,
                      "useAudioPreRoll" : true,
                      "useVisualPreRoll" : true
                    }

                  },
                  {
                    "name" : "Fade",
                    "duration" : 30,
                    "leftMedia" : 120,
                    "attributes" : {
                      "bypass" : false,
                      "reverse" : false,
                      "trivial" : false,
                      "useAudioPreRoll" : true,
                      "useVisualPreRoll" : true
                    }

                  },
                  {
                    "name" : "Fade",
                    "duration" : 30,
                    "rightMedia" : 121,
                    "attributes" : {
                      "bypass" : false,
                      "reverse" : false,
                      "trivial" : false,
                      "useAudioPreRoll" : true,
                      "useVisualPreRoll" : true
                    }

                  },
                  {
                    "name" : "Fade",
                    "duration" : 30,
                    "leftMedia" : 121,
                    "attributes" : {
                      "bypass" : false,
                      "reverse" : false,
                      "trivial" : false,
                      "useAudioPreRoll" : true,
                      "useVisualPreRoll" : true
                    }

                  },
                  {
                    "name" : "Fade",
                    "duration" : 30,
                    "rightMedia" : 122,
                    "attributes" : {
                      "bypass" : false,
                      "reverse" : false,
                      "trivial" : false,
                      "useAudioPreRoll" : true,
                      "useVisualPreRoll" : true
                    }

                  },
                  {
                    "name" : "Fade",
                    "duration" : 30,
                    "leftMedia" : 122,
                    "attributes" : {
                      "bypass" : false,
                      "reverse" : false,
                      "trivial" : false,
                      "useAudioPreRoll" : true,
                      "useVisualPreRoll" : true
                    }

                  },
                  {
                    "name" : "Fade",
                    "duration" : 30,
                    "rightMedia" : 123,
                    "attributes" : {
                      "bypass" : false,
                      "reverse" : false,
                      "trivial" : false,
                      "useAudioPreRoll" : true,
                      "useVisualPreRoll" : true
                    }

                  },
                  {
                    "name" : "Fade",
                    "duration" : 30,
                    "leftMedia" : 123,
                    "attributes" : {
                      "bypass" : false,
                      "reverse" : false,
                      "trivial" : false,
                      "useAudioPreRoll" : true,
                      "useVisualPreRoll" : true
                    }

                  },
                  {
                    "name" : "Fade",
                    "duration" : 30,
                    "rightMedia" : 124,
                    "attributes" : {
                      "bypass" : false,
                      "reverse" : false,
                      "trivial" : false,
                      "useAudioPreRoll" : true,
                      "useVisualPreRoll" : true
                    }

                  },
                  {
                    "name" : "Fade",
                    "duration" : 30,
                    "leftMedia" : 124,
                    "attributes" : {
                      "bypass" : false,
                      "reverse" : false,
                      "trivial" : false,
                      "useAudioPreRoll" : true,
                      "useVisualPreRoll" : true
                    }

                  },
                  {
                    "name" : "Fade",
                    "duration" : 30,
                    "rightMedia" : 126,
                    "attributes" : {
                      "bypass" : false,
                      "reverse" : false,
                      "trivial" : false,
                      "useAudioPreRoll" : true,
                      "useVisualPreRoll" : true
                    }

                  },
                  {
                    "name" : "Fade",
                    "duration" : 30,
                    "leftMedia" : 126,
                    "attributes" : {
                      "bypass" : false,
                      "reverse" : false,
                      "trivial" : false,
                      "useAudioPreRoll" : true,
                      "useVisualPreRoll" : true
                    }

                  },
                  {
                    "name" : "Fade",
                    "duration" : 30,
                    "rightMedia" : 127,
                    "attributes" : {
                      "bypass" : false,
                      "reverse" : false,
                      "trivial" : false,
                      "useAudioPreRoll" : true,
                      "useVisualPreRoll" : true
                    }

                  },
                  {
                    "name" : "Fade",
                    "duration" : 30,
                    "leftMedia" : 127,
                    "attributes" : {
                      "bypass" : false,
                      "reverse" : false,
                      "trivial" : false,
                      "useAudioPreRoll" : true,
                      "useVisualPreRoll" : true
                    }

                  },
                  {
                    "name" : "Fade",
                    "duration" : 30,
                    "rightMedia" : 128,
                    "attributes" : {
                      "bypass" : false,
                      "reverse" : false,
                      "trivial" : false,
                      "useAudioPreRoll" : true,
                      "useVisualPreRoll" : true
                    }

                  },
                  {
                    "name" : "Fade",
                    "duration" : 30,
                    "leftMedia" : 131,
                    "attributes" : {
                      "bypass" : false,
                      "reverse" : false,
                      "trivial" : false,
                      "useAudioPreRoll" : true,
                      "useVisualPreRoll" : true
                    }

                  }
                ]
              },
              {
                "trackIndex" : 9,
                "medias" : [
                  {
                    "id" : 132,
                    "_type" : "IMFile",
                    "src" : 5,
                    "trackNumber" : 0,
                    "trimStartSum" : 0,
                    "attributes" : {
                      "ident" : "Pasted Image"
                    },
                    "parameters" : {
                      "translation0" : -175.0,
                      "translation1" : -140.403162927563,
                      "scale0" : 0.750132010390247,
                      "scale1" : 0.750132010390247,
                      "sourceCrop0" : 0.0,
                      "sourceCrop1" : 0.0,
                      "sourceCrop2" : 0.0,
                      "sourceCrop3" : 0.0,
                      "geometryCrop0" : 0.0,
                      "geometryCrop1" : 0.0,
                      "geometryCrop2" : 0.0,
                      "geometryCrop3" : 0.0
                    },
                    "effects" : [

                    ],
                    "start" : 642,
                    "duration" : 193,
                    "mediaStart" : 0,
                    "mediaDuration" : 1,
                    "scalar" : 1,
                    "metadata" : {
                      "clipSpeedAttribute" : false,
                      "default-scale" : "1",
                      "effectApplied" : "none",
                      "lockAspectRatio" : true
                    },
                    "animationTracks" : {

                    }
                  },
                  {
                    "id" : 133,
                    "_type" : "IMFile",
                    "src" : 7,
                    "trackNumber" : 0,
                    "trimStartSum" : 0,
                    "attributes" : {
                      "ident" : "Pasted Image"
                    },
                    "parameters" : {
                      "translation0" : {
                        "type" : "double",
                        "defaultValue" : 112.0,
                        "keyframes" : [
                          {
                            "endTime" : 209,
                            "time" : 179,
                            "value" : -581.0,
                            "duration" : 30
                          }
                        ]
                      },
                      "translation1" : {
                        "type" : "double",
                        "defaultValue" : -4.0,
                        "keyframes" : [
                          {
                            "endTime" : 209,
                            "time" : 179,
                            "value" : -93.0,
                            "duration" : 30
                          },
                          {
                            "endTime" : 801,
                            "time" : 771,
                            "value" : -225.0,
                            "duration" : 30
                          }
                        ]
                      },
                      "rotation2" : {
                        "type" : "double",
                        "defaultValue" : 0.0,
                        "keyframes" : [
                          {
                            "endTime" : 209,
                            "time" : 179,
                            "value" : 1.5707963267949,
                            "duration" : 30
                          }
                        ]
                      },
                      "scale0" : {
                        "type" : "double",
                        "defaultValue" : 1.0,
                        "keyframes" : [
                          {
                            "endTime" : 801,
                            "time" : 771,
                            "value" : 0.00396825396825397,
                            "duration" : 30
                          }
                        ]
                      },
                      "sourceCrop0" : 0.0,
                      "sourceCrop1" : 0.0,
                      "sourceCrop2" : 0.0,
                      "sourceCrop3" : 0.0,
                      "geometryCrop0" : 0.0,
                      "geometryCrop1" : 0.0,
                      "geometryCrop2" : 0.0,
                      "geometryCrop3" : 0.0
                    },
                    "effects" : [

                    ],
                    "start" : 842,
                    "duration" : 1236,
                    "mediaStart" : 0,
                    "mediaDuration" : 1,
                    "scalar" : 1,
                    "metadata" : {
                      "clipSpeedAttribute" : false,
                      "default-scale" : "1",
                      "effectApplied" : "none",
                      "lockAspectRatio" : false
                    },
                    "animationTracks" : {
                      "visual" : [
                        {
                          "endTime" : 209,
                          "duration" : 30,
                          "range" : [ 179, 30]
                        },
                        {
                          "endTime" : 801,
                          "duration" : 30,
                          "range" : [ 771, 30]
                        }
                      ]
                    }
                  },
                  {
                    "id" : 134,
                    "_type" : "Callout",
                    "def" : {
                      "kind" : "TypeWinSVG",
                      "shape" : "",
                      "style" : "",
                      "DrawTime" : 1.0,
                      "borderColorBlue" : 0.0,
                      "borderColorGreen" : 1.0,
                      "borderColorRed" : 0.0,
                      "borderWidth" : 5.0,
                      "height" : 281.438741657777,
                      "width" : 393.874114954144,
                      "xmlContent" : "<?xml version=\"1.0\" encoding=\"utf-8\"?>\r\n<!-- Generator: Adobe Illustrator 15.0.2, SVG Export Plug-In . SVG Version: 6.00 Build 0)  -->\r\n<!DOCTYPE svg PUBLIC \"-//W3C//DTD SVG 1.1//EN\" \"http://www.w3.org/Graphics/SVG/1.1/DTD/svg11.dtd\">\r\n<svg version=\"1.1\" id=\"Layer_2\" xmlns=\"http://www.w3.org/2000/svg\" xmlns:xlink=\"http://www.w3.org/1999/xlink\" x=\"0px\" y=\"0px\"\r\n\t width=\"420px\" height=\"420px\" viewBox=\"0 0 420 420\" enable-background=\"new 0 0 420 420\" xml:space=\"preserve\">\r\n<path fill=\"none\" stroke=\"#000000\" stroke-miterlimit=\"10\" d=\"M200.161,69.581c0,0-34.007-4.101-97.206,31.526\r\n\tC12.011,151.033-34.086,275.31,81.937,327.045c70.942,31.605,156.128,30.13,229.878,5.254\r\n\tc52.001-17.164,108.586-56.52,91.95-119.537C370.825,87.977,218.521,59.95,109.522,82.715\"/>\r\n</svg>\r\n"
                    },
                    "attributes" : {
                      "ident" : "",
                      "autoRotateText" : true
                    },
                    "parameters" : {
                      "translation0" : 564.225480994674,
                      "translation1" : 75.4109936675043,
                      "scale0" : 0.246157065562695,
                      "scale1" : 0.246157065562695,
                      "sourceCrop0" : 0.0,
                      "sourceCrop1" : 0.0,
                      "sourceCrop2" : 0.0,
                      "sourceCrop3" : 0.0,
                      "geometryCrop0" : 0.0,
                      "geometryCrop1" : 0.0,
                      "geometryCrop2" : 0.0,
                      "geometryCrop3" : 0.0
                    },
                    "leftEdgeMods" : [
                      {
                        "group" : "DrawPercentageFade",
                        "duration" : 30,
                        "parameters" : [
                          {
                            "name" : "DrawTime",
                              "func" : "FadeInFunc"
                            }
                        ]
                      }
                    ],
                    "effects" : [

                    ],
                    "start" : 2152,
                    "duration" : 91,
                    "mediaStart" : 0,
                    "mediaDuration" : 91,
                    "scalar" : 1,
                    "metadata" : {
                      "clipSpeedAttribute" : false,
                      "default-callout-stroke-color" : "(255,255,0,255)",
                      "default-callout-stroke-width" : "3",
                      "default-scale" : "1",
                      "effectApplied" : "none",
                      "lockAspectRatio" : true
                    },
                    "animationTracks" : {

                    }
                  },
                  {
                    "id" : 135,
                    "_type" : "IMFile",
                    "src" : 27,
                    "trackNumber" : 0,
                    "trimStartSum" : 0,
                    "attributes" : {
                      "ident" : "Pasted Image"
                    },
                    "parameters" : {
                      "translation0" : {
                        "type" : "double",
                        "defaultValue" : -352.0,
                        "keyframes" : [
                          {
                            "endTime" : 79,
                            "time" : 65,
                            "value" : -166.0,
                            "duration" : 14
                          }
                        ]
                      },
                      "translation1" : {
                        "type" : "double",
                        "defaultValue" : -243.0,
                        "keyframes" : [
                          {
                            "endTime" : 79,
                            "time" : 65,
                            "value" : -74.0,
                            "duration" : 14
                          }
                        ]
                      },
                      "scale0" : {
                        "type" : "double",
                        "defaultValue" : 1.0,
                        "keyframes" : [
                          {
                            "endTime" : 79,
                            "time" : 65,
                            "value" : 0.899999976158142,
                            "duration" : 14
                          }
                        ]
                      },
                      "scale1" : {
                        "type" : "double",
                        "defaultValue" : 1.0,
                        "keyframes" : [
                          {
                            "endTime" : 79,
                            "time" : 65,
                            "value" : 0.899999976158142,
                            "duration" : 14
                          }
                        ]
                      },
                      "sourceCrop0" : 0.0,
                      "sourceCrop1" : 0.0,
                      "sourceCrop2" : 0.0,
                      "sourceCrop3" : 0.0,
                      "geometryCrop0" : 0.0,
                      "geometryCrop1" : 0.0,
                      "geometryCrop2" : 0.0,
                      "geometryCrop3" : 0.0
                    },
                    "effects" : [

                    ],
                    "start" : 2393,
                    "duration" : 79,
                    "mediaStart" : 0,
                    "mediaDuration" : 1,
                    "scalar" : 1,
                    "metadata" : {
                      "clipSpeedAttribute" : false,
                      "default-scale" : "1",
                      "effectApplied" : "none",
                      "lockAspectRatio" : true
                    },
                    "animationTracks" : {
                      "visual" : [
                        {
                          "endTime" : 79,
                          "duration" : 14,
                          "range" : [ 65, 14]
                        }
                      ]
                    }
                  },
                  {
                    "id" : 136,
                    "_type" : "IMFile",
                    "src" : 27,
                    "trackNumber" : 0,
                    "trimStartSum" : 262,
                    "attributes" : {
                      "ident" : "Pasted Image"
                    },
                    "parameters" : {
                      "translation0" : {
                        "type" : "double",
                        "defaultValue" : -165.0,
                        "keyframes" : [
                          {
                            "endTime" : 280,
                            "time" : 262,
                            "value" : -45.0,
                            "duration" : 18
                          },
                          {
                            "endTime" : 319,
                            "time" : 302,
                            "value" : -165.0,
                            "duration" : 17
                          }
                        ]
                      },
                      "translation1" : {
                        "type" : "double",
                        "defaultValue" : -243.0,
                        "keyframes" : [
                          {
                            "endTime" : 280,
                            "time" : 262,
                            "value" : -123.0,
                            "duration" : 18
                          },
                          {
                            "endTime" : 319,
                            "time" : 302,
                            "value" : -243.0,
                            "duration" : 17
                          }
                        ]
                      },
                      "scale0" : {
                        "type" : "double",
                        "defaultValue" : 1.5,
                        "keyframes" : [
                          {
                            "endTime" : 168,
                            "time" : 149,
                            "value" : 1.5,
                            "duration" : 19
                          }
                        ]
                      },
                      "scale1" : {
                        "type" : "double",
                        "defaultValue" : 1.5,
                        "keyframes" : [
                          {
                            "endTime" : 168,
                            "time" : 149,
                            "value" : 1.5,
                            "duration" : 19
                          }
                        ]
                      },
                      "sourceCrop0" : 0.0,
                      "sourceCrop1" : 0.0,
                      "sourceCrop2" : 0.0,
                      "sourceCrop3" : 0.0,
                      "geometryCrop0" : 0.0,
                      "geometryCrop1" : 0.0,
                      "geometryCrop2" : 0.0,
                      "geometryCrop3" : 0.0
                    },
                    "effects" : [

                    ],
                    "start" : 2636,
                    "duration" : 57,
                    "mediaStart" : 0,
                    "mediaDuration" : 1,
                    "scalar" : 1,
                    "metadata" : {
                      "clipSpeedAttribute" : false,
                      "default-scale" : "1",
                      "effectApplied" : "none",
                      "lockAspectRatio" : true
                    },
                    "animationTracks" : {
                      "visual" : [
                        {
                          "endTime" : 168,
                          "duration" : 19,
                          "range" : [ 149, 19]
                        },
                        {
                          "endTime" : 280,
                          "duration" : 18,
                          "range" : [ 262, 18]
                        },
                        {
                          "endTime" : 319,
                          "duration" : 17,
                          "range" : [ 302, 17]
                        }
                      ]
                    }
                  },
                  {
                    "id" : 137,
                    "_type" : "IMFile",
                    "src" : 29,
                    "trackNumber" : 0,
                    "trimStartSum" : 0,
                    "attributes" : {
                      "ident" : "Pasted Image"
                    },
                    "parameters" : {
                      "translation0" : {
                        "type" : "double",
                        "defaultValue" : -714.0,
                        "keyframes" : [
                          {
                            "endTime" : 81,
                            "time" : 37,
                            "value" : -150.0,
                            "duration" : 44
                          }
                        ]
                      },
                      "translation1" : {
                        "type" : "double",
                        "defaultValue" : -180.0,
                        "keyframes" : [
                          {
                            "endTime" : 81,
                            "time" : 37,
                            "value" : -180.0,
                            "duration" : 44
                          }
                        ]
                      },
                      "sourceCrop0" : 0.0,
                      "sourceCrop1" : 0.0,
                      "sourceCrop2" : 0.0,
                      "sourceCrop3" : 0.0,
                      "geometryCrop0" : 0.0,
                      "geometryCrop1" : 0.0,
                      "geometryCrop2" : 0.0,
                      "geometryCrop3" : 0.0
                    },
                    "effects" : [

                    ],
                    "start" : 2881,
                    "duration" : 215,
                    "mediaStart" : 0,
                    "mediaDuration" : 1,
                    "scalar" : 1,
                    "metadata" : {
                      "clipSpeedAttribute" : false,
                      "default-scale" : "1",
                      "effectApplied" : "none",
                      "lockAspectRatio" : true
                    },
                    "animationTracks" : {
                      "visual" : [
                        {
                          "endTime" : 81,
                          "duration" : 44,
                          "range" : [ 37, 44]
                        }
                      ]
                    }
                  },
                  {
                    "id" : 138,
                    "_type" : "IMFile",
                    "src" : 29,
                    "trackNumber" : 0,
                    "trimStartSum" : 0,
                    "attributes" : {
                      "ident" : "Pasted Image"
                    },
                    "parameters" : {
                      "translation0" : {
                        "type" : "double",
                        "defaultValue" : -714.0,
                        "keyframes" : [
                          {
                            "endTime" : 25,
                            "time" : 0,
                            "value" : -150.0,
                            "duration" : 25
                          }
                        ]
                      },
                      "translation1" : {
                        "type" : "double",
                        "defaultValue" : -180.0,
                        "keyframes" : [
                          {
                            "endTime" : 25,
                            "time" : 0,
                            "value" : -180.0,
                            "duration" : 25
                          }
                        ]
                      },
                      "sourceCrop0" : 0.0,
                      "sourceCrop1" : 0.0,
                      "sourceCrop2" : 0.0,
                      "sourceCrop3" : 0.0,
                      "geometryCrop0" : 0.0,
                      "geometryCrop1" : 0.0,
                      "geometryCrop2" : 0.0,
                      "geometryCrop3" : 0.0
                    },
                    "effects" : [

                    ],
                    "start" : 3096,
                    "duration" : 25,
                    "mediaStart" : 0,
                    "mediaDuration" : 1,
                    "scalar" : 1,
                    "metadata" : {
                      "clipSpeedAttribute" : false,
                      "default-scale" : "1",
                      "effectApplied" : "none",
                      "lockAspectRatio" : true
                    },
                    "animationTracks" : {
                      "visual" : [
                        {
                          "endTime" : 25,
                          "duration" : 25,
                          "range" : [ 0, 25]
                        }
                      ]
                    }
                  },
                  {
                    "id" : 139,
                    "_type" : "IMFile",
                    "src" : 29,
                    "trackNumber" : 0,
                    "trimStartSum" : 0,
                    "attributes" : {
                      "ident" : "Pasted Image"
                    },
                    "parameters" : {
                      "translation0" : {
                        "type" : "double",
                        "defaultValue" : -714.0,
                        "keyframes" : [
                          {
                            "endTime" : 25,
                            "time" : 0,
                            "value" : -150.0,
                            "duration" : 25
                          }
                        ]
                      },
                      "translation1" : {
                        "type" : "double",
                        "defaultValue" : -180.0,
                        "keyframes" : [
                          {
                            "endTime" : 25,
                            "time" : 0,
                            "value" : -180.0,
                            "duration" : 25
                          }
                        ]
                      },
                      "sourceCrop0" : 0.0,
                      "sourceCrop1" : 0.0,
                      "sourceCrop2" : 0.0,
                      "sourceCrop3" : 0.0,
                      "geometryCrop0" : 0.0,
                      "geometryCrop1" : 0.0,
                      "geometryCrop2" : 0.0,
                      "geometryCrop3" : 0.0
                    },
                    "effects" : [

                    ],
                    "start" : 3121,
                    "duration" : 25,
                    "mediaStart" : 0,
                    "mediaDuration" : 1,
                    "scalar" : 1,
                    "metadata" : {
                      "clipSpeedAttribute" : false,
                      "default-scale" : "1",
                      "effectApplied" : "none",
                      "lockAspectRatio" : true
                    },
                    "animationTracks" : {
                      "visual" : [
                        {
                          "endTime" : 25,
                          "duration" : 25,
                          "range" : [ 0, 25]
                        }
                      ]
                    }
                  },
                  {
                    "id" : 140,
                    "_type" : "IMFile",
                    "src" : 29,
                    "trackNumber" : 0,
                    "trimStartSum" : 0,
                    "attributes" : {
                      "ident" : "Pasted Image"
                    },
                    "parameters" : {
                      "translation0" : {
                        "type" : "double",
                        "defaultValue" : -714.0,
                        "keyframes" : [
                          {
                            "endTime" : 25,
                            "time" : 0,
                            "value" : -150.0,
                            "duration" : 25
                          }
                        ]
                      },
                      "translation1" : {
                        "type" : "double",
                        "defaultValue" : -180.0,
                        "keyframes" : [
                          {
                            "endTime" : 25,
                            "time" : 0,
                            "value" : -180.0,
                            "duration" : 25
                          }
                        ]
                      },
                      "sourceCrop0" : 0.0,
                      "sourceCrop1" : 0.0,
                      "sourceCrop2" : 0.0,
                      "sourceCrop3" : 0.0,
                      "geometryCrop0" : 0.0,
                      "geometryCrop1" : 0.0,
                      "geometryCrop2" : 0.0,
                      "geometryCrop3" : 0.0
                    },
                    "effects" : [

                    ],
                    "start" : 3146,
                    "duration" : 25,
                    "mediaStart" : 0,
                    "mediaDuration" : 1,
                    "scalar" : 1,
                    "metadata" : {
                      "clipSpeedAttribute" : false,
                      "default-scale" : "1",
                      "effectApplied" : "none",
                      "lockAspectRatio" : true
                    },
                    "animationTracks" : {
                      "visual" : [
                        {
                          "endTime" : 25,
                          "duration" : 25,
                          "range" : [ 0, 25]
                        }
                      ]
                    }
                  },
                  {
                    "id" : 141,
                    "_type" : "IMFile",
                    "src" : 29,
                    "trackNumber" : 0,
                    "trimStartSum" : 0,
                    "attributes" : {
                      "ident" : "Pasted Image"
                    },
                    "parameters" : {
                      "translation0" : {
                        "type" : "double",
                        "defaultValue" : -714.0,
                        "keyframes" : [
                          {
                            "endTime" : 25,
                            "time" : 0,
                            "value" : -150.0,
                            "duration" : 25
                          }
                        ]
                      },
                      "translation1" : {
                        "type" : "double",
                        "defaultValue" : -180.0,
                        "keyframes" : [
                          {
                            "endTime" : 25,
                            "time" : 0,
                            "value" : -180.0,
                            "duration" : 25
                          }
                        ]
                      },
                      "sourceCrop0" : 0.0,
                      "sourceCrop1" : 0.0,
                      "sourceCrop2" : 0.0,
                      "sourceCrop3" : 0.0,
                      "geometryCrop0" : 0.0,
                      "geometryCrop1" : 0.0,
                      "geometryCrop2" : 0.0,
                      "geometryCrop3" : 0.0
                    },
                    "effects" : [

                    ],
                    "start" : 3171,
                    "duration" : 25,
                    "mediaStart" : 0,
                    "mediaDuration" : 1,
                    "scalar" : 1,
                    "metadata" : {
                      "clipSpeedAttribute" : false,
                      "default-scale" : "1",
                      "effectApplied" : "none",
                      "lockAspectRatio" : true
                    },
                    "animationTracks" : {
                      "visual" : [
                        {
                          "endTime" : 25,
                          "duration" : 25,
                          "range" : [ 0, 25]
                        }
                      ]
                    }
                  },
                  {
                    "id" : 142,
                    "_type" : "IMFile",
                    "src" : 29,
                    "trackNumber" : 0,
                    "trimStartSum" : 0,
                    "attributes" : {
                      "ident" : "Pasted Image"
                    },
                    "parameters" : {
                      "translation0" : {
                        "type" : "double",
                        "defaultValue" : -714.0,
                        "keyframes" : [
                          {
                            "endTime" : 25,
                            "time" : 0,
                            "value" : -150.0,
                            "duration" : 25
                          }
                        ]
                      },
                      "translation1" : {
                        "type" : "double",
                        "defaultValue" : -180.0,
                        "keyframes" : [
                          {
                            "endTime" : 25,
                            "time" : 0,
                            "value" : -180.0,
                            "duration" : 25
                          }
                        ]
                      },
                      "sourceCrop0" : 0.0,
                      "sourceCrop1" : 0.0,
                      "sourceCrop2" : 0.0,
                      "sourceCrop3" : 0.0,
                      "geometryCrop0" : 0.0,
                      "geometryCrop1" : 0.0,
                      "geometryCrop2" : 0.0,
                      "geometryCrop3" : 0.0
                    },
                    "effects" : [

                    ],
                    "start" : 3196,
                    "duration" : 25,
                    "mediaStart" : 0,
                    "mediaDuration" : 1,
                    "scalar" : 1,
                    "metadata" : {
                      "clipSpeedAttribute" : false,
                      "default-scale" : "1",
                      "effectApplied" : "none",
                      "lockAspectRatio" : true
                    },
                    "animationTracks" : {
                      "visual" : [
                        {
                          "endTime" : 25,
                          "duration" : 25,
                          "range" : [ 0, 25]
                        }
                      ]
                    }
                  },
                  {
                    "id" : 143,
                    "_type" : "IMFile",
                    "src" : 31,
                    "trackNumber" : 0,
                    "trimStartSum" : 0,
                    "attributes" : {
                      "ident" : "Pasted Image"
                    },
                    "parameters" : {
                      "translation0" : {
                        "type" : "double",
                        "defaultValue" : -821.0,
                        "keyframes" : [
                          {
                            "endTime" : 90,
                            "time" : 0,
                            "value" : -129.0,
                            "duration" : 90
                          },
                          {
                            "endTime" : 122,
                            "time" : 92,
                            "value" : -77.0,
                            "duration" : 30
                          }
                        ]
                      },
                      "translation1" : {
                        "type" : "double",
                        "defaultValue" : -6.0,
                        "keyframes" : [
                          {
                            "endTime" : 90,
                            "time" : 0,
                            "value" : -6.0,
                            "duration" : 90
                          },
                          {
                            "endTime" : 122,
                            "time" : 92,
                            "value" : -111.0,
                            "duration" : 30
                          }
                        ]
                      },
                      "rotation2" : {
                        "type" : "double",
                        "defaultValue" : 0.0,
                        "keyframes" : [
                          {
                            "endTime" : 122,
                            "time" : 92,
                            "value" : -0.627002641775641,
                            "duration" : 30
                          }
                        ]
                      },
                      "sourceCrop0" : 0.0,
                      "sourceCrop1" : 0.0,
                      "sourceCrop2" : 0.0,
                      "sourceCrop3" : 0.0,
                      "geometryCrop0" : 0.0,
                      "geometryCrop1" : 0.0,
                      "geometryCrop2" : 0.0,
                      "geometryCrop3" : 0.0
                    },
                    "effects" : [

                    ],
                    "start" : 3264,
                    "duration" : 264,
                    "mediaStart" : 0,
                    "mediaDuration" : 1,
                    "scalar" : 1,
                    "metadata" : {
                      "clipSpeedAttribute" : false,
                      "default-scale" : "1",
                      "effectApplied" : "none",
                      "lockAspectRatio" : true
                    },
                    "animationTracks" : {
                      "visual" : [
                        {
                          "endTime" : 90,
                          "duration" : 90,
                          "range" : [ 0, 90]
                        },
                        {
                          "endTime" : 122,
                          "duration" : 30,
                          "range" : [ 92, 30]
                        }
                      ]
                    }
                  },
                  {
                    "id" : 144,
                    "_type" : "IMFile",
                    "src" : 34,
                    "trackNumber" : 0,
                    "trimStartSum" : 30,
                    "attributes" : {
                      "ident" : "Pasted Image"
                    },
                    "parameters" : {
                      "translation0" : 488.0,
                      "translation1" : 59.0,
                      "scale0" : 0.699999988079071,
                      "scale1" : 0.699999988079071,
                      "sourceCrop0" : 0.0,
                      "sourceCrop1" : 0.0,
                      "sourceCrop2" : 0.0,
                      "sourceCrop3" : 0.0,
                      "geometryCrop0" : 0.0,
                      "geometryCrop1" : 0.0,
                      "geometryCrop2" : 0.0,
                      "geometryCrop3" : 0.0
                    },
                    "effects" : [

                    ],
                    "start" : 3562,
                    "duration" : 477,
                    "mediaStart" : 0,
                    "mediaDuration" : 1,
                    "scalar" : 1,
                    "metadata" : {
                      "clipSpeedAttribute" : false,
                      "default-scale" : "1",
                      "effectApplied" : "none",
                      "lockAspectRatio" : true
                    },
                    "animationTracks" : {

                    }
                  },
                  {
                    "id" : 145,
                    "_type" : "IMFile",
                    "src" : 38,
                    "trackNumber" : 0,
                    "trimStartSum" : 0,
                    "attributes" : {
                      "ident" : "Pasted Image"
                    },
                    "parameters" : {
                      "translation0" : -383.0,
                      "translation1" : -229.0,
                      "scale0" : 0.899999976158142,
                      "scale1" : 0.899999976158142,
                      "sourceCrop0" : 0.0,
                      "sourceCrop1" : 0.0,
                      "sourceCrop2" : 0.0,
                      "sourceCrop3" : 0.0,
                      "geometryCrop0" : 0.0,
                      "geometryCrop1" : 0.0,
                      "geometryCrop2" : 0.0,
                      "geometryCrop3" : 0.0
                    },
                    "effects" : [

                    ],
                    "start" : 4146,
                    "duration" : 150,
                    "mediaStart" : 0,
                    "mediaDuration" : 1,
                    "scalar" : 1,
                    "metadata" : {
                      "clipSpeedAttribute" : false,
                      "default-scale" : "1",
                      "effectApplied" : "none",
                      "lockAspectRatio" : true
                    },
                    "animationTracks" : {

                    }
                  },
                  {
                    "id" : 146,
                    "_type" : "Callout",
                    "def" : {
                      "kind" : "TypeWinSVG",
                      "shape" : "",
                      "style" : "",
                      "DrawTime" : 1.0,
                      "borderColorBlue" : 0.0,
                      "borderColorGreen" : 1.0,
                      "borderColorRed" : 0.0,
                      "borderWidth" : 3.0,
                      "height" : 158.653,
                      "width" : 462.438579741768,
                      "xmlContent" : "<?xml version=\"1.0\" encoding=\"utf-8\"?>\r\n<!-- Generator: Adobe Illustrator 15.0.2, SVG Export Plug-In . SVG Version: 6.00 Build 0)  -->\r\n<!DOCTYPE svg PUBLIC \"-//W3C//DTD SVG 1.1//EN\" \"http://www.w3.org/Graphics/SVG/1.1/DTD/svg11.dtd\">\r\n<svg version=\"1.1\" id=\"Layer_1\" xmlns=\"http://www.w3.org/2000/svg\" xmlns:xlink=\"http://www.w3.org/1999/xlink\" x=\"0px\" y=\"0px\"\r\n\t width=\"493.211px\" height=\"420px\" viewBox=\"0 0 493.211 420\" enable-background=\"new 0 0 493.211 420\" xml:space=\"preserve\">\r\n<path fill=\"none\" stroke=\"#000000\" stroke-miterlimit=\"10\" d=\"M15.386,209.423c0,0,302.233-31.333,420.78-10.62\"/>\r\n<path fill=\"none\" stroke=\"#000000\" stroke-miterlimit=\"10\" d=\"M300.132,130.673c0,0,164.923,30.692,177.062,66.399\r\n\tc12.143,35.708-155.115,92.254-155.115,92.254\"/>\r\n</svg>\r\n"
                    },
                    "attributes" : {
                      "ident" : "",
                      "autoRotateText" : true
                    },
                    "parameters" : {
                      "translation0" : -569.206785197686,
                      "translation1" : 60.4343088631194,
                      "scale0" : 0.148284621376012,
                      "scale1" : 0.148284621376012,
                      "sourceCrop0" : 0.0,
                      "sourceCrop1" : 0.0,
                      "sourceCrop2" : 0.0,
                      "sourceCrop3" : 0.0,
                      "geometryCrop0" : 0.0,
                      "geometryCrop1" : 0.0,
                      "geometryCrop2" : 0.0,
                      "geometryCrop3" : 0.0
                    },
                    "leftEdgeMods" : [
                      {
                        "group" : "DrawPercentageFade",
                        "duration" : 30,
                        "parameters" : [
                          {
                            "name" : "DrawTime",
                              "func" : "FadeInFunc"
                            }
                        ]
                      }
                    ],
                    "effects" : [

                    ],
                    "start" : 4368,
                    "duration" : 237,
                    "mediaStart" : 0,
                    "mediaDuration" : 237,
                    "scalar" : 1,
                    "metadata" : {
                      "clipSpeedAttribute" : false,
                      "default-callout-stroke-color" : "(255,255,0,255)",
                      "default-scale" : "1",
                      "effectApplied" : "none",
                      "lockAspectRatio" : true
                    },
                    "animationTracks" : {

                    }
                  },
                  {
                    "id" : 147,
                    "_type" : "IMFile",
                    "src" : 39,
                    "trackNumber" : 0,
                    "trimStartSum" : 0,
                    "attributes" : {
                      "ident" : "Pasted Image"
                    },
                    "parameters" : {
                      "translation0" : {
                        "type" : "double",
                        "defaultValue" : -405.575199641501,
                        "keyframes" : [
                          {
                            "endTime" : 30,
                            "time" : 0,
                            "value" : -266.144675785215,
                            "duration" : 30
                          }
                        ]
                      },
                      "translation1" : {
                        "type" : "double",
                        "defaultValue" : -200.0,
                        "keyframes" : [
                          {
                            "endTime" : 30,
                            "time" : 0,
                            "value" : -111.271484818727,
                            "duration" : 30
                          }
                        ]
                      },
                      "scale0" : {
                        "type" : "double",
                        "defaultValue" : 0.639999985694885,
                        "keyframes" : [
                          {
                            "endTime" : 30,
                            "time" : 0,
                            "value" : 1.17938305670566,
                            "duration" : 30
                          }
                        ]
                      },
                      "scale1" : {
                        "type" : "double",
                        "defaultValue" : 0.639999985694885,
                        "keyframes" : [
                          {
                            "endTime" : 30,
                            "time" : 0,
                            "value" : 1.17938305670566,
                            "duration" : 30
                          }
                        ]
                      },
                      "sourceCrop0" : 0.0,
                      "sourceCrop1" : 0.0,
                      "sourceCrop2" : 0.0,
                      "sourceCrop3" : 0.0,
                      "geometryCrop0" : 0.0,
                      "geometryCrop1" : 0.0,
                      "geometryCrop2" : 0.0,
                      "geometryCrop3" : 0.0
                    },
                    "effects" : [

                    ],
                    "start" : 4642,
                    "duration" : 60,
                    "mediaStart" : 0,
                    "mediaDuration" : 1,
                    "scalar" : 1,
                    "metadata" : {
                      "clipSpeedAttribute" : false,
                      "default-scale" : "1",
                      "effectApplied" : "none",
                      "lockAspectRatio" : true
                    },
                    "animationTracks" : {
                      "visual" : [
                        {
                          "endTime" : 30,
                          "duration" : 30,
                          "range" : [ 0, 30]
                        }
                      ]
                    }
                  },
                  {
                    "id" : 148,
                    "_type" : "IMFile",
                    "src" : 42,
                    "trackNumber" : 0,
                    "trimStartSum" : 0,
                    "attributes" : {
                      "ident" : "Pasted Image"
                    },
                    "parameters" : {
                      "translation0" : {
                        "type" : "double",
                        "defaultValue" : -839.0,
                        "interp" : "eioe",
                        "keyframes" : [
                          {
                            "endTime" : 16,
                            "time" : 0,
                            "value" : -77.0,
                            "duration" : 16
                          },
                          {
                            "endTime" : 358,
                            "time" : 334,
                            "value" : -479.0,
                            "duration" : 24
                          }
                        ]
                      },
                      "translation1" : {
                        "type" : "double",
                        "defaultValue" : -37.0,
                        "interp" : "eioe",
                        "keyframes" : [
                          {
                            "endTime" : 16,
                            "time" : 0,
                            "value" : -20.0,
                            "duration" : 16
                          },
                          {
                            "endTime" : 358,
                            "time" : 334,
                            "value" : -104.0,
                            "duration" : 24
                          }
                        ]
                      },
                      "scale0" : {
                        "type" : "double",
                        "defaultValue" : 1.5,
                        "interp" : "eioe",
                        "keyframes" : [
                          {
                            "endTime" : 16,
                            "time" : 0,
                            "value" : 1.5,
                            "duration" : 16
                          },
                          {
                            "endTime" : 358,
                            "time" : 334,
                            "value" : 0.5,
                            "duration" : 24
                          }
                        ]
                      },
                      "scale1" : {
                        "type" : "double",
                        "defaultValue" : 1.5,
                        "interp" : "eioe",
                        "keyframes" : [
                          {
                            "endTime" : 16,
                            "time" : 0,
                            "value" : 1.5,
                            "duration" : 16
                          },
                          {
                            "endTime" : 358,
                            "time" : 334,
                            "value" : 0.5,
                            "duration" : 24
                          }
                        ]
                      },
                      "sourceCrop0" : {
                        "type" : "double",
                        "defaultValue" : 0.0,
                        "interp" : "eioe"
                      },
                      "sourceCrop1" : {
                        "type" : "double",
                        "defaultValue" : 0.0,
                        "interp" : "eioe"
                      },
                      "sourceCrop2" : {
                        "type" : "double",
                        "defaultValue" : 0.0,
                        "interp" : "eioe"
                      },
                      "sourceCrop3" : {
                        "type" : "double",
                        "defaultValue" : 0.0,
                        "interp" : "eioe"
                      },
                      "geometryCrop0" : {
                        "type" : "double",
                        "defaultValue" : 0.0,
                        "interp" : "eioe"
                      },
                      "geometryCrop1" : {
                        "type" : "double",
                        "defaultValue" : 0.0,
                        "interp" : "eioe"
                      },
                      "geometryCrop2" : {
                        "type" : "double",
                        "defaultValue" : 0.0,
                        "interp" : "eioe"
                      },
                      "geometryCrop3" : {
                        "type" : "double",
                        "defaultValue" : 0.0,
                        "interp" : "eioe"
                      }
                    },
                    "effects" : [

                    ],
                    "start" : 4904,
                    "duration" : 361,
                    "mediaStart" : 0,
                    "mediaDuration" : 1,
                    "scalar" : 1,
                    "metadata" : {
                      "clipSpeedAttribute" : false,
                      "default-scale" : "1",
                      "effectApplied" : "none",
                      "lockAspectRatio" : true
                    },
                    "animationTracks" : {
                      "visual" : [
                        {
                          "endTime" : 16,
                          "duration" : 16,
                          "range" : [ 0, 16]
                        },
                        {
                          "endTime" : 358,
                          "duration" : 24,
                          "range" : [ 334, 24]
                        }
                      ]
                    }
                  },
                  {
                    "id" : 149,
                    "_type" : "Callout",
                    "def" : {
                      "kind" : "TypeWinSVG",
                      "shape" : "",
                      "style" : "",
                      "DrawTime" : {
                        "type" : "double",
                        "defaultValue" : 1.0,
                        "interp" : "linr"
                      },
                      "borderColorBlue" : {
                        "type" : "double",
                        "defaultValue" : 0.0,
                        "interp" : "linr"
                      },
                      "borderColorGreen" : {
                        "type" : "double",
                        "defaultValue" : 1.0,
                        "interp" : "linr"
                      },
                      "borderColorRed" : {
                        "type" : "double",
                        "defaultValue" : 0.0,
                        "interp" : "linr"
                      },
                      "borderWidth" : {
                        "type" : "double",
                        "defaultValue" : 3.0,
                        "interp" : "linr"
                      },
                      "height" : {
                        "type" : "double",
                        "defaultValue" : 158.653,
                        "interp" : "linr"
                      },
                      "width" : {
                        "type" : "double",
                        "defaultValue" : 462.438579741768,
                        "interp" : "linr"
                      },
                      "xmlContent" : "<?xml version=\"1.0\" encoding=\"utf-8\"?>\r\n<!-- Generator: Adobe Illustrator 15.0.2, SVG Export Plug-In . SVG Version: 6.00 Build 0)  -->\r\n<!DOCTYPE svg PUBLIC \"-//W3C//DTD SVG 1.1//EN\" \"http://www.w3.org/Graphics/SVG/1.1/DTD/svg11.dtd\">\r\n<svg version=\"1.1\" id=\"Layer_1\" xmlns=\"http://www.w3.org/2000/svg\" xmlns:xlink=\"http://www.w3.org/1999/xlink\" x=\"0px\" y=\"0px\"\r\n\t width=\"493.211px\" height=\"420px\" viewBox=\"0 0 493.211 420\" enable-background=\"new 0 0 493.211 420\" xml:space=\"preserve\">\r\n<path fill=\"none\" stroke=\"#000000\" stroke-miterlimit=\"10\" d=\"M15.386,209.423c0,0,302.233-31.333,420.78-10.62\"/>\r\n<path fill=\"none\" stroke=\"#000000\" stroke-miterlimit=\"10\" d=\"M300.132,130.673c0,0,164.923,30.692,177.062,66.399\r\n\tc12.143,35.708-155.115,92.254-155.115,92.254\"/>\r\n</svg>\r\n"
                    },
                    "attributes" : {
                      "ident" : "",
                      "autoRotateText" : true
                    },
                    "parameters" : {
                      "translation0" : {
                        "type" : "double",
                        "defaultValue" : -516.206785197686,
                        "interp" : "eioe"
                      },
                      "translation1" : {
                        "type" : "double",
                        "defaultValue" : -31.565691136881,
                        "interp" : "eioe"
                      },
                      "scale0" : {
                        "type" : "double",
                        "defaultValue" : 0.148284621376012,
                        "interp" : "eioe"
                      },
                      "scale1" : {
                        "type" : "double",
                        "defaultValue" : 0.148284621376012,
                        "interp" : "eioe"
                      },
                      "sourceCrop0" : {
                        "type" : "double",
                        "defaultValue" : 0.0,
                        "interp" : "eioe"
                      },
                      "sourceCrop1" : {
                        "type" : "double",
                        "defaultValue" : 0.0,
                        "interp" : "eioe"
                      },
                      "sourceCrop2" : {
                        "type" : "double",
                        "defaultValue" : 0.0,
                        "interp" : "eioe"
                      },
                      "sourceCrop3" : {
                        "type" : "double",
                        "defaultValue" : 0.0,
                        "interp" : "eioe"
                      },
                      "geometryCrop0" : {
                        "type" : "double",
                        "defaultValue" : 0.0,
                        "interp" : "eioe"
                      },
                      "geometryCrop1" : {
                        "type" : "double",
                        "defaultValue" : 0.0,
                        "interp" : "eioe"
                      },
                      "geometryCrop2" : {
                        "type" : "double",
                        "defaultValue" : 0.0,
                        "interp" : "eioe"
                      },
                      "geometryCrop3" : {
                        "type" : "double",
                        "defaultValue" : 0.0,
                        "interp" : "eioe"
                      }
                    },
                    "leftEdgeMods" : [
                      {
                        "group" : "DrawPercentageFade",
                        "duration" : 30,
                        "parameters" : [
                          {
                            "name" : "DrawTime",
                              "func" : "FadeInFunc"
                            }
                        ]
                      }
                    ],
                    "effects" : [

                    ],
                    "start" : 5475,
                    "duration" : 98,
                    "mediaStart" : 0,
                    "mediaDuration" : 98,
                    "scalar" : 1,
                    "metadata" : {
                      "clipSpeedAttribute" : false,
                      "default-callout-stroke-color" : "(255,255,0,255)",
                      "default-scale" : "1",
                      "effectApplied" : "none",
                      "lockAspectRatio" : true
                    },
                    "animationTracks" : {

                    }
                  },
                  {
                    "id" : 150,
                    "_type" : "IMFile",
                    "src" : 43,
                    "trackNumber" : 0,
                    "trimStartSum" : 0,
                    "attributes" : {
                      "ident" : "Pasted Image"
                    },
                    "parameters" : {
                      "translation0" : {
                        "type" : "double",
                        "defaultValue" : -481.0,
                        "interp" : "eioe",
                        "keyframes" : [
                          {
                            "endTime" : 32,
                            "time" : 16,
                            "value" : -77.0,
                            "duration" : 16
                          },
                          {
                            "endTime" : 175,
                            "time" : 151,
                            "value" : -77.0,
                            "duration" : 24
                          }
                        ]
                      },
                      "translation1" : {
                        "type" : "double",
                        "defaultValue" : -104.0,
                        "interp" : "eioe",
                        "keyframes" : [
                          {
                            "endTime" : 32,
                            "time" : 16,
                            "value" : -55.0,
                            "duration" : 16
                          },
                          {
                            "endTime" : 175,
                            "time" : 151,
                            "value" : -281.0,
                            "duration" : 24
                          }
                        ]
                      },
                      "scale0" : {
                        "type" : "double",
                        "defaultValue" : 0.5,
                        "interp" : "eioe",
                        "keyframes" : [
                          {
                            "endTime" : 32,
                            "time" : 16,
                            "value" : 1.5,
                            "duration" : 16
                          },
                          {
                            "endTime" : 175,
                            "time" : 151,
                            "value" : 0.5,
                            "duration" : 24
                          }
                        ]
                      },
                      "scale1" : {
                        "type" : "double",
                        "defaultValue" : 0.5,
                        "interp" : "eioe",
                        "keyframes" : [
                          {
                            "endTime" : 32,
                            "time" : 16,
                            "value" : 1.5,
                            "duration" : 16
                          },
                          {
                            "endTime" : 175,
                            "time" : 151,
                            "value" : 0.5,
                            "duration" : 24
                          }
                        ]
                      },
                      "sourceCrop0" : {
                        "type" : "double",
                        "defaultValue" : 0.0,
                        "interp" : "eioe"
                      },
                      "sourceCrop1" : {
                        "type" : "double",
                        "defaultValue" : 0.0,
                        "interp" : "eioe"
                      },
                      "sourceCrop2" : {
                        "type" : "double",
                        "defaultValue" : 0.0,
                        "interp" : "eioe"
                      },
                      "sourceCrop3" : {
                        "type" : "double",
                        "defaultValue" : 0.0,
                        "interp" : "eioe"
                      },
                      "geometryCrop0" : {
                        "type" : "double",
                        "defaultValue" : 0.0,
                        "interp" : "eioe"
                      },
                      "geometryCrop1" : {
                        "type" : "double",
                        "defaultValue" : 0.0,
                        "interp" : "eioe"
                      },
                      "geometryCrop2" : {
                        "type" : "double",
                        "defaultValue" : 0.0,
                        "interp" : "eioe"
                      },
                      "geometryCrop3" : {
                        "type" : "double",
                        "defaultValue" : 0.0,
                        "interp" : "eioe"
                      }
                    },
                    "effects" : [

                    ],
                    "start" : 5853,
                    "duration" : 177,
                    "mediaStart" : 0,
                    "mediaDuration" : 1,
                    "scalar" : 1,
                    "metadata" : {
                      "clipSpeedAttribute" : false,
                      "default-scale" : "1",
                      "effectApplied" : "none",
                      "lockAspectRatio" : true
                    },
                    "animationTracks" : {
                      "visual" : [
                        {
                          "endTime" : 32,
                          "duration" : 16,
                          "range" : [ 16, 16]
                        },
                        {
                          "endTime" : 175,
                          "duration" : 24,
                          "range" : [ 151, 24]
                        }
                      ]
                    }
                  },
                  {
                    "id" : 151,
                    "_type" : "IMFile",
                    "src" : 53,
                    "trackNumber" : 0,
                    "trimStartSum" : 0,
                    "attributes" : {
                      "ident" : "Pasted Image"
                    },
                    "parameters" : {
                      "translation0" : {
                        "type" : "double",
                        "defaultValue" : -231.042038431625,
                        "interp" : "eioe"
                      },
                      "translation1" : {
                        "type" : "double",
                        "defaultValue" : -167.357030178833,
                        "interp" : "eioe"
                      },
                      "scale0" : {
                        "type" : "double",
                        "defaultValue" : 1.64348725980235,
                        "interp" : "eioe"
                      },
                      "scale1" : {
                        "type" : "double",
                        "defaultValue" : 1.64348725980235,
                        "interp" : "eioe"
                      },
                      "sourceCrop0" : {
                        "type" : "double",
                        "defaultValue" : 0.0,
                        "interp" : "eioe"
                      },
                      "sourceCrop1" : {
                        "type" : "double",
                        "defaultValue" : 0.0,
                        "interp" : "eioe"
                      },
                      "sourceCrop2" : {
                        "type" : "double",
                        "defaultValue" : 0.0,
                        "interp" : "eioe"
                      },
                      "sourceCrop3" : {
                        "type" : "double",
                        "defaultValue" : 0.0,
                        "interp" : "eioe"
                      },
                      "geometryCrop0" : {
                        "type" : "double",
                        "defaultValue" : 0.0,
                        "interp" : "eioe"
                      },
                      "geometryCrop1" : {
                        "type" : "double",
                        "defaultValue" : 0.0,
                        "interp" : "eioe"
                      },
                      "geometryCrop2" : {
                        "type" : "double",
                        "defaultValue" : 0.0,
                        "interp" : "eioe"
                      },
                      "geometryCrop3" : {
                        "type" : "double",
                        "defaultValue" : 0.0,
                        "interp" : "eioe"
                      }
                    },
                    "effects" : [

                    ],
                    "start" : 6196,
                    "duration" : 82,
                    "mediaStart" : 0,
                    "mediaDuration" : 1,
                    "scalar" : 1,
                    "metadata" : {
                      "clipSpeedAttribute" : false,
                      "default-scale" : "1",
                      "effectApplied" : "none",
                      "lockAspectRatio" : true
                    },
                    "animationTracks" : {

                    }
                  },
                  {
                    "id" : 152,
                    "_type" : "IMFile",
                    "src" : 54,
                    "trackNumber" : 0,
                    "trimStartSum" : 0,
                    "attributes" : {
                      "ident" : "Pasted Image"
                    },
                    "parameters" : {
                      "translation0" : {
                        "type" : "double",
                        "defaultValue" : 18.0,
                        "interp" : "eioe"
                      },
                      "translation1" : {
                        "type" : "double",
                        "defaultValue" : -97.0,
                        "interp" : "eioe"
                      },
                      "sourceCrop0" : {
                        "type" : "double",
                        "defaultValue" : 0.0,
                        "interp" : "eioe"
                      },
                      "sourceCrop1" : {
                        "type" : "double",
                        "defaultValue" : 0.0,
                        "interp" : "eioe"
                      },
                      "sourceCrop2" : {
                        "type" : "double",
                        "defaultValue" : 0.0,
                        "interp" : "eioe"
                      },
                      "sourceCrop3" : {
                        "type" : "double",
                        "defaultValue" : 0.0,
                        "interp" : "eioe"
                      },
                      "geometryCrop0" : {
                        "type" : "double",
                        "defaultValue" : 0.0,
                        "interp" : "eioe"
                      },
                      "geometryCrop1" : {
                        "type" : "double",
                        "defaultValue" : 0.0,
                        "interp" : "eioe"
                      },
                      "geometryCrop2" : {
                        "type" : "double",
                        "defaultValue" : 0.0,
                        "interp" : "eioe"
                      },
                      "geometryCrop3" : {
                        "type" : "double",
                        "defaultValue" : 0.0,
                        "interp" : "eioe"
                      }
                    },
                    "effects" : [

                    ],
                    "start" : 6398,
                    "duration" : 332,
                    "mediaStart" : 0,
                    "mediaDuration" : 1,
                    "scalar" : 1,
                    "metadata" : {
                      "clipSpeedAttribute" : false,
                      "default-scale" : "1",
                      "effectApplied" : "none",
                      "lockAspectRatio" : true
                    },
                    "animationTracks" : {

                    }
                  },
                  {
                    "id" : 153,
                    "_type" : "IMFile",
                    "src" : 58,
                    "trackNumber" : 0,
                    "trimStartSum" : 0,
                    "attributes" : {
                      "ident" : "Pasted Image"
                    },
                    "parameters" : {
                      "translation0" : {
                        "type" : "double",
                        "defaultValue" : -180.266573774422,
                        "interp" : "eioe"
                      },
                      "translation1" : {
                        "type" : "double",
                        "defaultValue" : -86.3154924659257,
                        "interp" : "eioe"
                      },
                      "scale0" : {
                        "type" : "double",
                        "defaultValue" : 0.756114836437971,
                        "interp" : "eioe"
                      },
                      "scale1" : {
                        "type" : "double",
                        "defaultValue" : 0.756114836437971,
                        "interp" : "eioe"
                      },
                      "sourceCrop0" : {
                        "type" : "double",
                        "defaultValue" : 0.0,
                        "interp" : "eioe"
                      },
                      "sourceCrop1" : {
                        "type" : "double",
                        "defaultValue" : 0.0,
                        "interp" : "eioe"
                      },
                      "sourceCrop2" : {
                        "type" : "double",
                        "defaultValue" : 0.0,
                        "interp" : "eioe"
                      },
                      "sourceCrop3" : {
                        "type" : "double",
                        "defaultValue" : 0.0,
                        "interp" : "eioe"
                      },
                      "geometryCrop0" : {
                        "type" : "double",
                        "defaultValue" : 0.0,
                        "interp" : "eioe"
                      },
                      "geometryCrop1" : {
                        "type" : "double",
                        "defaultValue" : 0.0,
                        "interp" : "eioe"
                      },
                      "geometryCrop2" : {
                        "type" : "double",
                        "defaultValue" : 0.0,
                        "interp" : "eioe"
                      },
                      "geometryCrop3" : {
                        "type" : "double",
                        "defaultValue" : 0.0,
                        "interp" : "eioe"
                      }
                    },
                    "effects" : [

                    ],
                    "start" : 6999,
                    "duration" : 150,
                    "mediaStart" : 0,
                    "mediaDuration" : 1,
                    "scalar" : 1,
                    "metadata" : {
                      "clipSpeedAttribute" : false,
                      "default-scale" : "1",
                      "effectApplied" : "none",
                      "lockAspectRatio" : true
                    },
                    "animationTracks" : {

                    }
                  },
                  {
                    "id" : 154,
                    "_type" : "IMFile",
                    "src" : 60,
                    "trackNumber" : 0,
                    "trimStartSum" : 0,
                    "attributes" : {
                      "ident" : "Pasted Image"
                    },
                    "parameters" : {
                      "translation0" : {
                        "type" : "double",
                        "defaultValue" : -165.0,
                        "interp" : "eioe"
                      },
                      "translation1" : {
                        "type" : "double",
                        "defaultValue" : -111.0,
                        "interp" : "eioe"
                      },
                      "sourceCrop0" : {
                        "type" : "double",
                        "defaultValue" : 0.0,
                        "interp" : "eioe"
                      },
                      "sourceCrop1" : {
                        "type" : "double",
                        "defaultValue" : 0.0,
                        "interp" : "eioe"
                      },
                      "sourceCrop2" : {
                        "type" : "double",
                        "defaultValue" : 0.0,
                        "interp" : "eioe"
                      },
                      "sourceCrop3" : {
                        "type" : "double",
                        "defaultValue" : 0.0,
                        "interp" : "eioe"
                      },
                      "geometryCrop0" : {
                        "type" : "double",
                        "defaultValue" : 0.0,
                        "interp" : "eioe"
                      },
                      "geometryCrop1" : {
                        "type" : "double",
                        "defaultValue" : 0.0,
                        "interp" : "eioe"
                      },
                      "geometryCrop2" : {
                        "type" : "double",
                        "defaultValue" : 0.0,
                        "interp" : "eioe"
                      },
                      "geometryCrop3" : {
                        "type" : "double",
                        "defaultValue" : 0.0,
                        "interp" : "eioe"
                      }
                    },
                    "effects" : [

                    ],
                    "start" : 7165,
                    "duration" : 191,
                    "mediaStart" : 0,
                    "mediaDuration" : 1,
                    "scalar" : 1,
                    "metadata" : {
                      "clipSpeedAttribute" : false,
                      "default-scale" : "1",
                      "effectApplied" : "none",
                      "lockAspectRatio" : true
                    },
                    "animationTracks" : {

                    }
                  },
                  {
                    "id" : 155,
                    "_type" : "IMFile",
                    "src" : 61,
                    "trackNumber" : 0,
                    "trimStartSum" : 0,
                    "attributes" : {
                      "ident" : "Pasted Image"
                    },
                    "parameters" : {
                      "translation0" : {
                        "type" : "double",
                        "defaultValue" : 201.0,
                        "interp" : "eioe"
                      },
                      "translation1" : {
                        "type" : "double",
                        "defaultValue" : -104.0,
                        "interp" : "eioe"
                      },
                      "sourceCrop0" : {
                        "type" : "double",
                        "defaultValue" : 0.0,
                        "interp" : "eioe"
                      },
                      "sourceCrop1" : {
                        "type" : "double",
                        "defaultValue" : 0.0,
                        "interp" : "eioe"
                      },
                      "sourceCrop2" : {
                        "type" : "double",
                        "defaultValue" : 0.0,
                        "interp" : "eioe"
                      },
                      "sourceCrop3" : {
                        "type" : "double",
                        "defaultValue" : 0.0,
                        "interp" : "eioe"
                      },
                      "geometryCrop0" : {
                        "type" : "double",
                        "defaultValue" : 0.0,
                        "interp" : "eioe"
                      },
                      "geometryCrop1" : {
                        "type" : "double",
                        "defaultValue" : 0.0,
                        "interp" : "eioe"
                      },
                      "geometryCrop2" : {
                        "type" : "double",
                        "defaultValue" : 0.0,
                        "interp" : "eioe"
                      },
                      "geometryCrop3" : {
                        "type" : "double",
                        "defaultValue" : 0.0,
                        "interp" : "eioe"
                      }
                    },
                    "effects" : [

                    ],
                    "start" : 7357,
                    "duration" : 202,
                    "mediaStart" : 0,
                    "mediaDuration" : 1,
                    "scalar" : 1,
                    "metadata" : {
                      "clipSpeedAttribute" : false,
                      "default-scale" : "1",
                      "effectApplied" : "none",
                      "lockAspectRatio" : true
                    },
                    "animationTracks" : {

                    }
                  },
                  {
                    "id" : 156,
                    "_type" : "IMFile",
                    "src" : 67,
                    "trackNumber" : 0,
                    "trimStartSum" : 0,
                    "attributes" : {
                      "ident" : "Pasted Image"
                    },
                    "parameters" : {
                      "translation0" : {
                        "type" : "double",
                        "defaultValue" : -303.0,
                        "interp" : "eioe",
                        "keyframes" : [
                          {
                            "endTime" : 30,
                            "time" : 0,
                            "value" : -277.0,
                            "duration" : 30
                          },
                          {
                            "endTime" : 421,
                            "time" : 391,
                            "value" : -466.0,
                            "duration" : 30
                          },
                          {
                            "endTime" : 702,
                            "time" : 672,
                            "value" : -277.0,
                            "duration" : 30
                          }
                        ]
                      },
                      "translation1" : {
                        "type" : "double",
                        "defaultValue" : -255.0,
                        "interp" : "eioe",
                        "keyframes" : [
                          {
                            "endTime" : 30,
                            "time" : 0,
                            "value" : -39.0,
                            "duration" : 30
                          },
                          {
                            "endTime" : 421,
                            "time" : 391,
                            "value" : -329.0,
                            "duration" : 30
                          },
                          {
                            "endTime" : 702,
                            "time" : 672,
                            "value" : -39.0,
                            "duration" : 30
                          }
                        ]
                      },
                      "scale0" : {
                        "type" : "double",
                        "defaultValue" : 1.0,
                        "interp" : "eioe",
                        "keyframes" : [
                          {
                            "endTime" : 30,
                            "time" : 0,
                            "value" : 0.75,
                            "duration" : 30
                          },
                          {
                            "endTime" : 421,
                            "time" : 391,
                            "value" : 1.5,
                            "duration" : 30
                          },
                          {
                            "endTime" : 702,
                            "time" : 672,
                            "value" : 0.75,
                            "duration" : 30
                          }
                        ]
                      },
                      "scale1" : {
                        "type" : "double",
                        "defaultValue" : 1.0,
                        "interp" : "eioe",
                        "keyframes" : [
                          {
                            "endTime" : 30,
                            "time" : 0,
                            "value" : 0.75,
                            "duration" : 30
                          },
                          {
                            "endTime" : 421,
                            "time" : 391,
                            "value" : 1.5,
                            "duration" : 30
                          },
                          {
                            "endTime" : 702,
                            "time" : 672,
                            "value" : 0.75,
                            "duration" : 30
                          }
                        ]
                      },
                      "sourceCrop0" : {
                        "type" : "double",
                        "defaultValue" : 0.0,
                        "interp" : "eioe"
                      },
                      "sourceCrop1" : {
                        "type" : "double",
                        "defaultValue" : 0.0,
                        "interp" : "eioe"
                      },
                      "sourceCrop2" : {
                        "type" : "double",
                        "defaultValue" : 0.0,
                        "interp" : "eioe"
                      },
                      "sourceCrop3" : {
                        "type" : "double",
                        "defaultValue" : 0.0,
                        "interp" : "eioe"
                      },
                      "geometryCrop0" : {
                        "type" : "double",
                        "defaultValue" : 0.0,
                        "interp" : "eioe"
                      },
                      "geometryCrop1" : {
                        "type" : "double",
                        "defaultValue" : 0.0,
                        "interp" : "eioe"
                      },
                      "geometryCrop2" : {
                        "type" : "double",
                        "defaultValue" : 0.0,
                        "interp" : "eioe"
                      },
                      "geometryCrop3" : {
                        "type" : "double",
                        "defaultValue" : 0.0,
                        "interp" : "eioe"
                      }
                    },
                    "effects" : [

                    ],
                    "start" : 7561,
                    "duration" : 2548,
                    "mediaStart" : 0,
                    "mediaDuration" : 1,
                    "scalar" : 1,
                    "metadata" : {
                      "clipSpeedAttribute" : false,
                      "default-scale" : "1",
                      "effectApplied" : "none",
                      "lockAspectRatio" : true
                    },
                    "animationTracks" : {
                      "visual" : [
                        {
                          "endTime" : 30,
                          "duration" : 30,
                          "range" : [ 0, 30]
                        },
                        {
                          "endTime" : 421,
                          "duration" : 30,
                          "range" : [ 391, 30]
                        },
                        {
                          "endTime" : 702,
                          "duration" : 30,
                          "range" : [ 672, 30]
                        }
                      ]
                    }
                  }
                ],
                "transitions" : [
                  {
                    "name" : "Fade",
                    "duration" : 30,
                    "rightMedia" : 132,
                    "attributes" : {
                      "bypass" : false,
                      "reverse" : false,
                      "trivial" : false,
                      "useAudioPreRoll" : true,
                      "useVisualPreRoll" : true
                    }

                  },
                  {
                    "name" : "Fade",
                    "duration" : 30,
                    "leftMedia" : 132,
                    "attributes" : {
                      "bypass" : false,
                      "reverse" : false,
                      "trivial" : false,
                      "useAudioPreRoll" : true,
                      "useVisualPreRoll" : true
                    }

                  },
                  {
                    "name" : "Fade",
                    "duration" : 30,
                    "rightMedia" : 133,
                    "attributes" : {
                      "bypass" : false,
                      "reverse" : false,
                      "trivial" : false,
                      "useAudioPreRoll" : true,
                      "useVisualPreRoll" : true
                    }

                  },
                  {
                    "name" : "Fade",
                    "duration" : 30,
                    "leftMedia" : 134,
                    "attributes" : {
                      "bypass" : false,
                      "reverse" : false,
                      "trivial" : false,
                      "useAudioPreRoll" : false,
                      "useVisualPreRoll" : true
                    }

                  },
                  {
                    "name" : "Fade",
                    "duration" : 15,
                    "leftMedia" : 137,
                    "rightMedia" : 138,
                    "attributes" : {
                      "bypass" : false,
                      "reverse" : false,
                      "trivial" : false,
                      "useAudioPreRoll" : true,
                      "useVisualPreRoll" : true
                    }

                  },
                  {
                    "name" : "Fade",
                    "duration" : 30,
                    "leftMedia" : 143,
                    "attributes" : {
                      "bypass" : false,
                      "reverse" : false,
                      "trivial" : false,
                      "useAudioPreRoll" : true,
                      "useVisualPreRoll" : true
                    }

                  },
                  {
                    "name" : "Fade",
                    "duration" : 30,
                    "rightMedia" : 144,
                    "attributes" : {
                      "bypass" : false,
                      "reverse" : false,
                      "trivial" : false,
                      "useAudioPreRoll" : true,
                      "useVisualPreRoll" : true
                    }

                  },
                  {
                    "name" : "Fade",
                    "duration" : 30,
                    "leftMedia" : 144,
                    "attributes" : {
                      "bypass" : false,
                      "reverse" : false,
                      "trivial" : false,
                      "useAudioPreRoll" : true,
                      "useVisualPreRoll" : true
                    }

                  },
                  {
                    "name" : "Fade",
                    "duration" : 30,
                    "rightMedia" : 145,
                    "attributes" : {
                      "bypass" : false,
                      "reverse" : false,
                      "trivial" : false,
                      "useAudioPreRoll" : true,
                      "useVisualPreRoll" : true
                    }

                  },
                  {
                    "name" : "Fade",
                    "duration" : 30,
                    "leftMedia" : 145,
                    "attributes" : {
                      "bypass" : false,
                      "reverse" : false,
                      "trivial" : false,
                      "useAudioPreRoll" : true,
                      "useVisualPreRoll" : true
                    }

                  },
                  {
                    "name" : "Fade",
                    "duration" : 30,
                    "leftMedia" : 146,
                    "attributes" : {
                      "bypass" : false,
                      "reverse" : false,
                      "trivial" : false,
                      "useAudioPreRoll" : false,
                      "useVisualPreRoll" : true
                    }

                  },
                  {
                    "name" : "Fade",
                    "duration" : 30,
                    "leftMedia" : 147,
                    "attributes" : {
                      "bypass" : false,
                      "reverse" : false,
                      "trivial" : false,
                      "useAudioPreRoll" : true,
                      "useVisualPreRoll" : true
                    }

                  },
                  {
                    "name" : "Fade",
                    "duration" : 30,
                    "leftMedia" : 149,
                    "attributes" : {
                      "bypass" : false,
                      "reverse" : false,
                      "trivial" : false,
                      "useAudioPreRoll" : false,
                      "useVisualPreRoll" : true
                    }

                  },
                  {
                    "name" : "Fade",
                    "duration" : 30,
                    "rightMedia" : 151,
                    "attributes" : {
                      "bypass" : false,
                      "reverse" : false,
                      "trivial" : false,
                      "useAudioPreRoll" : true,
                      "useVisualPreRoll" : true
                    }

                  },
                  {
                    "name" : "Fade",
                    "duration" : 30,
                    "leftMedia" : 151,
                    "attributes" : {
                      "bypass" : false,
                      "reverse" : false,
                      "trivial" : false,
                      "useAudioPreRoll" : true,
                      "useVisualPreRoll" : true
                    }

                  },
                  {
                    "name" : "Fade",
                    "duration" : 30,
                    "rightMedia" : 152,
                    "attributes" : {
                      "bypass" : false,
                      "reverse" : false,
                      "trivial" : false,
                      "useAudioPreRoll" : true,
                      "useVisualPreRoll" : true
                    }

                  },
                  {
                    "name" : "Fade",
                    "duration" : 30,
                    "leftMedia" : 152,
                    "attributes" : {
                      "bypass" : false,
                      "reverse" : false,
                      "trivial" : false,
                      "useAudioPreRoll" : true,
                      "useVisualPreRoll" : true
                    }

                  },
                  {
                    "name" : "Fade",
                    "duration" : 30,
                    "rightMedia" : 153,
                    "attributes" : {
                      "bypass" : false,
                      "reverse" : false,
                      "trivial" : false,
                      "useAudioPreRoll" : true,
                      "useVisualPreRoll" : true
                    }

                  },
                  {
                    "name" : "Fade",
                    "duration" : 30,
                    "leftMedia" : 153,
                    "attributes" : {
                      "bypass" : false,
                      "reverse" : false,
                      "trivial" : false,
                      "useAudioPreRoll" : true,
                      "useVisualPreRoll" : true
                    }

                  },
                  {
                    "name" : "Fade",
                    "duration" : 30,
                    "rightMedia" : 154,
                    "attributes" : {
                      "bypass" : false,
                      "reverse" : false,
                      "trivial" : false,
                      "useAudioPreRoll" : true,
                      "useVisualPreRoll" : true
                    }

                  },
                  {
                    "name" : "Fade",
                    "duration" : 30,
                    "leftMedia" : 154,
                    "attributes" : {
                      "bypass" : false,
                      "reverse" : false,
                      "trivial" : false,
                      "useAudioPreRoll" : true,
                      "useVisualPreRoll" : true
                    }

                  },
                  {
                    "name" : "Fade",
                    "duration" : 30,
                    "rightMedia" : 155,
                    "attributes" : {
                      "bypass" : false,
                      "reverse" : false,
                      "trivial" : false,
                      "useAudioPreRoll" : true,
                      "useVisualPreRoll" : true
                    }

                  },
                  {
                    "name" : "Fade",
                    "duration" : 30,
                    "leftMedia" : 155,
                    "attributes" : {
                      "bypass" : false,
                      "reverse" : false,
                      "trivial" : false,
                      "useAudioPreRoll" : true,
                      "useVisualPreRoll" : true
                    }

                  },
                  {
                    "name" : "Fade",
                    "duration" : 30,
                    "leftMedia" : 156,
                    "attributes" : {
                      "bypass" : false,
                      "reverse" : false,
                      "trivial" : false,
                      "useAudioPreRoll" : true,
                      "useVisualPreRoll" : true
                    }

                  }
                ]
              },
              {
                "trackIndex" : 10,
                "medias" : [
                  {
                    "id" : 157,
                    "_type" : "IMFile",
                    "src" : 8,
                    "trackNumber" : 0,
                    "trimStartSum" : 0,
                    "attributes" : {
                      "ident" : "Pasted Image"
                    },
                    "parameters" : {
                      "translation0" : {
                        "type" : "double",
                        "defaultValue" : 112.0,
                        "keyframes" : [
                          {
                            "endTime" : 209,
                            "time" : 179,
                            "value" : -490.0,
                            "duration" : 30
                          }
                        ]
                      },
                      "translation1" : {
                        "type" : "double",
                        "defaultValue" : -27.0,
                        "keyframes" : [
                          {
                            "endTime" : 209,
                            "time" : 179,
                            "value" : -93.0,
                            "duration" : 30
                          },
                          {
                            "endTime" : 801,
                            "time" : 771,
                            "value" : -225.0,
                            "duration" : 30
                          }
                        ]
                      },
                      "rotation2" : {
                        "type" : "double",
                        "defaultValue" : 0.0,
                        "keyframes" : [
                          {
                            "endTime" : 209,
                            "time" : 179,
                            "value" : 1.5707963267949,
                            "duration" : 30
                          }
                        ]
                      },
                      "scale0" : {
                        "type" : "double",
                        "defaultValue" : 1.0,
                        "keyframes" : [
                          {
                            "endTime" : 801,
                            "time" : 771,
                            "value" : 0.00396825396825397,
                            "duration" : 30
                          }
                        ]
                      },
                      "sourceCrop0" : 0.0,
                      "sourceCrop1" : 0.0,
                      "sourceCrop2" : 0.0,
                      "sourceCrop3" : 0.0,
                      "geometryCrop0" : 0.0,
                      "geometryCrop1" : 0.0,
                      "geometryCrop2" : 0.0,
                      "geometryCrop3" : 0.0
                    },
                    "effects" : [

                    ],
                    "start" : 842,
                    "duration" : 1236,
                    "mediaStart" : 0,
                    "mediaDuration" : 1,
                    "scalar" : 1,
                    "metadata" : {
                      "clipSpeedAttribute" : false,
                      "default-scale" : "1",
                      "effectApplied" : "none",
                      "lockAspectRatio" : false
                    },
                    "animationTracks" : {
                      "visual" : [
                        {
                          "endTime" : 209,
                          "duration" : 30,
                          "range" : [ 179, 30]
                        },
                        {
                          "endTime" : 801,
                          "duration" : 30,
                          "range" : [ 771, 30]
                        }
                      ]
                    }
                  },
                  {
                    "id" : 158,
                    "_type" : "IMFile",
                    "src" : 27,
                    "trackNumber" : 0,
                    "trimStartSum" : 0,
                    "attributes" : {
                      "ident" : "Pasted Image"
                    },
                    "parameters" : {
                      "translation0" : -165.0,
                      "translation1" : -243.0,
                      "scale0" : {
                        "type" : "double",
                        "defaultValue" : 1.0,
                        "keyframes" : [
                          {
                            "endTime" : 168,
                            "time" : 149,
                            "value" : 1.5,
                            "duration" : 19
                          }
                        ]
                      },
                      "scale1" : {
                        "type" : "double",
                        "defaultValue" : 1.0,
                        "keyframes" : [
                          {
                            "endTime" : 168,
                            "time" : 149,
                            "value" : 1.5,
                            "duration" : 19
                          }
                        ]
                      },
                      "sourceCrop0" : 0.0,
                      "sourceCrop1" : 0.0,
                      "sourceCrop2" : 0.0,
                      "sourceCrop3" : 0.0,
                      "geometryCrop0" : 0.0,
                      "geometryCrop1" : 0.0,
                      "geometryCrop2" : 0.0,
                      "geometryCrop3" : 0.0
                    },
                    "effects" : [

                    ],
                    "start" : 2393,
                    "duration" : 93,
                    "mediaStart" : 0,
                    "mediaDuration" : 1,
                    "scalar" : 1,
                    "metadata" : {
                      "clipSpeedAttribute" : false,
                      "default-scale" : "1",
                      "effectApplied" : "none",
                      "lockAspectRatio" : true
                    },
                    "animationTracks" : {
                      "visual" : [
                        {
                          "endTime" : 168,
                          "duration" : 19,
                          "range" : [ 149, 19]
                        }
                      ]
                    }
                  },
                  {
                    "id" : 159,
                    "_type" : "IMFile",
                    "src" : 27,
                    "trackNumber" : 0,
                    "trimStartSum" : 262,
                    "attributes" : {
                      "ident" : "Pasted Image"
                    },
                    "parameters" : {
                      "translation0" : {
                        "type" : "double",
                        "defaultValue" : -165.0,
                        "keyframes" : [
                          {
                            "endTime" : 280,
                            "time" : 262,
                            "value" : -75.0,
                            "duration" : 18
                          },
                          {
                            "endTime" : 319,
                            "time" : 302,
                            "value" : -165.0,
                            "duration" : 17
                          }
                        ]
                      },
                      "translation1" : {
                        "type" : "double",
                        "defaultValue" : -243.0,
                        "keyframes" : [
                          {
                            "endTime" : 280,
                            "time" : 262,
                            "value" : -153.0,
                            "duration" : 18
                          },
                          {
                            "endTime" : 319,
                            "time" : 302,
                            "value" : -243.0,
                            "duration" : 17
                          }
                        ]
                      },
                      "scale0" : {
                        "type" : "double",
                        "defaultValue" : 1.5,
                        "keyframes" : [
                          {
                            "endTime" : 168,
                            "time" : 149,
                            "value" : 1.5,
                            "duration" : 19
                          }
                        ]
                      },
                      "scale1" : {
                        "type" : "double",
                        "defaultValue" : 1.5,
                        "keyframes" : [
                          {
                            "endTime" : 168,
                            "time" : 149,
                            "value" : 1.5,
                            "duration" : 19
                          }
                        ]
                      },
                      "sourceCrop0" : 0.0,
                      "sourceCrop1" : 0.0,
                      "sourceCrop2" : 0.0,
                      "sourceCrop3" : 0.0,
                      "geometryCrop0" : 0.0,
                      "geometryCrop1" : 0.0,
                      "geometryCrop2" : 0.0,
                      "geometryCrop3" : 0.0
                    },
                    "effects" : [

                    ],
                    "start" : 2636,
                    "duration" : 57,
                    "mediaStart" : 0,
                    "mediaDuration" : 1,
                    "scalar" : 1,
                    "metadata" : {
                      "clipSpeedAttribute" : false,
                      "default-scale" : "1",
                      "effectApplied" : "none",
                      "lockAspectRatio" : true
                    },
                    "animationTracks" : {
                      "visual" : [
                        {
                          "endTime" : 168,
                          "duration" : 19,
                          "range" : [ 149, 19]
                        },
                        {
                          "endTime" : 280,
                          "duration" : 18,
                          "range" : [ 262, 18]
                        },
                        {
                          "endTime" : 319,
                          "duration" : 17,
                          "range" : [ 302, 17]
                        }
                      ]
                    }
                  },
                  {
                    "id" : 160,
                    "_type" : "IMFile",
                    "src" : 32,
                    "trackNumber" : 0,
                    "trimStartSum" : 0,
                    "attributes" : {
                      "ident" : "Pasted Image"
                    },
                    "parameters" : {
                      "translation0" : {
                        "type" : "double",
                        "defaultValue" : -900.0,
                        "keyframes" : [
                          {
                            "endTime" : 90,
                            "time" : 0,
                            "value" : -208.0,
                            "duration" : 90
                          }
                        ]
                      },
                      "translation1" : {
                        "type" : "double",
                        "defaultValue" : -201.0,
                        "keyframes" : [
                          {
                            "endTime" : 90,
                            "time" : 0,
                            "value" : -201.0,
                            "duration" : 90
                          }
                        ]
                      },
                      "sourceCrop0" : 0.0,
                      "sourceCrop1" : 0.0,
                      "sourceCrop2" : 0.0,
                      "sourceCrop3" : 0.0,
                      "geometryCrop0" : 0.0,
                      "geometryCrop1" : 0.0,
                      "geometryCrop2" : 0.0,
                      "geometryCrop3" : 0.0
                    },
                    "effects" : [

                    ],
                    "start" : 3264,
                    "duration" : 122,
                    "mediaStart" : 0,
                    "mediaDuration" : 1,
                    "scalar" : 1,
                    "metadata" : {
                      "clipSpeedAttribute" : false,
                      "default-scale" : "1",
                      "effectApplied" : "none",
                      "lockAspectRatio" : true
                    },
                    "animationTracks" : {
                      "visual" : [
                        {
                          "endTime" : 90,
                          "duration" : 90,
                          "range" : [ 0, 90]
                        }
                      ]
                    }
                  },
                  {
                    "id" : 161,
                    "_type" : "IMFile",
                    "src" : 86,
                    "trackNumber" : 0,
                    "trimStartSum" : 0,
                    "attributes" : {
                      "ident" : "Pasted Image"
                    },
                    "parameters" : {
                      "translation0" : {
                        "type" : "double",
                        "defaultValue" : -227.0,
                        "interp" : "eioe"
                      },
                      "translation1" : {
                        "type" : "double",
                        "defaultValue" : -91.0,
                        "interp" : "eioe"
                      },
                      "scale0" : {
                        "type" : "double",
                        "defaultValue" : 1.25,
                        "interp" : "eioe"
                      },
                      "scale1" : {
                        "type" : "double",
                        "defaultValue" : 1.25,
                        "interp" : "eioe"
                      },
                      "sourceCrop0" : {
                        "type" : "double",
                        "defaultValue" : 0.0,
                        "interp" : "eioe"
                      },
                      "sourceCrop1" : {
                        "type" : "double",
                        "defaultValue" : 0.0,
                        "interp" : "eioe"
                      },
                      "sourceCrop2" : {
                        "type" : "double",
                        "defaultValue" : 0.0,
                        "interp" : "eioe"
                      },
                      "sourceCrop3" : {
                        "type" : "double",
                        "defaultValue" : 0.0,
                        "interp" : "eioe"
                      },
                      "geometryCrop0" : {
                        "type" : "double",
                        "defaultValue" : 0.0,
                        "interp" : "eioe"
                      },
                      "geometryCrop1" : {
                        "type" : "double",
                        "defaultValue" : 0.0,
                        "interp" : "eioe"
                      },
                      "geometryCrop2" : {
                        "type" : "double",
                        "defaultValue" : 0.0,
                        "interp" : "eioe"
                      },
                      "geometryCrop3" : {
                        "type" : "double",
                        "defaultValue" : 0.0,
                        "interp" : "eioe"
                      }
                    },
                    "effects" : [

                    ],
                    "start" : 3684,
                    "duration" : 355,
                    "mediaStart" : 0,
                    "mediaDuration" : 1,
                    "scalar" : 1,
                    "metadata" : {
                      "clipSpeedAttribute" : false,
                      "default-scale" : "1",
                      "effectApplied" : "none",
                      "lockAspectRatio" : true
                    },
                    "animationTracks" : {

                    }
                  },
                  {
                    "id" : 162,
                    "_type" : "Callout",
                    "def" : {
                      "kind" : "TypeWinSVG",
                      "shape" : "",
                      "style" : "",
                      "DrawTime" : 1.0,
                      "borderColorBlue" : 0.0,
                      "borderColorGreen" : 1.0,
                      "borderColorRed" : 0.0,
                      "borderWidth" : 3.0,
                      "height" : 158.653,
                      "width" : 462.438579741768,
                      "xmlContent" : "<?xml version=\"1.0\" encoding=\"utf-8\"?>\r\n<!-- Generator: Adobe Illustrator 15.0.2, SVG Export Plug-In . SVG Version: 6.00 Build 0)  -->\r\n<!DOCTYPE svg PUBLIC \"-//W3C//DTD SVG 1.1//EN\" \"http://www.w3.org/Graphics/SVG/1.1/DTD/svg11.dtd\">\r\n<svg version=\"1.1\" id=\"Layer_1\" xmlns=\"http://www.w3.org/2000/svg\" xmlns:xlink=\"http://www.w3.org/1999/xlink\" x=\"0px\" y=\"0px\"\r\n\t width=\"493.211px\" height=\"420px\" viewBox=\"0 0 493.211 420\" enable-background=\"new 0 0 493.211 420\" xml:space=\"preserve\">\r\n<path fill=\"none\" stroke=\"#000000\" stroke-miterlimit=\"10\" d=\"M15.386,209.423c0,0,302.233-31.333,420.78-10.62\"/>\r\n<path fill=\"none\" stroke=\"#000000\" stroke-miterlimit=\"10\" d=\"M300.132,130.673c0,0,164.923,30.692,177.062,66.399\r\n\tc12.143,35.708-155.115,92.254-155.115,92.254\"/>\r\n</svg>\r\n"
                    },
                    "attributes" : {
                      "ident" : "",
                      "autoRotateText" : true
                    },
                    "parameters" : {
                      "translation0" : -569.206785197686,
                      "translation1" : -107.565691136881,
                      "scale0" : 0.148284621376012,
                      "scale1" : 0.148284621376012,
                      "sourceCrop0" : 0.0,
                      "sourceCrop1" : 0.0,
                      "sourceCrop2" : 0.0,
                      "sourceCrop3" : 0.0,
                      "geometryCrop0" : 0.0,
                      "geometryCrop1" : 0.0,
                      "geometryCrop2" : 0.0,
                      "geometryCrop3" : 0.0
                    },
                    "leftEdgeMods" : [
                      {
                        "group" : "DrawPercentageFade",
                        "duration" : 30,
                        "parameters" : [
                          {
                            "name" : "DrawTime",
                              "func" : "FadeInFunc"
                            }
                        ]
                      }
                    ],
                    "effects" : [

                    ],
                    "start" : 4413,
                    "duration" : 192,
                    "mediaStart" : 0,
                    "mediaDuration" : 192,
                    "scalar" : 1,
                    "metadata" : {
                      "clipSpeedAttribute" : false,
                      "default-callout-stroke-color" : "(255,255,0,255)",
                      "default-scale" : "1",
                      "effectApplied" : "none",
                      "lockAspectRatio" : true
                    },
                    "animationTracks" : {

                    }
                  },
                  {
                    "id" : 163,
                    "_type" : "IMFile",
                    "src" : 40,
                    "trackNumber" : 0,
                    "trimStartSum" : 0,
                    "attributes" : {
                      "ident" : "Pasted Image"
                    },
                    "parameters" : {
                      "translation0" : -266.144675785215,
                      "translation1" : -111.271484818727,
                      "scale0" : 1.17938305670566,
                      "scale1" : 1.17938305670566,
                      "sourceCrop0" : 0.0,
                      "sourceCrop1" : 0.0,
                      "sourceCrop2" : 0.0,
                      "sourceCrop3" : 0.0,
                      "geometryCrop0" : 0.0,
                      "geometryCrop1" : 0.0,
                      "geometryCrop2" : 0.0,
                      "geometryCrop3" : 0.0
                    },
                    "effects" : [

                    ],
                    "start" : 4672,
                    "duration" : 232,
                    "mediaStart" : 0,
                    "mediaDuration" : 1,
                    "scalar" : 1,
                    "metadata" : {
                      "clipSpeedAttribute" : false,
                      "default-scale" : "1",
                      "effectApplied" : "none",
                      "lockAspectRatio" : true
                    },
                    "animationTracks" : {

                    }
                  },
                  {
                    "id" : 164,
                    "_type" : "IMFile",
                    "src" : 43,
                    "trackNumber" : 0,
                    "trimStartSum" : 0,
                    "attributes" : {
                      "ident" : "Pasted Image"
                    },
                    "parameters" : {
                      "translation0" : {
                        "type" : "double",
                        "defaultValue" : -840.0,
                        "interp" : "eioe",
                        "keyframes" : [
                          {
                            "endTime" : 32,
                            "time" : 16,
                            "value" : -77.0,
                            "duration" : 16
                          },
                          {
                            "endTime" : 358,
                            "time" : 334,
                            "value" : -479.0,
                            "duration" : 24
                          }
                        ]
                      },
                      "translation1" : {
                        "type" : "double",
                        "defaultValue" : -40.0,
                        "interp" : "eioe",
                        "keyframes" : [
                          {
                            "endTime" : 32,
                            "time" : 16,
                            "value" : -55.0,
                            "duration" : 16
                          },
                          {
                            "endTime" : 358,
                            "time" : 334,
                            "value" : -104.0,
                            "duration" : 24
                          }
                        ]
                      },
                      "scale0" : {
                        "type" : "double",
                        "defaultValue" : 1.5,
                        "interp" : "eioe",
                        "keyframes" : [
                          {
                            "endTime" : 32,
                            "time" : 16,
                            "value" : 1.5,
                            "duration" : 16
                          },
                          {
                            "endTime" : 358,
                            "time" : 334,
                            "value" : 0.5,
                            "duration" : 24
                          }
                        ]
                      },
                      "scale1" : {
                        "type" : "double",
                        "defaultValue" : 1.5,
                        "interp" : "eioe",
                        "keyframes" : [
                          {
                            "endTime" : 32,
                            "time" : 16,
                            "value" : 1.5,
                            "duration" : 16
                          },
                          {
                            "endTime" : 358,
                            "time" : 334,
                            "value" : 0.5,
                            "duration" : 24
                          }
                        ]
                      },
                      "sourceCrop0" : {
                        "type" : "double",
                        "defaultValue" : 0.0,
                        "interp" : "eioe"
                      },
                      "sourceCrop1" : {
                        "type" : "double",
                        "defaultValue" : 0.0,
                        "interp" : "eioe"
                      },
                      "sourceCrop2" : {
                        "type" : "double",
                        "defaultValue" : 0.0,
                        "interp" : "eioe"
                      },
                      "sourceCrop3" : {
                        "type" : "double",
                        "defaultValue" : 0.0,
                        "interp" : "eioe"
                      },
                      "geometryCrop0" : {
                        "type" : "double",
                        "defaultValue" : 0.0,
                        "interp" : "eioe"
                      },
                      "geometryCrop1" : {
                        "type" : "double",
                        "defaultValue" : 0.0,
                        "interp" : "eioe"
                      },
                      "geometryCrop2" : {
                        "type" : "double",
                        "defaultValue" : 0.0,
                        "interp" : "eioe"
                      },
                      "geometryCrop3" : {
                        "type" : "double",
                        "defaultValue" : 0.0,
                        "interp" : "eioe"
                      }
                    },
                    "effects" : [

                    ],
                    "start" : 4904,
                    "duration" : 361,
                    "mediaStart" : 0,
                    "mediaDuration" : 1,
                    "scalar" : 1,
                    "metadata" : {
                      "clipSpeedAttribute" : false,
                      "default-scale" : "1",
                      "effectApplied" : "none",
                      "lockAspectRatio" : true
                    },
                    "animationTracks" : {
                      "visual" : [
                        {
                          "endTime" : 32,
                          "duration" : 16,
                          "range" : [ 16, 16]
                        },
                        {
                          "endTime" : 358,
                          "duration" : 24,
                          "range" : [ 334, 24]
                        }
                      ]
                    }
                  },
                  {
                    "id" : 165,
                    "_type" : "Callout",
                    "def" : {
                      "kind" : "TypeWinSVG",
                      "shape" : "",
                      "style" : "",
                      "DrawTime" : {
                        "type" : "double",
                        "defaultValue" : 1.0,
                        "interp" : "linr"
                      },
                      "borderColorBlue" : {
                        "type" : "double",
                        "defaultValue" : 0.0,
                        "interp" : "linr"
                      },
                      "borderColorGreen" : {
                        "type" : "double",
                        "defaultValue" : 1.0,
                        "interp" : "linr"
                      },
                      "borderColorRed" : {
                        "type" : "double",
                        "defaultValue" : 0.0,
                        "interp" : "linr"
                      },
                      "borderWidth" : {
                        "type" : "double",
                        "defaultValue" : 3.0,
                        "interp" : "linr"
                      },
                      "height" : {
                        "type" : "double",
                        "defaultValue" : 158.653,
                        "interp" : "linr"
                      },
                      "width" : {
                        "type" : "double",
                        "defaultValue" : 462.438579741768,
                        "interp" : "linr"
                      },
                      "xmlContent" : "<?xml version=\"1.0\" encoding=\"utf-8\"?>\r\n<!-- Generator: Adobe Illustrator 15.0.2, SVG Export Plug-In . SVG Version: 6.00 Build 0)  -->\r\n<!DOCTYPE svg PUBLIC \"-//W3C//DTD SVG 1.1//EN\" \"http://www.w3.org/Graphics/SVG/1.1/DTD/svg11.dtd\">\r\n<svg version=\"1.1\" id=\"Layer_1\" xmlns=\"http://www.w3.org/2000/svg\" xmlns:xlink=\"http://www.w3.org/1999/xlink\" x=\"0px\" y=\"0px\"\r\n\t width=\"493.211px\" height=\"420px\" viewBox=\"0 0 493.211 420\" enable-background=\"new 0 0 493.211 420\" xml:space=\"preserve\">\r\n<path fill=\"none\" stroke=\"#000000\" stroke-miterlimit=\"10\" d=\"M15.386,209.423c0,0,302.233-31.333,420.78-10.62\"/>\r\n<path fill=\"none\" stroke=\"#000000\" stroke-miterlimit=\"10\" d=\"M300.132,130.673c0,0,164.923,30.692,177.062,66.399\r\n\tc12.143,35.708-155.115,92.254-155.115,92.254\"/>\r\n</svg>\r\n"
                    },
                    "attributes" : {
                      "ident" : "",
                      "autoRotateText" : true
                    },
                    "parameters" : {
                      "translation0" : {
                        "type" : "double",
                        "defaultValue" : -516.206785197686,
                        "interp" : "eioe"
                      },
                      "translation1" : {
                        "type" : "double",
                        "defaultValue" : -72.565691136881,
                        "interp" : "eioe"
                      },
                      "scale0" : {
                        "type" : "double",
                        "defaultValue" : 0.148284621376012,
                        "interp" : "eioe"
                      },
                      "scale1" : {
                        "type" : "double",
                        "defaultValue" : 0.148284621376012,
                        "interp" : "eioe"
                      },
                      "sourceCrop0" : {
                        "type" : "double",
                        "defaultValue" : 0.0,
                        "interp" : "eioe"
                      },
                      "sourceCrop1" : {
                        "type" : "double",
                        "defaultValue" : 0.0,
                        "interp" : "eioe"
                      },
                      "sourceCrop2" : {
                        "type" : "double",
                        "defaultValue" : 0.0,
                        "interp" : "eioe"
                      },
                      "sourceCrop3" : {
                        "type" : "double",
                        "defaultValue" : 0.0,
                        "interp" : "eioe"
                      },
                      "geometryCrop0" : {
                        "type" : "double",
                        "defaultValue" : 0.0,
                        "interp" : "eioe"
                      },
                      "geometryCrop1" : {
                        "type" : "double",
                        "defaultValue" : 0.0,
                        "interp" : "eioe"
                      },
                      "geometryCrop2" : {
                        "type" : "double",
                        "defaultValue" : 0.0,
                        "interp" : "eioe"
                      },
                      "geometryCrop3" : {
                        "type" : "double",
                        "defaultValue" : 0.0,
                        "interp" : "eioe"
                      }
                    },
                    "leftEdgeMods" : [
                      {
                        "group" : "DrawPercentageFade",
                        "duration" : 30,
                        "parameters" : [
                          {
                            "name" : "DrawTime",
                              "func" : "FadeInFunc"
                            }
                        ]
                      }
                    ],
                    "effects" : [

                    ],
                    "start" : 5545,
                    "duration" : 106,
                    "mediaStart" : 0,
                    "mediaDuration" : 106,
                    "scalar" : 1,
                    "metadata" : {
                      "clipSpeedAttribute" : false,
                      "default-callout-stroke-color" : "(255,255,0,255)",
                      "default-scale" : "1",
                      "effectApplied" : "none",
                      "lockAspectRatio" : true
                    },
                    "animationTracks" : {

                    }
                  },
                  {
                    "id" : 166,
                    "_type" : "IMFile",
                    "src" : 44,
                    "trackNumber" : 0,
                    "trimStartSum" : 0,
                    "attributes" : {
                      "ident" : "Pasted Image"
                    },
                    "parameters" : {
                      "translation0" : {
                        "type" : "double",
                        "defaultValue" : -481.0,
                        "interp" : "eioe",
                        "keyframes" : [
                          {
                            "endTime" : 48,
                            "time" : 32,
                            "value" : -77.0,
                            "duration" : 16
                          },
                          {
                            "endTime" : 175,
                            "time" : 151,
                            "value" : -77.0,
                            "duration" : 24
                          }
                        ]
                      },
                      "translation1" : {
                        "type" : "double",
                        "defaultValue" : -104.0,
                        "interp" : "eioe",
                        "keyframes" : [
                          {
                            "endTime" : 48,
                            "time" : 32,
                            "value" : -90.0,
                            "duration" : 16
                          },
                          {
                            "endTime" : 175,
                            "time" : 151,
                            "value" : -281.0,
                            "duration" : 24
                          }
                        ]
                      },
                      "scale0" : {
                        "type" : "double",
                        "defaultValue" : 0.5,
                        "interp" : "eioe",
                        "keyframes" : [
                          {
                            "endTime" : 48,
                            "time" : 32,
                            "value" : 1.5,
                            "duration" : 16
                          },
                          {
                            "endTime" : 175,
                            "time" : 151,
                            "value" : 0.5,
                            "duration" : 24
                          }
                        ]
                      },
                      "scale1" : {
                        "type" : "double",
                        "defaultValue" : 0.5,
                        "interp" : "eioe",
                        "keyframes" : [
                          {
                            "endTime" : 48,
                            "time" : 32,
                            "value" : 1.5,
                            "duration" : 16
                          },
                          {
                            "endTime" : 175,
                            "time" : 151,
                            "value" : 0.5,
                            "duration" : 24
                          }
                        ]
                      },
                      "sourceCrop0" : {
                        "type" : "double",
                        "defaultValue" : 0.0,
                        "interp" : "eioe"
                      },
                      "sourceCrop1" : {
                        "type" : "double",
                        "defaultValue" : 0.0,
                        "interp" : "eioe"
                      },
                      "sourceCrop2" : {
                        "type" : "double",
                        "defaultValue" : 0.0,
                        "interp" : "eioe"
                      },
                      "sourceCrop3" : {
                        "type" : "double",
                        "defaultValue" : 0.0,
                        "interp" : "eioe"
                      },
                      "geometryCrop0" : {
                        "type" : "double",
                        "defaultValue" : 0.0,
                        "interp" : "eioe"
                      },
                      "geometryCrop1" : {
                        "type" : "double",
                        "defaultValue" : 0.0,
                        "interp" : "eioe"
                      },
                      "geometryCrop2" : {
                        "type" : "double",
                        "defaultValue" : 0.0,
                        "interp" : "eioe"
                      },
                      "geometryCrop3" : {
                        "type" : "double",
                        "defaultValue" : 0.0,
                        "interp" : "eioe"
                      }
                    },
                    "effects" : [

                    ],
                    "start" : 5853,
                    "duration" : 177,
                    "mediaStart" : 0,
                    "mediaDuration" : 1,
                    "scalar" : 1,
                    "metadata" : {
                      "clipSpeedAttribute" : false,
                      "default-scale" : "1",
                      "effectApplied" : "none",
                      "lockAspectRatio" : true
                    },
                    "animationTracks" : {
                      "visual" : [
                        {
                          "endTime" : 48,
                          "duration" : 16,
                          "range" : [ 32, 16]
                        },
                        {
                          "endTime" : 175,
                          "duration" : 24,
                          "range" : [ 151, 24]
                        }
                      ]
                    }
                  },
                  {
                    "id" : 167,
                    "_type" : "Callout",
                    "def" : {
                      "kind" : "TypeWinSVG",
                      "shape" : "",
                      "style" : "",
                      "DrawTime" : {
                        "type" : "double",
                        "defaultValue" : 1.0,
                        "interp" : "linr"
                      },
                      "borderColorBlue" : {
                        "type" : "double",
                        "defaultValue" : 0.0,
                        "interp" : "linr"
                      },
                      "borderColorGreen" : {
                        "type" : "double",
                        "defaultValue" : 1.0,
                        "interp" : "linr"
                      },
                      "borderColorRed" : {
                        "type" : "double",
                        "defaultValue" : 0.0,
                        "interp" : "linr"
                      },
                      "borderWidth" : {
                        "type" : "double",
                        "defaultValue" : 3.0,
                        "interp" : "linr"
                      },
                      "height" : {
                        "type" : "double",
                        "defaultValue" : 158.653,
                        "interp" : "linr"
                      },
                      "width" : {
                        "type" : "double",
                        "defaultValue" : 462.438579741768,
                        "interp" : "linr"
                      },
                      "xmlContent" : "<?xml version=\"1.0\" encoding=\"utf-8\"?>\r\n<!-- Generator: Adobe Illustrator 15.0.2, SVG Export Plug-In . SVG Version: 6.00 Build 0)  -->\r\n<!DOCTYPE svg PUBLIC \"-//W3C//DTD SVG 1.1//EN\" \"http://www.w3.org/Graphics/SVG/1.1/DTD/svg11.dtd\">\r\n<svg version=\"1.1\" id=\"Layer_1\" xmlns=\"http://www.w3.org/2000/svg\" xmlns:xlink=\"http://www.w3.org/1999/xlink\" x=\"0px\" y=\"0px\"\r\n\t width=\"493.211px\" height=\"420px\" viewBox=\"0 0 493.211 420\" enable-background=\"new 0 0 493.211 420\" xml:space=\"preserve\">\r\n<path fill=\"none\" stroke=\"#000000\" stroke-miterlimit=\"10\" d=\"M15.386,209.423c0,0,302.233-31.333,420.78-10.62\"/>\r\n<path fill=\"none\" stroke=\"#000000\" stroke-miterlimit=\"10\" d=\"M300.132,130.673c0,0,164.923,30.692,177.062,66.399\r\n\tc12.143,35.708-155.115,92.254-155.115,92.254\"/>\r\n</svg>\r\n"
                    },
                    "attributes" : {
                      "ident" : "",
                      "autoRotateText" : true
                    },
                    "parameters" : {
                      "translation0" : {
                        "type" : "double",
                        "defaultValue" : -483.206785197686,
                        "interp" : "eioe"
                      },
                      "translation1" : {
                        "type" : "double",
                        "defaultValue" : -188.565691136881,
                        "interp" : "eioe"
                      },
                      "scale0" : {
                        "type" : "double",
                        "defaultValue" : 0.148284621376012,
                        "interp" : "eioe"
                      },
                      "scale1" : {
                        "type" : "double",
                        "defaultValue" : 0.148284621376012,
                        "interp" : "eioe"
                      },
                      "sourceCrop0" : {
                        "type" : "double",
                        "defaultValue" : 0.0,
                        "interp" : "eioe"
                      },
                      "sourceCrop1" : {
                        "type" : "double",
                        "defaultValue" : 0.0,
                        "interp" : "eioe"
                      },
                      "sourceCrop2" : {
                        "type" : "double",
                        "defaultValue" : 0.0,
                        "interp" : "eioe"
                      },
                      "sourceCrop3" : {
                        "type" : "double",
                        "defaultValue" : 0.0,
                        "interp" : "eioe"
                      },
                      "geometryCrop0" : {
                        "type" : "double",
                        "defaultValue" : 0.0,
                        "interp" : "eioe"
                      },
                      "geometryCrop1" : {
                        "type" : "double",
                        "defaultValue" : 0.0,
                        "interp" : "eioe"
                      },
                      "geometryCrop2" : {
                        "type" : "double",
                        "defaultValue" : 0.0,
                        "interp" : "eioe"
                      },
                      "geometryCrop3" : {
                        "type" : "double",
                        "defaultValue" : 0.0,
                        "interp" : "eioe"
                      }
                    },
                    "leftEdgeMods" : [
                      {
                        "group" : "DrawPercentageFade",
                        "duration" : 30,
                        "parameters" : [
                          {
                            "name" : "DrawTime",
                              "func" : "FadeInFunc"
                            }
                        ]
                      }
                    ],
                    "effects" : [

                    ],
                    "start" : 6278,
                    "duration" : 106,
                    "mediaStart" : 0,
                    "mediaDuration" : 106,
                    "scalar" : 1,
                    "metadata" : {
                      "clipSpeedAttribute" : false,
                      "default-callout-stroke-color" : "(255,255,0,255)",
                      "default-scale" : "1",
                      "effectApplied" : "none",
                      "lockAspectRatio" : true
                    },
                    "animationTracks" : {

                    }
                  },
                  {
                    "id" : 168,
                    "_type" : "IMFile",
                    "src" : 62,
                    "trackNumber" : 0,
                    "trimStartSum" : 0,
                    "attributes" : {
                      "ident" : "Pasted Image"
                    },
                    "parameters" : {
                      "translation0" : {
                        "type" : "double",
                        "defaultValue" : 202.0,
                        "interp" : "eioe"
                      },
                      "translation1" : {
                        "type" : "double",
                        "defaultValue" : -112.0,
                        "interp" : "eioe"
                      },
                      "sourceCrop0" : {
                        "type" : "double",
                        "defaultValue" : 0.0,
                        "interp" : "eioe"
                      },
                      "sourceCrop1" : {
                        "type" : "double",
                        "defaultValue" : 0.0,
                        "interp" : "eioe"
                      },
                      "sourceCrop2" : {
                        "type" : "double",
                        "defaultValue" : 0.0,
                        "interp" : "eioe"
                      },
                      "sourceCrop3" : {
                        "type" : "double",
                        "defaultValue" : 0.0,
                        "interp" : "eioe"
                      },
                      "geometryCrop0" : {
                        "type" : "double",
                        "defaultValue" : 0.0,
                        "interp" : "eioe"
                      },
                      "geometryCrop1" : {
                        "type" : "double",
                        "defaultValue" : 0.0,
                        "interp" : "eioe"
                      },
                      "geometryCrop2" : {
                        "type" : "double",
                        "defaultValue" : 0.0,
                        "interp" : "eioe"
                      },
                      "geometryCrop3" : {
                        "type" : "double",
                        "defaultValue" : 0.0,
                        "interp" : "eioe"
                      }
                    },
                    "effects" : [

                    ],
                    "start" : 7440,
                    "duration" : 81,
                    "mediaStart" : 0,
                    "mediaDuration" : 1,
                    "scalar" : 1,
                    "metadata" : {
                      "clipSpeedAttribute" : false,
                      "default-scale" : "1",
                      "effectApplied" : "none",
                      "lockAspectRatio" : true
                    },
                    "animationTracks" : {

                    }
                  },
                  {
                    "id" : 169,
                    "_type" : "IMFile",
                    "src" : 63,
                    "trackNumber" : 0,
                    "trimStartSum" : 0,
                    "attributes" : {
                      "ident" : "Pasted Image"
                    },
                    "parameters" : {
                      "translation0" : {
                        "type" : "double",
                        "defaultValue" : -125.0,
                        "interp" : "eioe",
                        "keyframes" : [
                          {
                            "endTime" : 663,
                            "time" : 633,
                            "value" : -145.0,
                            "duration" : 30
                          },
                          {
                            "endTime" : 990,
                            "time" : 960,
                            "value" : -500.0,
                            "duration" : 30
                          },
                          {
                            "endTime" : 1457,
                            "time" : 1427,
                            "value" : -125.0,
                            "duration" : 30
                          }
                        ]
                      },
                      "translation1" : {
                        "type" : "double",
                        "defaultValue" : 19.0,
                        "interp" : "eioe",
                        "keyframes" : [
                          {
                            "endTime" : 663,
                            "time" : 633,
                            "value" : -215.0,
                            "duration" : 30
                          },
                          {
                            "endTime" : 1457,
                            "time" : 1427,
                            "value" : 19.0,
                            "duration" : 30
                          }
                        ]
                      },
                      "scale0" : {
                        "type" : "double",
                        "defaultValue" : 1.0,
                        "interp" : "eioe",
                        "keyframes" : [
                          {
                            "endTime" : 663,
                            "time" : 633,
                            "value" : 1.5,
                            "duration" : 30
                          },
                          {
                            "endTime" : 1457,
                            "time" : 1427,
                            "value" : 1.0,
                            "duration" : 30
                          }
                        ]
                      },
                      "scale1" : {
                        "type" : "double",
                        "defaultValue" : 1.0,
                        "interp" : "eioe",
                        "keyframes" : [
                          {
                            "endTime" : 663,
                            "time" : 633,
                            "value" : 1.5,
                            "duration" : 30
                          },
                          {
                            "endTime" : 1457,
                            "time" : 1427,
                            "value" : 1.0,
                            "duration" : 30
                          }
                        ]
                      },
                      "sourceCrop0" : {
                        "type" : "double",
                        "defaultValue" : 0.0,
                        "interp" : "eioe"
                      },
                      "sourceCrop1" : {
                        "type" : "double",
                        "defaultValue" : 0.0,
                        "interp" : "eioe"
                      },
                      "sourceCrop2" : {
                        "type" : "double",
                        "defaultValue" : 0.0,
                        "interp" : "eioe"
                      },
                      "sourceCrop3" : {
                        "type" : "double",
                        "defaultValue" : 0.0,
                        "interp" : "eioe"
                      },
                      "geometryCrop0" : {
                        "type" : "double",
                        "defaultValue" : 0.0,
                        "interp" : "eioe"
                      },
                      "geometryCrop1" : {
                        "type" : "double",
                        "defaultValue" : 0.0,
                        "interp" : "eioe"
                      },
                      "geometryCrop2" : {
                        "type" : "double",
                        "defaultValue" : 0.0,
                        "interp" : "eioe"
                      },
                      "geometryCrop3" : {
                        "type" : "double",
                        "defaultValue" : 0.0,
                        "interp" : "eioe"
                      }
                    },
                    "effects" : [

                    ],
                    "start" : 7643,
                    "duration" : 2466,
                    "mediaStart" : 0,
                    "mediaDuration" : 1,
                    "scalar" : 1,
                    "metadata" : {
                      "clipSpeedAttribute" : false,
                      "default-scale" : "1",
                      "effectApplied" : "none",
                      "lockAspectRatio" : true
                    },
                    "animationTracks" : {
                      "visual" : [
                        {
                          "endTime" : 663,
                          "duration" : 30,
                          "range" : [ 633, 30]
                        },
                        {
                          "endTime" : 990,
                          "duration" : 30,
                          "range" : [ 960, 30]
                        },
                        {
                          "endTime" : 1457,
                          "duration" : 30,
                          "range" : [ 1427, 30]
                        }
                      ]
                    }
                  }
                ],
                "transitions" : [
                  {
                    "name" : "Fade",
                    "duration" : 30,
                    "rightMedia" : 157,
                    "attributes" : {
                      "bypass" : false,
                      "reverse" : false,
                      "trivial" : false,
                      "useAudioPreRoll" : true,
                      "useVisualPreRoll" : true
                    }

                  },
                  {
                    "name" : "Fade",
                    "duration" : 30,
                    "leftMedia" : 160,
                    "attributes" : {
                      "bypass" : false,
                      "reverse" : false,
                      "trivial" : false,
                      "useAudioPreRoll" : true,
                      "useVisualPreRoll" : true
                    }

                  },
                  {
                    "name" : "Fade",
                    "duration" : 30,
                    "rightMedia" : 161,
                    "attributes" : {
                      "bypass" : false,
                      "reverse" : false,
                      "trivial" : false,
                      "useAudioPreRoll" : true,
                      "useVisualPreRoll" : true
                    }

                  },
                  {
                    "name" : "Fade",
                    "duration" : 30,
                    "leftMedia" : 161,
                    "attributes" : {
                      "bypass" : false,
                      "reverse" : false,
                      "trivial" : false,
                      "useAudioPreRoll" : true,
                      "useVisualPreRoll" : true
                    }

                  },
                  {
                    "name" : "Fade",
                    "duration" : 30,
                    "leftMedia" : 162,
                    "attributes" : {
                      "bypass" : false,
                      "reverse" : false,
                      "trivial" : false,
                      "useAudioPreRoll" : false,
                      "useVisualPreRoll" : true
                    }

                  },
                  {
                    "name" : "Fade",
                    "duration" : 30,
                    "rightMedia" : 163,
                    "attributes" : {
                      "bypass" : false,
                      "reverse" : false,
                      "trivial" : false,
                      "useAudioPreRoll" : true,
                      "useVisualPreRoll" : true
                    }

                  },
                  {
                    "name" : "Fade",
                    "duration" : 30,
                    "leftMedia" : 163,
                    "attributes" : {
                      "bypass" : false,
                      "reverse" : false,
                      "trivial" : false,
                      "useAudioPreRoll" : true,
                      "useVisualPreRoll" : true
                    }

                  },
                  {
                    "name" : "Fade",
                    "duration" : 30,
                    "leftMedia" : 165,
                    "attributes" : {
                      "bypass" : false,
                      "reverse" : false,
                      "trivial" : false,
                      "useAudioPreRoll" : false,
                      "useVisualPreRoll" : true
                    }

                  },
                  {
                    "name" : "Fade",
                    "duration" : 30,
                    "leftMedia" : 167,
                    "attributes" : {
                      "bypass" : false,
                      "reverse" : false,
                      "trivial" : false,
                      "useAudioPreRoll" : false,
                      "useVisualPreRoll" : true
                    }

                  },
                  {
                    "name" : "Fade",
                    "duration" : 13,
                    "rightMedia" : 168,
                    "attributes" : {
                      "bypass" : false,
                      "reverse" : false,
                      "trivial" : false,
                      "useAudioPreRoll" : true,
                      "useVisualPreRoll" : true
                    }

                  },
                  {
                    "name" : "Fade",
                    "duration" : 30,
                    "leftMedia" : 168,
                    "attributes" : {
                      "bypass" : false,
                      "reverse" : false,
                      "trivial" : false,
                      "useAudioPreRoll" : true,
                      "useVisualPreRoll" : true
                    }

                  },
                  {
                    "name" : "Fade",
                    "duration" : 30,
                    "leftMedia" : 169,
                    "attributes" : {
                      "bypass" : false,
                      "reverse" : false,
                      "trivial" : false,
                      "useAudioPreRoll" : true,
                      "useVisualPreRoll" : true
                    }

                  }
                ]
              },
              {
                "trackIndex" : 11,
                "medias" : [
                  {
                    "id" : 170,
                    "_type" : "IMFile",
                    "src" : 9,
                    "trackNumber" : 0,
                    "trimStartSum" : 0,
                    "attributes" : {
                      "ident" : "Pasted Image"
                    },
                    "parameters" : {
                      "translation0" : {
                        "type" : "double",
                        "defaultValue" : 112.0,
                        "keyframes" : [
                          {
                            "endTime" : 209,
                            "time" : 179,
                            "value" : -381.0,
                            "duration" : 30
                          }
                        ]
                      },
                      "translation1" : {
                        "type" : "double",
                        "defaultValue" : -50.0,
                        "keyframes" : [
                          {
                            "endTime" : 209,
                            "time" : 179,
                            "value" : -93.0,
                            "duration" : 30
                          },
                          {
                            "endTime" : 801,
                            "time" : 771,
                            "value" : -225.0,
                            "duration" : 30
                          }
                        ]
                      },
                      "rotation2" : {
                        "type" : "double",
                        "defaultValue" : 0.0,
                        "keyframes" : [
                          {
                            "endTime" : 209,
                            "time" : 179,
                            "value" : 1.57079632679489,
                            "duration" : 30
                          }
                        ]
                      },
                      "scale0" : {
                        "type" : "double",
                        "defaultValue" : 1.0,
                        "keyframes" : [
                          {
                            "endTime" : 801,
                            "time" : 771,
                            "value" : 0.00396825396825397,
                            "duration" : 30
                          }
                        ]
                      },
                      "sourceCrop0" : 0.0,
                      "sourceCrop1" : 0.0,
                      "sourceCrop2" : 0.0,
                      "sourceCrop3" : 0.0,
                      "geometryCrop0" : 0.0,
                      "geometryCrop1" : 0.0,
                      "geometryCrop2" : 0.0,
                      "geometryCrop3" : 0.0
                    },
                    "effects" : [

                    ],
                    "start" : 842,
                    "duration" : 1236,
                    "mediaStart" : 0,
                    "mediaDuration" : 1,
                    "scalar" : 1,
                    "metadata" : {
                      "clipSpeedAttribute" : false,
                      "default-scale" : "1",
                      "effectApplied" : "none",
                      "lockAspectRatio" : false
                    },
                    "animationTracks" : {
                      "visual" : [
                        {
                          "endTime" : 209,
                          "duration" : 30,
                          "range" : [ 179, 30]
                        },
                        {
                          "endTime" : 801,
                          "duration" : 30,
                          "range" : [ 771, 30]
                        }
                      ]
                    }
                  },
                  {
                    "id" : 171,
                    "_type" : "IMFile",
                    "src" : 27,
                    "trackNumber" : 0,
                    "trimStartSum" : 0,
                    "attributes" : {
                      "ident" : "Pasted Image"
                    },
                    "parameters" : {
                      "translation0" : {
                        "type" : "double",
                        "defaultValue" : 21.0,
                        "keyframes" : [
                          {
                            "endTime" : 51,
                            "time" : 37,
                            "value" : -166.0,
                            "duration" : 14
                          }
                        ]
                      },
                      "translation1" : {
                        "type" : "double",
                        "defaultValue" : -243.0,
                        "keyframes" : [
                          {
                            "endTime" : 51,
                            "time" : 37,
                            "value" : -69.0,
                            "duration" : 14
                          }
                        ]
                      },
                      "scale0" : {
                        "type" : "double",
                        "defaultValue" : 1.0,
                        "keyframes" : [
                          {
                            "endTime" : 51,
                            "time" : 37,
                            "value" : 0.800000011920929,
                            "duration" : 14
                          }
                        ]
                      },
                      "scale1" : {
                        "type" : "double",
                        "defaultValue" : 1.0,
                        "keyframes" : [
                          {
                            "endTime" : 51,
                            "time" : 37,
                            "value" : 0.800000011920929,
                            "duration" : 14
                          }
                        ]
                      },
                      "sourceCrop0" : 0.0,
                      "sourceCrop1" : 0.0,
                      "sourceCrop2" : 0.0,
                      "sourceCrop3" : 0.0,
                      "geometryCrop0" : 0.0,
                      "geometryCrop1" : 0.0,
                      "geometryCrop2" : 0.0,
                      "geometryCrop3" : 0.0
                    },
                    "effects" : [

                    ],
                    "start" : 2393,
                    "duration" : 51,
                    "mediaStart" : 0,
                    "mediaDuration" : 1,
                    "scalar" : 1,
                    "metadata" : {
                      "clipSpeedAttribute" : false,
                      "default-scale" : "1",
                      "effectApplied" : "none",
                      "lockAspectRatio" : true
                    },
                    "animationTracks" : {
                      "visual" : [
                        {
                          "endTime" : 51,
                          "duration" : 14,
                          "range" : [ 37, 14]
                        }
                      ]
                    }
                  },
                  {
                    "id" : 172,
                    "_type" : "IMFile",
                    "src" : 27,
                    "trackNumber" : 0,
                    "trimStartSum" : 262,
                    "attributes" : {
                      "ident" : "Pasted Image"
                    },
                    "parameters" : {
                      "translation0" : {
                        "type" : "double",
                        "defaultValue" : -165.0,
                        "keyframes" : [
                          {
                            "endTime" : 280,
                            "time" : 262,
                            "value" : -105.0,
                            "duration" : 18
                          },
                          {
                            "endTime" : 319,
                            "time" : 302,
                            "value" : -165.0,
                            "duration" : 17
                          }
                        ]
                      },
                      "translation1" : {
                        "type" : "double",
                        "defaultValue" : -243.0,
                        "keyframes" : [
                          {
                            "endTime" : 280,
                            "time" : 262,
                            "value" : -183.0,
                            "duration" : 18
                          },
                          {
                            "endTime" : 319,
                            "time" : 302,
                            "value" : -243.0,
                            "duration" : 17
                          }
                        ]
                      },
                      "scale0" : {
                        "type" : "double",
                        "defaultValue" : 1.5,
                        "keyframes" : [
                          {
                            "endTime" : 168,
                            "time" : 149,
                            "value" : 1.5,
                            "duration" : 19
                          }
                        ]
                      },
                      "scale1" : {
                        "type" : "double",
                        "defaultValue" : 1.5,
                        "keyframes" : [
                          {
                            "endTime" : 168,
                            "time" : 149,
                            "value" : 1.5,
                            "duration" : 19
                          }
                        ]
                      },
                      "sourceCrop0" : 0.0,
                      "sourceCrop1" : 0.0,
                      "sourceCrop2" : 0.0,
                      "sourceCrop3" : 0.0,
                      "geometryCrop0" : 0.0,
                      "geometryCrop1" : 0.0,
                      "geometryCrop2" : 0.0,
                      "geometryCrop3" : 0.0
                    },
                    "effects" : [

                    ],
                    "start" : 2636,
                    "duration" : 57,
                    "mediaStart" : 0,
                    "mediaDuration" : 1,
                    "scalar" : 1,
                    "metadata" : {
                      "clipSpeedAttribute" : false,
                      "default-scale" : "1",
                      "effectApplied" : "none",
                      "lockAspectRatio" : true
                    },
                    "animationTracks" : {
                      "visual" : [
                        {
                          "endTime" : 168,
                          "duration" : 19,
                          "range" : [ 149, 19]
                        },
                        {
                          "endTime" : 280,
                          "duration" : 18,
                          "range" : [ 262, 18]
                        },
                        {
                          "endTime" : 319,
                          "duration" : 17,
                          "range" : [ 302, 17]
                        }
                      ]
                    }
                  },
                  {
                    "id" : 173,
                    "_type" : "IMFile",
                    "src" : 36,
                    "trackNumber" : 0,
                    "trimStartSum" : 0,
                    "attributes" : {
                      "ident" : "Pasted Image"
                    },
                    "parameters" : {
                      "translation0" : -259.475110511591,
                      "translation1" : {
                        "type" : "double",
                        "defaultValue" : -164.0,
                        "keyframes" : [
                          {
                            "endTime" : 127,
                            "time" : 97,
                            "value" : -230.0,
                            "duration" : 30
                          },
                          {
                            "endTime" : 250,
                            "time" : 220,
                            "value" : -294.0,
                            "duration" : 30
                          }
                        ]
                      },
                      "scale0" : 0.713910672254276,
                      "scale1" : 0.713910672254276,
                      "sourceCrop0" : 0.0,
                      "sourceCrop1" : 0.0,
                      "sourceCrop2" : 0.0,
                      "sourceCrop3" : 0.0,
                      "geometryCrop0" : 0.0,
                      "geometryCrop1" : 0.0,
                      "geometryCrop2" : 0.0,
                      "geometryCrop3" : 0.0
                    },
                    "effects" : [

                    ],
                    "start" : 3684,
                    "duration" : 253,
                    "mediaStart" : 0,
                    "mediaDuration" : 1,
                    "scalar" : 1,
                    "metadata" : {
                      "clipSpeedAttribute" : false,
                      "default-scale" : "1",
                      "effectApplied" : "none",
                      "lockAspectRatio" : true
                    },
                    "animationTracks" : {
                      "visual" : [
                        {
                          "endTime" : 127,
                          "duration" : 30,
                          "range" : [ 97, 30]
                        },
                        {
                          "endTime" : 250,
                          "duration" : 30,
                          "range" : [ 220, 30]
                        }
                      ]
                    }
                  },
                  {
                    "id" : 174,
                    "_type" : "IMFile",
                    "src" : 44,
                    "trackNumber" : 0,
                    "trimStartSum" : 0,
                    "attributes" : {
                      "ident" : "Pasted Image"
                    },
                    "parameters" : {
                      "translation0" : {
                        "type" : "double",
                        "defaultValue" : -840.0,
                        "interp" : "eioe",
                        "keyframes" : [
                          {
                            "endTime" : 48,
                            "time" : 32,
                            "value" : -77.0,
                            "duration" : 16
                          },
                          {
                            "endTime" : 358,
                            "time" : 334,
                            "value" : -479.0,
                            "duration" : 24
                          }
                        ]
                      },
                      "translation1" : {
                        "type" : "double",
                        "defaultValue" : -40.0,
                        "interp" : "eioe",
                        "keyframes" : [
                          {
                            "endTime" : 48,
                            "time" : 32,
                            "value" : -90.0,
                            "duration" : 16
                          },
                          {
                            "endTime" : 358,
                            "time" : 334,
                            "value" : -104.0,
                            "duration" : 24
                          }
                        ]
                      },
                      "scale0" : {
                        "type" : "double",
                        "defaultValue" : 1.5,
                        "interp" : "eioe",
                        "keyframes" : [
                          {
                            "endTime" : 48,
                            "time" : 32,
                            "value" : 1.5,
                            "duration" : 16
                          },
                          {
                            "endTime" : 358,
                            "time" : 334,
                            "value" : 0.5,
                            "duration" : 24
                          }
                        ]
                      },
                      "scale1" : {
                        "type" : "double",
                        "defaultValue" : 1.5,
                        "interp" : "eioe",
                        "keyframes" : [
                          {
                            "endTime" : 48,
                            "time" : 32,
                            "value" : 1.5,
                            "duration" : 16
                          },
                          {
                            "endTime" : 358,
                            "time" : 334,
                            "value" : 0.5,
                            "duration" : 24
                          }
                        ]
                      },
                      "sourceCrop0" : {
                        "type" : "double",
                        "defaultValue" : 0.0,
                        "interp" : "eioe"
                      },
                      "sourceCrop1" : {
                        "type" : "double",
                        "defaultValue" : 0.0,
                        "interp" : "eioe"
                      },
                      "sourceCrop2" : {
                        "type" : "double",
                        "defaultValue" : 0.0,
                        "interp" : "eioe"
                      },
                      "sourceCrop3" : {
                        "type" : "double",
                        "defaultValue" : 0.0,
                        "interp" : "eioe"
                      },
                      "geometryCrop0" : {
                        "type" : "double",
                        "defaultValue" : 0.0,
                        "interp" : "eioe"
                      },
                      "geometryCrop1" : {
                        "type" : "double",
                        "defaultValue" : 0.0,
                        "interp" : "eioe"
                      },
                      "geometryCrop2" : {
                        "type" : "double",
                        "defaultValue" : 0.0,
                        "interp" : "eioe"
                      },
                      "geometryCrop3" : {
                        "type" : "double",
                        "defaultValue" : 0.0,
                        "interp" : "eioe"
                      }
                    },
                    "effects" : [

                    ],
                    "start" : 4904,
                    "duration" : 361,
                    "mediaStart" : 0,
                    "mediaDuration" : 1,
                    "scalar" : 1,
                    "metadata" : {
                      "clipSpeedAttribute" : false,
                      "default-scale" : "1",
                      "effectApplied" : "none",
                      "lockAspectRatio" : true
                    },
                    "animationTracks" : {
                      "visual" : [
                        {
                          "endTime" : 48,
                          "duration" : 16,
                          "range" : [ 32, 16]
                        },
                        {
                          "endTime" : 358,
                          "duration" : 24,
                          "range" : [ 334, 24]
                        }
                      ]
                    }
                  },
                  {
                    "id" : 175,
                    "_type" : "IMFile",
                    "src" : 45,
                    "trackNumber" : 0,
                    "trimStartSum" : 0,
                    "attributes" : {
                      "ident" : "Pasted Image"
                    },
                    "parameters" : {
                      "translation0" : {
                        "type" : "double",
                        "defaultValue" : -481.0,
                        "interp" : "eioe",
                        "keyframes" : [
                          {
                            "endTime" : 66,
                            "time" : 50,
                            "value" : -77.0,
                            "duration" : 16
                          },
                          {
                            "endTime" : 175,
                            "time" : 151,
                            "value" : -77.0,
                            "duration" : 24
                          }
                        ]
                      },
                      "translation1" : {
                        "type" : "double",
                        "defaultValue" : -104.0,
                        "interp" : "eioe",
                        "keyframes" : [
                          {
                            "endTime" : 66,
                            "time" : 50,
                            "value" : -122.0,
                            "duration" : 16
                          },
                          {
                            "endTime" : 175,
                            "time" : 151,
                            "value" : -281.0,
                            "duration" : 24
                          }
                        ]
                      },
                      "scale0" : {
                        "type" : "double",
                        "defaultValue" : 0.5,
                        "interp" : "eioe",
                        "keyframes" : [
                          {
                            "endTime" : 66,
                            "time" : 50,
                            "value" : 1.5,
                            "duration" : 16
                          },
                          {
                            "endTime" : 175,
                            "time" : 151,
                            "value" : 0.5,
                            "duration" : 24
                          }
                        ]
                      },
                      "scale1" : {
                        "type" : "double",
                        "defaultValue" : 0.5,
                        "interp" : "eioe",
                        "keyframes" : [
                          {
                            "endTime" : 66,
                            "time" : 50,
                            "value" : 1.5,
                            "duration" : 16
                          },
                          {
                            "endTime" : 175,
                            "time" : 151,
                            "value" : 0.5,
                            "duration" : 24
                          }
                        ]
                      },
                      "sourceCrop0" : {
                        "type" : "double",
                        "defaultValue" : 0.0,
                        "interp" : "eioe"
                      },
                      "sourceCrop1" : {
                        "type" : "double",
                        "defaultValue" : 0.0,
                        "interp" : "eioe"
                      },
                      "sourceCrop2" : {
                        "type" : "double",
                        "defaultValue" : 0.0,
                        "interp" : "eioe"
                      },
                      "sourceCrop3" : {
                        "type" : "double",
                        "defaultValue" : 0.0,
                        "interp" : "eioe"
                      },
                      "geometryCrop0" : {
                        "type" : "double",
                        "defaultValue" : 0.0,
                        "interp" : "eioe"
                      },
                      "geometryCrop1" : {
                        "type" : "double",
                        "defaultValue" : 0.0,
                        "interp" : "eioe"
                      },
                      "geometryCrop2" : {
                        "type" : "double",
                        "defaultValue" : 0.0,
                        "interp" : "eioe"
                      },
                      "geometryCrop3" : {
                        "type" : "double",
                        "defaultValue" : 0.0,
                        "interp" : "eioe"
                      }
                    },
                    "effects" : [

                    ],
                    "start" : 5853,
                    "duration" : 177,
                    "mediaStart" : 0,
                    "mediaDuration" : 1,
                    "scalar" : 1,
                    "metadata" : {
                      "clipSpeedAttribute" : false,
                      "default-scale" : "1",
                      "effectApplied" : "none",
                      "lockAspectRatio" : true
                    },
                    "animationTracks" : {
                      "visual" : [
                        {
                          "endTime" : 66,
                          "duration" : 16,
                          "range" : [ 50, 16]
                        },
                        {
                          "endTime" : 175,
                          "duration" : 24,
                          "range" : [ 151, 24]
                        }
                      ]
                    }
                  },
                  {
                    "id" : 176,
                    "_type" : "IMFile",
                    "src" : 66,
                    "trackNumber" : 0,
                    "trimStartSum" : 0,
                    "attributes" : {
                      "ident" : "Pasted Image"
                    },
                    "parameters" : {
                      "translation0" : {
                        "type" : "double",
                        "defaultValue" : -309.0,
                        "interp" : "eioe",
                        "keyframes" : [
                          {
                            "endTime" : 30,
                            "time" : 0,
                            "value" : -123.0,
                            "duration" : 30
                          },
                          {
                            "endTime" : 745,
                            "time" : 715,
                            "value" : -143.0,
                            "duration" : 30
                          },
                          {
                            "endTime" : 1072,
                            "time" : 1042,
                            "value" : -498.0,
                            "duration" : 30
                          },
                          {
                            "endTime" : 1539,
                            "time" : 1509,
                            "value" : -123.0,
                            "duration" : 30
                          }
                        ]
                      },
                      "translation1" : {
                        "type" : "double",
                        "defaultValue" : -280.0,
                        "interp" : "eioe",
                        "keyframes" : [
                          {
                            "endTime" : 30,
                            "time" : 0,
                            "value" : -41.0,
                            "duration" : 30
                          },
                          {
                            "endTime" : 745,
                            "time" : 715,
                            "value" : -304.0,
                            "duration" : 30
                          },
                          {
                            "endTime" : 1539,
                            "time" : 1509,
                            "value" : -41.0,
                            "duration" : 30
                          }
                        ]
                      },
                      "scale0" : {
                        "type" : "double",
                        "defaultValue" : 1.0,
                        "interp" : "eioe",
                        "keyframes" : [
                          {
                            "endTime" : 30,
                            "time" : 0,
                            "value" : 0.800000011920929,
                            "duration" : 30
                          },
                          {
                            "endTime" : 745,
                            "time" : 715,
                            "value" : 1.20000004768372,
                            "duration" : 30
                          },
                          {
                            "endTime" : 1539,
                            "time" : 1509,
                            "value" : 0.800000011920929,
                            "duration" : 30
                          }
                        ]
                      },
                      "scale1" : {
                        "type" : "double",
                        "defaultValue" : 1.0,
                        "interp" : "eioe",
                        "keyframes" : [
                          {
                            "endTime" : 30,
                            "time" : 0,
                            "value" : 0.800000011920929,
                            "duration" : 30
                          },
                          {
                            "endTime" : 745,
                            "time" : 715,
                            "value" : 1.20000004768372,
                            "duration" : 30
                          },
                          {
                            "endTime" : 1539,
                            "time" : 1509,
                            "value" : 0.800000011920929,
                            "duration" : 30
                          }
                        ]
                      },
                      "sourceCrop0" : {
                        "type" : "double",
                        "defaultValue" : 0.0,
                        "interp" : "eioe"
                      },
                      "sourceCrop1" : {
                        "type" : "double",
                        "defaultValue" : 0.0,
                        "interp" : "eioe"
                      },
                      "sourceCrop2" : {
                        "type" : "double",
                        "defaultValue" : 0.0,
                        "interp" : "eioe"
                      },
                      "sourceCrop3" : {
                        "type" : "double",
                        "defaultValue" : 0.0,
                        "interp" : "eioe"
                      },
                      "geometryCrop0" : {
                        "type" : "double",
                        "defaultValue" : 0.0,
                        "interp" : "eioe"
                      },
                      "geometryCrop1" : {
                        "type" : "double",
                        "defaultValue" : 0.0,
                        "interp" : "eioe"
                      },
                      "geometryCrop2" : {
                        "type" : "double",
                        "defaultValue" : 0.0,
                        "interp" : "eioe"
                      },
                      "geometryCrop3" : {
                        "type" : "double",
                        "defaultValue" : 0.0,
                        "interp" : "eioe"
                      }
                    },
                    "effects" : [

                    ],
                    "start" : 7561,
                    "duration" : 2548,
                    "mediaStart" : 0,
                    "mediaDuration" : 1,
                    "scalar" : 1,
                    "metadata" : {
                      "clipSpeedAttribute" : false,
                      "default-scale" : "1",
                      "effectApplied" : "none",
                      "lockAspectRatio" : true
                    },
                    "animationTracks" : {
                      "visual" : [
                        {
                          "endTime" : 30,
                          "duration" : 30,
                          "range" : [ 0, 30]
                        },
                        {
                          "endTime" : 745,
                          "duration" : 30,
                          "range" : [ 715, 30]
                        },
                        {
                          "endTime" : 1072,
                          "duration" : 30,
                          "range" : [ 1042, 30]
                        },
                        {
                          "endTime" : 1539,
                          "duration" : 30,
                          "range" : [ 1509, 30]
                        }
                      ]
                    }
                  }
                ],
                "transitions" : [
                  {
                    "name" : "Fade",
                    "duration" : 30,
                    "rightMedia" : 170,
                    "attributes" : {
                      "bypass" : false,
                      "reverse" : false,
                      "trivial" : false,
                      "useAudioPreRoll" : true,
                      "useVisualPreRoll" : true
                    }

                  },
                  {
                    "name" : "Fade",
                    "duration" : 30,
                    "leftMedia" : 176,
                    "attributes" : {
                      "bypass" : false,
                      "reverse" : false,
                      "trivial" : false,
                      "useAudioPreRoll" : true,
                      "useVisualPreRoll" : true
                    }

                  }
                ]
              },
              {
                "trackIndex" : 12,
                "medias" : [
                  {
                    "id" : 177,
                    "_type" : "IMFile",
                    "src" : 77,
                    "trackNumber" : 0,
                    "trimStartSum" : 0,
                    "attributes" : {
                      "ident" : "__time\nColumn A\nColumn B\n2022-01-01T01:00\n-\n-\n2022-01-01T01:10\n-\n-\n2022-01-01T01:20\n-\n-\n2022-01-01T01:30\n-\n-\n2022-01-01T01:40\n-\n-\n2022-01-01T01:50\n-\n-\n2022-01-01T02:00\n-\n-\n2022-01-01T02:10\n-\n-\n2022-01-01T02:20\n-\n-\n"
                    },
                    "parameters" : {
                      "translation0" : {
                        "type" : "double",
                        "defaultValue" : 65.0236247555303,
                        "interp" : "eioe",
                        "keyframes" : [
                          {
                            "endTime" : 30,
                            "time" : 0,
                            "value" : -200.0,
                            "duration" : 30
                          },
                          {
                            "endTime" : 207,
                            "time" : 177,
                            "value" : 81.8125345281119,
                            "duration" : 30
                          }
                        ]
                      },
                      "translation1" : {
                        "type" : "double",
                        "defaultValue" : -134.269629219438,
                        "interp" : "eioe",
                        "keyframes" : [
                          {
                            "endTime" : 30,
                            "time" : 0,
                            "value" : -209.0,
                            "duration" : 30
                          },
                          {
                            "endTime" : 207,
                            "time" : 177,
                            "value" : -118.607163342709,
                            "duration" : 30
                          }
                        ]
                      },
                      "rotation2" : {
                        "type" : "double",
                        "defaultValue" : 0.0,
                        "interp" : "eioe",
                        "keyframes" : [
                          {
                            "endTime" : 133,
                            "time" : 115,
                            "value" : -1.5707963267949,
                            "duration" : 18
                          }
                        ]
                      },
                      "scale0" : {
                        "type" : "double",
                        "defaultValue" : 0.319666418671777,
                        "interp" : "eioe",
                        "keyframes" : [
                          {
                            "endTime" : 30,
                            "time" : 0,
                            "value" : 1.0,
                            "duration" : 30
                          },
                          {
                            "endTime" : 207,
                            "time" : 177,
                            "value" : 0.310016784954383,
                            "duration" : 30
                          }
                        ]
                      },
                      "scale1" : {
                        "type" : "double",
                        "defaultValue" : 0.319666418671777,
                        "interp" : "eioe",
                        "keyframes" : [
                          {
                            "endTime" : 30,
                            "time" : 0,
                            "value" : 1.0,
                            "duration" : 30
                          },
                          {
                            "endTime" : 207,
                            "time" : 177,
                            "value" : 0.310016784954383,
                            "duration" : 30
                          }
                        ]
                      },
                      "sourceCrop0" : {
                        "type" : "double",
                        "defaultValue" : 0.0,
                        "interp" : "eioe"
                      },
                      "sourceCrop1" : {
                        "type" : "double",
                        "defaultValue" : 0.0,
                        "interp" : "eioe"
                      },
                      "sourceCrop2" : {
                        "type" : "double",
                        "defaultValue" : 0.0,
                        "interp" : "eioe"
                      },
                      "sourceCrop3" : {
                        "type" : "double",
                        "defaultValue" : 0.0,
                        "interp" : "eioe"
                      },
                      "geometryCrop0" : {
                        "type" : "double",
                        "defaultValue" : 0.0,
                        "interp" : "eioe"
                      },
                      "geometryCrop1" : {
                        "type" : "double",
                        "defaultValue" : 0.0,
                        "interp" : "eioe"
                      },
                      "geometryCrop2" : {
                        "type" : "double",
                        "defaultValue" : 0.0,
                        "interp" : "eioe"
                      },
                      "geometryCrop3" : {
                        "type" : "double",
                        "defaultValue" : 0.0,
                        "interp" : "eioe"
                      }
                    },
                    "effects" : [

                    ],
                    "start" : 9639,
                    "duration" : 142,
                    "mediaStart" : 0,
                    "mediaDuration" : 1,
                    "scalar" : 1,
                    "metadata" : {
                      "clipSpeedAttribute" : false,
                      "default-scale" : "1",
                      "effectApplied" : "none",
                      "lockAspectRatio" : true
                    },
                    "animationTracks" : {
                      "visual" : [
                        {
                          "endTime" : 30,
                          "duration" : 30,
                          "range" : [ 0, 30]
                        },
                        {
                          "endTime" : 133,
                          "duration" : 18,
                          "range" : [ 115, 18]
                        },
                        {
                          "endTime" : 207,
                          "duration" : 30,
                          "range" : [ 177, 30]
                        }
                      ]
                    }
                  },
                  {
                    "id" : 178,
                    "_type" : "IMFile",
                    "src" : 87,
                    "trackNumber" : 0,
                    "trimStartSum" : 0,
                    "attributes" : {
                      "ident" : "__time\n2022-01-01T01:00\n2022-01-01T01:10\n2022-01-01T01:20\n2022-01-01T01:30\n2022-01-01T01:40\n2022-01-01T01:50\n2022-01-01T02:00\n2022-01-01T02:10\n2022-01-01T02:20\n"
                    },
                    "parameters" : {
                      "translation0" : {
                        "type" : "double",
                        "defaultValue" : -200.0,
                        "interp" : "eioe",
                        "keyframes" : [
                          {
                            "endTime" : 30,
                            "time" : 0,
                            "value" : -183.0,
                            "duration" : 30
                          },
                          {
                            "endTime" : 108,
                            "time" : 78,
                            "value" : 73.0,
                            "duration" : 30
                          }
                        ]
                      },
                      "translation1" : {
                        "type" : "double",
                        "defaultValue" : -119.0,
                        "interp" : "eioe",
                        "keyframes" : [
                          {
                            "endTime" : 30,
                            "time" : 0,
                            "value" : 35.0,
                            "duration" : 30
                          },
                          {
                            "endTime" : 108,
                            "time" : 78,
                            "value" : -17.0,
                            "duration" : 30
                          }
                        ]
                      },
                      "rotation2" : {
                        "type" : "double",
                        "defaultValue" : -1.5707963267949,
                        "interp" : "eioe",
                        "keyframes" : [
                          {
                            "endTime" : 30,
                            "time" : 0,
                            "value" : 6.66133814775094e-16,
                            "duration" : 30
                          }
                        ]
                      },
                      "scale0" : {
                        "type" : "double",
                        "defaultValue" : 1.0,
                        "interp" : "eioe",
                        "keyframes" : [
                          {
                            "endTime" : 30,
                            "time" : 0,
                            "value" : 0.5,
                            "duration" : 30
                          },
                          {
                            "endTime" : 108,
                            "time" : 78,
                            "value" : 0.300000011920929,
                            "duration" : 30
                          }
                        ]
                      },
                      "scale1" : {
                        "type" : "double",
                        "defaultValue" : 1.0,
                        "interp" : "eioe",
                        "keyframes" : [
                          {
                            "endTime" : 30,
                            "time" : 0,
                            "value" : 0.5,
                            "duration" : 30
                          },
                          {
                            "endTime" : 108,
                            "time" : 78,
                            "value" : 0.300000011920929,
                            "duration" : 30
                          }
                        ]
                      },
                      "sourceCrop0" : {
                        "type" : "double",
                        "defaultValue" : 0.0,
                        "interp" : "eioe"
                      },
                      "sourceCrop1" : {
                        "type" : "double",
                        "defaultValue" : 0.0,
                        "interp" : "eioe"
                      },
                      "sourceCrop2" : {
                        "type" : "double",
                        "defaultValue" : 0.0,
                        "interp" : "eioe"
                      },
                      "sourceCrop3" : {
                        "type" : "double",
                        "defaultValue" : 0.0,
                        "interp" : "eioe"
                      },
                      "geometryCrop0" : {
                        "type" : "double",
                        "defaultValue" : 0.0,
                        "interp" : "eioe"
                      },
                      "geometryCrop1" : {
                        "type" : "double",
                        "defaultValue" : 0.0,
                        "interp" : "eioe"
                      },
                      "geometryCrop2" : {
                        "type" : "double",
                        "defaultValue" : 0.0,
                        "interp" : "eioe"
                      },
                      "geometryCrop3" : {
                        "type" : "double",
                        "defaultValue" : 0.0,
                        "interp" : "eioe"
                      }
                    },
                    "effects" : [

                    ],
                    "start" : 9781,
                    "duration" : 108,
                    "mediaStart" : 0,
                    "mediaDuration" : 1,
                    "scalar" : 1,
                    "metadata" : {
                      "clipSpeedAttribute" : false,
                      "default-scale" : "1",
                      "effectApplied" : "none",
                      "lockAspectRatio" : true
                    },
                    "animationTracks" : {
                      "visual" : [
                        {
                          "endTime" : 30,
                          "duration" : 30,
                          "range" : [ 0, 30]
                        },
                        {
                          "endTime" : 108,
                          "duration" : 30,
                          "range" : [ 78, 30]
                        }
                      ]
                    }
                  },
                  {
                    "id" : 179,
                    "_type" : "IMFile",
                    "src" : 78,
                    "trackNumber" : 0,
                    "trimStartSum" : -23,
                    "attributes" : {
                      "ident" : "Pasted Image"
                    },
                    "parameters" : {
                      "translation0" : {
                        "type" : "double",
                        "defaultValue" : -328.351757952524,
                        "interp" : "eioe"
                      },
                      "translation1" : {
                        "type" : "double",
                        "defaultValue" : -124.260455090805,
                        "interp" : "eioe"
                      },
                      "scale0" : {
                        "type" : "double",
                        "defaultValue" : 0.456975159248807,
                        "interp" : "eioe"
                      },
                      "scale1" : {
                        "type" : "double",
                        "defaultValue" : 0.456975159248807,
                        "interp" : "eioe"
                      },
                      "sourceCrop0" : {
                        "type" : "double",
                        "defaultValue" : 0.0,
                        "interp" : "eioe"
                      },
                      "sourceCrop1" : {
                        "type" : "double",
                        "defaultValue" : 0.0,
                        "interp" : "eioe"
                      },
                      "sourceCrop2" : {
                        "type" : "double",
                        "defaultValue" : 0.0,
                        "interp" : "eioe"
                      },
                      "sourceCrop3" : {
                        "type" : "double",
                        "defaultValue" : 0.0,
                        "interp" : "eioe"
                      },
                      "geometryCrop0" : {
                        "type" : "double",
                        "defaultValue" : 0.0,
                        "interp" : "eioe"
                      },
                      "geometryCrop1" : {
                        "type" : "double",
                        "defaultValue" : 0.0,
                        "interp" : "eioe"
                      },
                      "geometryCrop2" : {
                        "type" : "double",
                        "defaultValue" : 0.0,
                        "interp" : "eioe"
                      },
                      "geometryCrop3" : {
                        "type" : "double",
                        "defaultValue" : 0.0,
                        "interp" : "eioe"
                      }
                    },
                    "effects" : [

                    ],
                    "start" : 10175,
                    "duration" : 173,
                    "mediaStart" : 0,
                    "mediaDuration" : 1,
                    "scalar" : 1,
                    "metadata" : {
                      "clipSpeedAttribute" : false,
                      "default-scale" : "0.998613",
                      "effectApplied" : "none",
                      "lockAspectRatio" : true
                    },
                    "animationTracks" : {

                    }
                  }
                ],
                "transitions" : [
                  {
                    "name" : "Fade",
                    "duration" : 30,
                    "rightMedia" : 179,
                    "attributes" : {
                      "bypass" : false,
                      "reverse" : false,
                      "trivial" : false,
                      "useAudioPreRoll" : true,
                      "useVisualPreRoll" : true
                    }

                  },
                  {
                    "name" : "Fade",
                    "duration" : 30,
                    "leftMedia" : 179,
                    "attributes" : {
                      "bypass" : false,
                      "reverse" : false,
                      "trivial" : false,
                      "useAudioPreRoll" : true,
                      "useVisualPreRoll" : true
                    }

                  }
                ]
              },
              {
                "trackIndex" : 13,
                "medias" : [
                  {
                    "id" : 180,
                    "_type" : "IMFile",
                    "src" : 88,
                    "trackNumber" : 0,
                    "trimStartSum" : 0,
                    "attributes" : {
                      "ident" : "Column A\n-\n-\n-\n-\n-\n-\n-\n-\n-\n"
                    },
                    "parameters" : {
                      "translation0" : {
                        "type" : "double",
                        "defaultValue" : -200.0,
                        "interp" : "eioe",
                        "keyframes" : [
                          {
                            "endTime" : 30,
                            "time" : 0,
                            "value" : -184.0,
                            "duration" : 30
                          },
                          {
                            "endTime" : 108,
                            "time" : 78,
                            "value" : 72.0,
                            "duration" : 30
                          }
                        ]
                      },
                      "translation1" : {
                        "type" : "double",
                        "defaultValue" : -241.0,
                        "interp" : "eioe",
                        "keyframes" : [
                          {
                            "endTime" : 30,
                            "time" : 0,
                            "value" : -112.0,
                            "duration" : 30
                          }
                        ]
                      },
                      "rotation2" : {
                        "type" : "double",
                        "defaultValue" : -1.57079632679489,
                        "interp" : "eioe",
                        "keyframes" : [
                          {
                            "endTime" : 30,
                            "time" : 0,
                            "value" : -8.88178419700125e-16,
                            "duration" : 30
                          }
                        ]
                      },
                      "scale0" : {
                        "type" : "double",
                        "defaultValue" : 1.0,
                        "interp" : "eioe",
                        "keyframes" : [
                          {
                            "endTime" : 30,
                            "time" : 0,
                            "value" : 0.5,
                            "duration" : 30
                          },
                          {
                            "endTime" : 108,
                            "time" : 78,
                            "value" : 0.300000011920929,
                            "duration" : 30
                          }
                        ]
                      },
                      "scale1" : {
                        "type" : "double",
                        "defaultValue" : 1.0,
                        "interp" : "eioe",
                        "keyframes" : [
                          {
                            "endTime" : 30,
                            "time" : 0,
                            "value" : 0.5,
                            "duration" : 30
                          },
                          {
                            "endTime" : 108,
                            "time" : 78,
                            "value" : 0.300000011920929,
                            "duration" : 30
                          }
                        ]
                      },
                      "sourceCrop0" : {
                        "type" : "double",
                        "defaultValue" : 0.0,
                        "interp" : "eioe"
                      },
                      "sourceCrop1" : {
                        "type" : "double",
                        "defaultValue" : 0.0,
                        "interp" : "eioe"
                      },
                      "sourceCrop2" : {
                        "type" : "double",
                        "defaultValue" : 0.0,
                        "interp" : "eioe"
                      },
                      "sourceCrop3" : {
                        "type" : "double",
                        "defaultValue" : 0.0,
                        "interp" : "eioe"
                      },
                      "geometryCrop0" : {
                        "type" : "double",
                        "defaultValue" : 0.0,
                        "interp" : "eioe"
                      },
                      "geometryCrop1" : {
                        "type" : "double",
                        "defaultValue" : 0.0,
                        "interp" : "eioe"
                      },
                      "geometryCrop2" : {
                        "type" : "double",
                        "defaultValue" : 0.0,
                        "interp" : "eioe"
                      },
                      "geometryCrop3" : {
                        "type" : "double",
                        "defaultValue" : 0.0,
                        "interp" : "eioe"
                      }
                    },
                    "effects" : [

                    ],
                    "start" : 9781,
                    "duration" : 108,
                    "mediaStart" : 0,
                    "mediaDuration" : 1,
                    "scalar" : 1,
                    "metadata" : {
                      "clipSpeedAttribute" : false,
                      "default-scale" : "1",
                      "effectApplied" : "none",
                      "lockAspectRatio" : true
                    },
                    "animationTracks" : {
                      "visual" : [
                        {
                          "endTime" : 30,
                          "duration" : 30,
                          "range" : [ 0, 30]
                        },
                        {
                          "endTime" : 108,
                          "duration" : 30,
                          "range" : [ 78, 30]
                        }
                      ]
                    }
                  }
                ]
              },
              {
                "trackIndex" : 14,
                "medias" : [
                  {
                    "id" : 181,
                    "_type" : "IMFile",
                    "src" : 89,
                    "trackNumber" : 0,
                    "trimStartSum" : 0,
                    "attributes" : {
                      "ident" : "Column B\n-\n-\n-\n-\n-\n-\n-\n-\n-\n"
                    },
                    "parameters" : {
                      "translation0" : {
                        "type" : "double",
                        "defaultValue" : -200.0,
                        "interp" : "eioe",
                        "keyframes" : [
                          {
                            "endTime" : 30,
                            "time" : 0,
                            "value" : -185.0,
                            "duration" : 30
                          },
                          {
                            "endTime" : 108,
                            "time" : 78,
                            "value" : 71.0,
                            "duration" : 30
                          }
                        ]
                      },
                      "translation1" : {
                        "type" : "double",
                        "defaultValue" : -331.0,
                        "interp" : "eioe",
                        "keyframes" : [
                          {
                            "endTime" : 30,
                            "time" : 0,
                            "value" : -260.0,
                            "duration" : 30
                          },
                          {
                            "endTime" : 108,
                            "time" : 78,
                            "value" : -204.0,
                            "duration" : 30
                          }
                        ]
                      },
                      "rotation2" : {
                        "type" : "double",
                        "defaultValue" : -1.5707963267949,
                        "interp" : "eioe",
                        "keyframes" : [
                          {
                            "endTime" : 30,
                            "time" : 0,
                            "value" : -4.44089209850063e-15,
                            "duration" : 30
                          }
                        ]
                      },
                      "scale0" : {
                        "type" : "double",
                        "defaultValue" : 1.0,
                        "interp" : "eioe",
                        "keyframes" : [
                          {
                            "endTime" : 30,
                            "time" : 0,
                            "value" : 0.5,
                            "duration" : 30
                          },
                          {
                            "endTime" : 108,
                            "time" : 78,
                            "value" : 0.300000011920929,
                            "duration" : 30
                          }
                        ]
                      },
                      "scale1" : {
                        "type" : "double",
                        "defaultValue" : 1.0,
                        "interp" : "eioe",
                        "keyframes" : [
                          {
                            "endTime" : 30,
                            "time" : 0,
                            "value" : 0.5,
                            "duration" : 30
                          },
                          {
                            "endTime" : 108,
                            "time" : 78,
                            "value" : 0.300000011920929,
                            "duration" : 30
                          }
                        ]
                      },
                      "sourceCrop0" : {
                        "type" : "double",
                        "defaultValue" : 0.0,
                        "interp" : "eioe"
                      },
                      "sourceCrop1" : {
                        "type" : "double",
                        "defaultValue" : 0.0,
                        "interp" : "eioe"
                      },
                      "sourceCrop2" : {
                        "type" : "double",
                        "defaultValue" : 0.0,
                        "interp" : "eioe"
                      },
                      "sourceCrop3" : {
                        "type" : "double",
                        "defaultValue" : 0.0,
                        "interp" : "eioe"
                      },
                      "geometryCrop0" : {
                        "type" : "double",
                        "defaultValue" : 0.0,
                        "interp" : "eioe"
                      },
                      "geometryCrop1" : {
                        "type" : "double",
                        "defaultValue" : 0.0,
                        "interp" : "eioe"
                      },
                      "geometryCrop2" : {
                        "type" : "double",
                        "defaultValue" : 0.0,
                        "interp" : "eioe"
                      },
                      "geometryCrop3" : {
                        "type" : "double",
                        "defaultValue" : 0.0,
                        "interp" : "eioe"
                      }
                    },
                    "effects" : [

                    ],
                    "start" : 9781,
                    "duration" : 108,
                    "mediaStart" : 0,
                    "mediaDuration" : 1,
                    "scalar" : 1,
                    "metadata" : {
                      "clipSpeedAttribute" : false,
                      "default-scale" : "1",
                      "effectApplied" : "none",
                      "lockAspectRatio" : true
                    },
                    "animationTracks" : {
                      "visual" : [
                        {
                          "endTime" : 30,
                          "duration" : 30,
                          "range" : [ 0, 30]
                        },
                        {
                          "endTime" : 108,
                          "duration" : 30,
                          "range" : [ 78, 30]
                        }
                      ]
                    }
                  }
                ]
              },
              {
                "trackIndex" : 15,
                "medias" : [
                  {
                    "id" : 182,
                    "_type" : "IMFile",
                    "src" : 10,
                    "trackNumber" : 0,
                    "trimStartSum" : 0,
                    "attributes" : {
                      "ident" : "Pasted Image"
                    },
                    "parameters" : {
                      "translation0" : {
                        "type" : "double",
                        "defaultValue" : 112.0,
                        "keyframes" : [
                          {
                            "endTime" : 209,
                            "time" : 179,
                            "value" : -276.0,
                            "duration" : 30
                          }
                        ]
                      },
                      "translation1" : {
                        "type" : "double",
                        "defaultValue" : -73.0,
                        "keyframes" : [
                          {
                            "endTime" : 209,
                            "time" : 179,
                            "value" : -93.0,
                            "duration" : 30
                          },
                          {
                            "endTime" : 801,
                            "time" : 771,
                            "value" : -225.0,
                            "duration" : 30
                          }
                        ]
                      },
                      "rotation2" : {
                        "type" : "double",
                        "defaultValue" : 0.0,
                        "keyframes" : [
                          {
                            "endTime" : 209,
                            "time" : 179,
                            "value" : 1.5707963267949,
                            "duration" : 30
                          }
                        ]
                      },
                      "scale0" : {
                        "type" : "double",
                        "defaultValue" : 1.0,
                        "keyframes" : [
                          {
                            "endTime" : 801,
                            "time" : 771,
                            "value" : 0.00396825396825397,
                            "duration" : 30
                          }
                        ]
                      },
                      "sourceCrop0" : 0.0,
                      "sourceCrop1" : 0.0,
                      "sourceCrop2" : 0.0,
                      "sourceCrop3" : 0.0,
                      "geometryCrop0" : 0.0,
                      "geometryCrop1" : 0.0,
                      "geometryCrop2" : 0.0,
                      "geometryCrop3" : 0.0
                    },
                    "effects" : [

                    ],
                    "start" : 842,
                    "duration" : 1236,
                    "mediaStart" : 0,
                    "mediaDuration" : 1,
                    "scalar" : 1,
                    "metadata" : {
                      "clipSpeedAttribute" : false,
                      "default-scale" : "1",
                      "effectApplied" : "none",
                      "lockAspectRatio" : false
                    },
                    "animationTracks" : {
                      "visual" : [
                        {
                          "endTime" : 209,
                          "duration" : 30,
                          "range" : [ 179, 30]
                        },
                        {
                          "endTime" : 801,
                          "duration" : 30,
                          "range" : [ 771, 30]
                        }
                      ]
                    }
                  },
                  {
                    "id" : 183,
                    "_type" : "IMFile",
                    "src" : 27,
                    "trackNumber" : 0,
                    "trimStartSum" : 0,
                    "attributes" : {
                      "ident" : "Pasted Image"
                    },
                    "parameters" : {
                      "translation0" : {
                        "type" : "double",
                        "defaultValue" : 209.0,
                        "keyframes" : [
                          {
                            "endTime" : 93,
                            "time" : 79,
                            "value" : -166.0,
                            "duration" : 14
                          }
                        ]
                      },
                      "translation1" : {
                        "type" : "double",
                        "defaultValue" : -243.0,
                        "keyframes" : [
                          {
                            "endTime" : 93,
                            "time" : 79,
                            "value" : -74.0,
                            "duration" : 14
                          }
                        ]
                      },
                      "scale0" : {
                        "type" : "double",
                        "defaultValue" : 1.0,
                        "keyframes" : [
                          {
                            "endTime" : 93,
                            "time" : 79,
                            "value" : 0.899999976158142,
                            "duration" : 14
                          }
                        ]
                      },
                      "scale1" : {
                        "type" : "double",
                        "defaultValue" : 1.0,
                        "keyframes" : [
                          {
                            "endTime" : 93,
                            "time" : 79,
                            "value" : 0.899999976158142,
                            "duration" : 14
                          }
                        ]
                      },
                      "sourceCrop0" : 0.0,
                      "sourceCrop1" : 0.0,
                      "sourceCrop2" : 0.0,
                      "sourceCrop3" : 0.0,
                      "geometryCrop0" : 0.0,
                      "geometryCrop1" : 0.0,
                      "geometryCrop2" : 0.0,
                      "geometryCrop3" : 0.0
                    },
                    "effects" : [

                    ],
                    "start" : 2393,
                    "duration" : 93,
                    "mediaStart" : 0,
                    "mediaDuration" : 1,
                    "scalar" : 1,
                    "metadata" : {
                      "clipSpeedAttribute" : false,
                      "default-scale" : "1",
                      "effectApplied" : "none",
                      "lockAspectRatio" : true
                    },
                    "animationTracks" : {
                      "visual" : [
                        {
                          "endTime" : 93,
                          "duration" : 14,
                          "range" : [ 79, 14]
                        }
                      ]
                    }
                  },
                  {
                    "id" : 184,
                    "_type" : "IMFile",
                    "src" : 27,
                    "trackNumber" : 0,
                    "trimStartSum" : 262,
                    "attributes" : {
                      "ident" : "Pasted Image"
                    },
                    "parameters" : {
                      "translation0" : {
                        "type" : "double",
                        "defaultValue" : -165.0,
                        "keyframes" : [
                          {
                            "endTime" : 280,
                            "time" : 262,
                            "value" : -135.0,
                            "duration" : 18
                          },
                          {
                            "endTime" : 319,
                            "time" : 302,
                            "value" : -165.0,
                            "duration" : 17
                          }
                        ]
                      },
                      "translation1" : {
                        "type" : "double",
                        "defaultValue" : -243.0,
                        "keyframes" : [
                          {
                            "endTime" : 280,
                            "time" : 262,
                            "value" : -213.0,
                            "duration" : 18
                          },
                          {
                            "endTime" : 319,
                            "time" : 302,
                            "value" : -243.0,
                            "duration" : 17
                          }
                        ]
                      },
                      "scale0" : {
                        "type" : "double",
                        "defaultValue" : 1.5,
                        "keyframes" : [
                          {
                            "endTime" : 168,
                            "time" : 149,
                            "value" : 1.5,
                            "duration" : 19
                          }
                        ]
                      },
                      "scale1" : {
                        "type" : "double",
                        "defaultValue" : 1.5,
                        "keyframes" : [
                          {
                            "endTime" : 168,
                            "time" : 149,
                            "value" : 1.5,
                            "duration" : 19
                          }
                        ]
                      },
                      "sourceCrop0" : 0.0,
                      "sourceCrop1" : 0.0,
                      "sourceCrop2" : 0.0,
                      "sourceCrop3" : 0.0,
                      "geometryCrop0" : 0.0,
                      "geometryCrop1" : 0.0,
                      "geometryCrop2" : 0.0,
                      "geometryCrop3" : 0.0
                    },
                    "effects" : [

                    ],
                    "start" : 2636,
                    "duration" : 57,
                    "mediaStart" : 0,
                    "mediaDuration" : 1,
                    "scalar" : 1,
                    "metadata" : {
                      "clipSpeedAttribute" : false,
                      "default-scale" : "1",
                      "effectApplied" : "none",
                      "lockAspectRatio" : true
                    },
                    "animationTracks" : {
                      "visual" : [
                        {
                          "endTime" : 168,
                          "duration" : 19,
                          "range" : [ 149, 19]
                        },
                        {
                          "endTime" : 280,
                          "duration" : 18,
                          "range" : [ 262, 18]
                        },
                        {
                          "endTime" : 319,
                          "duration" : 17,
                          "range" : [ 302, 17]
                        }
                      ]
                    }
                  },
                  {
                    "id" : 185,
                    "_type" : "IMFile",
                    "src" : 45,
                    "trackNumber" : 0,
                    "trimStartSum" : 0,
                    "attributes" : {
                      "ident" : "Pasted Image"
                    },
                    "parameters" : {
                      "translation0" : {
                        "type" : "double",
                        "defaultValue" : -840.0,
                        "interp" : "eioe",
                        "keyframes" : [
                          {
                            "endTime" : 66,
                            "time" : 50,
                            "value" : -77.0,
                            "duration" : 16
                          },
                          {
                            "endTime" : 358,
                            "time" : 334,
                            "value" : -479.0,
                            "duration" : 24
                          }
                        ]
                      },
                      "translation1" : {
                        "type" : "double",
                        "defaultValue" : -39.0,
                        "interp" : "eioe",
                        "keyframes" : [
                          {
                            "endTime" : 66,
                            "time" : 50,
                            "value" : -122.0,
                            "duration" : 16
                          },
                          {
                            "endTime" : 358,
                            "time" : 334,
                            "value" : -104.0,
                            "duration" : 24
                          }
                        ]
                      },
                      "scale0" : {
                        "type" : "double",
                        "defaultValue" : 1.5,
                        "interp" : "eioe",
                        "keyframes" : [
                          {
                            "endTime" : 66,
                            "time" : 50,
                            "value" : 1.5,
                            "duration" : 16
                          },
                          {
                            "endTime" : 358,
                            "time" : 334,
                            "value" : 0.5,
                            "duration" : 24
                          }
                        ]
                      },
                      "scale1" : {
                        "type" : "double",
                        "defaultValue" : 1.5,
                        "interp" : "eioe",
                        "keyframes" : [
                          {
                            "endTime" : 66,
                            "time" : 50,
                            "value" : 1.5,
                            "duration" : 16
                          },
                          {
                            "endTime" : 358,
                            "time" : 334,
                            "value" : 0.5,
                            "duration" : 24
                          }
                        ]
                      },
                      "sourceCrop0" : {
                        "type" : "double",
                        "defaultValue" : 0.0,
                        "interp" : "eioe"
                      },
                      "sourceCrop1" : {
                        "type" : "double",
                        "defaultValue" : 0.0,
                        "interp" : "eioe"
                      },
                      "sourceCrop2" : {
                        "type" : "double",
                        "defaultValue" : 0.0,
                        "interp" : "eioe"
                      },
                      "sourceCrop3" : {
                        "type" : "double",
                        "defaultValue" : 0.0,
                        "interp" : "eioe"
                      },
                      "geometryCrop0" : {
                        "type" : "double",
                        "defaultValue" : 0.0,
                        "interp" : "eioe"
                      },
                      "geometryCrop1" : {
                        "type" : "double",
                        "defaultValue" : 0.0,
                        "interp" : "eioe"
                      },
                      "geometryCrop2" : {
                        "type" : "double",
                        "defaultValue" : 0.0,
                        "interp" : "eioe"
                      },
                      "geometryCrop3" : {
                        "type" : "double",
                        "defaultValue" : 0.0,
                        "interp" : "eioe"
                      }
                    },
                    "effects" : [

                    ],
                    "start" : 4904,
                    "duration" : 361,
                    "mediaStart" : 0,
                    "mediaDuration" : 1,
                    "scalar" : 1,
                    "metadata" : {
                      "clipSpeedAttribute" : false,
                      "default-scale" : "1",
                      "effectApplied" : "none",
                      "lockAspectRatio" : true
                    },
                    "animationTracks" : {
                      "visual" : [
                        {
                          "endTime" : 66,
                          "duration" : 16,
                          "range" : [ 50, 16]
                        },
                        {
                          "endTime" : 358,
                          "duration" : 24,
                          "range" : [ 334, 24]
                        }
                      ]
                    }
                  },
                  {
                    "id" : 186,
                    "_type" : "IMFile",
                    "src" : 46,
                    "trackNumber" : 0,
                    "trimStartSum" : 0,
                    "attributes" : {
                      "ident" : "Pasted Image"
                    },
                    "parameters" : {
                      "translation0" : {
                        "type" : "double",
                        "defaultValue" : -481.0,
                        "interp" : "eioe",
                        "keyframes" : [
                          {
                            "endTime" : 82,
                            "time" : 66,
                            "value" : -78.0,
                            "duration" : 16
                          },
                          {
                            "endTime" : 175,
                            "time" : 151,
                            "value" : -77.0,
                            "duration" : 24
                          }
                        ]
                      },
                      "translation1" : {
                        "type" : "double",
                        "defaultValue" : -104.0,
                        "interp" : "eioe",
                        "keyframes" : [
                          {
                            "endTime" : 82,
                            "time" : 66,
                            "value" : -157.0,
                            "duration" : 16
                          },
                          {
                            "endTime" : 175,
                            "time" : 151,
                            "value" : -281.0,
                            "duration" : 24
                          }
                        ]
                      },
                      "scale0" : {
                        "type" : "double",
                        "defaultValue" : 0.5,
                        "interp" : "eioe",
                        "keyframes" : [
                          {
                            "endTime" : 82,
                            "time" : 66,
                            "value" : 1.5,
                            "duration" : 16
                          },
                          {
                            "endTime" : 175,
                            "time" : 151,
                            "value" : 0.5,
                            "duration" : 24
                          }
                        ]
                      },
                      "scale1" : {
                        "type" : "double",
                        "defaultValue" : 0.5,
                        "interp" : "eioe",
                        "keyframes" : [
                          {
                            "endTime" : 82,
                            "time" : 66,
                            "value" : 1.5,
                            "duration" : 16
                          },
                          {
                            "endTime" : 175,
                            "time" : 151,
                            "value" : 0.5,
                            "duration" : 24
                          }
                        ]
                      },
                      "sourceCrop0" : {
                        "type" : "double",
                        "defaultValue" : 0.0,
                        "interp" : "eioe"
                      },
                      "sourceCrop1" : {
                        "type" : "double",
                        "defaultValue" : 0.0,
                        "interp" : "eioe"
                      },
                      "sourceCrop2" : {
                        "type" : "double",
                        "defaultValue" : 0.0,
                        "interp" : "eioe"
                      },
                      "sourceCrop3" : {
                        "type" : "double",
                        "defaultValue" : 0.0,
                        "interp" : "eioe"
                      },
                      "geometryCrop0" : {
                        "type" : "double",
                        "defaultValue" : 0.0,
                        "interp" : "eioe"
                      },
                      "geometryCrop1" : {
                        "type" : "double",
                        "defaultValue" : 0.0,
                        "interp" : "eioe"
                      },
                      "geometryCrop2" : {
                        "type" : "double",
                        "defaultValue" : 0.0,
                        "interp" : "eioe"
                      },
                      "geometryCrop3" : {
                        "type" : "double",
                        "defaultValue" : 0.0,
                        "interp" : "eioe"
                      }
                    },
                    "effects" : [

                    ],
                    "start" : 5853,
                    "duration" : 177,
                    "mediaStart" : 0,
                    "mediaDuration" : 1,
                    "scalar" : 1,
                    "metadata" : {
                      "clipSpeedAttribute" : false,
                      "default-scale" : "1",
                      "effectApplied" : "none",
                      "lockAspectRatio" : true
                    },
                    "animationTracks" : {
                      "visual" : [
                        {
                          "endTime" : 82,
                          "duration" : 16,
                          "range" : [ 66, 16]
                        },
                        {
                          "endTime" : 175,
                          "duration" : 24,
                          "range" : [ 151, 24]
                        }
                      ]
                    }
                  },
                  {
                    "id" : 187,
                    "_type" : "IMFile",
                    "src" : 63,
                    "trackNumber" : 0,
                    "trimStartSum" : 0,
                    "attributes" : {
                      "ident" : "Pasted Image"
                    },
                    "parameters" : {
                      "translation0" : {
                        "type" : "double",
                        "defaultValue" : 27.0,
                        "interp" : "eioe",
                        "keyframes" : [
                          {
                            "endTime" : 663,
                            "time" : 633,
                            "value" : 47.0,
                            "duration" : 30
                          },
                          {
                            "endTime" : 990,
                            "time" : 960,
                            "value" : 27.0,
                            "duration" : 30
                          },
                          {
                            "endTime" : 1489,
                            "time" : 1459,
                            "value" : -500.0,
                            "duration" : 30
                          },
                          {
                            "endTime" : 1701,
                            "time" : 1671,
                            "value" : 81.0,
                            "duration" : 30
                          },
                          {
                            "endTime" : 2631,
                            "time" : 2601,
                            "value" : -185.0,
                            "duration" : 30
                          }
                        ]
                      },
                      "translation1" : {
                        "type" : "double",
                        "defaultValue" : 19.0,
                        "interp" : "eioe",
                        "keyframes" : [
                          {
                            "endTime" : 663,
                            "time" : 633,
                            "value" : -215.0,
                            "duration" : 30
                          },
                          {
                            "endTime" : 990,
                            "time" : 960,
                            "value" : 19.0,
                            "duration" : 30
                          },
                          {
                            "endTime" : 1489,
                            "time" : 1459,
                            "value" : -215.0,
                            "duration" : 30
                          },
                          {
                            "endTime" : 1701,
                            "time" : 1671,
                            "value" : -126.0,
                            "duration" : 30
                          },
                          {
                            "endTime" : 2631,
                            "time" : 2601,
                            "value" : -179.0,
                            "duration" : 30
                          }
                        ]
                      },
                      "scale0" : {
                        "type" : "double",
                        "defaultValue" : 1.0,
                        "interp" : "eioe",
                        "keyframes" : [
                          {
                            "endTime" : 663,
                            "time" : 633,
                            "value" : 1.5,
                            "duration" : 30
                          },
                          {
                            "endTime" : 990,
                            "time" : 960,
                            "value" : 1.0,
                            "duration" : 30
                          },
                          {
                            "endTime" : 1489,
                            "time" : 1459,
                            "value" : 1.5,
                            "duration" : 30
                          },
                          {
                            "endTime" : 1701,
                            "time" : 1671,
                            "value" : 1.5,
                            "duration" : 30
                          },
                          {
                            "endTime" : 2631,
                            "time" : 2601,
                            "value" : 1.5,
                            "duration" : 30
                          }
                        ]
                      },
                      "scale1" : {
                        "type" : "double",
                        "defaultValue" : 1.0,
                        "interp" : "eioe",
                        "keyframes" : [
                          {
                            "endTime" : 663,
                            "time" : 633,
                            "value" : 1.5,
                            "duration" : 30
                          },
                          {
                            "endTime" : 990,
                            "time" : 960,
                            "value" : 1.0,
                            "duration" : 30
                          },
                          {
                            "endTime" : 1489,
                            "time" : 1459,
                            "value" : 1.5,
                            "duration" : 30
                          },
                          {
                            "endTime" : 1701,
                            "time" : 1671,
                            "value" : 3.01176470588235,
                            "duration" : 30
                          },
                          {
                            "endTime" : 2631,
                            "time" : 2601,
                            "value" : 1.5,
                            "duration" : 30
                          }
                        ]
                      },
                      "sourceCrop0" : {
                        "type" : "double",
                        "defaultValue" : 0.0,
                        "interp" : "eioe"
                      },
                      "sourceCrop1" : {
                        "type" : "double",
                        "defaultValue" : 0.0,
                        "interp" : "eioe"
                      },
                      "sourceCrop2" : {
                        "type" : "double",
                        "defaultValue" : 0.0,
                        "interp" : "eioe"
                      },
                      "sourceCrop3" : {
                        "type" : "double",
                        "defaultValue" : 0.0,
                        "interp" : "eioe"
                      },
                      "geometryCrop0" : {
                        "type" : "double",
                        "defaultValue" : 0.0,
                        "interp" : "eioe"
                      },
                      "geometryCrop1" : {
                        "type" : "double",
                        "defaultValue" : 0.0,
                        "interp" : "eioe"
                      },
                      "geometryCrop2" : {
                        "type" : "double",
                        "defaultValue" : 0.0,
                        "interp" : "eioe"
                      },
                      "geometryCrop3" : {
                        "type" : "double",
                        "defaultValue" : 0.0,
                        "interp" : "eioe"
                      }
                    },
                    "effects" : [

                    ],
                    "start" : 7643,
                    "duration" : 2660,
                    "mediaStart" : 0,
                    "mediaDuration" : 1,
                    "scalar" : 1,
                    "metadata" : {
                      "clipSpeedAttribute" : false,
                      "default-scale" : "1",
                      "effectApplied" : "none",
                      "lockAspectRatio" : false
                    },
                    "animationTracks" : {
                      "visual" : [
                        {
                          "endTime" : 663,
                          "duration" : 30,
                          "range" : [ 633, 30]
                        },
                        {
                          "endTime" : 990,
                          "duration" : 30,
                          "range" : [ 960, 30]
                        },
                        {
                          "endTime" : 1489,
                          "duration" : 30,
                          "range" : [ 1459, 30]
                        },
                        {
                          "endTime" : 1701,
                          "duration" : 30,
                          "range" : [ 1671, 30]
                        },
                        {
                          "endTime" : 2631,
                          "duration" : 30,
                          "range" : [ 2601, 30]
                        }
                      ]
                    }
                  }
                ],
                "transitions" : [
                  {
                    "name" : "Fade",
                    "duration" : 30,
                    "rightMedia" : 182,
                    "attributes" : {
                      "bypass" : false,
                      "reverse" : false,
                      "trivial" : false,
                      "useAudioPreRoll" : true,
                      "useVisualPreRoll" : true
                    }

                  },
                  {
                    "name" : "Fade",
                    "duration" : 30,
                    "leftMedia" : 187,
                    "attributes" : {
                      "bypass" : false,
                      "reverse" : false,
                      "trivial" : false,
                      "useAudioPreRoll" : true,
                      "useVisualPreRoll" : true
                    }

                  }
                ]
              },
              {
                "trackIndex" : 16,
                "medias" : [
                  {
                    "id" : 188,
                    "_type" : "IMFile",
                    "src" : 11,
                    "trackNumber" : 0,
                    "trimStartSum" : 0,
                    "attributes" : {
                      "ident" : "Pasted Image"
                    },
                    "parameters" : {
                      "translation0" : {
                        "type" : "double",
                        "defaultValue" : 112.0,
                        "keyframes" : [
                          {
                            "endTime" : 209,
                            "time" : 179,
                            "value" : -166.0,
                            "duration" : 30
                          }
                        ]
                      },
                      "translation1" : {
                        "type" : "double",
                        "defaultValue" : -96.0,
                        "keyframes" : [
                          {
                            "endTime" : 209,
                            "time" : 179,
                            "value" : -93.0,
                            "duration" : 30
                          },
                          {
                            "endTime" : 801,
                            "time" : 771,
                            "value" : -225.0,
                            "duration" : 30
                          }
                        ]
                      },
                      "rotation2" : {
                        "type" : "double",
                        "defaultValue" : 0.0,
                        "keyframes" : [
                          {
                            "endTime" : 209,
                            "time" : 179,
                            "value" : 1.5707963267949,
                            "duration" : 30
                          }
                        ]
                      },
                      "scale0" : {
                        "type" : "double",
                        "defaultValue" : 1.0,
                        "keyframes" : [
                          {
                            "endTime" : 801,
                            "time" : 771,
                            "value" : 0.00395256916996047,
                            "duration" : 30
                          }
                        ]
                      },
                      "sourceCrop0" : 0.0,
                      "sourceCrop1" : 0.0,
                      "sourceCrop2" : 0.0,
                      "sourceCrop3" : 0.0,
                      "geometryCrop0" : 0.0,
                      "geometryCrop1" : 0.0,
                      "geometryCrop2" : 0.0,
                      "geometryCrop3" : 0.0
                    },
                    "effects" : [

                    ],
                    "start" : 842,
                    "duration" : 1236,
                    "mediaStart" : 0,
                    "mediaDuration" : 1,
                    "scalar" : 1,
                    "metadata" : {
                      "clipSpeedAttribute" : false,
                      "default-scale" : "1",
                      "effectApplied" : "none",
                      "lockAspectRatio" : false
                    },
                    "animationTracks" : {
                      "visual" : [
                        {
                          "endTime" : 209,
                          "duration" : 30,
                          "range" : [ 179, 30]
                        },
                        {
                          "endTime" : 801,
                          "duration" : 30,
                          "range" : [ 771, 30]
                        }
                      ]
                    }
                  },
                  {
                    "id" : 189,
                    "_type" : "IMFile",
                    "src" : 27,
                    "trackNumber" : 0,
                    "trimStartSum" : 93,
                    "attributes" : {
                      "ident" : "Pasted Image"
                    },
                    "parameters" : {
                      "translation0" : -165.0,
                      "translation1" : -243.0,
                      "scale0" : {
                        "type" : "double",
                        "defaultValue" : 1.0,
                        "keyframes" : [
                          {
                            "endTime" : 168,
                            "time" : 149,
                            "value" : 1.5,
                            "duration" : 19
                          }
                        ]
                      },
                      "scale1" : {
                        "type" : "double",
                        "defaultValue" : 1.0,
                        "keyframes" : [
                          {
                            "endTime" : 168,
                            "time" : 149,
                            "value" : 1.5,
                            "duration" : 19
                          }
                        ]
                      },
                      "sourceCrop0" : 0.0,
                      "sourceCrop1" : 0.0,
                      "sourceCrop2" : 0.0,
                      "sourceCrop3" : 0.0,
                      "geometryCrop0" : 0.0,
                      "geometryCrop1" : 0.0,
                      "geometryCrop2" : 0.0,
                      "geometryCrop3" : 0.0
                    },
                    "effects" : [

                    ],
                    "start" : 2486,
                    "duration" : 226,
                    "mediaStart" : 0,
                    "mediaDuration" : 1,
                    "scalar" : 1,
                    "metadata" : {
                      "clipSpeedAttribute" : false,
                      "default-scale" : "1",
                      "effectApplied" : "none",
                      "lockAspectRatio" : true
                    },
                    "animationTracks" : {
                      "visual" : [
                        {
                          "endTime" : 168,
                          "duration" : 19,
                          "range" : [ 149, 19]
                        }
                      ]
                    }
                  },
                  {
                    "id" : 190,
                    "_type" : "IMFile",
                    "src" : 46,
                    "trackNumber" : 0,
                    "trimStartSum" : 0,
                    "attributes" : {
                      "ident" : "Pasted Image"
                    },
                    "parameters" : {
                      "translation0" : {
                        "type" : "double",
                        "defaultValue" : -840.0,
                        "interp" : "eioe",
                        "keyframes" : [
                          {
                            "endTime" : 82,
                            "time" : 66,
                            "value" : -75.0,
                            "duration" : 16
                          },
                          {
                            "endTime" : 358,
                            "time" : 334,
                            "value" : -479.0,
                            "duration" : 24
                          }
                        ]
                      },
                      "translation1" : {
                        "type" : "double",
                        "defaultValue" : -40.0,
                        "interp" : "eioe",
                        "keyframes" : [
                          {
                            "endTime" : 82,
                            "time" : 66,
                            "value" : -157.0,
                            "duration" : 16
                          },
                          {
                            "endTime" : 358,
                            "time" : 334,
                            "value" : -104.0,
                            "duration" : 24
                          }
                        ]
                      },
                      "scale0" : {
                        "type" : "double",
                        "defaultValue" : 1.5,
                        "interp" : "eioe",
                        "keyframes" : [
                          {
                            "endTime" : 82,
                            "time" : 66,
                            "value" : 1.5,
                            "duration" : 16
                          },
                          {
                            "endTime" : 358,
                            "time" : 334,
                            "value" : 0.5,
                            "duration" : 24
                          }
                        ]
                      },
                      "scale1" : {
                        "type" : "double",
                        "defaultValue" : 1.5,
                        "interp" : "eioe",
                        "keyframes" : [
                          {
                            "endTime" : 82,
                            "time" : 66,
                            "value" : 1.5,
                            "duration" : 16
                          },
                          {
                            "endTime" : 358,
                            "time" : 334,
                            "value" : 0.5,
                            "duration" : 24
                          }
                        ]
                      },
                      "sourceCrop0" : {
                        "type" : "double",
                        "defaultValue" : 0.0,
                        "interp" : "eioe"
                      },
                      "sourceCrop1" : {
                        "type" : "double",
                        "defaultValue" : 0.0,
                        "interp" : "eioe"
                      },
                      "sourceCrop2" : {
                        "type" : "double",
                        "defaultValue" : 0.0,
                        "interp" : "eioe"
                      },
                      "sourceCrop3" : {
                        "type" : "double",
                        "defaultValue" : 0.0,
                        "interp" : "eioe"
                      },
                      "geometryCrop0" : {
                        "type" : "double",
                        "defaultValue" : 0.0,
                        "interp" : "eioe"
                      },
                      "geometryCrop1" : {
                        "type" : "double",
                        "defaultValue" : 0.0,
                        "interp" : "eioe"
                      },
                      "geometryCrop2" : {
                        "type" : "double",
                        "defaultValue" : 0.0,
                        "interp" : "eioe"
                      },
                      "geometryCrop3" : {
                        "type" : "double",
                        "defaultValue" : 0.0,
                        "interp" : "eioe"
                      }
                    },
                    "effects" : [

                    ],
                    "start" : 4904,
                    "duration" : 361,
                    "mediaStart" : 0,
                    "mediaDuration" : 1,
                    "scalar" : 1,
                    "metadata" : {
                      "clipSpeedAttribute" : false,
                      "default-scale" : "1",
                      "effectApplied" : "none",
                      "lockAspectRatio" : true
                    },
                    "animationTracks" : {
                      "visual" : [
                        {
                          "endTime" : 82,
                          "duration" : 16,
                          "range" : [ 66, 16]
                        },
                        {
                          "endTime" : 358,
                          "duration" : 24,
                          "range" : [ 334, 24]
                        }
                      ]
                    }
                  },
                  {
                    "id" : 191,
                    "_type" : "IMFile",
                    "src" : 47,
                    "trackNumber" : 0,
                    "trimStartSum" : 0,
                    "attributes" : {
                      "ident" : "Pasted Image"
                    },
                    "parameters" : {
                      "translation0" : {
                        "type" : "double",
                        "defaultValue" : -481.0,
                        "interp" : "eioe",
                        "keyframes" : [
                          {
                            "endTime" : 98,
                            "time" : 82,
                            "value" : -78.0,
                            "duration" : 16
                          },
                          {
                            "endTime" : 175,
                            "time" : 151,
                            "value" : -77.0,
                            "duration" : 24
                          }
                        ]
                      },
                      "translation1" : {
                        "type" : "double",
                        "defaultValue" : -104.0,
                        "interp" : "eioe",
                        "keyframes" : [
                          {
                            "endTime" : 98,
                            "time" : 82,
                            "value" : -191.0,
                            "duration" : 16
                          },
                          {
                            "endTime" : 175,
                            "time" : 151,
                            "value" : -281.0,
                            "duration" : 24
                          }
                        ]
                      },
                      "scale0" : {
                        "type" : "double",
                        "defaultValue" : 0.5,
                        "interp" : "eioe",
                        "keyframes" : [
                          {
                            "endTime" : 98,
                            "time" : 82,
                            "value" : 1.5,
                            "duration" : 16
                          },
                          {
                            "endTime" : 175,
                            "time" : 151,
                            "value" : 0.5,
                            "duration" : 24
                          }
                        ]
                      },
                      "scale1" : {
                        "type" : "double",
                        "defaultValue" : 0.5,
                        "interp" : "eioe",
                        "keyframes" : [
                          {
                            "endTime" : 98,
                            "time" : 82,
                            "value" : 1.5,
                            "duration" : 16
                          },
                          {
                            "endTime" : 175,
                            "time" : 151,
                            "value" : 0.5,
                            "duration" : 24
                          }
                        ]
                      },
                      "sourceCrop0" : {
                        "type" : "double",
                        "defaultValue" : 0.0,
                        "interp" : "eioe"
                      },
                      "sourceCrop1" : {
                        "type" : "double",
                        "defaultValue" : 0.0,
                        "interp" : "eioe"
                      },
                      "sourceCrop2" : {
                        "type" : "double",
                        "defaultValue" : 0.0,
                        "interp" : "eioe"
                      },
                      "sourceCrop3" : {
                        "type" : "double",
                        "defaultValue" : 0.0,
                        "interp" : "eioe"
                      },
                      "geometryCrop0" : {
                        "type" : "double",
                        "defaultValue" : 0.0,
                        "interp" : "eioe"
                      },
                      "geometryCrop1" : {
                        "type" : "double",
                        "defaultValue" : 0.0,
                        "interp" : "eioe"
                      },
                      "geometryCrop2" : {
                        "type" : "double",
                        "defaultValue" : 0.0,
                        "interp" : "eioe"
                      },
                      "geometryCrop3" : {
                        "type" : "double",
                        "defaultValue" : 0.0,
                        "interp" : "eioe"
                      }
                    },
                    "effects" : [

                    ],
                    "start" : 5853,
                    "duration" : 177,
                    "mediaStart" : 0,
                    "mediaDuration" : 1,
                    "scalar" : 1,
                    "metadata" : {
                      "clipSpeedAttribute" : false,
                      "default-scale" : "1",
                      "effectApplied" : "none",
                      "lockAspectRatio" : true
                    },
                    "animationTracks" : {
                      "visual" : [
                        {
                          "endTime" : 98,
                          "duration" : 16,
                          "range" : [ 82, 16]
                        },
                        {
                          "endTime" : 175,
                          "duration" : 24,
                          "range" : [ 151, 24]
                        }
                      ]
                    }
                  },
                  {
                    "id" : 192,
                    "_type" : "IMFile",
                    "src" : 68,
                    "trackNumber" : 0,
                    "trimStartSum" : 17,
                    "attributes" : {
                      "ident" : "Pasted Image"
                    },
                    "parameters" : {
                      "translation0" : {
                        "type" : "double",
                        "defaultValue" : -303.0,
                        "interp" : "eioe",
                        "keyframes" : [
                          {
                            "endTime" : 49,
                            "time" : 19,
                            "value" : 25.0,
                            "duration" : 30
                          },
                          {
                            "endTime" : 764,
                            "time" : 734,
                            "value" : 45.0,
                            "duration" : 30
                          },
                          {
                            "endTime" : 1091,
                            "time" : 1061,
                            "value" : 25.0,
                            "duration" : 30
                          },
                          {
                            "endTime" : 1590,
                            "time" : 1560,
                            "value" : -498.0,
                            "duration" : 30
                          },
                          {
                            "endTime" : 1802,
                            "time" : 1772,
                            "value" : 82.0,
                            "duration" : 30
                          }
                        ]
                      },
                      "translation1" : {
                        "type" : "double",
                        "defaultValue" : -230.0,
                        "interp" : "eioe",
                        "keyframes" : [
                          {
                            "endTime" : 49,
                            "time" : 19,
                            "value" : -40.0,
                            "duration" : 30
                          },
                          {
                            "endTime" : 764,
                            "time" : 734,
                            "value" : -305.0,
                            "duration" : 30
                          },
                          {
                            "endTime" : 1091,
                            "time" : 1061,
                            "value" : -40.0,
                            "duration" : 30
                          },
                          {
                            "endTime" : 1590,
                            "time" : 1560,
                            "value" : -304.0,
                            "duration" : 30
                          },
                          {
                            "endTime" : 1802,
                            "time" : 1772,
                            "value" : -306.0,
                            "duration" : 30
                          }
                        ]
                      },
                      "scale0" : {
                        "type" : "double",
                        "defaultValue" : 1.0,
                        "interp" : "eioe",
                        "keyframes" : [
                          {
                            "endTime" : 49,
                            "time" : 19,
                            "value" : 0.75,
                            "duration" : 30
                          },
                          {
                            "endTime" : 764,
                            "time" : 734,
                            "value" : 1.10000002384186,
                            "duration" : 30
                          },
                          {
                            "endTime" : 1091,
                            "time" : 1061,
                            "value" : 0.75,
                            "duration" : 30
                          },
                          {
                            "endTime" : 1590,
                            "time" : 1560,
                            "value" : 1.20000004768372,
                            "duration" : 30
                          }
                        ]
                      },
                      "scale1" : {
                        "type" : "double",
                        "defaultValue" : 1.0,
                        "interp" : "eioe",
                        "keyframes" : [
                          {
                            "endTime" : 49,
                            "time" : 19,
                            "value" : 0.75,
                            "duration" : 30
                          },
                          {
                            "endTime" : 764,
                            "time" : 734,
                            "value" : 1.10000002384186,
                            "duration" : 30
                          },
                          {
                            "endTime" : 1091,
                            "time" : 1061,
                            "value" : 0.75,
                            "duration" : 30
                          },
                          {
                            "endTime" : 1590,
                            "time" : 1560,
                            "value" : 1.20000004768372,
                            "duration" : 30
                          }
                        ]
                      },
                      "sourceCrop0" : {
                        "type" : "double",
                        "defaultValue" : 0.0,
                        "interp" : "eioe"
                      },
                      "sourceCrop1" : {
                        "type" : "double",
                        "defaultValue" : 0.0,
                        "interp" : "eioe"
                      },
                      "sourceCrop2" : {
                        "type" : "double",
                        "defaultValue" : 0.0,
                        "interp" : "eioe"
                      },
                      "sourceCrop3" : {
                        "type" : "double",
                        "defaultValue" : 0.0,
                        "interp" : "eioe"
                      },
                      "geometryCrop0" : {
                        "type" : "double",
                        "defaultValue" : 0.0,
                        "interp" : "eioe"
                      },
                      "geometryCrop1" : {
                        "type" : "double",
                        "defaultValue" : 0.0,
                        "interp" : "eioe"
                      },
                      "geometryCrop2" : {
                        "type" : "double",
                        "defaultValue" : 0.0,
                        "interp" : "eioe"
                      },
                      "geometryCrop3" : {
                        "type" : "double",
                        "defaultValue" : 0.0,
                        "interp" : "eioe"
                      }
                    },
                    "effects" : [

                    ],
                    "start" : 7559,
                    "duration" : 2715,
                    "mediaStart" : 0,
                    "mediaDuration" : 1,
                    "scalar" : 1,
                    "metadata" : {
                      "clipSpeedAttribute" : false,
                      "default-scale" : "1",
                      "effectApplied" : "none",
                      "lockAspectRatio" : false
                    },
                    "animationTracks" : {
                      "visual" : [
                        {
                          "endTime" : 49,
                          "duration" : 30,
                          "range" : [ 19, 30]
                        },
                        {
                          "endTime" : 764,
                          "duration" : 30,
                          "range" : [ 734, 30]
                        },
                        {
                          "endTime" : 1091,
                          "duration" : 30,
                          "range" : [ 1061, 30]
                        },
                        {
                          "endTime" : 1590,
                          "duration" : 30,
                          "range" : [ 1560, 30]
                        },
                        {
                          "endTime" : 1802,
                          "duration" : 30,
                          "range" : [ 1772, 30]
                        }
                      ]
                    }
                  }
                ],
                "transitions" : [
                  {
                    "name" : "Fade",
                    "duration" : 30,
                    "rightMedia" : 188,
                    "attributes" : {
                      "bypass" : false,
                      "reverse" : false,
                      "trivial" : false,
                      "useAudioPreRoll" : true,
                      "useVisualPreRoll" : true
                    }

                  },
                  {
                    "name" : "Fade",
                    "duration" : 30,
                    "leftMedia" : 192,
                    "attributes" : {
                      "bypass" : false,
                      "reverse" : false,
                      "trivial" : false,
                      "useAudioPreRoll" : true,
                      "useVisualPreRoll" : true
                    }

                  }
                ]
              },
              {
                "trackIndex" : 17,
                "medias" : [
                  {
                    "id" : 193,
                    "_type" : "IMFile",
                    "src" : 12,
                    "trackNumber" : 0,
                    "trimStartSum" : 0,
                    "attributes" : {
                      "ident" : "Pasted Image"
                    },
                    "parameters" : {
                      "translation0" : {
                        "type" : "double",
                        "defaultValue" : 112.0,
                        "keyframes" : [
                          {
                            "endTime" : 209,
                            "time" : 179,
                            "value" : -50.0,
                            "duration" : 30
                          }
                        ]
                      },
                      "translation1" : {
                        "type" : "double",
                        "defaultValue" : -119.0,
                        "keyframes" : [
                          {
                            "endTime" : 209,
                            "time" : 179,
                            "value" : -93.0,
                            "duration" : 30
                          },
                          {
                            "endTime" : 801,
                            "time" : 771,
                            "value" : -225.0,
                            "duration" : 30
                          }
                        ]
                      },
                      "rotation2" : {
                        "type" : "double",
                        "defaultValue" : 0.0,
                        "keyframes" : [
                          {
                            "endTime" : 209,
                            "time" : 179,
                            "value" : 1.5707963267949,
                            "duration" : 30
                          }
                        ]
                      },
                      "scale0" : {
                        "type" : "double",
                        "defaultValue" : 1.0,
                        "keyframes" : [
                          {
                            "endTime" : 801,
                            "time" : 771,
                            "value" : 0.00395256916996047,
                            "duration" : 30
                          }
                        ]
                      },
                      "sourceCrop0" : 0.0,
                      "sourceCrop1" : 0.0,
                      "sourceCrop2" : 0.0,
                      "sourceCrop3" : 0.0,
                      "geometryCrop0" : 0.0,
                      "geometryCrop1" : 0.0,
                      "geometryCrop2" : 0.0,
                      "geometryCrop3" : 0.0
                    },
                    "effects" : [

                    ],
                    "start" : 842,
                    "duration" : 1236,
                    "mediaStart" : 0,
                    "mediaDuration" : 1,
                    "scalar" : 1,
                    "metadata" : {
                      "clipSpeedAttribute" : false,
                      "default-scale" : "1",
                      "effectApplied" : "none",
                      "lockAspectRatio" : false
                    },
                    "animationTracks" : {
                      "visual" : [
                        {
                          "endTime" : 209,
                          "duration" : 30,
                          "range" : [ 179, 30]
                        },
                        {
                          "endTime" : 801,
                          "duration" : 30,
                          "range" : [ 771, 30]
                        }
                      ]
                    }
                  },
                  {
                    "id" : 194,
                    "_type" : "IMFile",
                    "src" : 6,
                    "trackNumber" : 0,
                    "trimStartSum" : 0,
                    "attributes" : {
                      "ident" : "Pasted Image"
                    },
                    "parameters" : {
                      "translation0" : 112.0,
                      "translation1" : 19.0,
                      "sourceCrop0" : 0.0,
                      "sourceCrop1" : 0.0,
                      "sourceCrop2" : 0.0,
                      "sourceCrop3" : 0.0,
                      "geometryCrop0" : 0.0,
                      "geometryCrop1" : 0.0,
                      "geometryCrop2" : 0.0,
                      "geometryCrop3" : 0.0
                    },
                    "effects" : [

                    ],
                    "start" : 2752,
                    "duration" : 126,
                    "mediaStart" : 0,
                    "mediaDuration" : 1,
                    "scalar" : 1,
                    "metadata" : {
                      "clipSpeedAttribute" : false,
                      "default-scale" : "1",
                      "effectApplied" : "none",
                      "lockAspectRatio" : true
                    },
                    "animationTracks" : {

                    }
                  },
                  {
                    "id" : 195,
                    "_type" : "IMFile",
                    "src" : 47,
                    "trackNumber" : 0,
                    "trimStartSum" : 0,
                    "attributes" : {
                      "ident" : "Pasted Image"
                    },
                    "parameters" : {
                      "translation0" : {
                        "type" : "double",
                        "defaultValue" : -840.0,
                        "interp" : "eioe",
                        "keyframes" : [
                          {
                            "endTime" : 98,
                            "time" : 82,
                            "value" : -78.0,
                            "duration" : 16
                          },
                          {
                            "endTime" : 358,
                            "time" : 334,
                            "value" : -479.0,
                            "duration" : 24
                          }
                        ]
                      },
                      "translation1" : {
                        "type" : "double",
                        "defaultValue" : -40.0,
                        "interp" : "eioe",
                        "keyframes" : [
                          {
                            "endTime" : 98,
                            "time" : 82,
                            "value" : -191.0,
                            "duration" : 16
                          },
                          {
                            "endTime" : 358,
                            "time" : 334,
                            "value" : -104.0,
                            "duration" : 24
                          }
                        ]
                      },
                      "scale0" : {
                        "type" : "double",
                        "defaultValue" : 1.5,
                        "interp" : "eioe",
                        "keyframes" : [
                          {
                            "endTime" : 98,
                            "time" : 82,
                            "value" : 1.5,
                            "duration" : 16
                          },
                          {
                            "endTime" : 358,
                            "time" : 334,
                            "value" : 0.5,
                            "duration" : 24
                          }
                        ]
                      },
                      "scale1" : {
                        "type" : "double",
                        "defaultValue" : 1.5,
                        "interp" : "eioe",
                        "keyframes" : [
                          {
                            "endTime" : 98,
                            "time" : 82,
                            "value" : 1.5,
                            "duration" : 16
                          },
                          {
                            "endTime" : 358,
                            "time" : 334,
                            "value" : 0.5,
                            "duration" : 24
                          }
                        ]
                      },
                      "sourceCrop0" : {
                        "type" : "double",
                        "defaultValue" : 0.0,
                        "interp" : "eioe"
                      },
                      "sourceCrop1" : {
                        "type" : "double",
                        "defaultValue" : 0.0,
                        "interp" : "eioe"
                      },
                      "sourceCrop2" : {
                        "type" : "double",
                        "defaultValue" : 0.0,
                        "interp" : "eioe"
                      },
                      "sourceCrop3" : {
                        "type" : "double",
                        "defaultValue" : 0.0,
                        "interp" : "eioe"
                      },
                      "geometryCrop0" : {
                        "type" : "double",
                        "defaultValue" : 0.0,
                        "interp" : "eioe"
                      },
                      "geometryCrop1" : {
                        "type" : "double",
                        "defaultValue" : 0.0,
                        "interp" : "eioe"
                      },
                      "geometryCrop2" : {
                        "type" : "double",
                        "defaultValue" : 0.0,
                        "interp" : "eioe"
                      },
                      "geometryCrop3" : {
                        "type" : "double",
                        "defaultValue" : 0.0,
                        "interp" : "eioe"
                      }
                    },
                    "effects" : [

                    ],
                    "start" : 4904,
                    "duration" : 361,
                    "mediaStart" : 0,
                    "mediaDuration" : 1,
                    "scalar" : 1,
                    "metadata" : {
                      "clipSpeedAttribute" : false,
                      "default-scale" : "1",
                      "effectApplied" : "none",
                      "lockAspectRatio" : true
                    },
                    "animationTracks" : {
                      "visual" : [
                        {
                          "endTime" : 98,
                          "duration" : 16,
                          "range" : [ 82, 16]
                        },
                        {
                          "endTime" : 358,
                          "duration" : 24,
                          "range" : [ 334, 24]
                        }
                      ]
                    }
                  },
                  {
                    "id" : 196,
                    "_type" : "IMFile",
                    "src" : 51,
                    "trackNumber" : 0,
                    "trimStartSum" : 0,
                    "attributes" : {
                      "ident" : "Pasted Image"
                    },
                    "parameters" : {
                      "translation0" : {
                        "type" : "double",
                        "defaultValue" : -473.0,
                        "interp" : "eioe"
                      },
                      "translation1" : {
                        "type" : "double",
                        "defaultValue" : -86.0,
                        "interp" : "eioe"
                      },
                      "sourceCrop0" : {
                        "type" : "double",
                        "defaultValue" : 0.0,
                        "interp" : "eioe"
                      },
                      "sourceCrop1" : {
                        "type" : "double",
                        "defaultValue" : 0.0,
                        "interp" : "eioe"
                      },
                      "sourceCrop2" : {
                        "type" : "double",
                        "defaultValue" : 0.0,
                        "interp" : "eioe"
                      },
                      "sourceCrop3" : {
                        "type" : "double",
                        "defaultValue" : 0.0,
                        "interp" : "eioe"
                      },
                      "geometryCrop0" : {
                        "type" : "double",
                        "defaultValue" : 0.0,
                        "interp" : "eioe"
                      },
                      "geometryCrop1" : {
                        "type" : "double",
                        "defaultValue" : 0.0,
                        "interp" : "eioe"
                      },
                      "geometryCrop2" : {
                        "type" : "double",
                        "defaultValue" : 0.0,
                        "interp" : "eioe"
                      },
                      "geometryCrop3" : {
                        "type" : "double",
                        "defaultValue" : 0.0,
                        "interp" : "eioe"
                      }
                    },
                    "effects" : [

                    ],
                    "start" : 5823,
                    "duration" : 186,
                    "mediaStart" : 0,
                    "mediaDuration" : 1,
                    "scalar" : 1,
                    "metadata" : {
                      "clipSpeedAttribute" : false,
                      "default-scale" : "1",
                      "effectApplied" : "none",
                      "lockAspectRatio" : true
                    },
                    "animationTracks" : {

                    }
                  },
                  {
                    "id" : 197,
                    "_type" : "IMFile",
                    "src" : 64,
                    "trackNumber" : 0,
                    "trimStartSum" : 0,
                    "attributes" : {
                      "ident" : "Pasted Image"
                    },
                    "parameters" : {
                      "translation0" : {
                        "type" : "double",
                        "defaultValue" : -246.0,
                        "interp" : "eioe"
                      },
                      "translation1" : {
                        "type" : "double",
                        "defaultValue" : -218.861506325312,
                        "interp" : "eioe"
                      },
                      "scale0" : {
                        "type" : "double",
                        "defaultValue" : 0.744017317185336,
                        "interp" : "eioe"
                      },
                      "scale1" : {
                        "type" : "double",
                        "defaultValue" : 0.744017317185336,
                        "interp" : "eioe"
                      },
                      "sourceCrop0" : {
                        "type" : "double",
                        "defaultValue" : 0.0,
                        "interp" : "eioe"
                      },
                      "sourceCrop1" : {
                        "type" : "double",
                        "defaultValue" : 0.0,
                        "interp" : "eioe"
                      },
                      "sourceCrop2" : {
                        "type" : "double",
                        "defaultValue" : 0.0,
                        "interp" : "eioe"
                      },
                      "sourceCrop3" : {
                        "type" : "double",
                        "defaultValue" : 0.0,
                        "interp" : "eioe"
                      },
                      "geometryCrop0" : {
                        "type" : "double",
                        "defaultValue" : 0.0,
                        "interp" : "eioe"
                      },
                      "geometryCrop1" : {
                        "type" : "double",
                        "defaultValue" : 0.0,
                        "interp" : "eioe"
                      },
                      "geometryCrop2" : {
                        "type" : "double",
                        "defaultValue" : 0.0,
                        "interp" : "eioe"
                      },
                      "geometryCrop3" : {
                        "type" : "double",
                        "defaultValue" : 0.0,
                        "interp" : "eioe"
                      }
                    },
                    "effects" : [

                    ],
                    "start" : 7521,
                    "duration" : 150,
                    "mediaStart" : 0,
                    "mediaDuration" : 1,
                    "scalar" : 1,
                    "metadata" : {
                      "clipSpeedAttribute" : false,
                      "default-scale" : "1",
                      "effectApplied" : "none",
                      "lockAspectRatio" : true
                    },
                    "animationTracks" : {

                    }
                  },
                  {
                    "id" : 198,
                    "_type" : "IMFile",
                    "src" : 71,
                    "trackNumber" : 0,
                    "trimStartSum" : 0,
                    "attributes" : {
                      "ident" : "Pasted Image"
                    },
                    "parameters" : {
                      "translation0" : {
                        "type" : "double",
                        "defaultValue" : -140.990549717495,
                        "interp" : "eioe"
                      },
                      "translation1" : {
                        "type" : "double",
                        "defaultValue" : -210.004717599531,
                        "interp" : "eioe"
                      },
                      "scale0" : {
                        "type" : "double",
                        "defaultValue" : 0.539551375541256,
                        "interp" : "eioe"
                      },
                      "scale1" : {
                        "type" : "double",
                        "defaultValue" : 0.539551375541256,
                        "interp" : "eioe"
                      },
                      "sourceCrop0" : {
                        "type" : "double",
                        "defaultValue" : 0.0,
                        "interp" : "eioe"
                      },
                      "sourceCrop1" : {
                        "type" : "double",
                        "defaultValue" : 0.0,
                        "interp" : "eioe"
                      },
                      "sourceCrop2" : {
                        "type" : "double",
                        "defaultValue" : 0.0,
                        "interp" : "eioe"
                      },
                      "sourceCrop3" : {
                        "type" : "double",
                        "defaultValue" : 0.0,
                        "interp" : "eioe"
                      },
                      "geometryCrop0" : {
                        "type" : "double",
                        "defaultValue" : 0.0,
                        "interp" : "eioe"
                      },
                      "geometryCrop1" : {
                        "type" : "double",
                        "defaultValue" : 0.0,
                        "interp" : "eioe"
                      },
                      "geometryCrop2" : {
                        "type" : "double",
                        "defaultValue" : 0.0,
                        "interp" : "eioe"
                      },
                      "geometryCrop3" : {
                        "type" : "double",
                        "defaultValue" : 0.0,
                        "interp" : "eioe"
                      }
                    },
                    "effects" : [

                    ],
                    "start" : 8697,
                    "duration" : 404,
                    "mediaStart" : 0,
                    "mediaDuration" : 1,
                    "scalar" : 1,
                    "metadata" : {
                      "clipSpeedAttribute" : false,
                      "default-scale" : "1",
                      "effectApplied" : "none",
                      "lockAspectRatio" : true
                    },
                    "animationTracks" : {

                    }
                  },
                  {
                    "id" : 199,
                    "_type" : "IMFile",
                    "src" : 72,
                    "trackNumber" : 0,
                    "trimStartSum" : 0,
                    "attributes" : {
                      "ident" : "Pasted Image"
                    },
                    "parameters" : {
                      "translation0" : {
                        "type" : "double",
                        "defaultValue" : -46.6418030719365,
                        "interp" : "eioe"
                      },
                      "translation1" : {
                        "type" : "double",
                        "defaultValue" : -218.753307507617,
                        "interp" : "eioe"
                      },
                      "scale0" : {
                        "type" : "double",
                        "defaultValue" : 1.38485138751432,
                        "interp" : "eioe"
                      },
                      "scale1" : {
                        "type" : "double",
                        "defaultValue" : 1.38485138751432,
                        "interp" : "eioe"
                      },
                      "sourceCrop0" : {
                        "type" : "double",
                        "defaultValue" : 0.0,
                        "interp" : "eioe"
                      },
                      "sourceCrop1" : {
                        "type" : "double",
                        "defaultValue" : 0.0,
                        "interp" : "eioe"
                      },
                      "sourceCrop2" : {
                        "type" : "double",
                        "defaultValue" : 0.0,
                        "interp" : "eioe"
                      },
                      "sourceCrop3" : {
                        "type" : "double",
                        "defaultValue" : 0.0,
                        "interp" : "eioe"
                      },
                      "geometryCrop0" : {
                        "type" : "double",
                        "defaultValue" : 0.0,
                        "interp" : "eioe"
                      },
                      "geometryCrop1" : {
                        "type" : "double",
                        "defaultValue" : 0.0,
                        "interp" : "eioe"
                      },
                      "geometryCrop2" : {
                        "type" : "double",
                        "defaultValue" : 0.0,
                        "interp" : "eioe"
                      },
                      "geometryCrop3" : {
                        "type" : "double",
                        "defaultValue" : 0.0,
                        "interp" : "eioe"
                      }
                    },
                    "effects" : [

                    ],
                    "start" : 9154,
                    "duration" : 166,
                    "mediaStart" : 0,
                    "mediaDuration" : 1,
                    "scalar" : 1,
                    "metadata" : {
                      "clipSpeedAttribute" : false,
                      "default-scale" : "1",
                      "effectApplied" : "none",
                      "lockAspectRatio" : true
                    },
                    "animationTracks" : {

                    }
                  },
                  {
                    "id" : 200,
                    "_type" : "IMFile",
                    "src" : 71,
                    "trackNumber" : 0,
                    "trimStartSum" : 0,
                    "attributes" : {
                      "ident" : "Pasted Image"
                    },
                    "parameters" : {
                      "translation0" : {
                        "type" : "double",
                        "defaultValue" : -128.824484252063,
                        "interp" : "eioe",
                        "keyframes" : [
                          {
                            "endTime" : 30,
                            "time" : 0,
                            "value" : -365.990549717495,
                            "duration" : 30
                          }
                        ]
                      },
                      "translation1" : {
                        "type" : "double",
                        "defaultValue" : 8.69917862249672,
                        "interp" : "eioe",
                        "keyframes" : [
                          {
                            "endTime" : 30,
                            "time" : 0,
                            "value" : -210.004717599531,
                            "duration" : 30
                          }
                        ]
                      },
                      "scale0" : {
                        "type" : "double",
                        "defaultValue" : 0.00999999977648258,
                        "interp" : "eioe",
                        "keyframes" : [
                          {
                            "endTime" : 30,
                            "time" : 0,
                            "value" : 0.539551375541256,
                            "duration" : 30
                          }
                        ]
                      },
                      "scale1" : {
                        "type" : "double",
                        "defaultValue" : 0.00999999977648258,
                        "interp" : "eioe",
                        "keyframes" : [
                          {
                            "endTime" : 30,
                            "time" : 0,
                            "value" : 0.539551375541256,
                            "duration" : 30
                          }
                        ]
                      },
                      "sourceCrop0" : {
                        "type" : "double",
                        "defaultValue" : 0.0,
                        "interp" : "eioe"
                      },
                      "sourceCrop1" : {
                        "type" : "double",
                        "defaultValue" : 0.0,
                        "interp" : "eioe"
                      },
                      "sourceCrop2" : {
                        "type" : "double",
                        "defaultValue" : 0.0,
                        "interp" : "eioe"
                      },
                      "sourceCrop3" : {
                        "type" : "double",
                        "defaultValue" : 0.0,
                        "interp" : "eioe"
                      },
                      "geometryCrop0" : {
                        "type" : "double",
                        "defaultValue" : 0.0,
                        "interp" : "eioe"
                      },
                      "geometryCrop1" : {
                        "type" : "double",
                        "defaultValue" : 0.0,
                        "interp" : "eioe"
                      },
                      "geometryCrop2" : {
                        "type" : "double",
                        "defaultValue" : 0.0,
                        "interp" : "eioe"
                      },
                      "geometryCrop3" : {
                        "type" : "double",
                        "defaultValue" : 0.0,
                        "interp" : "eioe"
                      }
                    },
                    "effects" : [

                    ],
                    "start" : 9344,
                    "duration" : 295,
                    "mediaStart" : 0,
                    "mediaDuration" : 1,
                    "scalar" : 1,
                    "metadata" : {
                      "clipSpeedAttribute" : false,
                      "default-scale" : "1",
                      "effectApplied" : "none",
                      "lockAspectRatio" : true
                    },
                    "animationTracks" : {
                      "visual" : [
                        {
                          "endTime" : 30,
                          "duration" : 30,
                          "range" : [ 0, 30]
                        }
                      ]
                    }
                  }
                ],
                "transitions" : [
                  {
                    "name" : "Fade",
                    "duration" : 30,
                    "rightMedia" : 193,
                    "attributes" : {
                      "bypass" : false,
                      "reverse" : false,
                      "trivial" : false,
                      "useAudioPreRoll" : true,
                      "useVisualPreRoll" : true
                    }

                  },
                  {
                    "name" : "Fade",
                    "duration" : 30,
                    "rightMedia" : 194,
                    "attributes" : {
                      "bypass" : false,
                      "reverse" : false,
                      "trivial" : false,
                      "useAudioPreRoll" : true,
                      "useVisualPreRoll" : true
                    }

                  },
                  {
                    "name" : "Fade",
                    "duration" : 30,
                    "leftMedia" : 194,
                    "attributes" : {
                      "bypass" : false,
                      "reverse" : false,
                      "trivial" : false,
                      "useAudioPreRoll" : true,
                      "useVisualPreRoll" : true
                    }

                  },
                  {
                    "name" : "Fade",
                    "duration" : 30,
                    "rightMedia" : 196,
                    "attributes" : {
                      "bypass" : false,
                      "reverse" : false,
                      "trivial" : false,
                      "useAudioPreRoll" : true,
                      "useVisualPreRoll" : true
                    }

                  },
                  {
                    "name" : "Fade",
                    "duration" : 30,
                    "leftMedia" : 196,
                    "attributes" : {
                      "bypass" : false,
                      "reverse" : false,
                      "trivial" : false,
                      "useAudioPreRoll" : true,
                      "useVisualPreRoll" : true
                    }

                  },
                  {
                    "name" : "Fade",
                    "duration" : 30,
                    "rightMedia" : 197,
                    "attributes" : {
                      "bypass" : false,
                      "reverse" : false,
                      "trivial" : false,
                      "useAudioPreRoll" : true,
                      "useVisualPreRoll" : true
                    }

                  },
                  {
                    "name" : "Fade",
                    "duration" : 30,
                    "leftMedia" : 197,
                    "attributes" : {
                      "bypass" : false,
                      "reverse" : false,
                      "trivial" : false,
                      "useAudioPreRoll" : true,
                      "useVisualPreRoll" : true
                    }

                  },
                  {
                    "name" : "Fade",
                    "duration" : 30,
                    "rightMedia" : 198,
                    "attributes" : {
                      "bypass" : false,
                      "reverse" : false,
                      "trivial" : false,
                      "useAudioPreRoll" : true,
                      "useVisualPreRoll" : true
                    }

                  },
                  {
                    "name" : "Fade",
                    "duration" : 30,
                    "leftMedia" : 198,
                    "attributes" : {
                      "bypass" : false,
                      "reverse" : false,
                      "trivial" : false,
                      "useAudioPreRoll" : true,
                      "useVisualPreRoll" : true
                    }

                  },
                  {
                    "name" : "Fade",
                    "duration" : 30,
                    "rightMedia" : 199,
                    "attributes" : {
                      "bypass" : false,
                      "reverse" : false,
                      "trivial" : false,
                      "useAudioPreRoll" : true,
                      "useVisualPreRoll" : true
                    }

                  },
                  {
                    "name" : "Fade",
                    "duration" : 30,
                    "leftMedia" : 199,
                    "attributes" : {
                      "bypass" : false,
                      "reverse" : false,
                      "trivial" : false,
                      "useAudioPreRoll" : true,
                      "useVisualPreRoll" : true
                    }

                  },
                  {
                    "name" : "Fade",
                    "duration" : 30,
                    "leftMedia" : 200,
                    "attributes" : {
                      "bypass" : false,
                      "reverse" : false,
                      "trivial" : false,
                      "useAudioPreRoll" : true,
                      "useVisualPreRoll" : true
                    }

                  }
                ]
              },
              {
                "trackIndex" : 18,
                "medias" : [
                  {
                    "id" : 201,
                    "_type" : "IMFile",
                    "src" : 13,
                    "trackNumber" : 0,
                    "trimStartSum" : 0,
                    "attributes" : {
                      "ident" : "Pasted Image"
                    },
                    "parameters" : {
                      "translation0" : {
                        "type" : "double",
                        "defaultValue" : 112.0,
                        "keyframes" : [
                          {
                            "endTime" : 209,
                            "time" : 179,
                            "value" : 47.0,
                            "duration" : 30
                          }
                        ]
                      },
                      "translation1" : {
                        "type" : "double",
                        "defaultValue" : -142.0,
                        "keyframes" : [
                          {
                            "endTime" : 209,
                            "time" : 179,
                            "value" : -93.0,
                            "duration" : 30
                          },
                          {
                            "endTime" : 801,
                            "time" : 771,
                            "value" : -225.0,
                            "duration" : 30
                          }
                        ]
                      },
                      "rotation2" : {
                        "type" : "double",
                        "defaultValue" : 0.0,
                        "keyframes" : [
                          {
                            "endTime" : 209,
                            "time" : 179,
                            "value" : 1.5707963267949,
                            "duration" : 30
                          }
                        ]
                      },
                      "scale0" : {
                        "type" : "double",
                        "defaultValue" : 1.0,
                        "keyframes" : [
                          {
                            "endTime" : 801,
                            "time" : 771,
                            "value" : 0.00396825396825397,
                            "duration" : 30
                          }
                        ]
                      },
                      "sourceCrop0" : 0.0,
                      "sourceCrop1" : 0.0,
                      "sourceCrop2" : 0.0,
                      "sourceCrop3" : 0.0,
                      "geometryCrop0" : 0.0,
                      "geometryCrop1" : 0.0,
                      "geometryCrop2" : 0.0,
                      "geometryCrop3" : 0.0
                    },
                    "effects" : [

                    ],
                    "start" : 842,
                    "duration" : 1236,
                    "mediaStart" : 0,
                    "mediaDuration" : 1,
                    "scalar" : 1,
                    "metadata" : {
                      "clipSpeedAttribute" : false,
                      "default-scale" : "1",
                      "effectApplied" : "none",
                      "lockAspectRatio" : false
                    },
                    "animationTracks" : {
                      "visual" : [
                        {
                          "endTime" : 209,
                          "duration" : 30,
                          "range" : [ 179, 30]
                        },
                        {
                          "endTime" : 801,
                          "duration" : 30,
                          "range" : [ 771, 30]
                        }
                      ]
                    }
                  },
                  {
                    "id" : 202,
                    "_type" : "IMFile",
                    "src" : 7,
                    "trackNumber" : 0,
                    "trimStartSum" : 0,
                    "attributes" : {
                      "ident" : "Pasted Image"
                    },
                    "parameters" : {
                      "translation0" : {
                        "type" : "double",
                        "defaultValue" : -275.0,
                        "keyframes" : [
                          {
                            "endTime" : 68,
                            "time" : 38,
                            "value" : 112.0,
                            "duration" : 30
                          },
                          {
                            "endTime" : 801,
                            "time" : 771,
                            "value" : -581.0,
                            "duration" : 30
                          }
                        ]
                      },
                      "translation1" : {
                        "type" : "double",
                        "defaultValue" : -243.0,
                        "keyframes" : [
                          {
                            "endTime" : 30,
                            "time" : 0,
                            "value" : -93.0,
                            "duration" : 30
                          },
                          {
                            "endTime" : 68,
                            "time" : 38,
                            "value" : -4.0,
                            "duration" : 30
                          },
                          {
                            "endTime" : 801,
                            "time" : 771,
                            "value" : -225.0,
                            "duration" : 30
                          }
                        ]
                      },
                      "rotation2" : {
                        "type" : "double",
                        "defaultValue" : 1.5707963267949,
                        "keyframes" : [
                          {
                            "endTime" : 68,
                            "time" : 38,
                            "value" : 0.0,
                            "duration" : 30
                          },
                          {
                            "endTime" : 801,
                            "time" : 771,
                            "value" : 1.5707963267949,
                            "duration" : 30
                          }
                        ]
                      },
                      "scale0" : {
                        "type" : "double",
                        "defaultValue" : 0.00396825396825397,
                        "keyframes" : [
                          {
                            "endTime" : 30,
                            "time" : 0,
                            "value" : 1.0,
                            "duration" : 30
                          },
                          {
                            "endTime" : 68,
                            "time" : 38,
                            "value" : 1.0,
                            "duration" : 30
                          },
                          {
                            "endTime" : 801,
                            "time" : 771,
                            "value" : 0.00396825396825397,
                            "duration" : 30
                          }
                        ]
                      },
                      "scale1" : {
                        "type" : "double",
                        "defaultValue" : 0.00396825396825397,
                        "keyframes" : [
                          {
                            "endTime" : 30,
                            "time" : 0,
                            "value" : 1.0,
                            "duration" : 30
                          },
                          {
                            "endTime" : 68,
                            "time" : 38,
                            "value" : 1.0,
                            "duration" : 30
                          }
                        ]
                      },
                      "sourceCrop0" : 0.0,
                      "sourceCrop1" : 0.0,
                      "sourceCrop2" : 0.0,
                      "sourceCrop3" : 0.0,
                      "geometryCrop0" : 0.0,
                      "geometryCrop1" : 0.0,
                      "geometryCrop2" : 0.0,
                      "geometryCrop3" : 0.0
                    },
                    "effects" : [

                    ],
                    "start" : 2714,
                    "duration" : 164,
                    "mediaStart" : 0,
                    "mediaDuration" : 1,
                    "scalar" : 1,
                    "metadata" : {
                      "clipSpeedAttribute" : false,
                      "default-scale" : "1",
                      "effectApplied" : "none",
                      "lockAspectRatio" : true
                    },
                    "animationTracks" : {
                      "visual" : [
                        {
                          "endTime" : 30,
                          "duration" : 30,
                          "range" : [ 0, 30]
                        },
                        {
                          "endTime" : 68,
                          "duration" : 30,
                          "range" : [ 38, 30]
                        },
                        {
                          "endTime" : 801,
                          "duration" : 30,
                          "range" : [ 771, 30]
                        }
                      ]
                    }
                  },
                  {
                    "id" : 203,
                    "_type" : "IMFile",
                    "src" : 48,
                    "trackNumber" : 0,
                    "trimStartSum" : 0,
                    "attributes" : {
                      "ident" : "Pasted Image"
                    },
                    "parameters" : {
                      "translation0" : {
                        "type" : "double",
                        "defaultValue" : -840.0,
                        "interp" : "eioe",
                        "keyframes" : [
                          {
                            "endTime" : 114,
                            "time" : 98,
                            "value" : -77.0,
                            "duration" : 16
                          }
                        ]
                      },
                      "translation1" : {
                        "type" : "double",
                        "defaultValue" : -37.0,
                        "interp" : "eioe",
                        "keyframes" : [
                          {
                            "endTime" : 114,
                            "time" : 98,
                            "value" : -261.0,
                            "duration" : 16
                          },
                          {
                            "endTime" : 429,
                            "time" : 399,
                            "value" : -25.0,
                            "duration" : 30
                          }
                        ]
                      },
                      "scale0" : {
                        "type" : "double",
                        "defaultValue" : 1.5,
                        "interp" : "eioe",
                        "keyframes" : [
                          {
                            "endTime" : 114,
                            "time" : 98,
                            "value" : 1.5,
                            "duration" : 16
                          }
                        ]
                      },
                      "scale1" : {
                        "type" : "double",
                        "defaultValue" : 1.5,
                        "interp" : "eioe",
                        "keyframes" : [
                          {
                            "endTime" : 114,
                            "time" : 98,
                            "value" : 1.5,
                            "duration" : 16
                          }
                        ]
                      },
                      "sourceCrop0" : {
                        "type" : "double",
                        "defaultValue" : 0.0,
                        "interp" : "eioe"
                      },
                      "sourceCrop1" : {
                        "type" : "double",
                        "defaultValue" : 0.0,
                        "interp" : "eioe"
                      },
                      "sourceCrop2" : {
                        "type" : "double",
                        "defaultValue" : 0.0,
                        "interp" : "eioe"
                      },
                      "sourceCrop3" : {
                        "type" : "double",
                        "defaultValue" : 0.0,
                        "interp" : "eioe"
                      },
                      "geometryCrop0" : {
                        "type" : "double",
                        "defaultValue" : 0.0,
                        "interp" : "eioe"
                      },
                      "geometryCrop1" : {
                        "type" : "double",
                        "defaultValue" : 0.0,
                        "interp" : "eioe"
                      },
                      "geometryCrop2" : {
                        "type" : "double",
                        "defaultValue" : 0.0,
                        "interp" : "eioe"
                      },
                      "geometryCrop3" : {
                        "type" : "double",
                        "defaultValue" : 0.0,
                        "interp" : "eioe"
                      }
                    },
                    "effects" : [

                    ],
                    "start" : 4904,
                    "duration" : 465,
                    "mediaStart" : 0,
                    "mediaDuration" : 1,
                    "scalar" : 1,
                    "metadata" : {
                      "clipSpeedAttribute" : false,
                      "default-scale" : "1",
                      "effectApplied" : "none",
                      "lockAspectRatio" : true
                    },
                    "animationTracks" : {
                      "visual" : [
                        {
                          "endTime" : 114,
                          "duration" : 16,
                          "range" : [ 98, 16]
                        },
                        {
                          "endTime" : 429,
                          "duration" : 30,
                          "range" : [ 399, 30]
                        }
                      ]
                    }
                  },
                  {
                    "id" : 204,
                    "_type" : "IMFile",
                    "src" : 52,
                    "trackNumber" : 0,
                    "trimStartSum" : 0,
                    "attributes" : {
                      "ident" : "Pasted Image"
                    },
                    "parameters" : {
                      "translation0" : {
                        "type" : "double",
                        "defaultValue" : -76.0,
                        "interp" : "eioe"
                      },
                      "translation1" : {
                        "type" : "double",
                        "defaultValue" : -281.0,
                        "interp" : "eioe"
                      },
                      "scale0" : {
                        "type" : "double",
                        "defaultValue" : 2.0,
                        "interp" : "eioe"
                      },
                      "scale1" : {
                        "type" : "double",
                        "defaultValue" : 2.0,
                        "interp" : "eioe"
                      },
                      "sourceCrop0" : {
                        "type" : "double",
                        "defaultValue" : 0.0,
                        "interp" : "eioe"
                      },
                      "sourceCrop1" : {
                        "type" : "double",
                        "defaultValue" : 0.0,
                        "interp" : "eioe"
                      },
                      "sourceCrop2" : {
                        "type" : "double",
                        "defaultValue" : 0.0,
                        "interp" : "eioe"
                      },
                      "sourceCrop3" : {
                        "type" : "double",
                        "defaultValue" : 0.0,
                        "interp" : "eioe"
                      },
                      "geometryCrop0" : {
                        "type" : "double",
                        "defaultValue" : 0.0,
                        "interp" : "eioe"
                      },
                      "geometryCrop1" : {
                        "type" : "double",
                        "defaultValue" : 0.0,
                        "interp" : "eioe"
                      },
                      "geometryCrop2" : {
                        "type" : "double",
                        "defaultValue" : 0.0,
                        "interp" : "eioe"
                      },
                      "geometryCrop3" : {
                        "type" : "double",
                        "defaultValue" : 0.0,
                        "interp" : "eioe"
                      }
                    },
                    "effects" : [

                    ],
                    "start" : 5979,
                    "duration" : 127,
                    "mediaStart" : 0,
                    "mediaDuration" : 1,
                    "scalar" : 1,
                    "metadata" : {
                      "clipSpeedAttribute" : false,
                      "default-scale" : "1",
                      "effectApplied" : "none",
                      "lockAspectRatio" : true
                    },
                    "animationTracks" : {

                    }
                  },
                  {
                    "id" : 205,
                    "_type" : "IMFile",
                    "src" : 73,
                    "trackNumber" : 0,
                    "trimStartSum" : 0,
                    "attributes" : {
                      "ident" : "Pasted Image"
                    },
                    "parameters" : {
                      "translation0" : {
                        "type" : "double",
                        "defaultValue" : -451.0,
                        "interp" : "eioe"
                      },
                      "translation1" : {
                        "type" : "double",
                        "defaultValue" : -218.0,
                        "interp" : "eioe"
                      },
                      "scale0" : {
                        "type" : "double",
                        "defaultValue" : 0.540000021457672,
                        "interp" : "eioe"
                      },
                      "scale1" : {
                        "type" : "double",
                        "defaultValue" : 0.540000021457672,
                        "interp" : "eioe"
                      },
                      "sourceCrop0" : {
                        "type" : "double",
                        "defaultValue" : 0.0,
                        "interp" : "eioe"
                      },
                      "sourceCrop1" : {
                        "type" : "double",
                        "defaultValue" : 0.0,
                        "interp" : "eioe"
                      },
                      "sourceCrop2" : {
                        "type" : "double",
                        "defaultValue" : 0.0,
                        "interp" : "eioe"
                      },
                      "sourceCrop3" : {
                        "type" : "double",
                        "defaultValue" : 0.0,
                        "interp" : "eioe"
                      },
                      "geometryCrop0" : {
                        "type" : "double",
                        "defaultValue" : 0.0,
                        "interp" : "eioe"
                      },
                      "geometryCrop1" : {
                        "type" : "double",
                        "defaultValue" : 0.0,
                        "interp" : "eioe"
                      },
                      "geometryCrop2" : {
                        "type" : "double",
                        "defaultValue" : 0.0,
                        "interp" : "eioe"
                      },
                      "geometryCrop3" : {
                        "type" : "double",
                        "defaultValue" : 0.0,
                        "interp" : "eioe"
                      }
                    },
                    "effects" : [

                    ],
                    "start" : 9418,
                    "duration" : 150,
                    "mediaStart" : 0,
                    "mediaDuration" : 1,
                    "scalar" : 1,
                    "metadata" : {
                      "clipSpeedAttribute" : false,
                      "default-scale" : "1",
                      "effectApplied" : "none",
                      "lockAspectRatio" : true
                    },
                    "animationTracks" : {

                    }
                  }
                ],
                "transitions" : [
                  {
                    "name" : "Fade",
                    "duration" : 30,
                    "rightMedia" : 201,
                    "attributes" : {
                      "bypass" : false,
                      "reverse" : false,
                      "trivial" : false,
                      "useAudioPreRoll" : true,
                      "useVisualPreRoll" : true
                    }

                  },
                  {
                    "name" : "Fade",
                    "duration" : 30,
                    "leftMedia" : 202,
                    "attributes" : {
                      "bypass" : false,
                      "reverse" : false,
                      "trivial" : false,
                      "useAudioPreRoll" : true,
                      "useVisualPreRoll" : true
                    }

                  },
                  {
                    "name" : "Fade",
                    "duration" : 30,
                    "leftMedia" : 203,
                    "attributes" : {
                      "bypass" : false,
                      "reverse" : false,
                      "trivial" : false,
                      "useAudioPreRoll" : true,
                      "useVisualPreRoll" : true
                    }

                  },
                  {
                    "name" : "Fade",
                    "duration" : 30,
                    "rightMedia" : 204,
                    "attributes" : {
                      "bypass" : false,
                      "reverse" : false,
                      "trivial" : false,
                      "useAudioPreRoll" : true,
                      "useVisualPreRoll" : true
                    }

                  },
                  {
                    "name" : "Fade",
                    "duration" : 30,
                    "leftMedia" : 204,
                    "attributes" : {
                      "bypass" : false,
                      "reverse" : false,
                      "trivial" : false,
                      "useAudioPreRoll" : true,
                      "useVisualPreRoll" : true
                    }

                  },
                  {
                    "name" : "Fade",
                    "duration" : 30,
                    "rightMedia" : 205,
                    "attributes" : {
                      "bypass" : false,
                      "reverse" : false,
                      "trivial" : false,
                      "useAudioPreRoll" : true,
                      "useVisualPreRoll" : true
                    }

                  },
                  {
                    "name" : "Fade",
                    "duration" : 30,
                    "leftMedia" : 205,
                    "attributes" : {
                      "bypass" : false,
                      "reverse" : false,
                      "trivial" : false,
                      "useAudioPreRoll" : true,
                      "useVisualPreRoll" : true
                    }

                  }
                ]
              },
              {
                "trackIndex" : 19,
                "medias" : [
                  {
                    "id" : 206,
                    "_type" : "IMFile",
                    "src" : 14,
                    "trackNumber" : 0,
                    "trimStartSum" : 0,
                    "attributes" : {
                      "ident" : "Pasted Image"
                    },
                    "parameters" : {
                      "translation0" : {
                        "type" : "double",
                        "defaultValue" : 112.0,
                        "keyframes" : [
                          {
                            "endTime" : 209,
                            "time" : 179,
                            "value" : 157.0,
                            "duration" : 30
                          },
                          {
                            "endTime" : 801,
                            "time" : 771,
                            "value" : 157.0,
                            "duration" : 30
                          }
                        ]
                      },
                      "translation1" : {
                        "type" : "double",
                        "defaultValue" : -165.0,
                        "keyframes" : [
                          {
                            "endTime" : 209,
                            "time" : 179,
                            "value" : -93.0,
                            "duration" : 30
                          },
                          {
                            "endTime" : 801,
                            "time" : 771,
                            "value" : -225.0,
                            "duration" : 30
                          }
                        ]
                      },
                      "rotation2" : {
                        "type" : "double",
                        "defaultValue" : 0.0,
                        "keyframes" : [
                          {
                            "endTime" : 209,
                            "time" : 179,
                            "value" : 1.5707963267949,
                            "duration" : 30
                          }
                        ]
                      },
                      "scale0" : {
                        "type" : "double",
                        "defaultValue" : 1.0,
                        "keyframes" : [
                          {
                            "endTime" : 801,
                            "time" : 771,
                            "value" : 0.00396825396825397,
                            "duration" : 30
                          }
                        ]
                      },
                      "scale1" : {
                        "type" : "double",
                        "defaultValue" : 1.0,
                        "keyframes" : [
                          {
                            "endTime" : 801,
                            "time" : 771,
                            "value" : 1.0,
                            "duration" : 30
                          }
                        ]
                      },
                      "sourceCrop0" : 0.0,
                      "sourceCrop1" : 0.0,
                      "sourceCrop2" : 0.0,
                      "sourceCrop3" : 0.0,
                      "geometryCrop0" : 0.0,
                      "geometryCrop1" : 0.0,
                      "geometryCrop2" : 0.0,
                      "geometryCrop3" : 0.0
                    },
                    "effects" : [

                    ],
                    "start" : 842,
                    "duration" : 1236,
                    "mediaStart" : 0,
                    "mediaDuration" : 1,
                    "scalar" : 1,
                    "metadata" : {
                      "clipSpeedAttribute" : false,
                      "default-scale" : "1",
                      "effectApplied" : "none",
                      "lockAspectRatio" : false
                    },
                    "animationTracks" : {
                      "visual" : [
                        {
                          "endTime" : 209,
                          "duration" : 30,
                          "range" : [ 179, 30]
                        },
                        {
                          "endTime" : 801,
                          "duration" : 30,
                          "range" : [ 771, 30]
                        }
                      ]
                    }
                  },
                  {
                    "id" : 207,
                    "_type" : "IMFile",
                    "src" : 8,
                    "trackNumber" : 0,
                    "trimStartSum" : 0,
                    "attributes" : {
                      "ident" : "Pasted Image"
                    },
                    "parameters" : {
                      "translation0" : {
                        "type" : "double",
                        "defaultValue" : -248.0,
                        "keyframes" : [
                          {
                            "endTime" : 68,
                            "time" : 38,
                            "value" : 112.0,
                            "duration" : 30
                          },
                          {
                            "endTime" : 801,
                            "time" : 771,
                            "value" : -490.0,
                            "duration" : 30
                          }
                        ]
                      },
                      "translation1" : {
                        "type" : "double",
                        "defaultValue" : -243.0,
                        "keyframes" : [
                          {
                            "endTime" : 30,
                            "time" : 0,
                            "value" : -93.0,
                            "duration" : 30
                          },
                          {
                            "endTime" : 68,
                            "time" : 38,
                            "value" : -27.0,
                            "duration" : 30
                          },
                          {
                            "endTime" : 801,
                            "time" : 771,
                            "value" : -225.0,
                            "duration" : 30
                          }
                        ]
                      },
                      "rotation2" : {
                        "type" : "double",
                        "defaultValue" : 1.5707963267949,
                        "keyframes" : [
                          {
                            "endTime" : 68,
                            "time" : 38,
                            "value" : 0.0,
                            "duration" : 30
                          },
                          {
                            "endTime" : 801,
                            "time" : 771,
                            "value" : 1.5707963267949,
                            "duration" : 30
                          }
                        ]
                      },
                      "scale0" : {
                        "type" : "double",
                        "defaultValue" : 0.00396825396825397,
                        "keyframes" : [
                          {
                            "endTime" : 30,
                            "time" : 0,
                            "value" : 1.0,
                            "duration" : 30
                          },
                          {
                            "endTime" : 68,
                            "time" : 38,
                            "value" : 1.0,
                            "duration" : 30
                          },
                          {
                            "endTime" : 801,
                            "time" : 771,
                            "value" : 0.00396825396825397,
                            "duration" : 30
                          }
                        ]
                      },
                      "scale1" : {
                        "type" : "double",
                        "defaultValue" : 0.00396825396825397,
                        "keyframes" : [
                          {
                            "endTime" : 30,
                            "time" : 0,
                            "value" : 1.0,
                            "duration" : 30
                          },
                          {
                            "endTime" : 68,
                            "time" : 38,
                            "value" : 1.0,
                            "duration" : 30
                          }
                        ]
                      },
                      "sourceCrop0" : 0.0,
                      "sourceCrop1" : 0.0,
                      "sourceCrop2" : 0.0,
                      "sourceCrop3" : 0.0,
                      "geometryCrop0" : 0.0,
                      "geometryCrop1" : 0.0,
                      "geometryCrop2" : 0.0,
                      "geometryCrop3" : 0.0
                    },
                    "effects" : [

                    ],
                    "start" : 2714,
                    "duration" : 164,
                    "mediaStart" : 0,
                    "mediaDuration" : 1,
                    "scalar" : 1,
                    "metadata" : {
                      "clipSpeedAttribute" : false,
                      "default-scale" : "1",
                      "effectApplied" : "none",
                      "lockAspectRatio" : true
                    },
                    "animationTracks" : {
                      "visual" : [
                        {
                          "endTime" : 30,
                          "duration" : 30,
                          "range" : [ 0, 30]
                        },
                        {
                          "endTime" : 68,
                          "duration" : 30,
                          "range" : [ 38, 30]
                        },
                        {
                          "endTime" : 801,
                          "duration" : 30,
                          "range" : [ 771, 30]
                        }
                      ]
                    }
                  },
                  {
                    "id" : 208,
                    "_type" : "IMFile",
                    "src" : 49,
                    "trackNumber" : 0,
                    "trimStartSum" : 0,
                    "attributes" : {
                      "ident" : "Pasted Image"
                    },
                    "parameters" : {
                      "translation0" : {
                        "type" : "double",
                        "defaultValue" : -840.0,
                        "interp" : "eioe",
                        "keyframes" : [
                          {
                            "endTime" : 130,
                            "time" : 114,
                            "value" : -77.0,
                            "duration" : 16
                          }
                        ]
                      },
                      "translation1" : {
                        "type" : "double",
                        "defaultValue" : -40.0,
                        "interp" : "eioe",
                        "keyframes" : [
                          {
                            "endTime" : 130,
                            "time" : 114,
                            "value" : -295.0,
                            "duration" : 16
                          },
                          {
                            "endTime" : 429,
                            "time" : 399,
                            "value" : -59.0,
                            "duration" : 30
                          }
                        ]
                      },
                      "scale0" : {
                        "type" : "double",
                        "defaultValue" : 1.5,
                        "interp" : "eioe",
                        "keyframes" : [
                          {
                            "endTime" : 130,
                            "time" : 114,
                            "value" : 1.5,
                            "duration" : 16
                          }
                        ]
                      },
                      "scale1" : {
                        "type" : "double",
                        "defaultValue" : 1.5,
                        "interp" : "eioe",
                        "keyframes" : [
                          {
                            "endTime" : 130,
                            "time" : 114,
                            "value" : 1.5,
                            "duration" : 16
                          }
                        ]
                      },
                      "sourceCrop0" : {
                        "type" : "double",
                        "defaultValue" : 0.0,
                        "interp" : "eioe"
                      },
                      "sourceCrop1" : {
                        "type" : "double",
                        "defaultValue" : 0.0,
                        "interp" : "eioe"
                      },
                      "sourceCrop2" : {
                        "type" : "double",
                        "defaultValue" : 0.0,
                        "interp" : "eioe"
                      },
                      "sourceCrop3" : {
                        "type" : "double",
                        "defaultValue" : 0.0,
                        "interp" : "eioe"
                      },
                      "geometryCrop0" : {
                        "type" : "double",
                        "defaultValue" : 0.0,
                        "interp" : "eioe"
                      },
                      "geometryCrop1" : {
                        "type" : "double",
                        "defaultValue" : 0.0,
                        "interp" : "eioe"
                      },
                      "geometryCrop2" : {
                        "type" : "double",
                        "defaultValue" : 0.0,
                        "interp" : "eioe"
                      },
                      "geometryCrop3" : {
                        "type" : "double",
                        "defaultValue" : 0.0,
                        "interp" : "eioe"
                      }
                    },
                    "effects" : [

                    ],
                    "start" : 4904,
                    "duration" : 465,
                    "mediaStart" : 0,
                    "mediaDuration" : 1,
                    "scalar" : 1,
                    "metadata" : {
                      "clipSpeedAttribute" : false,
                      "default-scale" : "1",
                      "effectApplied" : "none",
                      "lockAspectRatio" : true
                    },
                    "animationTracks" : {
                      "visual" : [
                        {
                          "endTime" : 130,
                          "duration" : 16,
                          "range" : [ 114, 16]
                        },
                        {
                          "endTime" : 429,
                          "duration" : 30,
                          "range" : [ 399, 30]
                        }
                      ]
                    }
                  },
                  {
                    "id" : 209,
                    "_type" : "IMFile",
                    "src" : 69,
                    "trackNumber" : 0,
                    "trimStartSum" : 0,
                    "attributes" : {
                      "ident" : "Pasted Image"
                    },
                    "parameters" : {
                      "translation0" : {
                        "type" : "double",
                        "defaultValue" : -62.9757581719218,
                        "interp" : "eioe"
                      },
                      "translation1" : {
                        "type" : "double",
                        "defaultValue" : -198.251777926574,
                        "interp" : "eioe"
                      },
                      "scale0" : {
                        "type" : "double",
                        "defaultValue" : 1.90433097559889,
                        "interp" : "eioe"
                      },
                      "scale1" : {
                        "type" : "double",
                        "defaultValue" : 1.90433097559889,
                        "interp" : "eioe"
                      },
                      "sourceCrop0" : {
                        "type" : "double",
                        "defaultValue" : 0.0,
                        "interp" : "eioe"
                      },
                      "sourceCrop1" : {
                        "type" : "double",
                        "defaultValue" : 0.0,
                        "interp" : "eioe"
                      },
                      "sourceCrop2" : {
                        "type" : "double",
                        "defaultValue" : 0.0,
                        "interp" : "eioe"
                      },
                      "sourceCrop3" : {
                        "type" : "double",
                        "defaultValue" : 0.0,
                        "interp" : "eioe"
                      },
                      "geometryCrop0" : {
                        "type" : "double",
                        "defaultValue" : 0.0,
                        "interp" : "eioe"
                      },
                      "geometryCrop1" : {
                        "type" : "double",
                        "defaultValue" : 0.0,
                        "interp" : "eioe"
                      },
                      "geometryCrop2" : {
                        "type" : "double",
                        "defaultValue" : 0.0,
                        "interp" : "eioe"
                      },
                      "geometryCrop3" : {
                        "type" : "double",
                        "defaultValue" : 0.0,
                        "interp" : "eioe"
                      }
                    },
                    "effects" : [

                    ],
                    "start" : 7749,
                    "duration" : 197,
                    "mediaStart" : 0,
                    "mediaDuration" : 1,
                    "scalar" : 1,
                    "metadata" : {
                      "clipSpeedAttribute" : false,
                      "default-scale" : "1",
                      "effectApplied" : "none",
                      "lockAspectRatio" : true
                    },
                    "animationTracks" : {

                    }
                  },
                  {
                    "id" : 210,
                    "_type" : "IMFile",
                    "src" : 70,
                    "trackNumber" : 0,
                    "trimStartSum" : 0,
                    "attributes" : {
                      "ident" : "Pasted Image"
                    },
                    "parameters" : {
                      "translation0" : {
                        "type" : "double",
                        "defaultValue" : -37.0,
                        "interp" : "eioe"
                      },
                      "translation1" : {
                        "type" : "double",
                        "defaultValue" : -243.0,
                        "interp" : "eioe"
                      },
                      "scale0" : {
                        "type" : "double",
                        "defaultValue" : 1.5,
                        "interp" : "eioe"
                      },
                      "scale1" : {
                        "type" : "double",
                        "defaultValue" : 1.5,
                        "interp" : "eioe"
                      },
                      "sourceCrop0" : {
                        "type" : "double",
                        "defaultValue" : 0.0,
                        "interp" : "eioe"
                      },
                      "sourceCrop1" : {
                        "type" : "double",
                        "defaultValue" : 0.0,
                        "interp" : "eioe"
                      },
                      "sourceCrop2" : {
                        "type" : "double",
                        "defaultValue" : 0.0,
                        "interp" : "eioe"
                      },
                      "sourceCrop3" : {
                        "type" : "double",
                        "defaultValue" : 0.0,
                        "interp" : "eioe"
                      },
                      "geometryCrop0" : {
                        "type" : "double",
                        "defaultValue" : 0.0,
                        "interp" : "eioe"
                      },
                      "geometryCrop1" : {
                        "type" : "double",
                        "defaultValue" : 0.0,
                        "interp" : "eioe"
                      },
                      "geometryCrop2" : {
                        "type" : "double",
                        "defaultValue" : 0.0,
                        "interp" : "eioe"
                      },
                      "geometryCrop3" : {
                        "type" : "double",
                        "defaultValue" : 0.0,
                        "interp" : "eioe"
                      }
                    },
                    "effects" : [

                    ],
                    "start" : 8073,
                    "duration" : 180,
                    "mediaStart" : 0,
                    "mediaDuration" : 1,
                    "scalar" : 1,
                    "metadata" : {
                      "clipSpeedAttribute" : false,
                      "default-scale" : "1",
                      "effectApplied" : "none",
                      "lockAspectRatio" : true
                    },
                    "animationTracks" : {

                    }
                  },
                  {
                    "id" : 211,
                    "_type" : "IMFile",
                    "src" : 74,
                    "trackNumber" : 0,
                    "trimStartSum" : 0,
                    "attributes" : {
                      "ident" : "Pasted Image"
                    },
                    "parameters" : {
                      "translation0" : {
                        "type" : "double",
                        "defaultValue" : -170.0,
                        "interp" : "eioe"
                      },
                      "translation1" : {
                        "type" : "double",
                        "defaultValue" : -5.0,
                        "interp" : "eioe"
                      },
                      "sourceCrop0" : {
                        "type" : "double",
                        "defaultValue" : 0.0,
                        "interp" : "eioe"
                      },
                      "sourceCrop1" : {
                        "type" : "double",
                        "defaultValue" : 0.0,
                        "interp" : "eioe"
                      },
                      "sourceCrop2" : {
                        "type" : "double",
                        "defaultValue" : 0.0,
                        "interp" : "eioe"
                      },
                      "sourceCrop3" : {
                        "type" : "double",
                        "defaultValue" : 0.0,
                        "interp" : "eioe"
                      },
                      "geometryCrop0" : {
                        "type" : "double",
                        "defaultValue" : 0.0,
                        "interp" : "eioe"
                      },
                      "geometryCrop1" : {
                        "type" : "double",
                        "defaultValue" : 0.0,
                        "interp" : "eioe"
                      },
                      "geometryCrop2" : {
                        "type" : "double",
                        "defaultValue" : 0.0,
                        "interp" : "eioe"
                      },
                      "geometryCrop3" : {
                        "type" : "double",
                        "defaultValue" : 0.0,
                        "interp" : "eioe"
                      }
                    },
                    "effects" : [

                    ],
                    "start" : 9518,
                    "duration" : 40,
                    "mediaStart" : 0,
                    "mediaDuration" : 1,
                    "scalar" : 1,
                    "metadata" : {
                      "clipSpeedAttribute" : false,
                      "default-scale" : "1",
                      "effectApplied" : "none",
                      "lockAspectRatio" : true
                    },
                    "animationTracks" : {

                    }
                  }
                ],
                "transitions" : [
                  {
                    "name" : "Fade",
                    "duration" : 30,
                    "rightMedia" : 206,
                    "attributes" : {
                      "bypass" : false,
                      "reverse" : false,
                      "trivial" : false,
                      "useAudioPreRoll" : true,
                      "useVisualPreRoll" : true
                    }

                  },
                  {
                    "name" : "Fade",
                    "duration" : 30,
                    "leftMedia" : 207,
                    "attributes" : {
                      "bypass" : false,
                      "reverse" : false,
                      "trivial" : false,
                      "useAudioPreRoll" : true,
                      "useVisualPreRoll" : true
                    }

                  },
                  {
                    "name" : "Fade",
                    "duration" : 30,
                    "leftMedia" : 208,
                    "attributes" : {
                      "bypass" : false,
                      "reverse" : false,
                      "trivial" : false,
                      "useAudioPreRoll" : true,
                      "useVisualPreRoll" : true
                    }

                  },
                  {
                    "name" : "Fade",
                    "duration" : 30,
                    "rightMedia" : 209,
                    "attributes" : {
                      "bypass" : false,
                      "reverse" : false,
                      "trivial" : false,
                      "useAudioPreRoll" : true,
                      "useVisualPreRoll" : true
                    }

                  },
                  {
                    "name" : "Fade",
                    "duration" : 30,
                    "leftMedia" : 209,
                    "attributes" : {
                      "bypass" : false,
                      "reverse" : false,
                      "trivial" : false,
                      "useAudioPreRoll" : true,
                      "useVisualPreRoll" : true
                    }

                  },
                  {
                    "name" : "Fade",
                    "duration" : 30,
                    "rightMedia" : 210,
                    "attributes" : {
                      "bypass" : false,
                      "reverse" : false,
                      "trivial" : false,
                      "useAudioPreRoll" : true,
                      "useVisualPreRoll" : true
                    }

                  },
                  {
                    "name" : "Fade",
                    "duration" : 30,
                    "leftMedia" : 210,
                    "attributes" : {
                      "bypass" : false,
                      "reverse" : false,
                      "trivial" : false,
                      "useAudioPreRoll" : true,
                      "useVisualPreRoll" : true
                    }

                  },
                  {
                    "name" : "Fade",
                    "duration" : 12,
                    "rightMedia" : 211,
                    "attributes" : {
                      "bypass" : false,
                      "reverse" : false,
                      "trivial" : false,
                      "useAudioPreRoll" : true,
                      "useVisualPreRoll" : true
                    }

                  },
                  {
                    "name" : "Fade",
                    "duration" : 13,
                    "leftMedia" : 211,
                    "attributes" : {
                      "bypass" : false,
                      "reverse" : false,
                      "trivial" : false,
                      "useAudioPreRoll" : true,
                      "useVisualPreRoll" : true
                    }

                  }
                ]
              },
              {
                "trackIndex" : 20,
                "medias" : [
                  {
                    "id" : 212,
                    "_type" : "IMFile",
                    "src" : 15,
                    "trackNumber" : 0,
                    "trimStartSum" : 0,
                    "attributes" : {
                      "ident" : "Pasted Image"
                    },
                    "parameters" : {
                      "translation0" : {
                        "type" : "double",
                        "defaultValue" : 112.0,
                        "keyframes" : [
                          {
                            "endTime" : 209,
                            "time" : 179,
                            "value" : 257.0,
                            "duration" : 30
                          }
                        ]
                      },
                      "translation1" : {
                        "type" : "double",
                        "defaultValue" : -188.0,
                        "keyframes" : [
                          {
                            "endTime" : 209,
                            "time" : 179,
                            "value" : -94.0,
                            "duration" : 30
                          },
                          {
                            "endTime" : 801,
                            "time" : 771,
                            "value" : -225.0,
                            "duration" : 30
                          }
                        ]
                      },
                      "rotation2" : {
                        "type" : "double",
                        "defaultValue" : 0.0,
                        "keyframes" : [
                          {
                            "endTime" : 209,
                            "time" : 179,
                            "value" : 1.5707963267949,
                            "duration" : 30
                          }
                        ]
                      },
                      "scale0" : {
                        "type" : "double",
                        "defaultValue" : 1.0,
                        "keyframes" : [
                          {
                            "endTime" : 209,
                            "time" : 179,
                            "value" : 1.0,
                            "duration" : 30
                          },
                          {
                            "endTime" : 801,
                            "time" : 771,
                            "value" : 0.00395256916996047,
                            "duration" : 30
                          }
                        ]
                      },
                      "scale1" : {
                        "type" : "double",
                        "defaultValue" : 1.0,
                        "keyframes" : [
                          {
                            "endTime" : 209,
                            "time" : 179,
                            "value" : 1.0,
                            "duration" : 30
                          },
                          {
                            "endTime" : 801,
                            "time" : 771,
                            "value" : 1.0,
                            "duration" : 30
                          }
                        ]
                      },
                      "sourceCrop0" : 0.0,
                      "sourceCrop1" : 0.0,
                      "sourceCrop2" : 0.0,
                      "sourceCrop3" : 0.0,
                      "geometryCrop0" : 0.0,
                      "geometryCrop1" : 0.0,
                      "geometryCrop2" : 0.0,
                      "geometryCrop3" : 0.0
                    },
                    "effects" : [

                    ],
                    "start" : 842,
                    "duration" : 1236,
                    "mediaStart" : 0,
                    "mediaDuration" : 1,
                    "scalar" : 1,
                    "metadata" : {
                      "clipSpeedAttribute" : false,
                      "default-scale" : "1",
                      "effectApplied" : "none",
                      "lockAspectRatio" : false
                    },
                    "animationTracks" : {
                      "visual" : [
                        {
                          "endTime" : 209,
                          "duration" : 30,
                          "range" : [ 179, 30]
                        },
                        {
                          "endTime" : 801,
                          "duration" : 30,
                          "range" : [ 771, 30]
                        }
                      ]
                    }
                  },
                  {
                    "id" : 213,
                    "_type" : "IMFile",
                    "src" : 9,
                    "trackNumber" : 0,
                    "trimStartSum" : 0,
                    "attributes" : {
                      "ident" : "Pasted Image"
                    },
                    "parameters" : {
                      "translation0" : {
                        "type" : "double",
                        "defaultValue" : -221.0,
                        "keyframes" : [
                          {
                            "endTime" : 68,
                            "time" : 38,
                            "value" : 112.0,
                            "duration" : 30
                          },
                          {
                            "endTime" : 801,
                            "time" : 771,
                            "value" : -381.0,
                            "duration" : 30
                          }
                        ]
                      },
                      "translation1" : {
                        "type" : "double",
                        "defaultValue" : -243.0,
                        "keyframes" : [
                          {
                            "endTime" : 30,
                            "time" : 0,
                            "value" : -93.0,
                            "duration" : 30
                          },
                          {
                            "endTime" : 68,
                            "time" : 38,
                            "value" : -50.0,
                            "duration" : 30
                          },
                          {
                            "endTime" : 801,
                            "time" : 771,
                            "value" : -225.0,
                            "duration" : 30
                          }
                        ]
                      },
                      "rotation2" : {
                        "type" : "double",
                        "defaultValue" : 1.57079632679489,
                        "keyframes" : [
                          {
                            "endTime" : 68,
                            "time" : 38,
                            "value" : 0.0,
                            "duration" : 30
                          },
                          {
                            "endTime" : 801,
                            "time" : 771,
                            "value" : 1.57079632679489,
                            "duration" : 30
                          }
                        ]
                      },
                      "scale0" : {
                        "type" : "double",
                        "defaultValue" : 0.00396825396825397,
                        "keyframes" : [
                          {
                            "endTime" : 30,
                            "time" : 0,
                            "value" : 1.0,
                            "duration" : 30
                          },
                          {
                            "endTime" : 68,
                            "time" : 38,
                            "value" : 1.0,
                            "duration" : 30
                          },
                          {
                            "endTime" : 801,
                            "time" : 771,
                            "value" : 0.00396825396825397,
                            "duration" : 30
                          }
                        ]
                      },
                      "scale1" : {
                        "type" : "double",
                        "defaultValue" : 0.00396825396825397,
                        "keyframes" : [
                          {
                            "endTime" : 30,
                            "time" : 0,
                            "value" : 1.0,
                            "duration" : 30
                          },
                          {
                            "endTime" : 68,
                            "time" : 38,
                            "value" : 1.0,
                            "duration" : 30
                          }
                        ]
                      },
                      "sourceCrop0" : 0.0,
                      "sourceCrop1" : 0.0,
                      "sourceCrop2" : 0.0,
                      "sourceCrop3" : 0.0,
                      "geometryCrop0" : 0.0,
                      "geometryCrop1" : 0.0,
                      "geometryCrop2" : 0.0,
                      "geometryCrop3" : 0.0
                    },
                    "effects" : [

                    ],
                    "start" : 2714,
                    "duration" : 164,
                    "mediaStart" : 0,
                    "mediaDuration" : 1,
                    "scalar" : 1,
                    "metadata" : {
                      "clipSpeedAttribute" : false,
                      "default-scale" : "1",
                      "effectApplied" : "none",
                      "lockAspectRatio" : true
                    },
                    "animationTracks" : {
                      "visual" : [
                        {
                          "endTime" : 30,
                          "duration" : 30,
                          "range" : [ 0, 30]
                        },
                        {
                          "endTime" : 68,
                          "duration" : 30,
                          "range" : [ 38, 30]
                        },
                        {
                          "endTime" : 801,
                          "duration" : 30,
                          "range" : [ 771, 30]
                        }
                      ]
                    }
                  },
                  {
                    "id" : 214,
                    "_type" : "IMFile",
                    "src" : 50,
                    "trackNumber" : 0,
                    "trimStartSum" : 0,
                    "attributes" : {
                      "ident" : "Pasted Image"
                    },
                    "parameters" : {
                      "translation0" : {
                        "type" : "double",
                        "defaultValue" : -840.0,
                        "interp" : "eioe",
                        "keyframes" : [
                          {
                            "endTime" : 146,
                            "time" : 130,
                            "value" : -76.0,
                            "duration" : 16
                          }
                        ]
                      },
                      "translation1" : {
                        "type" : "double",
                        "defaultValue" : -40.0,
                        "interp" : "eioe",
                        "keyframes" : [
                          {
                            "endTime" : 146,
                            "time" : 130,
                            "value" : -329.0,
                            "duration" : 16
                          },
                          {
                            "endTime" : 429,
                            "time" : 399,
                            "value" : -93.0,
                            "duration" : 30
                          }
                        ]
                      },
                      "scale0" : {
                        "type" : "double",
                        "defaultValue" : 1.5,
                        "interp" : "eioe",
                        "keyframes" : [
                          {
                            "endTime" : 146,
                            "time" : 130,
                            "value" : 1.5,
                            "duration" : 16
                          }
                        ]
                      },
                      "scale1" : {
                        "type" : "double",
                        "defaultValue" : 1.5,
                        "interp" : "eioe",
                        "keyframes" : [
                          {
                            "endTime" : 146,
                            "time" : 130,
                            "value" : 1.5,
                            "duration" : 16
                          }
                        ]
                      },
                      "sourceCrop0" : {
                        "type" : "double",
                        "defaultValue" : 0.0,
                        "interp" : "eioe"
                      },
                      "sourceCrop1" : {
                        "type" : "double",
                        "defaultValue" : 0.0,
                        "interp" : "eioe"
                      },
                      "sourceCrop2" : {
                        "type" : "double",
                        "defaultValue" : 0.0,
                        "interp" : "eioe"
                      },
                      "sourceCrop3" : {
                        "type" : "double",
                        "defaultValue" : 0.0,
                        "interp" : "eioe"
                      },
                      "geometryCrop0" : {
                        "type" : "double",
                        "defaultValue" : 0.0,
                        "interp" : "eioe"
                      },
                      "geometryCrop1" : {
                        "type" : "double",
                        "defaultValue" : 0.0,
                        "interp" : "eioe"
                      },
                      "geometryCrop2" : {
                        "type" : "double",
                        "defaultValue" : 0.0,
                        "interp" : "eioe"
                      },
                      "geometryCrop3" : {
                        "type" : "double",
                        "defaultValue" : 0.0,
                        "interp" : "eioe"
                      }
                    },
                    "effects" : [

                    ],
                    "start" : 4904,
                    "duration" : 465,
                    "mediaStart" : 0,
                    "mediaDuration" : 1,
                    "scalar" : 1,
                    "metadata" : {
                      "clipSpeedAttribute" : false,
                      "default-scale" : "1",
                      "effectApplied" : "none",
                      "lockAspectRatio" : true
                    },
                    "animationTracks" : {
                      "visual" : [
                        {
                          "endTime" : 146,
                          "duration" : 16,
                          "range" : [ 130, 16]
                        },
                        {
                          "endTime" : 429,
                          "duration" : 30,
                          "range" : [ 399, 30]
                        }
                      ]
                    }
                  },
                  {
                    "id" : 215,
                    "_type" : "Callout",
                    "def" : {
                      "kind" : "TypeWinSVG",
                      "shape" : "",
                      "style" : "",
                      "DrawTime" : 1.0,
                      "borderColorBlue" : 0.0,
                      "borderColorGreen" : 1.0,
                      "borderColorRed" : 0.0,
                      "borderWidth" : 3.0,
                      "height" : 281.438741657777,
                      "width" : 393.874114954144,
                      "xmlContent" : "<?xml version=\"1.0\" encoding=\"utf-8\"?>\r\n<!-- Generator: Adobe Illustrator 15.0.2, SVG Export Plug-In . SVG Version: 6.00 Build 0)  -->\r\n<!DOCTYPE svg PUBLIC \"-//W3C//DTD SVG 1.1//EN\" \"http://www.w3.org/Graphics/SVG/1.1/DTD/svg11.dtd\">\r\n<svg version=\"1.1\" id=\"Layer_2\" xmlns=\"http://www.w3.org/2000/svg\" xmlns:xlink=\"http://www.w3.org/1999/xlink\" x=\"0px\" y=\"0px\"\r\n\t width=\"420px\" height=\"420px\" viewBox=\"0 0 420 420\" enable-background=\"new 0 0 420 420\" xml:space=\"preserve\">\r\n<path fill=\"none\" stroke=\"#000000\" stroke-miterlimit=\"10\" d=\"M200.161,69.581c0,0-34.007-4.101-97.206,31.526\r\n\tC12.011,151.033-34.086,275.31,81.937,327.045c70.942,31.605,156.128,30.13,229.878,5.254\r\n\tc52.001-17.164,108.586-56.52,91.95-119.537C370.825,87.977,218.521,59.95,109.522,82.715\"/>\r\n</svg>\r\n"
                    },
                    "attributes" : {
                      "ident" : "",
                      "autoRotateText" : true
                    },
                    "parameters" : {
                      "translation0" : -14.9702044828399,
                      "translation1" : -199.724581123433,
                      "scale0" : 0.488321510210263,
                      "scale1" : 0.488321510210263,
                      "sourceCrop0" : 0.0,
                      "sourceCrop1" : 0.0,
                      "sourceCrop2" : 0.0,
                      "sourceCrop3" : 0.0,
                      "geometryCrop0" : 0.0,
                      "geometryCrop1" : 0.0,
                      "geometryCrop2" : 0.0,
                      "geometryCrop3" : 0.0
                    },
                    "leftEdgeMods" : [
                      {
                        "group" : "DrawPercentageFade",
                        "duration" : 30,
                        "parameters" : [
                          {
                            "name" : "DrawTime",
                              "func" : "FadeInFunc"
                            }
                        ]
                      }
                    ],
                    "effects" : [

                    ],
                    "start" : 7785,
                    "duration" : 161,
                    "mediaStart" : 0,
                    "mediaDuration" : 161,
                    "scalar" : 1,
                    "metadata" : {
                      "clipSpeedAttribute" : false,
                      "default-callout-stroke-color" : "(255,255,0,255)",
                      "default-scale" : "1",
                      "effectApplied" : "none",
                      "lockAspectRatio" : true
                    },
                    "animationTracks" : {

                    }
                  },
                  {
                    "id" : 216,
                    "_type" : "Callout",
                    "def" : {
                      "kind" : "TypeWinSVG",
                      "shape" : "",
                      "style" : "",
                      "DrawTime" : 1.0,
                      "borderColorBlue" : 0.0,
                      "borderColorGreen" : 1.0,
                      "borderColorRed" : 0.0,
                      "borderWidth" : 3.0,
                      "height" : 280.015,
                      "width" : 280.014,
                      "xmlContent" : "<?xml version=\"1.0\" encoding=\"utf-8\"?>\r\n<!-- Generator: Adobe Illustrator 15.0.2, SVG Export Plug-In . SVG Version: 6.00 Build 0)  -->\r\n<!DOCTYPE svg PUBLIC \"-//W3C//DTD SVG 1.1//EN\" \"http://www.w3.org/Graphics/SVG/1.1/DTD/svg11.dtd\">\r\n<svg version=\"1.1\" id=\"Layer_1\" xmlns=\"http://www.w3.org/2000/svg\" xmlns:xlink=\"http://www.w3.org/1999/xlink\" x=\"0px\" y=\"0px\"\r\n\t width=\"420px\" height=\"420px\" viewBox=\"0 0 420 420\" enable-background=\"new 0 0 420 420\" xml:space=\"preserve\">\r\n<path fill=\"none\" stroke=\"#000000\" stroke-miterlimit=\"10\" d=\"M69.993,353.101L350.007,73.086\"/>\r\n</svg>\r\n"
                    },
                    "attributes" : {
                      "ident" : "",
                      "autoRotateText" : true
                    },
                    "parameters" : {
                      "translation0" : 32.6928753378811,
                      "translation1" : -255.911932847248,
                      "rotation2" : -0.785398163397446,
                      "scale0" : 0.740315403272813,
                      "scale1" : 0.740315403272813,
                      "sourceCrop0" : 0.0,
                      "sourceCrop1" : 0.0,
                      "sourceCrop2" : 0.0,
                      "sourceCrop3" : 0.0,
                      "geometryCrop0" : 0.0,
                      "geometryCrop1" : 0.0,
                      "geometryCrop2" : 0.0,
                      "geometryCrop3" : 0.0
                    },
                    "leftEdgeMods" : [
                      {
                        "group" : "DrawPercentageFade",
                        "duration" : 30,
                        "parameters" : [
                          {
                            "name" : "DrawTime",
                              "func" : "FadeInFunc"
                            }
                        ]
                      }
                    ],
                    "effects" : [

                    ],
                    "start" : 8103,
                    "duration" : 150,
                    "mediaStart" : 0,
                    "mediaDuration" : 150,
                    "scalar" : 1,
                    "metadata" : {
                      "clipSpeedAttribute" : false,
                      "default-callout-stroke-color" : "(255,255,0,255)",
                      "default-scale" : "1",
                      "effectApplied" : "none"
                    },
                    "animationTracks" : {

                    }
                  },
                  {
                    "id" : 217,
                    "_type" : "IMFile",
                    "src" : 75,
                    "trackNumber" : 0,
                    "trimStartSum" : 0,
                    "attributes" : {
                      "ident" : "Pasted Image"
                    },
                    "parameters" : {
                      "translation0" : {
                        "type" : "double",
                        "defaultValue" : -166.0,
                        "interp" : "eioe"
                      },
                      "translation1" : {
                        "type" : "double",
                        "defaultValue" : -76.0,
                        "interp" : "eioe"
                      },
                      "sourceCrop0" : {
                        "type" : "double",
                        "defaultValue" : 0.0,
                        "interp" : "eioe"
                      },
                      "sourceCrop1" : {
                        "type" : "double",
                        "defaultValue" : 0.0,
                        "interp" : "eioe"
                      },
                      "sourceCrop2" : {
                        "type" : "double",
                        "defaultValue" : 0.0,
                        "interp" : "eioe"
                      },
                      "sourceCrop3" : {
                        "type" : "double",
                        "defaultValue" : 0.0,
                        "interp" : "eioe"
                      },
                      "geometryCrop0" : {
                        "type" : "double",
                        "defaultValue" : 0.0,
                        "interp" : "eioe"
                      },
                      "geometryCrop1" : {
                        "type" : "double",
                        "defaultValue" : 0.0,
                        "interp" : "eioe"
                      },
                      "geometryCrop2" : {
                        "type" : "double",
                        "defaultValue" : 0.0,
                        "interp" : "eioe"
                      },
                      "geometryCrop3" : {
                        "type" : "double",
                        "defaultValue" : 0.0,
                        "interp" : "eioe"
                      }
                    },
                    "effects" : [

                    ],
                    "start" : 9545,
                    "duration" : 44,
                    "mediaStart" : 0,
                    "mediaDuration" : 1,
                    "scalar" : 1,
                    "metadata" : {
                      "clipSpeedAttribute" : false,
                      "default-scale" : "1",
                      "effectApplied" : "none",
                      "lockAspectRatio" : true
                    },
                    "animationTracks" : {

                    }
                  }
                ],
                "transitions" : [
                  {
                    "name" : "Fade",
                    "duration" : 30,
                    "rightMedia" : 212,
                    "attributes" : {
                      "bypass" : false,
                      "reverse" : false,
                      "trivial" : false,
                      "useAudioPreRoll" : true,
                      "useVisualPreRoll" : true
                    }

                  },
                  {
                    "name" : "Fade",
                    "duration" : 30,
                    "leftMedia" : 213,
                    "attributes" : {
                      "bypass" : false,
                      "reverse" : false,
                      "trivial" : false,
                      "useAudioPreRoll" : true,
                      "useVisualPreRoll" : true
                    }

                  },
                  {
                    "name" : "Fade",
                    "duration" : 30,
                    "leftMedia" : 214,
                    "attributes" : {
                      "bypass" : false,
                      "reverse" : false,
                      "trivial" : false,
                      "useAudioPreRoll" : true,
                      "useVisualPreRoll" : true
                    }

                  },
                  {
                    "name" : "Fade",
                    "duration" : 30,
                    "leftMedia" : 215,
                    "attributes" : {
                      "bypass" : false,
                      "reverse" : false,
                      "trivial" : false,
                      "useAudioPreRoll" : false,
                      "useVisualPreRoll" : true
                    }

                  },
                  {
                    "name" : "Fade",
                    "duration" : 30,
                    "leftMedia" : 216,
                    "attributes" : {
                      "bypass" : false,
                      "reverse" : false,
                      "trivial" : false,
                      "useAudioPreRoll" : false,
                      "useVisualPreRoll" : true
                    }

                  },
                  {
                    "name" : "Fade",
                    "duration" : 12,
                    "rightMedia" : 217,
                    "attributes" : {
                      "bypass" : false,
                      "reverse" : false,
                      "trivial" : false,
                      "useAudioPreRoll" : true,
                      "useVisualPreRoll" : true
                    }

                  },
                  {
                    "name" : "Fade",
                    "duration" : 13,
                    "leftMedia" : 217,
                    "attributes" : {
                      "bypass" : false,
                      "reverse" : false,
                      "trivial" : false,
                      "useAudioPreRoll" : true,
                      "useVisualPreRoll" : true
                    }

                  }
                ]
              },
              {
                "trackIndex" : 21,
                "medias" : [
                  {
                    "id" : 218,
                    "_type" : "IMFile",
                    "src" : 16,
                    "trackNumber" : 0,
                    "trimStartSum" : 0,
                    "attributes" : {
                      "ident" : "Pasted Image"
                    },
                    "parameters" : {
                      "translation0" : -166.222245638279,
                      "translation1" : -294.0,
                      "scale0" : 1.5,
                      "scale1" : 1.5,
                      "sourceCrop0" : 0.0,
                      "sourceCrop1" : 0.0,
                      "sourceCrop2" : 0.0,
                      "sourceCrop3" : 0.0,
                      "geometryCrop0" : 0.0,
                      "geometryCrop1" : 0.0,
                      "geometryCrop2" : 0.0,
                      "geometryCrop3" : 0.0
                    },
                    "effects" : [

                    ],
                    "start" : 989,
                    "duration" : 1404,
                    "mediaStart" : 0,
                    "mediaDuration" : 1,
                    "scalar" : 1,
                    "metadata" : {
                      "clipSpeedAttribute" : false,
                      "default-scale" : "1",
                      "effectApplied" : "none",
                      "lockAspectRatio" : true
                    },
                    "animationTracks" : {

                    }
                  },
                  {
                    "id" : 219,
                    "_type" : "IMFile",
                    "src" : 10,
                    "trackNumber" : 0,
                    "trimStartSum" : 0,
                    "attributes" : {
                      "ident" : "Pasted Image"
                    },
                    "parameters" : {
                      "translation0" : {
                        "type" : "double",
                        "defaultValue" : -194.0,
                        "keyframes" : [
                          {
                            "endTime" : 68,
                            "time" : 38,
                            "value" : 112.0,
                            "duration" : 30
                          },
                          {
                            "endTime" : 801,
                            "time" : 771,
                            "value" : -276.0,
                            "duration" : 30
                          }
                        ]
                      },
                      "translation1" : {
                        "type" : "double",
                        "defaultValue" : -243.0,
                        "keyframes" : [
                          {
                            "endTime" : 30,
                            "time" : 0,
                            "value" : -93.0,
                            "duration" : 30
                          },
                          {
                            "endTime" : 68,
                            "time" : 38,
                            "value" : -73.0,
                            "duration" : 30
                          },
                          {
                            "endTime" : 801,
                            "time" : 771,
                            "value" : -225.0,
                            "duration" : 30
                          }
                        ]
                      },
                      "rotation2" : {
                        "type" : "double",
                        "defaultValue" : 1.5707963267949,
                        "keyframes" : [
                          {
                            "endTime" : 68,
                            "time" : 38,
                            "value" : 0.0,
                            "duration" : 30
                          },
                          {
                            "endTime" : 801,
                            "time" : 771,
                            "value" : 1.5707963267949,
                            "duration" : 30
                          }
                        ]
                      },
                      "scale0" : {
                        "type" : "double",
                        "defaultValue" : 0.00396825396825397,
                        "keyframes" : [
                          {
                            "endTime" : 30,
                            "time" : 0,
                            "value" : 1.0,
                            "duration" : 30
                          },
                          {
                            "endTime" : 68,
                            "time" : 38,
                            "value" : 1.0,
                            "duration" : 30
                          },
                          {
                            "endTime" : 801,
                            "time" : 771,
                            "value" : 0.00396825396825397,
                            "duration" : 30
                          }
                        ]
                      },
                      "scale1" : {
                        "type" : "double",
                        "defaultValue" : 0.00396825396825397,
                        "keyframes" : [
                          {
                            "endTime" : 30,
                            "time" : 0,
                            "value" : 1.0,
                            "duration" : 30
                          },
                          {
                            "endTime" : 68,
                            "time" : 38,
                            "value" : 1.0,
                            "duration" : 30
                          }
                        ]
                      },
                      "sourceCrop0" : 0.0,
                      "sourceCrop1" : 0.0,
                      "sourceCrop2" : 0.0,
                      "sourceCrop3" : 0.0,
                      "geometryCrop0" : 0.0,
                      "geometryCrop1" : 0.0,
                      "geometryCrop2" : 0.0,
                      "geometryCrop3" : 0.0
                    },
                    "effects" : [

                    ],
                    "start" : 2714,
                    "duration" : 164,
                    "mediaStart" : 0,
                    "mediaDuration" : 1,
                    "scalar" : 1,
                    "metadata" : {
                      "clipSpeedAttribute" : false,
                      "default-scale" : "1",
                      "effectApplied" : "none",
                      "lockAspectRatio" : true
                    },
                    "animationTracks" : {
                      "visual" : [
                        {
                          "endTime" : 30,
                          "duration" : 30,
                          "range" : [ 0, 30]
                        },
                        {
                          "endTime" : 68,
                          "duration" : 30,
                          "range" : [ 38, 30]
                        },
                        {
                          "endTime" : 801,
                          "duration" : 30,
                          "range" : [ 771, 30]
                        }
                      ]
                    }
                  },
                  {
                    "id" : 220,
                    "_type" : "IMFile",
                    "src" : 51,
                    "trackNumber" : 0,
                    "trimStartSum" : 0,
                    "attributes" : {
                      "ident" : "Pasted Image"
                    },
                    "parameters" : {
                      "translation0" : {
                        "type" : "double",
                        "defaultValue" : -473.0,
                        "interp" : "eioe"
                      },
                      "translation1" : {
                        "type" : "double",
                        "defaultValue" : -86.0,
                        "interp" : "eioe"
                      },
                      "sourceCrop0" : {
                        "type" : "double",
                        "defaultValue" : 0.0,
                        "interp" : "eioe"
                      },
                      "sourceCrop1" : {
                        "type" : "double",
                        "defaultValue" : 0.0,
                        "interp" : "eioe"
                      },
                      "sourceCrop2" : {
                        "type" : "double",
                        "defaultValue" : 0.0,
                        "interp" : "eioe"
                      },
                      "sourceCrop3" : {
                        "type" : "double",
                        "defaultValue" : 0.0,
                        "interp" : "eioe"
                      },
                      "geometryCrop0" : {
                        "type" : "double",
                        "defaultValue" : 0.0,
                        "interp" : "eioe"
                      },
                      "geometryCrop1" : {
                        "type" : "double",
                        "defaultValue" : 0.0,
                        "interp" : "eioe"
                      },
                      "geometryCrop2" : {
                        "type" : "double",
                        "defaultValue" : 0.0,
                        "interp" : "eioe"
                      },
                      "geometryCrop3" : {
                        "type" : "double",
                        "defaultValue" : 0.0,
                        "interp" : "eioe"
                      }
                    },
                    "effects" : [

                    ],
                    "start" : 5142,
                    "duration" : 161,
                    "mediaStart" : 0,
                    "mediaDuration" : 1,
                    "scalar" : 1,
                    "metadata" : {
                      "clipSpeedAttribute" : false,
                      "default-scale" : "1",
                      "effectApplied" : "none",
                      "lockAspectRatio" : true
                    },
                    "animationTracks" : {

                    }
                  },
                  {
                    "id" : 221,
                    "_type" : "IMFile",
                    "src" : 76,
                    "trackNumber" : 0,
                    "trimStartSum" : 0,
                    "attributes" : {
                      "ident" : "Pasted Image"
                    },
                    "parameters" : {
                      "translation0" : {
                        "type" : "double",
                        "defaultValue" : -128.0,
                        "interp" : "eioe"
                      },
                      "translation1" : {
                        "type" : "double",
                        "defaultValue" : -250.0,
                        "interp" : "eioe"
                      },
                      "sourceCrop0" : {
                        "type" : "double",
                        "defaultValue" : 0.0,
                        "interp" : "eioe"
                      },
                      "sourceCrop1" : {
                        "type" : "double",
                        "defaultValue" : 0.0,
                        "interp" : "eioe"
                      },
                      "sourceCrop2" : {
                        "type" : "double",
                        "defaultValue" : 0.0,
                        "interp" : "eioe"
                      },
                      "sourceCrop3" : {
                        "type" : "double",
                        "defaultValue" : 0.0,
                        "interp" : "eioe"
                      },
                      "geometryCrop0" : {
                        "type" : "double",
                        "defaultValue" : 0.0,
                        "interp" : "eioe"
                      },
                      "geometryCrop1" : {
                        "type" : "double",
                        "defaultValue" : 0.0,
                        "interp" : "eioe"
                      },
                      "geometryCrop2" : {
                        "type" : "double",
                        "defaultValue" : 0.0,
                        "interp" : "eioe"
                      },
                      "geometryCrop3" : {
                        "type" : "double",
                        "defaultValue" : 0.0,
                        "interp" : "eioe"
                      }
                    },
                    "effects" : [

                    ],
                    "start" : 9576,
                    "duration" : 44,
                    "mediaStart" : 0,
                    "mediaDuration" : 1,
                    "scalar" : 1,
                    "metadata" : {
                      "clipSpeedAttribute" : false,
                      "default-scale" : "1",
                      "effectApplied" : "none",
                      "lockAspectRatio" : true
                    },
                    "animationTracks" : {

                    }
                  }
                ],
                "transitions" : [
                  {
                    "name" : "Fade",
                    "duration" : 30,
                    "rightMedia" : 218,
                    "attributes" : {
                      "bypass" : false,
                      "reverse" : false,
                      "trivial" : false,
                      "useAudioPreRoll" : true,
                      "useVisualPreRoll" : true
                    }

                  },
                  {
                    "name" : "Fade",
                    "duration" : 30,
                    "leftMedia" : 218,
                    "attributes" : {
                      "bypass" : false,
                      "reverse" : false,
                      "trivial" : false,
                      "useAudioPreRoll" : true,
                      "useVisualPreRoll" : true
                    }

                  },
                  {
                    "name" : "Fade",
                    "duration" : 30,
                    "leftMedia" : 219,
                    "attributes" : {
                      "bypass" : false,
                      "reverse" : false,
                      "trivial" : false,
                      "useAudioPreRoll" : true,
                      "useVisualPreRoll" : true
                    }

                  },
                  {
                    "name" : "Fade",
                    "duration" : 30,
                    "rightMedia" : 220,
                    "attributes" : {
                      "bypass" : false,
                      "reverse" : false,
                      "trivial" : false,
                      "useAudioPreRoll" : true,
                      "useVisualPreRoll" : true
                    }

                  },
                  {
                    "name" : "Fade",
                    "duration" : 30,
                    "leftMedia" : 220,
                    "attributes" : {
                      "bypass" : false,
                      "reverse" : false,
                      "trivial" : false,
                      "useAudioPreRoll" : true,
                      "useVisualPreRoll" : true
                    }

                  },
                  {
                    "name" : "Fade",
                    "duration" : 12,
                    "rightMedia" : 221,
                    "attributes" : {
                      "bypass" : false,
                      "reverse" : false,
                      "trivial" : false,
                      "useAudioPreRoll" : true,
                      "useVisualPreRoll" : true
                    }

                  },
                  {
                    "name" : "Fade",
                    "duration" : 13,
                    "leftMedia" : 221,
                    "attributes" : {
                      "bypass" : false,
                      "reverse" : false,
                      "trivial" : false,
                      "useAudioPreRoll" : true,
                      "useVisualPreRoll" : true
                    }

                  }
                ]
              },
              {
                "trackIndex" : 22,
                "medias" : [
                  {
                    "id" : 222,
                    "_type" : "IMFile",
                    "src" : 17,
                    "trackNumber" : 0,
                    "trimStartSum" : 0,
                    "attributes" : {
                      "ident" : "Pasted Image"
                    },
                    "parameters" : {
                      "translation0" : -166.0,
                      "translation1" : -327.0,
                      "sourceCrop0" : 0.0,
                      "sourceCrop1" : 0.0,
                      "sourceCrop2" : 0.0,
                      "sourceCrop3" : 0.0,
                      "geometryCrop0" : 0.0,
                      "geometryCrop1" : 0.0,
                      "geometryCrop2" : 0.0,
                      "geometryCrop3" : 0.0
                    },
                    "effects" : [

                    ],
                    "start" : 989,
                    "duration" : 1404,
                    "mediaStart" : 0,
                    "mediaDuration" : 1,
                    "scalar" : 1,
                    "metadata" : {
                      "clipSpeedAttribute" : false,
                      "default-scale" : "1",
                      "effectApplied" : "none",
                      "lockAspectRatio" : true
                    },
                    "animationTracks" : {

                    }
                  },
                  {
                    "id" : 223,
                    "_type" : "IMFile",
                    "src" : 11,
                    "trackNumber" : 0,
                    "trimStartSum" : 0,
                    "attributes" : {
                      "ident" : "Pasted Image"
                    },
                    "parameters" : {
                      "translation0" : {
                        "type" : "double",
                        "defaultValue" : -166.0,
                        "keyframes" : [
                          {
                            "endTime" : 68,
                            "time" : 38,
                            "value" : 112.0,
                            "duration" : 30
                          },
                          {
                            "endTime" : 801,
                            "time" : 771,
                            "value" : -166.0,
                            "duration" : 30
                          }
                        ]
                      },
                      "translation1" : {
                        "type" : "double",
                        "defaultValue" : -243.0,
                        "keyframes" : [
                          {
                            "endTime" : 30,
                            "time" : 0,
                            "value" : -93.0,
                            "duration" : 30
                          },
                          {
                            "endTime" : 68,
                            "time" : 38,
                            "value" : -96.0,
                            "duration" : 30
                          },
                          {
                            "endTime" : 801,
                            "time" : 771,
                            "value" : -225.0,
                            "duration" : 30
                          }
                        ]
                      },
                      "rotation2" : {
                        "type" : "double",
                        "defaultValue" : 1.5707963267949,
                        "keyframes" : [
                          {
                            "endTime" : 68,
                            "time" : 38,
                            "value" : 0.0,
                            "duration" : 30
                          },
                          {
                            "endTime" : 801,
                            "time" : 771,
                            "value" : 1.5707963267949,
                            "duration" : 30
                          }
                        ]
                      },
                      "scale0" : {
                        "type" : "double",
                        "defaultValue" : 0.00395256916996047,
                        "keyframes" : [
                          {
                            "endTime" : 30,
                            "time" : 0,
                            "value" : 1.0,
                            "duration" : 30
                          },
                          {
                            "endTime" : 68,
                            "time" : 38,
                            "value" : 1.0,
                            "duration" : 30
                          },
                          {
                            "endTime" : 801,
                            "time" : 771,
                            "value" : 0.00395256916996047,
                            "duration" : 30
                          }
                        ]
                      },
                      "scale1" : {
                        "type" : "double",
                        "defaultValue" : 0.00395256916996047,
                        "keyframes" : [
                          {
                            "endTime" : 30,
                            "time" : 0,
                            "value" : 1.0,
                            "duration" : 30
                          },
                          {
                            "endTime" : 68,
                            "time" : 38,
                            "value" : 1.0,
                            "duration" : 30
                          }
                        ]
                      },
                      "sourceCrop0" : 0.0,
                      "sourceCrop1" : 0.0,
                      "sourceCrop2" : 0.0,
                      "sourceCrop3" : 0.0,
                      "geometryCrop0" : 0.0,
                      "geometryCrop1" : 0.0,
                      "geometryCrop2" : 0.0,
                      "geometryCrop3" : 0.0
                    },
                    "effects" : [

                    ],
                    "start" : 2714,
                    "duration" : 164,
                    "mediaStart" : 0,
                    "mediaDuration" : 1,
                    "scalar" : 1,
                    "metadata" : {
                      "clipSpeedAttribute" : false,
                      "default-scale" : "1",
                      "effectApplied" : "none",
                      "lockAspectRatio" : true
                    },
                    "animationTracks" : {
                      "visual" : [
                        {
                          "endTime" : 30,
                          "duration" : 30,
                          "range" : [ 0, 30]
                        },
                        {
                          "endTime" : 68,
                          "duration" : 30,
                          "range" : [ 38, 30]
                        },
                        {
                          "endTime" : 801,
                          "duration" : 30,
                          "range" : [ 771, 30]
                        }
                      ]
                    }
                  }
                ],
                "transitions" : [
                  {
                    "name" : "Fade",
                    "duration" : 30,
                    "rightMedia" : 222,
                    "attributes" : {
                      "bypass" : false,
                      "reverse" : false,
                      "trivial" : false,
                      "useAudioPreRoll" : true,
                      "useVisualPreRoll" : true
                    }

                  },
                  {
                    "name" : "Fade",
                    "duration" : 30,
                    "leftMedia" : 222,
                    "attributes" : {
                      "bypass" : false,
                      "reverse" : false,
                      "trivial" : false,
                      "useAudioPreRoll" : true,
                      "useVisualPreRoll" : true
                    }

                  },
                  {
                    "name" : "Fade",
                    "duration" : 30,
                    "leftMedia" : 223,
                    "attributes" : {
                      "bypass" : false,
                      "reverse" : false,
                      "trivial" : false,
                      "useAudioPreRoll" : true,
                      "useVisualPreRoll" : true
                    }

                  }
                ]
              },
              {
                "trackIndex" : 23,
                "medias" : [
                  {
                    "id" : 224,
                    "_type" : "IMFile",
                    "src" : 20,
                    "trackNumber" : 0,
                    "trimStartSum" : 0,
                    "attributes" : {
                      "ident" : "Pasted Image"
                    },
                    "parameters" : {
                      "translation0" : 157.0,
                      "translation1" : {
                        "type" : "double",
                        "defaultValue" : 76.0,
                        "keyframes" : [
                          {
                            "endTime" : 467,
                            "time" : 437,
                            "value" : -163.0,
                            "duration" : 30
                          }
                        ]
                      },
                      "sourceCrop0" : 0.0,
                      "sourceCrop1" : 0.0,
                      "sourceCrop2" : 0.0,
                      "sourceCrop3" : 0.0,
                      "geometryCrop0" : 0.0,
                      "geometryCrop1" : 0.0,
                      "geometryCrop2" : 0.0,
                      "geometryCrop3" : 0.0
                    },
                    "effects" : [

                    ],
                    "start" : 1176,
                    "duration" : 1217,
                    "mediaStart" : 0,
                    "mediaDuration" : 1,
                    "scalar" : 1,
                    "metadata" : {
                      "clipSpeedAttribute" : false,
                      "default-scale" : "1",
                      "effectApplied" : "none",
                      "lockAspectRatio" : true
                    },
                    "animationTracks" : {
                      "visual" : [
                        {
                          "endTime" : 467,
                          "duration" : 30,
                          "range" : [ 437, 30]
                        }
                      ]
                    }
                  },
                  {
                    "id" : 225,
                    "_type" : "IMFile",
                    "src" : 12,
                    "trackNumber" : 0,
                    "trimStartSum" : 0,
                    "attributes" : {
                      "ident" : "Pasted Image"
                    },
                    "parameters" : {
                      "translation0" : {
                        "type" : "double",
                        "defaultValue" : -138.0,
                        "keyframes" : [
                          {
                            "endTime" : 68,
                            "time" : 38,
                            "value" : 112.0,
                            "duration" : 30
                          },
                          {
                            "endTime" : 801,
                            "time" : 771,
                            "value" : -50.0,
                            "duration" : 30
                          }
                        ]
                      },
                      "translation1" : {
                        "type" : "double",
                        "defaultValue" : -243.0,
                        "keyframes" : [
                          {
                            "endTime" : 30,
                            "time" : 0,
                            "value" : -93.0,
                            "duration" : 30
                          },
                          {
                            "endTime" : 68,
                            "time" : 38,
                            "value" : -119.0,
                            "duration" : 30
                          },
                          {
                            "endTime" : 801,
                            "time" : 771,
                            "value" : -225.0,
                            "duration" : 30
                          }
                        ]
                      },
                      "rotation2" : {
                        "type" : "double",
                        "defaultValue" : 1.5707963267949,
                        "keyframes" : [
                          {
                            "endTime" : 68,
                            "time" : 38,
                            "value" : 0.0,
                            "duration" : 30
                          },
                          {
                            "endTime" : 801,
                            "time" : 771,
                            "value" : 1.5707963267949,
                            "duration" : 30
                          }
                        ]
                      },
                      "scale0" : {
                        "type" : "double",
                        "defaultValue" : 0.00395256916996047,
                        "keyframes" : [
                          {
                            "endTime" : 30,
                            "time" : 0,
                            "value" : 1.0,
                            "duration" : 30
                          },
                          {
                            "endTime" : 68,
                            "time" : 38,
                            "value" : 1.0,
                            "duration" : 30
                          },
                          {
                            "endTime" : 801,
                            "time" : 771,
                            "value" : 0.00395256916996047,
                            "duration" : 30
                          }
                        ]
                      },
                      "scale1" : {
                        "type" : "double",
                        "defaultValue" : 0.00395256916996047,
                        "keyframes" : [
                          {
                            "endTime" : 30,
                            "time" : 0,
                            "value" : 1.0,
                            "duration" : 30
                          },
                          {
                            "endTime" : 68,
                            "time" : 38,
                            "value" : 1.0,
                            "duration" : 30
                          }
                        ]
                      },
                      "sourceCrop0" : 0.0,
                      "sourceCrop1" : 0.0,
                      "sourceCrop2" : 0.0,
                      "sourceCrop3" : 0.0,
                      "geometryCrop0" : 0.0,
                      "geometryCrop1" : 0.0,
                      "geometryCrop2" : 0.0,
                      "geometryCrop3" : 0.0
                    },
                    "effects" : [

                    ],
                    "start" : 2714,
                    "duration" : 164,
                    "mediaStart" : 0,
                    "mediaDuration" : 1,
                    "scalar" : 1,
                    "metadata" : {
                      "clipSpeedAttribute" : false,
                      "default-scale" : "1",
                      "effectApplied" : "none",
                      "lockAspectRatio" : true
                    },
                    "animationTracks" : {
                      "visual" : [
                        {
                          "endTime" : 30,
                          "duration" : 30,
                          "range" : [ 0, 30]
                        },
                        {
                          "endTime" : 68,
                          "duration" : 30,
                          "range" : [ 38, 30]
                        },
                        {
                          "endTime" : 801,
                          "duration" : 30,
                          "range" : [ 771, 30]
                        }
                      ]
                    }
                  }
                ],
                "transitions" : [
                  {
                    "name" : "Fade",
                    "duration" : 30,
                    "rightMedia" : 224,
                    "attributes" : {
                      "bypass" : false,
                      "reverse" : false,
                      "trivial" : false,
                      "useAudioPreRoll" : true,
                      "useVisualPreRoll" : true
                    }

                  },
                  {
                    "name" : "Fade",
                    "duration" : 30,
                    "leftMedia" : 224,
                    "attributes" : {
                      "bypass" : false,
                      "reverse" : false,
                      "trivial" : false,
                      "useAudioPreRoll" : true,
                      "useVisualPreRoll" : true
                    }

                  },
                  {
                    "name" : "Fade",
                    "duration" : 30,
                    "leftMedia" : 225,
                    "attributes" : {
                      "bypass" : false,
                      "reverse" : false,
                      "trivial" : false,
                      "useAudioPreRoll" : true,
                      "useVisualPreRoll" : true
                    }

                  }
                ]
              },
              {
                "trackIndex" : 24,
                "medias" : [
                  {
                    "id" : 226,
                    "_type" : "IMFile",
                    "src" : 21,
                    "trackNumber" : 0,
                    "trimStartSum" : 0,
                    "attributes" : {
                      "ident" : "Pasted Image"
                    },
                    "parameters" : {
                      "translation0" : {
                        "type" : "double",
                        "defaultValue" : -309.0,
                        "keyframes" : [
                          {
                            "endTime" : 467,
                            "time" : 437,
                            "value" : -315.0,
                            "duration" : 30
                          }
                        ]
                      },
                      "translation1" : {
                        "type" : "double",
                        "defaultValue" : 76.0,
                        "keyframes" : [
                          {
                            "endTime" : 467,
                            "time" : 437,
                            "value" : -163.0,
                            "duration" : 30
                          }
                        ]
                      },
                      "sourceCrop0" : 0.0,
                      "sourceCrop1" : 0.0,
                      "sourceCrop2" : 0.0,
                      "sourceCrop3" : 0.0,
                      "geometryCrop0" : 0.0,
                      "geometryCrop1" : 0.0,
                      "geometryCrop2" : 0.0,
                      "geometryCrop3" : 0.0
                    },
                    "effects" : [

                    ],
                    "start" : 1176,
                    "duration" : 1217,
                    "mediaStart" : 0,
                    "mediaDuration" : 1,
                    "scalar" : 1,
                    "metadata" : {
                      "clipSpeedAttribute" : false,
                      "default-scale" : "1",
                      "effectApplied" : "none",
                      "lockAspectRatio" : true
                    },
                    "animationTracks" : {
                      "visual" : [
                        {
                          "endTime" : 467,
                          "duration" : 30,
                          "range" : [ 437, 30]
                        }
                      ]
                    }
                  },
                  {
                    "id" : 227,
                    "_type" : "IMFile",
                    "src" : 25,
                    "trackNumber" : 0,
                    "trimStartSum" : 0,
                    "attributes" : {
                      "ident" : "Pasted Image"
                    },
                    "parameters" : {
                      "translation0" : -166.0,
                      "translation1" : -76.0,
                      "sourceCrop0" : 0.0,
                      "sourceCrop1" : 0.0,
                      "sourceCrop2" : 0.0,
                      "sourceCrop3" : 0.0,
                      "geometryCrop0" : 0.0,
                      "geometryCrop1" : 0.0,
                      "geometryCrop2" : 0.0,
                      "geometryCrop3" : 0.0
                    },
                    "effects" : [

                    ],
                    "start" : 2395,
                    "duration" : 150,
                    "mediaStart" : 0,
                    "mediaDuration" : 1,
                    "scalar" : 1,
                    "metadata" : {
                      "clipSpeedAttribute" : false,
                      "default-scale" : "1",
                      "effectApplied" : "none",
                      "lockAspectRatio" : true
                    },
                    "animationTracks" : {

                    }
                  },
                  {
                    "id" : 228,
                    "_type" : "IMFile",
                    "src" : 13,
                    "trackNumber" : 0,
                    "trimStartSum" : 0,
                    "attributes" : {
                      "ident" : "Pasted Image"
                    },
                    "parameters" : {
                      "translation0" : {
                        "type" : "double",
                        "defaultValue" : -111.0,
                        "keyframes" : [
                          {
                            "endTime" : 68,
                            "time" : 38,
                            "value" : 112.0,
                            "duration" : 30
                          },
                          {
                            "endTime" : 801,
                            "time" : 771,
                            "value" : 47.0,
                            "duration" : 30
                          }
                        ]
                      },
                      "translation1" : {
                        "type" : "double",
                        "defaultValue" : -243.0,
                        "keyframes" : [
                          {
                            "endTime" : 30,
                            "time" : 0,
                            "value" : -93.0,
                            "duration" : 30
                          },
                          {
                            "endTime" : 68,
                            "time" : 38,
                            "value" : -142.0,
                            "duration" : 30
                          },
                          {
                            "endTime" : 801,
                            "time" : 771,
                            "value" : -225.0,
                            "duration" : 30
                          }
                        ]
                      },
                      "rotation2" : {
                        "type" : "double",
                        "defaultValue" : 1.5707963267949,
                        "keyframes" : [
                          {
                            "endTime" : 68,
                            "time" : 38,
                            "value" : 0.0,
                            "duration" : 30
                          },
                          {
                            "endTime" : 801,
                            "time" : 771,
                            "value" : 1.5707963267949,
                            "duration" : 30
                          }
                        ]
                      },
                      "scale0" : {
                        "type" : "double",
                        "defaultValue" : 0.00396825396825397,
                        "keyframes" : [
                          {
                            "endTime" : 30,
                            "time" : 0,
                            "value" : 1.0,
                            "duration" : 30
                          },
                          {
                            "endTime" : 68,
                            "time" : 38,
                            "value" : 1.0,
                            "duration" : 30
                          },
                          {
                            "endTime" : 801,
                            "time" : 771,
                            "value" : 0.00396825396825397,
                            "duration" : 30
                          }
                        ]
                      },
                      "scale1" : {
                        "type" : "double",
                        "defaultValue" : 0.00396825396825397,
                        "keyframes" : [
                          {
                            "endTime" : 30,
                            "time" : 0,
                            "value" : 1.0,
                            "duration" : 30
                          },
                          {
                            "endTime" : 68,
                            "time" : 38,
                            "value" : 1.0,
                            "duration" : 30
                          }
                        ]
                      },
                      "sourceCrop0" : 0.0,
                      "sourceCrop1" : 0.0,
                      "sourceCrop2" : 0.0,
                      "sourceCrop3" : 0.0,
                      "geometryCrop0" : 0.0,
                      "geometryCrop1" : 0.0,
                      "geometryCrop2" : 0.0,
                      "geometryCrop3" : 0.0
                    },
                    "effects" : [

                    ],
                    "start" : 2714,
                    "duration" : 164,
                    "mediaStart" : 0,
                    "mediaDuration" : 1,
                    "scalar" : 1,
                    "metadata" : {
                      "clipSpeedAttribute" : false,
                      "default-scale" : "1",
                      "effectApplied" : "none",
                      "lockAspectRatio" : true
                    },
                    "animationTracks" : {
                      "visual" : [
                        {
                          "endTime" : 30,
                          "duration" : 30,
                          "range" : [ 0, 30]
                        },
                        {
                          "endTime" : 68,
                          "duration" : 30,
                          "range" : [ 38, 30]
                        },
                        {
                          "endTime" : 801,
                          "duration" : 30,
                          "range" : [ 771, 30]
                        }
                      ]
                    }
                  }
                ],
                "transitions" : [
                  {
                    "name" : "Fade",
                    "duration" : 30,
                    "rightMedia" : 226,
                    "attributes" : {
                      "bypass" : false,
                      "reverse" : false,
                      "trivial" : false,
                      "useAudioPreRoll" : true,
                      "useVisualPreRoll" : true
                    }

                  },
                  {
                    "name" : "Fade",
                    "duration" : 30,
                    "leftMedia" : 226,
                    "attributes" : {
                      "bypass" : false,
                      "reverse" : false,
                      "trivial" : false,
                      "useAudioPreRoll" : true,
                      "useVisualPreRoll" : true
                    }

                  },
                  {
                    "name" : "Fade",
                    "duration" : 30,
                    "rightMedia" : 227,
                    "attributes" : {
                      "bypass" : false,
                      "reverse" : false,
                      "trivial" : false,
                      "useAudioPreRoll" : true,
                      "useVisualPreRoll" : true
                    }

                  },
                  {
                    "name" : "Fade",
                    "duration" : 30,
                    "leftMedia" : 227,
                    "attributes" : {
                      "bypass" : false,
                      "reverse" : false,
                      "trivial" : false,
                      "useAudioPreRoll" : true,
                      "useVisualPreRoll" : true
                    }

                  },
                  {
                    "name" : "Fade",
                    "duration" : 30,
                    "leftMedia" : 228,
                    "attributes" : {
                      "bypass" : false,
                      "reverse" : false,
                      "trivial" : false,
                      "useAudioPreRoll" : true,
                      "useVisualPreRoll" : true
                    }

                  }
                ]
              },
              {
                "trackIndex" : 25,
                "medias" : [
                  {
                    "id" : 229,
                    "_type" : "IMFile",
                    "src" : 22,
                    "trackNumber" : 0,
                    "trimStartSum" : 0,
                    "attributes" : {
                      "ident" : "Pasted Image"
                    },
                    "parameters" : {
                      "translation0" : 472.0,
                      "translation1" : 60.0,
                      "sourceCrop0" : 0.0,
                      "sourceCrop1" : 0.0,
                      "sourceCrop2" : 0.0,
                      "sourceCrop3" : 0.0,
                      "geometryCrop0" : 0.0,
                      "geometryCrop1" : 0.0,
                      "geometryCrop2" : 0.0,
                      "geometryCrop3" : 0.0
                    },
                    "effects" : [

                    ],
                    "start" : 1327,
                    "duration" : 172,
                    "mediaStart" : 0,
                    "mediaDuration" : 1,
                    "scalar" : 1,
                    "metadata" : {
                      "clipSpeedAttribute" : false,
                      "default-scale" : "1",
                      "effectApplied" : "none",
                      "lockAspectRatio" : true
                    },
                    "animationTracks" : {

                    }
                  },
                  {
                    "id" : 230,
                    "_type" : "IMFile",
                    "src" : 23,
                    "trackNumber" : 0,
                    "trimStartSum" : 0,
                    "attributes" : {
                      "ident" : "Pasted Image"
                    },
                    "parameters" : {
                      "translation0" : -165.399294782006,
                      "translation1" : -244.0,
                      "scale0" : 0.574640742205252,
                      "scale1" : 0.574640742205252,
                      "sourceCrop0" : 0.0,
                      "sourceCrop1" : 0.0,
                      "sourceCrop2" : 0.0,
                      "sourceCrop3" : 0.0,
                      "geometryCrop0" : 0.0,
                      "geometryCrop1" : 0.0,
                      "geometryCrop2" : 0.0,
                      "geometryCrop3" : 0.0
                    },
                    "effects" : [

                    ],
                    "start" : 1570,
                    "duration" : 823,
                    "mediaStart" : 0,
                    "mediaDuration" : 1,
                    "scalar" : 1,
                    "metadata" : {
                      "clipSpeedAttribute" : false,
                      "default-scale" : "0.815287",
                      "effectApplied" : "none",
                      "lockAspectRatio" : true
                    },
                    "animationTracks" : {

                    }
                  },
                  {
                    "id" : 231,
                    "_type" : "IMFile",
                    "src" : 14,
                    "trackNumber" : 0,
                    "trimStartSum" : 0,
                    "attributes" : {
                      "ident" : "Pasted Image"
                    },
                    "parameters" : {
                      "translation0" : {
                        "type" : "double",
                        "defaultValue" : -85.0,
                        "keyframes" : [
                          {
                            "endTime" : 68,
                            "time" : 38,
                            "value" : 112.0,
                            "duration" : 30
                          },
                          {
                            "endTime" : 801,
                            "time" : 771,
                            "value" : 157.0,
                            "duration" : 30
                          }
                        ]
                      },
                      "translation1" : {
                        "type" : "double",
                        "defaultValue" : -243.0,
                        "keyframes" : [
                          {
                            "endTime" : 30,
                            "time" : 0,
                            "value" : -93.0,
                            "duration" : 30
                          },
                          {
                            "endTime" : 68,
                            "time" : 38,
                            "value" : -165.0,
                            "duration" : 30
                          },
                          {
                            "endTime" : 801,
                            "time" : 771,
                            "value" : -225.0,
                            "duration" : 30
                          }
                        ]
                      },
                      "rotation2" : {
                        "type" : "double",
                        "defaultValue" : 1.5707963267949,
                        "keyframes" : [
                          {
                            "endTime" : 68,
                            "time" : 38,
                            "value" : 0.0,
                            "duration" : 30
                          },
                          {
                            "endTime" : 801,
                            "time" : 771,
                            "value" : 1.5707963267949,
                            "duration" : 30
                          }
                        ]
                      },
                      "scale0" : {
                        "type" : "double",
                        "defaultValue" : 0.00396825396825397,
                        "keyframes" : [
                          {
                            "endTime" : 30,
                            "time" : 0,
                            "value" : 1.0,
                            "duration" : 30
                          },
                          {
                            "endTime" : 68,
                            "time" : 38,
                            "value" : 1.0,
                            "duration" : 30
                          },
                          {
                            "endTime" : 801,
                            "time" : 771,
                            "value" : 0.00396825396825397,
                            "duration" : 30
                          }
                        ]
                      },
                      "scale1" : {
                        "type" : "double",
                        "defaultValue" : 0.00396825396825397,
                        "keyframes" : [
                          {
                            "endTime" : 30,
                            "time" : 0,
                            "value" : 1.0,
                            "duration" : 30
                          },
                          {
                            "endTime" : 68,
                            "time" : 38,
                            "value" : 1.0,
                            "duration" : 30
                          },
                          {
                            "endTime" : 801,
                            "time" : 771,
                            "value" : 1.0,
                            "duration" : 30
                          }
                        ]
                      },
                      "sourceCrop0" : 0.0,
                      "sourceCrop1" : 0.0,
                      "sourceCrop2" : 0.0,
                      "sourceCrop3" : 0.0,
                      "geometryCrop0" : 0.0,
                      "geometryCrop1" : 0.0,
                      "geometryCrop2" : 0.0,
                      "geometryCrop3" : 0.0
                    },
                    "effects" : [

                    ],
                    "start" : 2714,
                    "duration" : 164,
                    "mediaStart" : 0,
                    "mediaDuration" : 1,
                    "scalar" : 1,
                    "metadata" : {
                      "clipSpeedAttribute" : false,
                      "default-scale" : "1",
                      "effectApplied" : "none",
                      "lockAspectRatio" : true
                    },
                    "animationTracks" : {
                      "visual" : [
                        {
                          "endTime" : 30,
                          "duration" : 30,
                          "range" : [ 0, 30]
                        },
                        {
                          "endTime" : 68,
                          "duration" : 30,
                          "range" : [ 38, 30]
                        },
                        {
                          "endTime" : 801,
                          "duration" : 30,
                          "range" : [ 771, 30]
                        }
                      ]
                    }
                  }
                ],
                "transitions" : [
                  {
                    "name" : "Fade",
                    "duration" : 30,
                    "rightMedia" : 229,
                    "attributes" : {
                      "bypass" : false,
                      "reverse" : false,
                      "trivial" : false,
                      "useAudioPreRoll" : true,
                      "useVisualPreRoll" : true
                    }

                  },
                  {
                    "name" : "Fade",
                    "duration" : 30,
                    "leftMedia" : 229,
                    "attributes" : {
                      "bypass" : false,
                      "reverse" : false,
                      "trivial" : false,
                      "useAudioPreRoll" : true,
                      "useVisualPreRoll" : true
                    }

                  },
                  {
                    "name" : "Fade",
                    "duration" : 30,
                    "rightMedia" : 230,
                    "attributes" : {
                      "bypass" : false,
                      "reverse" : false,
                      "trivial" : false,
                      "useAudioPreRoll" : true,
                      "useVisualPreRoll" : true
                    }

                  },
                  {
                    "name" : "Fade",
                    "duration" : 30,
                    "leftMedia" : 230,
                    "attributes" : {
                      "bypass" : false,
                      "reverse" : false,
                      "trivial" : false,
                      "useAudioPreRoll" : true,
                      "useVisualPreRoll" : true
                    }

                  },
                  {
                    "name" : "Fade",
                    "duration" : 30,
                    "leftMedia" : 231,
                    "attributes" : {
                      "bypass" : false,
                      "reverse" : false,
                      "trivial" : false,
                      "useAudioPreRoll" : true,
                      "useVisualPreRoll" : true
                    }

                  }
                ]
              },
              {
                "trackIndex" : 26,
                "medias" : [
                  {
                    "id" : 232,
                    "_type" : "Callout",
                    "def" : {
                      "kind" : "TypeWinSVG",
                      "shape" : "",
                      "style" : "",
                      "DrawTime" : 1.0,
                      "borderColorBlue" : 0.0,
                      "borderColorGreen" : 1.0,
                      "borderColorRed" : 0.0,
                      "borderWidth" : 5.0,
                      "height" : 281.438741657777,
                      "width" : 393.874114954144,
                      "xmlContent" : "<?xml version=\"1.0\" encoding=\"utf-8\"?>\r\n<!-- Generator: Adobe Illustrator 15.0.2, SVG Export Plug-In . SVG Version: 6.00 Build 0)  -->\r\n<!DOCTYPE svg PUBLIC \"-//W3C//DTD SVG 1.1//EN\" \"http://www.w3.org/Graphics/SVG/1.1/DTD/svg11.dtd\">\r\n<svg version=\"1.1\" id=\"Layer_2\" xmlns=\"http://www.w3.org/2000/svg\" xmlns:xlink=\"http://www.w3.org/1999/xlink\" x=\"0px\" y=\"0px\"\r\n\t width=\"420px\" height=\"420px\" viewBox=\"0 0 420 420\" enable-background=\"new 0 0 420 420\" xml:space=\"preserve\">\r\n<path fill=\"none\" stroke=\"#000000\" stroke-miterlimit=\"10\" d=\"M200.161,69.581c0,0-34.007-4.101-97.206,31.526\r\n\tC12.011,151.033-34.086,275.31,81.937,327.045c70.942,31.605,156.128,30.13,229.878,5.254\r\n\tc52.001-17.164,108.586-56.52,91.95-119.537C370.825,87.977,218.521,59.95,109.522,82.715\"/>\r\n</svg>\r\n"
                    },
                    "attributes" : {
                      "ident" : "",
                      "autoRotateText" : true
                    },
                    "parameters" : {
                      "translation0" : 564.225480994674,
                      "translation1" : 75.4109936675043,
                      "scale0" : 0.246157065562695,
                      "scale1" : 0.246157065562695,
                      "sourceCrop0" : 0.0,
                      "sourceCrop1" : 0.0,
                      "sourceCrop2" : 0.0,
                      "sourceCrop3" : 0.0,
                      "geometryCrop0" : 0.0,
                      "geometryCrop1" : 0.0,
                      "geometryCrop2" : 0.0,
                      "geometryCrop3" : 0.0
                    },
                    "leftEdgeMods" : [
                      {
                        "group" : "DrawPercentageFade",
                        "duration" : 30,
                        "parameters" : [
                          {
                            "name" : "DrawTime",
                              "func" : "FadeInFunc"
                            }
                        ]
                      }
                    ],
                    "effects" : [

                    ],
                    "start" : 1357,
                    "duration" : 91,
                    "mediaStart" : 0,
                    "mediaDuration" : 91,
                    "scalar" : 1,
                    "metadata" : {
                      "clipSpeedAttribute" : false,
                      "default-callout-stroke-color" : "(255,255,0,255)",
                      "default-callout-stroke-width" : "3",
                      "default-scale" : "1",
                      "effectApplied" : "none",
                      "lockAspectRatio" : true
                    },
                    "animationTracks" : {

                    }
                  },
                  {
                    "id" : 233,
                    "_type" : "IMFile",
                    "src" : 27,
                    "trackNumber" : 0,
                    "trimStartSum" : 0,
                    "attributes" : {
                      "ident" : "Pasted Image"
                    },
                    "parameters" : {
                      "translation0" : -539.0,
                      "translation1" : -244.0,
                      "sourceCrop0" : 0.0,
                      "sourceCrop1" : 0.0,
                      "sourceCrop2" : 0.0,
                      "sourceCrop3" : 0.0,
                      "geometryCrop0" : 0.0,
                      "geometryCrop1" : 0.0,
                      "geometryCrop2" : 0.0,
                      "geometryCrop3" : 0.0
                    },
                    "effects" : [

                    ],
                    "start" : 2363,
                    "duration" : 30,
                    "mediaStart" : 0,
                    "mediaDuration" : 1,
                    "scalar" : 1,
                    "metadata" : {
                      "clipSpeedAttribute" : false,
                      "default-scale" : "1",
                      "effectApplied" : "none",
                      "lockAspectRatio" : true
                    },
                    "animationTracks" : {

                    }
                  },
                  {
                    "id" : 234,
                    "_type" : "IMFile",
                    "src" : 15,
                    "trackNumber" : 0,
                    "trimStartSum" : 0,
                    "attributes" : {
                      "ident" : "Pasted Image"
                    },
                    "parameters" : {
                      "translation0" : {
                        "type" : "double",
                        "defaultValue" : -58.0,
                        "keyframes" : [
                          {
                            "endTime" : 68,
                            "time" : 38,
                            "value" : 112.0,
                            "duration" : 30
                          },
                          {
                            "endTime" : 801,
                            "time" : 771,
                            "value" : 257.0,
                            "duration" : 30
                          }
                        ]
                      },
                      "translation1" : {
                        "type" : "double",
                        "defaultValue" : -243.0,
                        "keyframes" : [
                          {
                            "endTime" : 30,
                            "time" : 0,
                            "value" : -93.0,
                            "duration" : 30
                          },
                          {
                            "endTime" : 68,
                            "time" : 38,
                            "value" : -188.0,
                            "duration" : 30
                          },
                          {
                            "endTime" : 801,
                            "time" : 771,
                            "value" : -225.0,
                            "duration" : 30
                          }
                        ]
                      },
                      "rotation2" : {
                        "type" : "double",
                        "defaultValue" : 1.5707963267949,
                        "keyframes" : [
                          {
                            "endTime" : 68,
                            "time" : 38,
                            "value" : 0.0,
                            "duration" : 30
                          },
                          {
                            "endTime" : 801,
                            "time" : 771,
                            "value" : 1.5707963267949,
                            "duration" : 30
                          }
                        ]
                      },
                      "scale0" : {
                        "type" : "double",
                        "defaultValue" : 0.00395256916996047,
                        "keyframes" : [
                          {
                            "endTime" : 30,
                            "time" : 0,
                            "value" : 1.0,
                            "duration" : 30
                          },
                          {
                            "endTime" : 68,
                            "time" : 38,
                            "value" : 1.0,
                            "duration" : 30
                          },
                          {
                            "endTime" : 801,
                            "time" : 771,
                            "value" : 0.00395256916996047,
                            "duration" : 30
                          }
                        ]
                      },
                      "scale1" : {
                        "type" : "double",
                        "defaultValue" : 0.00395256916996047,
                        "keyframes" : [
                          {
                            "endTime" : 30,
                            "time" : 0,
                            "value" : 1.0,
                            "duration" : 30
                          },
                          {
                            "endTime" : 68,
                            "time" : 38,
                            "value" : 1.0,
                            "duration" : 30
                          },
                          {
                            "endTime" : 801,
                            "time" : 771,
                            "value" : 1.0,
                            "duration" : 30
                          }
                        ]
                      },
                      "sourceCrop0" : 0.0,
                      "sourceCrop1" : 0.0,
                      "sourceCrop2" : 0.0,
                      "sourceCrop3" : 0.0,
                      "geometryCrop0" : 0.0,
                      "geometryCrop1" : 0.0,
                      "geometryCrop2" : 0.0,
                      "geometryCrop3" : 0.0
                    },
                    "effects" : [

                    ],
                    "start" : 2714,
                    "duration" : 164,
                    "mediaStart" : 0,
                    "mediaDuration" : 1,
                    "scalar" : 1,
                    "metadata" : {
                      "clipSpeedAttribute" : false,
                      "default-scale" : "1",
                      "effectApplied" : "none",
                      "lockAspectRatio" : true
                    },
                    "animationTracks" : {
                      "visual" : [
                        {
                          "endTime" : 30,
                          "duration" : 30,
                          "range" : [ 0, 30]
                        },
                        {
                          "endTime" : 68,
                          "duration" : 30,
                          "range" : [ 38, 30]
                        },
                        {
                          "endTime" : 801,
                          "duration" : 30,
                          "range" : [ 771, 30]
                        }
                      ]
                    }
                  }
                ],
                "transitions" : [
                  {
                    "name" : "Fade",
                    "duration" : 30,
                    "leftMedia" : 232,
                    "attributes" : {
                      "bypass" : false,
                      "reverse" : false,
                      "trivial" : false,
                      "useAudioPreRoll" : false,
                      "useVisualPreRoll" : true
                    }

                  },
                  {
                    "name" : "Fade",
                    "duration" : 30,
                    "rightMedia" : 233,
                    "attributes" : {
                      "bypass" : false,
                      "reverse" : false,
                      "trivial" : false,
                      "useAudioPreRoll" : true,
                      "useVisualPreRoll" : true
                    }

                  },
                  {
                    "name" : "Fade",
                    "duration" : 30,
                    "leftMedia" : 234,
                    "attributes" : {
                      "bypass" : false,
                      "reverse" : false,
                      "trivial" : false,
                      "useAudioPreRoll" : true,
                      "useVisualPreRoll" : true
                    }

                  }
                ]
              },
              {
                "trackIndex" : 27,
                "medias" : [
                  {
                    "id" : 235,
                    "_type" : "IMFile",
                    "src" : 27,
                    "trackNumber" : 0,
                    "trimStartSum" : 0,
                    "attributes" : {
                      "ident" : "Pasted Image"
                    },
                    "parameters" : {
                      "translation0" : -352.0,
                      "translation1" : -243.0,
                      "sourceCrop0" : 0.0,
                      "sourceCrop1" : 0.0,
                      "sourceCrop2" : 0.0,
                      "sourceCrop3" : 0.0,
                      "geometryCrop0" : 0.0,
                      "geometryCrop1" : 0.0,
                      "geometryCrop2" : 0.0,
                      "geometryCrop3" : 0.0
                    },
                    "effects" : [

                    ],
                    "start" : 2363,
                    "duration" : 30,
                    "mediaStart" : 0,
                    "mediaDuration" : 1,
                    "scalar" : 1,
                    "metadata" : {
                      "clipSpeedAttribute" : false,
                      "default-scale" : "1",
                      "effectApplied" : "none",
                      "lockAspectRatio" : true
                    },
                    "animationTracks" : {

                    }
                  },
                  {
                    "id" : 236,
                    "_type" : "IMFile",
                    "src" : 27,
                    "trackNumber" : 0,
                    "trimStartSum" : 319,
                    "attributes" : {
                      "ident" : "Pasted Image"
                    },
                    "parameters" : {
                      "translation0" : -165.0,
                      "translation1" : -243.0,
                      "scale0" : {
                        "type" : "double",
                        "defaultValue" : 1.0,
                        "keyframes" : [
                          {
                            "endTime" : 168,
                            "time" : 149,
                            "value" : 1.5,
                            "duration" : 19
                          }
                        ]
                      },
                      "scale1" : {
                        "type" : "double",
                        "defaultValue" : 1.0,
                        "keyframes" : [
                          {
                            "endTime" : 168,
                            "time" : 149,
                            "value" : 1.5,
                            "duration" : 19
                          }
                        ]
                      },
                      "sourceCrop0" : 0.0,
                      "sourceCrop1" : 0.0,
                      "sourceCrop2" : 0.0,
                      "sourceCrop3" : 0.0,
                      "geometryCrop0" : 0.0,
                      "geometryCrop1" : 0.0,
                      "geometryCrop2" : 0.0,
                      "geometryCrop3" : 0.0
                    },
                    "effects" : [

                    ],
                    "start" : 2712,
                    "duration" : 166,
                    "mediaStart" : 0,
                    "mediaDuration" : 1,
                    "scalar" : 1,
                    "metadata" : {
                      "clipSpeedAttribute" : false,
                      "default-scale" : "1",
                      "effectApplied" : "none",
                      "lockAspectRatio" : true
                    },
                    "animationTracks" : {
                      "visual" : [
                        {
                          "endTime" : 168,
                          "duration" : 19,
                          "range" : [ 149, 19]
                        }
                      ]
                    }
                  }
                ],
                "transitions" : [
                  {
                    "name" : "Fade",
                    "duration" : 30,
                    "rightMedia" : 235,
                    "attributes" : {
                      "bypass" : false,
                      "reverse" : false,
                      "trivial" : false,
                      "useAudioPreRoll" : true,
                      "useVisualPreRoll" : true
                    }

                  },
                  {
                    "name" : "Fade",
                    "duration" : 30,
                    "leftMedia" : 236,
                    "attributes" : {
                      "bypass" : false,
                      "reverse" : false,
                      "trivial" : false,
                      "useAudioPreRoll" : true,
                      "useVisualPreRoll" : true
                    }

                  }
                ]
              },
              {
                "trackIndex" : 28,
                "medias" : [
                  {
                    "id" : 237,
                    "_type" : "IMFile",
                    "src" : 27,
                    "trackNumber" : 0,
                    "trimStartSum" : 0,
                    "attributes" : {
                      "ident" : "Pasted Image"
                    },
                    "parameters" : {
                      "translation0" : -165.0,
                      "translation1" : -243.0,
                      "sourceCrop0" : 0.0,
                      "sourceCrop1" : 0.0,
                      "sourceCrop2" : 0.0,
                      "sourceCrop3" : 0.0,
                      "geometryCrop0" : 0.0,
                      "geometryCrop1" : 0.0,
                      "geometryCrop2" : 0.0,
                      "geometryCrop3" : 0.0
                    },
                    "effects" : [

                    ],
                    "start" : 2363,
                    "duration" : 30,
                    "mediaStart" : 0,
                    "mediaDuration" : 1,
                    "scalar" : 1,
                    "metadata" : {
                      "clipSpeedAttribute" : false,
                      "default-scale" : "1",
                      "effectApplied" : "none",
                      "lockAspectRatio" : true
                    },
                    "animationTracks" : {

                    }
                  }
                ],
                "transitions" : [
                  {
                    "name" : "Fade",
                    "duration" : 30,
                    "rightMedia" : 237,
                    "attributes" : {
                      "bypass" : false,
                      "reverse" : false,
                      "trivial" : false,
                      "useAudioPreRoll" : true,
                      "useVisualPreRoll" : true
                    }

                  }
                ]
              },
              {
                "trackIndex" : 29,
                "medias" : [
                  {
                    "id" : 238,
                    "_type" : "IMFile",
                    "src" : 27,
                    "trackNumber" : 0,
                    "trimStartSum" : 0,
                    "attributes" : {
                      "ident" : "Pasted Image"
                    },
                    "parameters" : {
                      "translation0" : 21.0,
                      "translation1" : -243.0,
                      "sourceCrop0" : 0.0,
                      "sourceCrop1" : 0.0,
                      "sourceCrop2" : 0.0,
                      "sourceCrop3" : 0.0,
                      "geometryCrop0" : 0.0,
                      "geometryCrop1" : 0.0,
                      "geometryCrop2" : 0.0,
                      "geometryCrop3" : 0.0
                    },
                    "effects" : [

                    ],
                    "start" : 2363,
                    "duration" : 30,
                    "mediaStart" : 0,
                    "mediaDuration" : 1,
                    "scalar" : 1,
                    "metadata" : {
                      "clipSpeedAttribute" : false,
                      "default-scale" : "1",
                      "effectApplied" : "none",
                      "lockAspectRatio" : true
                    },
                    "animationTracks" : {

                    }
                  }
                ],
                "transitions" : [
                  {
                    "name" : "Fade",
                    "duration" : 30,
                    "rightMedia" : 238,
                    "attributes" : {
                      "bypass" : false,
                      "reverse" : false,
                      "trivial" : false,
                      "useAudioPreRoll" : true,
                      "useVisualPreRoll" : true
                    }

                  }
                ]
              },
              {
                "trackIndex" : 30,
                "medias" : [
                  {
                    "id" : 239,
                    "_type" : "IMFile",
                    "src" : 27,
                    "trackNumber" : 0,
                    "trimStartSum" : 0,
                    "attributes" : {
                      "ident" : "Pasted Image"
                    },
                    "parameters" : {
                      "translation0" : 209.0,
                      "translation1" : -243.0,
                      "sourceCrop0" : 0.0,
                      "sourceCrop1" : 0.0,
                      "sourceCrop2" : 0.0,
                      "sourceCrop3" : 0.0,
                      "geometryCrop0" : 0.0,
                      "geometryCrop1" : 0.0,
                      "geometryCrop2" : 0.0,
                      "geometryCrop3" : 0.0
                    },
                    "effects" : [

                    ],
                    "start" : 2363,
                    "duration" : 30,
                    "mediaStart" : 0,
                    "mediaDuration" : 1,
                    "scalar" : 1,
                    "metadata" : {
                      "clipSpeedAttribute" : false,
                      "default-scale" : "1",
                      "effectApplied" : "none",
                      "lockAspectRatio" : true
                    },
                    "animationTracks" : {

                    }
                  }
                ],
                "transitions" : [
                  {
                    "name" : "Fade",
                    "duration" : 30,
                    "rightMedia" : 239,
                    "attributes" : {
                      "bypass" : false,
                      "reverse" : false,
                      "trivial" : false,
                      "useAudioPreRoll" : true,
                      "useVisualPreRoll" : true
                    }

                  }
                ]
              }            ]
          }
        }
      ]
    },
    "trackAttributes" : [
      {
        "ident" : "",
        "audioMuted" : false,
        "videoHidden" : false,
        "magnetic" : false,
        "matte" : 0,
        "solo" : false,
        "metadata" : {
          "IsLocked" : "False",
          "trackHeight" : "25"
        }
      },
      {
        "ident" : "",
        "audioMuted" : false,
        "videoHidden" : false,
        "magnetic" : false,
        "matte" : 0,
        "solo" : false,
        "metadata" : {
          "IsLocked" : "False",
          "trackHeight" : "25"
        }
      },
      {
        "ident" : "",
        "audioMuted" : false,
        "videoHidden" : false,
        "magnetic" : false,
        "matte" : 0,
        "solo" : false,
        "metadata" : {
          "IsLocked" : "False",
          "trackHeight" : "25"
        }
      },
      {
        "ident" : "",
        "audioMuted" : false,
        "videoHidden" : false,
        "magnetic" : false,
        "matte" : 0,
        "solo" : false,
        "metadata" : {
          "IsLocked" : "False",
          "trackHeight" : "25"
        }
      },
      {
        "ident" : "",
        "audioMuted" : false,
        "videoHidden" : false,
        "magnetic" : false,
        "matte" : 0,
        "solo" : false,
        "metadata" : {
          "IsLocked" : "False",
          "trackHeight" : "25"
        }
      },
      {
        "ident" : "",
        "audioMuted" : false,
        "videoHidden" : false,
        "magnetic" : false,
        "matte" : 0,
        "solo" : false,
        "metadata" : {
          "IsLocked" : "False",
          "trackHeight" : "25"
        }
      },
      {
        "ident" : "",
        "audioMuted" : false,
        "videoHidden" : false,
        "magnetic" : false,
        "matte" : 0,
        "solo" : false,
        "metadata" : {
          "IsLocked" : "False",
          "trackHeight" : "25"
        }
      },
      {
        "ident" : "",
        "audioMuted" : false,
        "videoHidden" : false,
        "magnetic" : false,
        "matte" : 0,
        "solo" : false,
        "metadata" : {
          "IsLocked" : "False",
          "trackHeight" : "25"
        }
      },
      {
        "ident" : "",
        "audioMuted" : false,
        "videoHidden" : false,
        "magnetic" : false,
        "matte" : 0,
        "solo" : false,
        "metadata" : {
          "IsLocked" : "False",
          "trackHeight" : "25"
        }
      },
      {
        "ident" : "",
        "audioMuted" : false,
        "videoHidden" : false,
        "magnetic" : false,
        "matte" : 0,
        "solo" : false,
        "metadata" : {
          "IsLocked" : "False",
          "trackHeight" : "25"
        }
      },
      {
        "ident" : "",
        "audioMuted" : false,
        "videoHidden" : false,
        "magnetic" : false,
        "matte" : 0,
        "solo" : false,
        "metadata" : {
          "IsLocked" : "False",
          "trackHeight" : "25"
        }
      },
      {
        "ident" : "",
        "audioMuted" : false,
        "videoHidden" : false,
        "magnetic" : false,
        "matte" : 0,
        "solo" : false,
        "metadata" : {
          "IsLocked" : "False",
          "trackHeight" : "25"
        }
      },
      {
        "ident" : "",
        "audioMuted" : false,
        "videoHidden" : false,
        "magnetic" : false,
        "matte" : 0,
        "solo" : false,
        "metadata" : {
          "IsLocked" : "False",
          "trackHeight" : "25"
        }
      },
      {
        "ident" : "",
        "audioMuted" : false,
        "videoHidden" : false,
        "magnetic" : false,
        "matte" : 0,
        "solo" : false,
        "metadata" : {
          "IsLocked" : "False",
          "trackHeight" : "25"
        }
      },
      {
        "ident" : "",
        "audioMuted" : false,
        "videoHidden" : false,
        "magnetic" : false,
        "matte" : 0,
        "solo" : false,
        "metadata" : {
          "IsLocked" : "False",
          "trackHeight" : "25"
        }
      },
      {
        "ident" : "",
        "audioMuted" : false,
        "videoHidden" : false,
        "magnetic" : false,
        "matte" : 0,
        "solo" : false,
        "metadata" : {
          "IsLocked" : "False",
          "trackHeight" : "25"
        }
      },
      {
        "ident" : "",
        "audioMuted" : false,
        "videoHidden" : false,
        "magnetic" : false,
        "matte" : 0,
        "solo" : false,
        "metadata" : {
          "IsLocked" : "False",
          "trackHeight" : "25"
        }
      },
      {
        "ident" : "",
        "audioMuted" : false,
        "videoHidden" : false,
        "magnetic" : false,
        "matte" : 0,
        "solo" : false,
        "metadata" : {
          "IsLocked" : "False",
          "trackHeight" : "25"
        }
      },
      {
        "ident" : "",
        "audioMuted" : false,
        "videoHidden" : false,
        "magnetic" : false,
        "matte" : 0,
        "solo" : false,
        "metadata" : {
          "IsLocked" : "False",
          "trackHeight" : "25"
        }
      },
      {
        "ident" : "",
        "audioMuted" : false,
        "videoHidden" : false,
        "magnetic" : false,
        "matte" : 0,
        "solo" : false,
        "metadata" : {
          "IsLocked" : "False",
          "trackHeight" : "25"
        }
      },
      {
        "ident" : "",
        "audioMuted" : false,
        "videoHidden" : false,
        "magnetic" : false,
        "matte" : 0,
        "solo" : false,
        "metadata" : {
          "IsLocked" : "False",
          "trackHeight" : "25"
        }
      },
      {
        "ident" : "",
        "audioMuted" : false,
        "videoHidden" : false,
        "magnetic" : false,
        "matte" : 0,
        "solo" : false,
        "metadata" : {
          "IsLocked" : "False",
          "trackHeight" : "25"
        }
      },
      {
        "ident" : "",
        "audioMuted" : false,
        "videoHidden" : false,
        "magnetic" : false,
        "matte" : 0,
        "solo" : false,
        "metadata" : {
          "IsLocked" : "False",
          "trackHeight" : "25"
        }
      },
      {
        "ident" : "",
        "audioMuted" : false,
        "videoHidden" : false,
        "magnetic" : false,
        "matte" : 0,
        "solo" : false,
        "metadata" : {
          "IsLocked" : "False",
          "trackHeight" : "25"
        }
      },
      {
        "ident" : "",
        "audioMuted" : false,
        "videoHidden" : false,
        "magnetic" : false,
        "matte" : 0,
        "solo" : false,
        "metadata" : {
          "IsLocked" : "False",
          "trackHeight" : "25"
        }
      },
      {
        "ident" : "",
        "audioMuted" : false,
        "videoHidden" : false,
        "magnetic" : false,
        "matte" : 0,
        "solo" : false,
        "metadata" : {
          "IsLocked" : "False",
          "trackHeight" : "25"
        }
      },
      {
        "ident" : "",
        "audioMuted" : false,
        "videoHidden" : false,
        "magnetic" : false,
        "matte" : 0,
        "solo" : false,
        "metadata" : {
          "IsLocked" : "False",
          "trackHeight" : "25"
        }
      },
      {
        "ident" : "",
        "audioMuted" : false,
        "videoHidden" : false,
        "magnetic" : false,
        "matte" : 0,
        "solo" : false,
        "metadata" : {
          "IsLocked" : "False",
          "trackHeight" : "25"
        }
      },
      {
        "ident" : "",
        "audioMuted" : false,
        "videoHidden" : false,
        "magnetic" : false,
        "matte" : 0,
        "solo" : false,
        "metadata" : {
          "IsLocked" : "False",
          "trackHeight" : "25"
        }
      },
      {
        "ident" : "",
        "audioMuted" : false,
        "videoHidden" : false,
        "magnetic" : false,
        "matte" : 0,
        "solo" : false,
        "metadata" : {
          "IsLocked" : "False",
          "trackHeight" : "25"
        }
      },
      {
        "ident" : "",
        "audioMuted" : false,
        "videoHidden" : false,
        "magnetic" : false,
        "matte" : 0,
        "solo" : false,
        "metadata" : {
          "IsLocked" : "False",
          "trackHeight" : "25"
        }
      }
    ],
    "captionAttributes" : {
      "enabled" : true,
      "fontName" : "Arial",
      "fontSize" : 32,
      "backgroundColor" : [ 0, 0, 0, 204],
      "foregroundColor" : [ 255, 255, 255, 255],
      "lang" : "en",
      "alignment" : 0,
      "defaultFontSize" : true,
      "opacity" : 0.5,
      "backgroundEnabled" : true,
      "backgroundOnlyAroundText" : true
    },
    "gain" : 1.0,
    "legacyAttenuateAudioMix" : false,
    "backgroundColor" : [ 0, 0, 0, 255]
  },
  "metadata" : {
    "activeThemeId" : "e59eeb42-ccf0-4a36-bdf9-e630fdab686d",
    "audiateSessionId" : "",
    "firstMedia" : true,
    "hasNotifiedAboutHFRMedia" : false
  }
}
